<svg height="496pt" viewBox="-40 0 496 496" width="496pt" xmlns="http://www.w3.org/2000/svg"><path d="m72.320312 8.558594 31.441407 55.121094-22.320313 29.199218-1.921875 2.5625c-10.160156-10.320312-17.121093-23.441406-19.917969-37.601562l-.320312-1.359375c-2.160156-10.878907-1.921875-22.082031.796875-32.800781l.960937-3.757813c1.441407-5.683594 5.761719-10 11.28125-11.363281zm0 0" fill="#e6e9ed"/><path d="m83.359375 9.679688 44.640625 22.320312-24.238281 31.679688-31.441407-55.121094c1.28125-.398438 2.640626-.558594 4-.558594 2.398438 0 4.800782.558594 7.039063 1.679688zm0 0" fill="#969faa"/><path d="m355.921875 23.679688c2.71875 10.71875 2.957031 21.921874.796875 32.800781l-.320312 1.359375c-2.796876 14.160156-9.757813 27.28125-19.917969 37.601562l-24.242188-31.761718 31.441407-55.121094c5.519531 1.363281 9.839843 5.679687 11.28125 11.363281zm0 0" fill="#e6e9ed"/><path d="m343.679688 8.558594-31.441407 55.121094-24.238281-31.679688 44.640625-22.320312c2.238281-1.121094 4.640625-1.679688 7.039063-1.679688 1.359374 0 2.71875.160156 4 .558594zm0 0" fill="#969faa"/><path d="m56 367.199219.640625-.71875c12.238281 11.359375 26.480469 20.398437 42.160156 26.640625l44.558594 17.839844c21.679687 8.640624 42.082031 20.160156 60.800781 34.160156l3.839844 2.878906 3.839844-2.878906c18.71875-14 39.121094-25.519532 60.800781-34.160156l44.558594-17.839844c13.839843-5.601563 26.640625-13.28125 37.921875-22.882813 1.4375-1.199219 2.800781-2.476562 4.238281-3.757812l.640625.71875c29.761719 31.519531 48 74 48 120.800781h-400c0-23.359375 4.558594-45.761719 12.800781-66.160156 8.320313-20.398438 20.320313-38.878906 35.199219-54.640625zm0 0" fill="#838f9b"/><path d="m402.160156 249.121094c-6.640625-53.121094-27.28125-103.519532-59.839844-146.082032l-5.839843-7.597656-24.242188-31.761718-24.238281-31.679688-17.121094-5.679688c-4.558594-1.519531-9.039062-3.359374-13.359375-5.519531l-4.078125-2.082031c-14.082031-7.039062-29.679687-10.71875-45.441406-10.71875s-31.359375 3.679688-45.441406 10.71875l-4.078125 2.082031c-4.320313 2.160157-8.800781 4-13.359375 5.519531l-17.121094 5.679688-24.238281 31.679688-22.320313 29.199218-1.921875 2.5625-5.839843 7.597656c-16.238282 21.28125-29.601563 44.480469-39.601563 69.121094-10.078125 24.480469-16.957031 50.398438-20.238281 76.960938-.71875 5.597656-1.039063 11.277344-1.039063 16.878906 0 24.71875 6.640625 49.121094 19.519531 70.480469 6.71875 11.199219 14.960938 21.28125 24.320313 30 12.238281 11.359375 26.480469 20.398437 42.160156 26.640625l44.558594 17.839844c21.679687 8.640624 42.082031 20.160156 60.800781 34.160156l3.839844 2.878906 3.839844-2.878906c18.71875-14 39.121094-25.519532 60.800781-34.160156l44.558594-17.839844c13.839843-5.601563 26.640625-13.28125 37.921875-22.882813 1.4375-1.199219 2.800781-2.476562 4.238281-3.757812 9.359375-8.71875 17.601563-18.800781 24.320313-30 12.878906-21.359375 19.519531-45.761719 19.519531-70.480469 0-5.601562-.320313-11.28125-1.039063-16.878906zm0 0" fill="#aab2bd"/><path d="m253.441406 333.28125c13.757813-6.882812 25.4375-17.121094 33.839844-29.761719l.71875.480469-1.519531 16.320312c-3.679688 40.558594-37.679688 71.679688-78.480469 71.679688-20.398438 0-39.121094-7.761719-53.121094-20.640625-14.078125-12.800781-23.519531-30.71875-25.359375-51.039063l-1.519531-16.320312.71875-.480469c14.480469 17.679688 23.601562 24.640625 33.839844 29.761719 14.082031 7.039062 29.679687 10.71875 45.441406 10.71875s31.359375-3.679688 45.441406-10.71875zm0 0" fill="#ccd1d9"/><path d="m239.839844 126.398438c29.519531-2.878907 50.878906-9.4375 64.082031-14.636719l.078125.238281-17.039062 56.800781c-4.640626 15.359375-6.960938 31.359375-6.960938 47.4375 0 20.960938 4 41.761719 11.839844 61.28125l4.160156 10.480469-2.71875 5.441406c-1.761719 3.519532-3.761719 6.878906-6 10.078125-8.402344 12.640625-20.082031 22.878907-33.839844 29.761719-14.082031 7.039062-29.679687 10.71875-45.441406 10.71875s-31.359375-3.679688-45.441406-10.71875c-10.238282-5.121094-19.359375-12.082031-33.839844-29.761719-2.238281-3.199219-4.238281-6.558593-6-10.078125l-2.71875-5.441406 4.160156-10.480469c7.839844-19.519531 11.839844-40.320312 11.839844-61.28125 0-16.078125-2.320312-32.078125-6.960938-47.4375l-17.039062-56.800781.078125-.238281c13.203125 5.199219 34.5625 11.757812 64.082031 14.636719l-.160156 1.601562c10.640625 37.121094 16 75.601562 16 114.238281v5.761719l.640625 2.078125c4.800781-1.359375 10-2.078125 15.359375-2.078125s10.558594.71875 15.359375 2.078125l.640625-2.078125v-5.761719c0-38.636719 5.359375-77.117187 16-114.238281zm0 0" fill="#e6e9ed"/><path d="m224 248-.640625 2.078125c-4.800781-1.359375-10-2.078125-15.359375-2.078125s-10.558594.71875-15.359375 2.078125l-.640625-2.078125v-5.761719c0-38.636719-5.359375-77.117187-16-114.238281l.160156-1.601562c9.761719 1.042968 20.320313 1.601562 31.839844 1.601562s22.078125-.558594 31.839844-1.601562l.160156 1.601562c-10.640625 37.121094-16 75.601562-16 114.238281zm0 0" fill="#ff826e"/><path d="m144 144h16v16h-16zm0 0"/><path d="m256 144h16v16h-16zm0 0"/><path d="m121.375 171.105469c4.402344 14.636719 6.625 29.824219 6.625 45.117187 0 20.066406-3.785156 39.679688-11.230469 58.320313l-5.53125 13.832031 4.347657 8.671875c1.351562 2.707031 2.871093 5.320313 4.46875 7.890625l1.464843 16.085938c4.089844 45.023437 41.273438 78.976562 86.480469 78.976562s82.390625-33.953125 86.488281-78.976562l1.464844-16.09375c1.597656-2.5625 3.117187-5.175782 4.472656-7.890626l4.34375-8.671874-5.53125-13.832032c-7.453125-18.632812-11.238281-38.253906-11.238281-58.320312 0-15.292969 2.222656-30.480469 6.625-45.117188l16.046875-53.503906c8.527344-3.664062 13.121094-6.523438 13.65625-6.867188l-8.632813-13.46875c-.359374.230469-36.695312 22.742188-107.695312 22.742188s-107.335938-22.511719-107.695312-22.742188l-8.632813 13.46875c.527344.335938 5.128906 3.203126 13.65625 6.867188zm86.625 212.894531c-34.511719 0-63.273438-24.257812-69.566406-57.464844 6.214844 5.457032 13.09375 10.167969 20.519531 13.878906 15.152344 7.585938 32.109375 11.585938 49.046875 11.585938s33.894531-4 49.046875-11.574219c7.425781-3.714843 14.304687-8.425781 20.519531-13.882812-6.292968 33.199219-35.054687 57.457031-69.566406 57.457031zm71.296875-217.503906c-4.839844 16.144531-7.296875 32.863281-7.296875 49.71875 0 22.113281 4.167969 43.730468 12.375 64.257812l2.855469 7.160156-1.125 2.253907c-7.785157 15.578125-20.640625 28.441406-36.21875 36.226562-25.871094 12.941407-57.902344 12.941407-83.78125 0-15.578125-7.785156-28.441407-20.648437-36.21875-36.226562l-1.125-2.253907 2.855469-7.152343c8.214843-20.535157 12.382812-42.152344 12.382812-64.265625 0-16.855469-2.457031-33.582032-7.296875-49.710938l-12.632813-42.097656c11.832032 3.648438 26.832032 7.179688 45.1875 9.363281 9.75 35.328125 14.742188 71.796875 14.742188 108.46875v2.457031c-18.886719 7.71875-32 24.199219-32 43.304688h16c0-17.648438 17.945312-32 40-32s40 14.351562 40 32h16c0-19.097656-13.113281-35.574219-32-43.304688v-2.457031c0-36.679687 4.992188-73.140625 14.742188-108.46875 18.355468-2.183593 33.355468-5.722656 45.1875-9.363281zm-49.511719-31.238282c-8.96875 34.375-13.609375 69.734376-13.753906 105.292969-2.632812-.328125-5.296875-.550781-8.03125-.550781s-5.398438.222656-8.03125.550781c-.144531-35.558593-4.785156-70.917969-13.753906-105.292969 6.921875.4375 14.105468.742188 21.785156.742188s14.863281-.304688 21.785156-.742188zm0 0"/><path d="m216 280h16v16h-16zm0 0"/><path d="m184 280h16v16h-16zm0 0"/><path d="m370.246094 366.863281c7.730468-7.941406 14.601562-16.726562 20.320312-26.261719 16.578125-27.640624 23.503906-60.472656 19.503906-92.449218-6.8125-54.496094-28.039062-106.359375-61.40625-149.976563l-1.886718-2.464843c8.695312-10.511719 14.796875-22.855469 17.496094-36.335938l.261718-1.328125c2.394532-11.941406 2.097656-24.496094-.863281-36.292969l-.945313-3.777344c-2.628906-10.585937-12.101562-17.976562-23.015624-17.976562-3.664063 0-7.328126.863281-10.605469 2.503906l-41.722657 20.855469-14-4.664063c-4.191406-1.398437-8.328124-3.109374-12.261718-5.078124l-4.074219-2.03125c-30.292969-15.152344-67.800781-15.152344-98.09375 0l-4.074219 2.03125c-3.933594 1.976562-8.070312 3.679687-12.261718 5.078124l-14 4.664063-41.722657-20.855469c-3.277343-1.640625-6.941406-2.503906-10.605469-2.503906-10.914062 0-20.386718 7.390625-23.023437 17.976562l-.945313 3.777344c-2.960937 11.804688-3.257812 24.351563-.863281 36.292969l.261719 1.335937c2.695312 13.480469 8.800781 25.824219 17.496094 36.335938l-1.886719 2.464844c-33.367187 43.617187-54.59375 95.472656-61.40625 149.976562-4 31.976563 2.925781 64.808594 19.503906 92.449219 5.726563 9.535156 12.597657 18.320313 20.316407 26.261719-29.4375 33.570312-45.742188 76.25-45.742188 121.128906v8h416v-8c0-44.878906-16.304688-87.558594-45.753906-121.136719zm-21.390625-311.953125-.261719 1.335938c-1.929688 9.65625-5.9375 18.664062-11.730469 26.496094l-15.085937-19.734376 24.511718-42.894531c.335938.566407.757813 1.078125.925782 1.75l.945312 3.777344c2.382813 9.519531 2.632813 19.640625.695313 29.269531zm-48.625-20.078125 26.914062-13.457031-15.914062 27.847656zm-195.460938 14.382813-15.914062-27.847656 26.914062 13.457031zm-37.363281 7.03125-.261719-1.335938c-1.929687-9.628906-1.6875-19.75.695313-29.269531l.945312-3.785156c.167969-.664063.589844-1.175781.925782-1.742188l24.511718 42.902344-15.085937 19.738281c-5.792969-7.851562-9.800781-16.851562-11.730469-26.507812zm-45.605469 193.898437c6.464844-51.6875 26.589844-100.871093 58.230469-142.242187l52.824219-69.085938 14.824219-4.9375c4.914062-1.640625 9.746093-3.648437 14.359374-5.949218l4.074219-2.035157c25.871094-12.941406 57.902344-12.941406 83.78125 0l4.074219 2.035157c4.617188 2.300781 9.445312 4.308593 14.359375 5.949218l14.824219 4.9375 52.824218 69.085938c31.640626 41.371094 51.777344 90.554687 58.230469 142.242187 3.554688 28.441407-2.605469 57.648438-17.351562 82.230469-14.398438 23.992188-36.632813 42.929688-62.597657 53.3125l-44.539062 17.816406c-21.964844 8.785156-42.71875 20.390625-61.710938 34.503906-18.992187-14.113281-39.742187-25.71875-61.710937-34.503906l-44.535156-17.816406c-25.96875-10.382812-48.203125-29.320312-62.601563-53.3125-14.753906-24.589844-20.921875-53.789062-17.359375-82.230469zm-5.617187 229.855469c1.777344-37.910156 16.34375-73.703125 41.320312-102.304688 11.496094 9.496094 24.398438 17.289063 38.3125 22.847657l44.535156 17.816406c21.023438 8.410156 40.878907 19.5625 59.007813 33.160156l8.640625 6.480469 8.640625-6.488281c18.128906-13.589844 37.984375-24.75 59.007813-33.160157l44.535156-17.816406c13.90625-5.558594 26.808594-13.359375 38.3125-22.847656 24.976562 28.609375 39.535156 64.390625 41.320312 102.304688h-383.632812zm0 0"/></svg>