<svg height="496pt" viewBox="-9 0 496 496" width="496pt" xmlns="http://www.w3.org/2000/svg"><path d="m461.992188 486.558594.960937 1.441406h-197.601563c24.800782 0 49.199219-4.960938 71.679688-14.238281 22.5625-9.363281 43.199219-23.042969 60.800781-40.640625 13.121094-13.121094 23.441407-28.640625 30.398438-45.601563.960937-2.320312 1.921875-4.71875 2.722656-7.121093v3.601562c0 36.480469 10.800781 72.238281 31.039063 102.558594zm0 0" fill="#cf9e76"/><path d="m212.550781 488h-197.597656l.957031-1.441406c20.242188-30.320313 31.042969-66.078125 31.042969-102.558594v-3.601562c.800781 2.402343 1.757813 4.800781 2.71875 7.121093 6.960937 16.960938 17.28125 32.480469 30.398437 45.601563 35.121094 35.117187 82.800782 54.878906 132.480469 54.878906zm0 0" fill="#cf9e76"/><path d="m102.953125 8c-39.761719 0-72 32.238281-72 72 0 35.28125 25.277344 64.480469 58.800781 70.71875 5.199219-11.199219 11.679688-21.757812 19.277344-31.359375 6.402344-8.238281 13.601562-15.757813 21.441406-22.640625 3.757813-3.277344 7.679688-6.398438 11.757813-9.359375 4.882812-3.597656 10-6.878906 15.28125-9.839844 5.359375-3.039062 10.878906-5.839843 16.558593-8.238281-5.199218-34.640625-35.039062-61.28125-71.117187-61.28125zm0 0" fill="#b27946"/><path d="m142.953125 80c0 2.558594-.320313 4.960938-.722656 7.359375-4.078125 2.960937-8 6.082031-11.757813 9.359375-7.839844 6.882812-15.039062 14.402344-21.441406 22.640625-2 .320313-4 .640625-6.078125.640625-22.082031 0-40-17.921875-40-40s17.917969-40 40-40c22.078125 0 40 17.921875 40 40zm0 0" fill="#dfb28b"/><path d="m374.953125 8c-36.082031 0-65.921875 26.640625-71.121094 61.28125 5.679688 2.398438 11.199219 5.199219 16.558594 8.238281l15.28125 9.839844c4.082031 2.960937 8 6.082031 11.761719 9.359375 7.839844 6.882812 15.039062 14.402344 21.4375 22.640625 7.601562 9.601563 14.082031 20.160156 19.28125 31.359375 33.519531-6.238281 58.800781-35.4375 58.800781-70.71875 0-39.761719-32.242187-72-72-72zm0 0" fill="#b27946"/><path d="m374.953125 40c22.078125 0 40 17.921875 40 40s-17.921875 40-40 40c-2.082031 0-4.082031-.320312-6.082031-.640625-6.398438-8.238281-13.597656-15.757813-21.4375-22.640625-3.761719-3.277344-7.679688-6.398438-11.761719-9.359375-.398437-2.398437-.71875-4.800781-.71875-7.359375 0-22.078125 17.917969-40 40-40zm0 0" fill="#dfb28b"/><path d="m426.871094 276.71875-6.238282-14c-9.121093-20.398438-15.199218-41.917969-18.242187-64.078125-2.320313-17.039063-7.117187-33.121094-14.238281-47.921875-5.199219-11.199219-11.679688-21.757812-19.28125-31.359375-6.398438-8.238281-13.597656-15.757813-21.4375-22.640625-3.761719-3.277344-7.679688-6.398438-11.761719-9.359375l-15.28125-9.839844c-5.359375-3.039062-10.878906-5.839843-16.558594-8.238281-20-8.5625-41.921875-13.28125-64.878906-13.28125-22.960937 0-44.882813 4.71875-64.882813 13.28125-5.679687 2.398438-11.199218 5.199219-16.558593 8.238281-5.28125 2.960938-10.398438 6.242188-15.28125 9.839844-4.078125 2.960937-8 6.082031-11.757813 9.359375-7.839844 6.882812-15.039062 14.402344-21.441406 22.640625-7.597656 9.601563-14.078125 20.160156-19.277344 31.359375-7.121094 14.800781-11.921875 30.882812-14.242187 47.921875-3.039063 22.160156-9.121094 43.679687-18.238281 64.078125l-6.242188 14c-7.917969 18-12.078125 37.441406-12.078125 57.121094 0 16.082031 2.71875 31.839844 8 46.558594.800781 2.402343 1.757813 4.800781 2.71875 7.121093 6.960937 16.960938 17.28125 32.480469 30.398437 45.601563 35.121094 35.117187 82.800782 54.878906 132.480469 54.878906h52.800781c24.800782 0 49.199219-4.960938 71.679688-14.238281 22.5625-9.363281 43.199219-23.042969 60.800781-40.640625 13.121094-13.121094 23.441407-28.640625 30.398438-45.601563.960937-2.320312 1.921875-4.71875 2.722656-7.121093 5.277344-14.71875 8-30.476563 8-46.558594 0-19.679688-4.160156-39.121094-12.082031-57.121094zm0 0" fill="#ecc19c"/><path d="m262.953125 224-.082031.558594c-1.757813-.398438-3.597656-.558594-5.519532-.558594h-36.800781c-1.917969 0-3.757812.160156-5.519531.558594l-.078125-.558594-1.199219-6c-9.761718-48.960938-28.320312-95.679688-54.800781-138l-1.441406-2.480469c5.359375-3.039062 10.878906-5.839843 16.558593-8.238281 20-8.5625 41.921876-13.28125 64.882813-13.28125 22.957031 0 44.878906 4.71875 64.878906 13.28125 5.679688 2.398438 11.199219 5.199219 16.558594 8.238281l-1.4375 2.480469c-26.480469 42.320312-45.042969 89.039062-54.800781 138zm0 0" fill="#ecc19c"/><path d="m212.953125 291.519531c6.320313 7.921875 15.917969 12.480469 26 12.480469 10.078125 0 19.679687-4.558594 26-12.480469l15.519531-19.441406c2.71875-3.4375 4.640625-7.4375 5.679688-11.679687 29.039062 16.5625 48.800781 47.679687 48.800781 83.601562v16c0 53.039062-42.960937 96-96 96-53.042969 0-96-42.960938-96-96v-16c0-35.921875 19.757813-67.039062 48.800781-83.601562 1.039063 4.242187 2.957032 8.242187 5.679688 11.679687zm0 0" fill="#e6e9ed"/><path d="m302.953125 184h64c0 17.679688-14.320313 32-32 32s-32-14.320312-32-32zm0 0" fill="#b27946"/><path d="m110.953125 184h64c0 17.679688-14.320313 32-32 32s-32-14.320312-32-32zm0 0" fill="#b27946"/><path d="m286.152344 260.398438c-1.039063 4.242187-2.960938 8.242187-5.679688 11.679687l-15.519531 19.441406c-6.320313 7.921875-15.921875 12.480469-26 12.480469-10.082031 0-19.679687-4.558594-26-12.480469l-15.519531-19.441406c-2.722656-3.4375-4.640625-7.4375-5.679688-11.679687-.5625-2.238282-.800781-4.476563-.800781-6.796876 0-8.160156 3.359375-15.523437 8.640625-20.960937 4.160156-4.082031 9.4375-6.960937 15.4375-8.082031 1.761719-.398438 3.601562-.558594 5.519531-.558594h36.800781c1.921876 0 3.761719.160156 5.519532.558594 13.679687 2.5625 24.082031 14.640625 24.082031 29.042968 0 2.320313-.242187 4.558594-.800781 6.796876zm0 0" fill="#838f9b"/><path d="m468.671875 482.160156c-19.441406-29.167968-29.71875-63.113281-29.71875-98.160156v-2.359375c5.167969-15.214844 8-31.289063 8-47.824219 0-20.914062-4.304687-41.199218-12.800781-60.304687l-6.230469-14.023438c-8.761719-19.703125-14.675781-40.519531-17.585937-61.878906-1.976563-14.511719-5.878907-28.363281-11.214844-41.449219 32.855468-10.382812 55.832031-40.953125 55.832031-76.160156 0-44.113281-35.890625-80-80-80-35.984375 0-67.425781 24.601562-76.921875 58.59375-18.535156-6.808594-38.429688-10.59375-59.078125-10.59375s-40.546875 3.785156-59.082031 10.59375c-9.496094-33.992188-40.933594-58.59375-76.917969-58.59375-44.113281 0-80 35.886719-80 80 0 35.207031 22.976563 65.777344 55.832031 76.152344-5.328125 13.085937-9.234375 26.925781-11.21875 41.449218-2.910156 21.359376-8.832031 42.175782-17.582031 61.878907l-6.230469 14.023437c-8.496094 19.113282-12.800781 39.398438-12.800781 60.3125 0 16.535156 2.832031 32.609375 8 47.824219v2.359375c0 35.046875-10.28125 68.992188-29.722656 98.160156l-9.230469 13.839844h477.894531zm-93.71875-466.160156c35.285156 0 64 28.710938 64 64 0 28.855469-19.265625 53.855469-46.578125 61.535156-2.582031-4.949218-5.359375-9.765625-8.382812-14.421875 22.152343-4.234375 38.960937-23.738281 38.960937-47.113281 0-26.472656-21.527344-48-48-48-23.960937 0-43.824219 17.664062-47.378906 40.648438-4.757813-2.855469-9.679688-5.449219-14.710938-7.839844 6.90625-28.199219 32.617188-48.808594 62.089844-48.808594zm-31.648437 67.425781c-.136719-1.160156-.351563-2.394531-.351563-3.425781 0-17.648438 14.351563-32 32-32s32 14.351562 32 32-14.351563 32-32 32c-.738281 0-1.441406-.152344-2.160156-.230469-8.679688-10.59375-18.609375-20.074219-29.488281-28.34375zm-34.136719-2.617187c-25.328125 41.792968-43.121094 87.222656-52.769531 135.191406h-34.902344c-9.648438-47.976562-27.441406-93.398438-52.769532-135.191406 21.273438-10.730469 45.152344-16.808594 70.226563-16.808594 25.070313 0 48.949219 6.078125 70.214844 16.808594zm-70.214844 215.191406c-7.722656 0-14.921875-3.464844-19.753906-9.488281l-15.511719-19.398438c-3.054688-3.816406-4.734375-8.617187-4.734375-13.496093 0-11.921876 9.695313-21.617188 21.613281-21.617188h36.777344c11.914062 0 21.609375 9.695312 21.609375 21.617188 0 4.886718-1.679687 9.679687-4.738281 13.503906l-15.511719 19.390625c-4.832031 6.023437-12.03125 9.488281-19.75 9.488281zm-200-216c0-35.289062 28.710937-64 64-64 29.472656 0 55.183594 20.609375 62.085937 48.808594-5.03125 2.398437-9.949218 4.984375-14.710937 7.839844-3.550781-22.984376-23.417969-40.648438-47.375-40.648438-26.472656 0-48 21.527344-48 48 0 23.375 16.808594 42.878906 38.957031 47.121094-3.023437 4.648437-5.796875 9.472656-8.382812 14.421875-27.3125-7.6875-46.574219-32.6875-46.574219-61.542969zm66.160156 31.769531c-.722656.078125-1.425781.230469-2.160156.230469-17.648437 0-32-14.351562-32-32s14.351563-32 32-32 32 14.351562 32 32c0 1.03125-.21875 2.265625-.351563 3.425781-10.882812 8.269531-20.808593 17.75-29.488281 28.34375zm-75.730469 368.230469c12.203126-21.246094 20.128907-44.488281 23.578126-68.625 6.039062 9.816406 13.128906 19.074219 21.488281 27.425781 17.703125 17.703125 38.222656 31.542969 60.535156 41.199219zm183.144532 0c-47.886719 0-92.910156-18.648438-126.773438-52.511719-25.019531-25.023437-38.800781-58.289062-38.800781-93.671875 0-18.65625 3.839844-36.761718 11.414063-53.808594l6.242187-14.023437c9.367187-21.089844 15.695313-43.367187 18.816406-66.214844 6.40625-46.976562 33.621094-86.832031 71.4375-110.992187 24.457031 40.261718 41.617188 84.039062 50.929688 130.269531-13.417969 5.753906-22.839844 19.074219-22.839844 34.570313 0 .910156.167969 1.808593.230469 2.710937-29.871094 19.03125-48.230469 52.113281-48.230469 87.671875h16c0-28.558594 14.070313-55.152344 37.117187-71.566406.9375 1.621094 1.953126 3.199218 3.128907 4.671875l15.511719 19.398437c6.183593 7.71875 14.753906 12.808594 24.242187 14.664063v57.464843c-31.121094 4.558594-46.464844 34.40625-47.160156 35.78125l14.304687 7.179688c.140625-.265625 14.328125-27.59375 40.855469-27.59375s40.710937 27.328125 40.839844 27.574219l14.3125-7.160157c-.691407-1.367187-16.035157-31.222656-47.152344-35.773437v-57.464844c9.488281-1.855469 18.0625-6.953125 24.238281-14.671875l15.511719-19.398437c1.175781-1.472657 2.191406-3.058594 3.128906-4.671875 23.046875 16.414062 37.121094 43.007812 37.121094 71.566406v16c0 48.519531-39.480469 88-88 88s-88-39.480469-88-88h-16c0 57.34375 46.65625 104 104 104s104-46.65625 104-104v-16c0-35.558594-18.359375-68.640625-48.234375-87.671875.066406-.914063.234375-1.800781.234375-2.710937 0-15.496094-9.425781-28.816407-22.839844-34.570313 9.3125-46.230469 26.480469-90.007813 50.925781-130.269531 37.816407 24.160156 65.03125 64.015625 71.441407 110.992187 3.113281 22.847657 9.449219 45.132813 18.816406 66.214844l6.230469 14.023437c7.585937 17.046876 11.425781 35.152344 11.425781 53.808594 0 35.382813-13.785156 68.65625-38.800781 93.671875-33.863282 33.863281-78.886719 52.511719-126.777344 52.511719zm130.402344 0c22.300781-9.65625 42.832031-23.496094 60.535156-41.199219 8.351562-8.351562 15.4375-17.609375 21.488281-27.425781 3.4375 24.136719 11.367187 47.378906 23.574219 68.625zm0 0"/><path d="m182.953125 184v-8h-80v8c0 22.054688 17.941406 40 40 40 22.054687 0 40-17.945312 40-40zm-62.632813 8h45.253907c-3.300781 9.3125-12.199219 16-22.628907 16-10.433593 0-19.320312-6.6875-22.625-16zm0 0"/><path d="m294.953125 184c0 22.054688 17.941406 40 40 40 22.054687 0 40-17.945312 40-40v-8h-80zm62.632813 8c-3.304688 9.3125-12.203126 16-22.632813 16-10.433594 0-19.328125-6.6875-22.632813-16zm0 0"/></svg>