<svg height="490pt" viewBox="-37 0 490 490" width="490pt" xmlns="http://www.w3.org/2000/svg"><path d="m113.28125 415.761719-1.28125.238281-8.960938-6.71875c-7.199218-5.441406-12.960937-12.402344-16.960937-20.320312-3.917969-7.839844-6.078125-16.640626-6.078125-25.761719 0-9.839844 2.558594-19.4375 7.28125-27.917969l-5.359375-5.359375c-11.441406-11.441406-17.921875-27.042969-17.921875-43.28125 0-19.28125 9.039062-37.441406 24.480469-49.039063l7.519531-5.601562 1.359375-.160156c2.160156 16.800781 7.121094 33.121094 14.71875 48.320312l31.921875 63.839844 6.078125 12.238281c5.441406 10.960938 13.84375 19.921875 23.921875 26.082031 10 6.238282 21.761719 9.679688 34 9.679688 24.480469 0 46.960938-13.839844 57.921875-35.761719l6.078125-12.238281 31.921875-63.839844c7.597656-15.199218 12.558594-31.519531 14.71875-48.320312l1.359375.160156 7.519531 5.601562c15.441407 11.597657 24.480469 29.757813 24.480469 49.039063 0 16.238281-6.480469 31.839844-17.921875 43.28125l-5.359375 5.359375c4.722656 8.480469 7.28125 18.078125 7.28125 27.917969 0 9.121093-2.160156 17.921875-6.078125 25.761719-4 7.917968-9.761719 14.878906-16.960937 20.320312l-8.960938 6.71875-1.28125-.238281c-1.4375 6.238281-4.238281 12-8.078125 16.878906-5.921875 7.597656-14.320313 13.28125-24.160156 15.757813-20.160157 5.042968-39.039063 14-55.601563 26.402343l-6.878906 5.199219-6.878906-5.199219c-16.5625-12.402343-35.441406-21.359375-55.601563-26.402343-9.839843-2.476563-18.238281-8.160157-24.160156-15.757813-3.839844-4.878906-6.640625-10.640625-8.078125-16.878906zm0 0" fill="#e6e9ed"/><g fill="#b27946"><path d="m400 136 2.078125.960938c-2.636719 5.4375-6.238281 10.398437-10.476563 14.640624-10.160156 10.160157-24.082031 16.398438-39.601562 16.398438h-38.480469c-1.839843-5.921875-3.917969-11.761719-6.480469-17.441406-.960937-2.238282-2-4.480469-3.117187-6.71875l-3.121094-6.238282 3.199219-1.601562zm0 0"/><path d="m408 112c0 9.039062-2.078125 17.441406-5.921875 24.960938l-2.078125-.960938h-96l4.960938-4.960938c7.039062-7.039062 11.039062-16.640624 11.039062-26.640624l16-.078126 64-.320312c4.398438 0 8 3.601562 8 8zm0 0"/><path d="m115.199219 137.601562-3.121094 6.238282c-1.117187 2.238281-2.15625 4.480468-3.117187 6.71875-2.5625 5.679687-4.640626 11.519531-6.480469 17.441406h-38.480469c-15.519531 0-29.441406-6.238281-39.601562-16.398438-4.238282-4.242187-7.839844-9.203124-10.476563-14.640624l2.078125-.960938h96zm0 0"/><path d="m112 136h-96l-2.078125.960938c-3.84375-7.519532-5.921875-15.921876-5.921875-24.960938 0-4.398438 3.601562-8 8-8l64 .320312 16 .078126c0 10 4 19.601562 11.039062 26.640624zm0 0"/></g><path d="m376 54c0 8.078125-2.078125 15.839844-6 22.640625-3.839844 6.800781-9.359375 12.640625-16.320312 16.71875l-17.679688 10.640625v.320312l-16 .078126c0-14.796876-8.71875-28.320313-22.320312-34.320313l-13.121094-5.839844 16.960937-.238281c11.359375 0 21.679688-6.398438 26.71875-16.480469 2.082031-4.238281 3.121094-8.800781 3.121094-13.359375 0-5.839844-1.679687-11.601562-4.960937-16.558594l-6.398438-9.601562h10c25.441406 0 46 20.558594 46 46zm0 0" fill="#e6e9ed"/><path d="m238.800781 232 9.199219-40h19.121094c18.078125 0 34.878906-9.039062 44.878906-24h1.519531c4.242188 14.160156 6.480469 29.039062 6.480469 44 0 6.640625-.398438 13.28125-1.359375 19.839844-2.160156 16.800781-7.121094 33.121094-14.71875 48.320312l-31.921875 63.839844v-32c0-8.800781-7.199219-16-16-16h-32l7.359375-32zm0 0" fill="#cf9e76"/><path d="m300.800781 137.601562 3.121094 6.238282c1.117187 2.238281 2.15625 4.480468 3.117187 6.71875l-3.039062 1.441406-56 16-23.839844-119.28125c20.878906 1.761719 41.28125 6.960938 60.398438 15.519531l13.121094 5.839844c13.601562 6 22.320312 19.523437 22.320312 34.320313 0 10-4 19.601562-11.039062 26.640624l-4.960938 4.960938zm0 0" fill="#cf9e76"/><path d="m313.519531 168h-1.519531c-10 14.960938-26.800781 24-44.878906 24h-19.121094v-24l56-16 3.039062-1.441406c2.5625 5.679687 4.640626 11.519531 6.480469 17.441406zm0 0" fill="#656d78"/><path d="m272 344-6.078125 12.238281c-10.960937 21.921875-33.441406 35.761719-57.921875 35.761719-12.238281 0-24-3.441406-34-9.679688-10.078125-6.160156-18.480469-15.121093-23.921875-26.082031l-6.078125-12.238281v-32c0-8.800781 7.199219-16 16-16h96c8.800781 0 16 7.199219 16 16zm0 0" fill="#838f9b"/><path d="m246.160156 200-7.359375 32h-61.601562l-9.199219-40v-24l23.839844-119.28125c5.359375-.480469 10.71875-.71875 16.160156-.71875s10.800781.238281 16.160156.71875l23.839844 119.28125v24zm0 0" fill="#b27946"/><path d="m238.800781 232-7.441406 32h-46.71875l-7.441406-32zm0 0" fill="#b27946"/><path d="m231.359375 264-7.359375 32h-32l-7.359375-32zm0 0" fill="#b27946"/><path d="m184.640625 264 7.359375 32h-32c-8.800781 0-16 7.199219-16 16v32l-31.921875-63.839844c-7.597656-15.199218-12.558594-31.519531-14.71875-48.320312-.960937-6.558594-1.359375-13.199219-1.359375-19.839844 0-14.960938 2.238281-29.839844 6.480469-44h1.519531c10 14.960938 26.800781 24 44.878906 24h19.121094l9.199219 40zm0 0" fill="#cf9e76"/><path d="m115.199219 137.601562-3.199219-1.601562-4.960938-4.960938c-7.039062-7.039062-11.039062-16.640624-11.039062-26.640624 0-14.796876 8.71875-28.320313 22.320312-34.320313l13.121094-5.839844c19.117188-8.558593 39.519532-13.757812 60.398438-15.519531l-23.839844 119.28125-56-16-3.039062-1.441406c.960937-2.238282 2-4.480469 3.117187-6.71875zm0 0" fill="#cf9e76"/><path d="m168 168v24h-19.121094c-18.078125 0-34.878906-9.039062-44.878906-24h-1.519531c1.839843-5.921875 3.917969-11.761719 6.480469-17.441406l3.039062 1.441406zm0 0" fill="#656d78"/><path d="m131.441406 64.238281-13.121094 5.839844c-13.601562 6-22.320312 19.523437-22.320312 34.320313l-16-.078126v-.320312l-17.679688-10.640625c-6.960937-4.078125-12.480468-9.917969-16.320312-16.71875-3.921875-6.800781-6-14.5625-6-22.640625 0-25.441406 20.558594-46 46-46h10l-6.398438 9.601562c-3.28125 4.957032-4.960937 10.71875-4.960937 16.558594 0 4.558594 1.039063 9.121094 3.121094 13.359375 5.039062 10.082031 15.359375 16.480469 26.71875 16.480469zm0 0" fill="#e6e9ed"/><path d="m416 112.039062c0-4.285156-1.671875-8.3125-4.710938-11.335937-3.023437-3.007813-7.023437-4.664063-11.296874-4.664063-.023438 0-.046876 0-.070313 0l-36.320313.175782c12.726563-10.152344 20.398438-25.765625 20.398438-42.238282 0-29.769531-24.207031-53.976562-53.976562-53.976562h-24.976563l14.679687 22.023438c4.335938 6.503906 4.859376 14.898437 1.363282 21.898437-3.722656 7.445313-11.210938 12.078125-19.65625 12.078125l-15.363282.222656c-24.78125-10.742187-51.03125-16.222656-78.070312-16.222656-27.046875 0-53.296875 5.480469-78.078125 16.222656l-15.464844-.222656c-8.335937 0-15.824219-4.632812-19.546875-12.078125-3.503906-7-2.980468-15.386719 1.363282-21.898437l14.679687-22.023438h-24.976563c-29.769531 0-53.976562 24.207031-53.976562 53.976562 0 16.472657 7.671875 32.09375 20.398438 42.238282l-36.328126-.175782c-.023437 0-.046874 0-.070312 0-4.265625 0-8.265625 1.65625-11.289062 4.664063-3.039063 3.023437-4.710938 7.050781-4.710938 11.335937 0 35.273438 28.6875 63.960938 63.960938 63.960938h28.175781c-2.722657 11.800781-4.136719 23.902344-4.136719 36 0 5.136719.3125 10.273438.808594 15.390625l-5.113282 3.832031c-17.34375 13.007813-27.695312 33.722656-27.695312 55.410156 0 18.496094 7.199219 35.886719 20.289062 48.96875l1.414063 1.414063c-3.597656 8.25-5.703125 17.152344-5.703125 26.183594 0 20.535156 9.808594 40.160156 26.238281 52.488281l8.523438 6.382812c5.550781 16.554688 19.160156 29.65625 36.855469 34.082032 19.167968 4.792968 36.886718 13.222656 52.6875 25.070312l11.695312 8.777344 11.695312-8.777344c15.800782-11.847656 33.527344-20.285156 52.6875-25.070312 17.695313-4.433594 31.304688-17.527344 36.855469-34.082032l8.523438-6.390624c16.429687-12.320313 26.238281-31.945313 26.238281-52.480469 0-9.03125-2.105469-17.933594-5.695312-26.183594l1.414062-1.414063c13.082031-13.082031 20.28125-30.472656 20.28125-48.96875 0-21.679687-10.351562-42.394531-27.695312-55.402343l-5.113282-3.832031c.496094-5.125.808594-10.261719.808594-15.398438 0-12.097656-1.414062-24.199219-4.136719-36h28.175781c35.273438 0 63.960938-28.6875 63.960938-63.960938zm-16 0c0 5.601563-1.015625 10.960938-2.792969 15.960938h-75.925781c2.917969-4.800781 4.964844-10.046875 5.941406-15.609375zm-88 99.960938c0 22.320312-5.28125 44.664062-15.257812 64.625l-16.902344 33.800781c-.824219-12.488281-11.144532-22.425781-23.839844-22.425781h-21.945312l20.304687-88h12.792969c15.769531 0 30.648437-5.976562 41.945312-16.414062 1.878906 9.359374 2.902344 18.878906 2.902344 28.414062zm-9.464844-51.265625c.554688 1.464844 1.082032 2.945313 1.59375 4.425781-8.632812 11.800782-22.273437 18.839844-36.96875 18.839844h-11.28125l.082032-9.953125zm-104.167968 127.265625-3.695313-16h26.65625l-3.695313 16zm26.648437-32h-34.039063l-3.695312-16h41.421875zm-64.96875-72h-11.207031c-14.703125 0-28.34375-7.039062-36.976563-18.839844.503907-1.480468 1.03125-2.960937 1.59375-4.425781l46.648438 13.328125zm-53.144531-.414062c11.296875 10.4375 26.175781 16.414062 41.9375 16.414062h12.984375l20.128906 88h-21.953125c-12.695312 0-23.015625 9.9375-23.839844 22.425781l-16.902344-33.800781c-9.976562-19.960938-15.257812-42.304688-15.257812-64.625 0-9.535156 1.023438-19.054688 2.902344-28.414062zm45.097656 128.414062c0-4.40625 3.59375-8 8-8h96c4.40625 0 8 3.59375 8 8v30.105469l-5.273438 10.535156c-9.664062 19.34375-29.101562 31.359375-50.726562 31.359375s-41.0625-12.015625-50.726562-31.351562l-5.273438-10.542969zm183.40625-260.929688c5.503906-11.007812 5.265625-24.015624-.460938-34.757812 18.621094 2.421875 33.054688 18.382812 33.054688 37.664062 0 13.253907-7.0625 25.734376-18.441406 32.558594l-16.382813 9.832032-5.96875.03125c-1.824219-10.125-6.976562-19.292969-14.597656-26.054688 9.773437-2.96875 18.054687-9.785156 22.796875-19.273438zm-40.980469 26.3125c10.671875 4.753907 17.574219 15.359376 17.574219 27.042969 0 7.804688-3.023438 15.140625-8.488281 20.703125l-8.351563-16.714844-14.3125 7.160157 15.183594 30.378906-42.023438 12.007813-19.878906-100.03125c16.207032 2.359374 32 6.886718 47.175782 13.628906zm-76.9375-21.136718 22.511719 112.546875v22.296875l-.207031.910156h-23.792969v16h20.097656l-3.699218 16h-48.804688l-3.699219-16h20.105469v-16h-23.792969l-.207031-.910156v-22.296875l22.511719-112.546875c3.152343-.167969 6.3125-.246094 9.488281-.246094s6.335938.078125 9.488281.246094zm-35.632812 1.683594-20 100-41.886719-11.96875 15.183594-30.375-14.3125-7.160157-8.351563 16.710938c-5.464843-5.570313-8.488281-12.90625-8.488281-20.703125 0-11.679688 6.894531-22.296875 17.574219-27.042969l13.128906-5.832031c15.160156-6.742188 30.953125-11.269532 47.152344-13.628906zm-115.414063 28.597656c-11.378906-6.824219-18.441406-19.296875-18.441406-32.550782 0-19.273437 14.433594-35.242187 33.054688-37.65625-5.726563 10.742188-5.976563 23.742188-.460938 34.757813 4.75 9.496094 13.046875 16.320313 22.789062 19.273437-7.613281 6.761719-12.765624 15.929688-14.589843 26.046876l-5.96875-.03125zm22.335938 25.863281c.976562 5.5625 3.023437 10.808594 5.941406 15.609375h-75.925781c-1.777344-5-2.792969-10.359375-2.792969-15.960938zm-24.816406 47.609375c-14.160157 0-26.871094-6.207031-35.65625-16h74.886718c-2.4375 5.214844-4.597656 10.550781-6.464844 16zm280.039062 126.632812c0 13.457032-5.007812 26.109376-14.054688 35.960938l-11.546874-15.394531-12.796876 9.601562 12.476563 16.640625c6.402344 8.527344 9.921875 19.09375 9.921875 29.757813 0 14.023437-6.089844 27.433593-16.398438 36.769531-.882812-8.402344-3.65625-16.472656-8.386718-23.5625l-8.558594-12.839844-13.3125 8.875 8.558594 12.839844c3.984375 5.984375 6.097656 12.941406 6.097656 20.132812 0 16.683594-11.3125 31.171876-27.496094 35.21875-21.238281 5.3125-40.894531 14.664063-58.40625 27.800782l-2.097656 1.566406-2.097656-1.566406c-17.511719-13.136719-37.167969-22.488282-58.40625-27.800782-16.183594-4.058593-27.496094-18.535156-27.496094-35.21875 0-7.191406 2.113281-14.148437 6.097656-20.132812l8.558594-12.839844-13.3125-8.875-8.558594 12.839844c-4.730468 7.097656-7.511718 15.160156-8.386718 23.570312-10.308594-9.351562-16.398438-22.761718-16.398438-36.777343 0-10.664063 3.519531-21.230469 9.921875-29.757813l12.476563-16.640625-12.796876-9.601562-11.546874 15.394531c-9.046876-9.851562-14.054688-22.515625-14.054688-35.960938 0-15.9375 7.328125-31.121093 19.609375-41.175781 2.832031 13.269531 7.269531 26.199219 13.335937 38.320313l38.007813 76.023437c12.398437 24.800781 37.328125 40.199219 65.046875 40.199219s52.648438-15.398438 65.039062-40.199219l38.007813-76.023437c6.066406-12.121094 10.503906-25.058594 13.335937-38.320313 12.289063 10.046875 19.617188 25.238281 19.617188 41.175781zm-31.191406-142.632812h74.886718c-8.785156 9.792969-21.496093 16-35.65625 16h-32.765624c-1.867188-5.449219-4.035157-10.785156-6.464844-16zm0 0"/><path d="m232 328h16v16h-16zm0 0"/><path d="m168 328h16v16h-16zm0 0"/></svg>