<svg height="499pt" viewBox="0 -1 499.112 499" width="499pt" xmlns="http://www.w3.org/2000/svg"><path d="m180.359375 427.894531c-1.28125.960938-2.558594 1.839844-3.839844 2.640625-7.679687 5.359375-15.917969 9.441406-24.640625 12.402344-10.238281 3.359375-20.957031 5.117188-31.839844 5.117188-19.917968 0-39.277343-5.839844-55.839843-16.878907l-1.277344-.878906c-13.84375-9.199219-24.242187-22.800781-29.441406-38.5625-5.121094-15.359375-5.121094-32 0-47.359375l8.078125-24.320312 16.242187 24.402343c6.238281 9.359375 14 17.679688 22.800781 24.71875 5.679688 4.398438 11.839844 8.320313 18.398438 11.601563 14.800781 7.4375 31.199219 11.277344 47.839844 11.277344h22.800781c.878906 12.480468 4.640625 22.242187 10.800781 30.480468.878906 1.121094 1.757813 2.242188 2.71875 3.28125zm0 0" fill="#e6e9ed"/><path d="m465.640625 344.375c5.121094 15.359375 5.121094 32 0 47.359375-5.199219 15.761719-15.601563 29.363281-29.441406 38.5625l-1.277344.878906c-16.5625 11.039063-35.921875 16.878907-55.84375 16.878907-10.878906 0-21.597656-1.757813-31.839844-5.117188-8.71875-2.960938-16.957031-7.042969-24.636719-12.402344-1.28125-.800781-2.5625-1.679687-3.839843-2.640625l-2.800781-2.078125c.960937-1.039062 1.839843-2.160156 2.71875-3.28125 6.640624-8.800781 10.398437-19.4375 10.800781-30.480468h22.800781c16.640625 0 33.039062-3.839844 47.839844-11.277344 6.558594-3.28125 12.71875-7.203125 18.398437-11.601563 8.800781-7.039062 16.558594-15.359375 22.800781-24.71875l16.238282-24.402343zm0 0" fill="#e6e9ed"/><path d="m183.160156 425.816406c10.960938 10.160156 21.359375 14.238282 32.238282 14.238282 11.679687 0 22.800781-4.640626 30.960937-12.796876l3.199219-3.203124 3.203125 3.203124c8.160156 8.15625 19.277343 12.796876 30.957031 12.796876 10.882812 0 21.28125-4.078126 32.242188-14.238282l2.800781 2.078125c1.277343.960938 2.558593 1.839844 3.839843 2.640625l-1.042968 1.519532-.636719 2.160156c-9.121094 31.839844-38.242187 53.839844-71.363281 53.839844-16.558594 0-32.160156-5.519532-44.636719-14.957032-12.640625-9.523437-22.160156-22.960937-26.722656-38.882812l-.640625-2.160156-1.039063-1.519532c1.28125-.800781 2.558594-1.679687 3.839844-2.640625zm0 0" fill="#cf9e76"/><path d="m183.160156 425.816406c-.960937-1.039062-1.839844-2.160156-2.71875-3.28125-6.160156-8.238281-9.921875-18-10.800781-30.480468l-.082031-2.160157v-15.4375c0-30.082031 24.320312-54.402343 54.402344-54.402343h51.199218c30.078125 0 54.398438 24.320312 54.398438 54.402343v15.4375c0 .722657 0 1.441407-.078125 2.160157-.402344 11.042968-4.160157 21.679687-10.800781 30.480468-.878907 1.121094-1.757813 2.242188-2.71875 3.28125-10.960938 10.160156-21.359376 14.238282-32.242188 14.238282-11.679688 0-22.796875-4.640626-30.957031-12.796876l-3.203125-3.203124-3.199219 3.203124c-8.160156 8.15625-19.28125 12.796876-30.960937 12.796876-10.878907 0-21.277344-4.078126-32.238282-14.238282zm0 0" fill="#656d78"/><path d="m297.558594 392.054688c0 8.835937-7.160156 16-16 16-8.835938 0-16-7.164063-16-16 0-8.835938 7.164062-16 16-16 8.839844 0 16 7.164062 16 16zm0 0" fill="#969faa"/><path d="m233.558594 392.054688c0 8.835937-7.160156 16-16 16-8.835938 0-16-7.164063-16-16 0-8.835938 7.164062-16 16-16 8.839844 0 16 7.164062 16 16zm0 0" fill="#969faa"/><g fill="#cf9e76"><path d="m136.761719 103.496094c4.957031-5.601563 10.636719-10.800782 16.796875-15.441406h.242187c-.160156 2.082031-.242187 4.160156-.242187 6.242187 0 11.757813 2.242187 23.359375 6.640625 34.238281l9.359375 23.519532 32-40c2.5625 12.960937 7.441406 25.203124 14.160156 36.242187.722656 1.199219 1.441406 2.398437 2.242188 3.519531l-.402344.238282-12.636719 50.640624c-1.121094 4.402344-1.921875 8.878907-2.5625 13.359376-.480469 4.5625-.800781 9.203124-.800781 13.839843 0 6.082031.480468 12.160157 1.519531 18.160157.882813 5.839843 2.320313 11.601562 4.242187 17.28125l4.878907 14.71875 13.359375 40h-1.597656c-30.082032 0-54.402344 24.320312-54.402344 54.402343v15.4375l.082031 2.160157h-22.800781c-16.640625 0-33.039063-3.839844-47.839844-11.277344-6.558594-3.28125-12.71875-7.203125-18.398438-11.601563l.957032-1.121093-8.320313-24.957032c-5.117187-15.28125-7.679687-31.203125-7.679687-47.28125 0-20.960937 4.402344-41.601562 12.882812-60.71875l7.117188-16c2.640625-5.839844 5.121094-11.761718 7.363281-17.761718 4.957031-12.320313 9.359375-24.878907 13.117187-37.679688l4-13.28125c.160157-.398438.242188-.878906.402344-1.277344 5.359375-17.042968 14.238282-32.5625 26.320313-45.601562zm0 0"/><path d="m406.199219 201.335938c2.242187 6 4.722656 11.921874 7.359375 17.761718l7.121094 16c8.480468 19.117188 12.878906 39.757813 12.878906 60.71875 0 16.078125-2.558594 32-7.679688 47.28125l-8.320312 24.957032.960937 1.121093c-5.679687 4.398438-11.839843 8.320313-18.398437 11.601563-14.800782 7.4375-31.199219 11.277344-47.839844 11.277344h-22.800781c.078125-.71875.078125-1.4375.078125-2.160157v-15.4375c0-30.082031-24.320313-54.402343-54.398438-54.402343h-1.601562l13.363281-40 4.878906-14.71875c1.917969-5.679688 3.359375-11.441407 4.238281-17.28125 1.039063-6 1.519532-12.078126 1.519532-18.160157 0-4.636719-.320313-9.277343-.796875-13.839843-.640625-4.480469-1.441407-8.957032-2.5625-13.359376l-12.640625-50.640624-.398438-.238282c7.917969-11.921875 13.519532-25.441406 16.398438-39.761718l32 40 9.363281-23.519532c4.398437-10.878906 6.636719-22.480468 6.636719-34.238281 0-2.082031-.078125-4.160156-.238282-6.242187h.238282c6.160156 4.640624 11.839844 9.839843 16.800781 15.441406 12.082031 13.039062 20.960937 28.558594 26.320313 45.601562.160156.398438.242187.878906.398437 1.277344l4 13.28125c3.761719 12.800781 8.160156 25.359375 13.121094 37.679688zm0 0"/><path d="m489.558594 104.054688-9.839844 39.28125c-4 16-13.359375 30.160156-26.558594 40-7.679687 5.761718-16.398437 9.921874-25.679687 12.238281l-17.921875 4.480469-3.359375 1.28125c-4.960938-12.320313-9.359375-24.878907-13.121094-37.679688l-4-13.28125c-.15625-.398438-.238281-.878906-.398437-1.277344 25.441406-24.242187 58.082031-39.683594 93.039062-44.082031zm0 0"/></g><path d="m489.558594 104.054688-7.839844.960937c-34.957031 4.398437-67.597656 19.839844-93.039062 44.082031-5.359376-17.042968-14.238282-32.5625-26.320313-45.601562l12.480469-9.359375c12.160156-9.121094 26.960937-14.082031 42.160156-14.082031 10.878906 0 21.601562 2.5625 31.359375 7.441406 11.441406 5.679687 23.28125 10.558594 35.441406 14.640625zm0 0" fill="#ecc19c"/><path d="m106.039062 163.65625c-3.757812 12.800781-8.160156 25.359375-13.117187 37.679688l-3.363281-1.28125-17.917969-4.480469c-9.28125-2.316407-18-6.476563-25.679687-12.238281-13.199219-9.839844-22.5625-24-26.5625-40l-9.839844-39.28125 7.839844.960937c34.960937 4.398437 67.601562 19.839844 93.042968 44.082031-.160156.398438-.242187.878906-.402344 1.277344zm0 0" fill="#cf9e76"/><path d="m124.28125 94.136719 12.480469 9.359375c-12.082031 13.039062-20.960938 28.558594-26.320313 45.601562-25.441406-24.242187-58.082031-39.683594-93.042968-44.082031l-7.839844-.960937 5.761718-1.917969c12.160157-4.082031 24-8.960938 35.441407-14.640625 9.757812-4.878906 20.476562-7.441406 31.359375-7.441406 15.199218 0 30 4.960937 42.160156 14.082031zm0 0" fill="#ecc19c"/><path d="m296.761719 216.054688c-.640625-4.480469-1.441407-8.957032-2.5625-13.359376l-12.640625-50.640624-.398438-.238282c-6.398437 9.757813-14.238281 18.398438-23.441406 25.757813l-8.160156 6.480469-8.160156-6.480469c-9.199219-7.359375-17.039063-16-23.4375-25.757813l-.402344.238282-12.636719 50.640624c-1.121094 4.402344-1.921875 8.878907-2.5625 13.359376-.480469 4.5625-.800781 9.203124-.800781 13.839843 0 6.082031.480468 12.160157 1.519531 18.160157.882813 5.839843 2.320313 11.601562 4.242187 17.28125l4.878907 14.71875 13.359375 40h48l13.363281-40 4.878906-14.71875c1.917969-5.679688 3.359375-11.441407 4.238281-17.28125 1.039063-6 1.519532-12.078126 1.519532-18.160157 0-4.636719-.320313-9.277343-.796875-13.839843zm0 0" fill="#ecc19c"/><path d="m345.320312 88.054688c-.640624-10.078126-2.960937-19.917969-6.800781-29.117188-4.640625-11.042969-11.359375-21.28125-20-29.921875-6.71875-6.71875-14.640625-12-23.199219-15.519531-6.878906-2.800782-14.160156-4.558594-21.601562-5.199219-1.917969-.160156-3.917969-.242187-5.839844-.242187h-36.640625c-1.917969 0-3.917969.082031-5.839843.242187-16.878907 1.359375-32.71875 8.640625-44.796876 20.71875-8.640624 8.640625-15.363281 18.878906-20 29.921875-3.839843 9.199219-6.160156 19.039062-6.800781 29.117188-.160156 2.082031-.242187 4.160156-.242187 6.242187 0 11.757813 2.242187 23.359375 6.640625 34.238281l9.359375 23.519532 32-40c2.5625 12.960937 7.441406 25.203124 14.160156 36.242187.722656 1.199219 1.441406 2.398437 2.242188 3.519531 6.398437 9.757813 14.238281 18.398438 23.4375 25.757813l8.160156 6.480469 8.160156-6.480469c9.203125-7.359375 17.042969-16 23.441406-25.757813 7.917969-11.921875 13.519532-25.441406 16.398438-39.761718l32 40 9.363281-23.519532c4.398437-10.878906 6.636719-22.480468 6.636719-34.238281 0-2.082031-.078125-4.160156-.238282-6.242187zm0 0" fill="#f5e0cd"/><path d="m321.558594 224.054688h64c0 17.679687-14.320313 32-32 32-17.679688 0-32-14.320313-32-32zm0 0" fill="#838f9b"/><path d="m113.558594 224.054688h64c0 17.679687-14.320313 32-32 32-17.679688 0-32-14.320313-32-32zm0 0" fill="#838f9b"/><path d="m217.558594 368.054688c-13.230469 0-24 10.769531-24 24 0 13.234374 10.769531 24 24 24 13.234375 0 24-10.765626 24-24 0-13.230469-10.765625-24-24-24zm0 32c-4.414063 0-8-3.589844-8-8 0-4.40625 3.585937-8 8-8 4.417968 0 8 3.59375 8 8 0 4.410156-3.582032 8-8 8zm0 0"/><path d="m145.558594 264.054688c22.058594 0 40-17.941407 40-40v-8h-80v8c0 22.058593 17.945312 40 40 40zm22.632812-32c-3.304687 9.3125-12.199218 16-22.632812 16-10.429688 0-19.328125-6.6875-22.628906-16zm0 0"/><path d="m281.558594 368.054688c-13.230469 0-24 10.769531-24 24 0 13.234374 10.769531 24 24 24 13.234375 0 24-10.765626 24-24 0-13.230469-10.765625-24-24-24zm0 32c-4.414063 0-8-3.589844-8-8 0-4.40625 3.585937-8 8-8 4.417968 0 8 3.59375 8 8 0 4.410156-3.582032 8-8 8zm0 0"/><path d="m457.960938 189.753906c14.625-10.96875 25.117187-26.769531 29.542968-44.496094l11.609375-46.457031-12.816406-4.273437c-11.738281-3.910156-23.28125-8.695313-34.328125-14.214844-25.855469-12.9375-58.824219-9.960938-81.945312 7.390625l-6.824219 5.121094c-3.238281-3.183594-6.640625-6.191407-10.207031-9.023438-2.351563-22.824219-12.359376-43.984375-28.816407-60.441406-15.03125-15.023437-35.015625-23.3046875-56.273437-23.3046875h-36.6875c-21.253906 0-41.238282 8.2812505-56.277344 23.3125005-16.449219 16.449218-26.457031 37.617187-28.816406 60.441406-3.5625 2.824218-6.96875 5.832031-10.210938 9.023437l-6.820312-5.121093c-23.128906-17.34375-56.097656-20.320313-81.945313-7.382813-11.046875 5.519531-22.59375 10.3125-34.328125 14.214844l-12.816406 4.273437 11.609375 46.457032c4.429687 17.726562 14.917969 33.527343 29.535156 44.488281 8.550781 6.414062 18.160157 10.992187 28.535157 13.582031l12.527343 3.136719c-1.3125 3.152343-2.621093 6.304687-4.007812 9.414062l-7.078125 15.929688c-8.992188 20.253906-13.5625 41.785156-13.5625 63.96875 0 14.589843 2.136718 29.007812 6.121094 43.015625l-24.535157-36.800782-13.289062 39.863282c-5.632813 16.890625-5.632813 35.480468 0 52.359375 5.785156 17.378906 17.367187 32.546875 32.625 42.722656l1.296875.855469c17.886718 11.933594 38.726562 18.238281 60.238281 18.238281 18.3125 0 36.457031-4.808594 52.464844-13.605469 11.863281 31.863282 42.679687 53.613282 77.078125 53.613282 34.402344 0 65.226562-21.757813 77.074218-53.613282 16.007813 8.804688 34.160157 13.613282 52.464844 13.613282 21.511719 0 42.351563-6.3125 60.230469-18.230469l1.3125-.871094c15.246094-10.167969 26.832031-25.335937 32.617187-42.707031 5.628907-16.886719 5.628907-35.476563 0-52.367188l-13.289062-39.863281-24.527344 36.792969c3.984375-14.015625 6.117188-28.433594 6.117188-43.015625 0-22.183594-4.566406-43.714844-13.574219-63.984375l-7.082031-15.929688c-1.382813-3.109375-2.6875-6.261718-4.007813-9.414062l12.53125-3.136719c10.382813-2.59375 19.980469-7.160156 28.535157-13.574219zm-13.144532-95.121094c4.769532 2.382813 9.664063 4.558594 14.582032 6.671876-24.605469 6.320312-47.695313 17.960937-67.308594 34.128906-4.609375-11-10.722656-21.335938-18.128906-30.679688l5.664062-4.25c18.40625-13.800781 44.632812-16.152344 65.191406-5.871094zm-107.257812-.351562c0 10-1.824219 19.773438-5.277344 29.125-7.457031-36.261719-21.394531-71.34375-40.890625-102.855469 7.945313 3.160157 15.25 7.898438 21.480469 14.128907 15.921875 15.929687 24.6875 37.089843 24.6875 59.601562zm-51.109375 110.328125c.277343 1.132813.390625 2.300781.640625 3.445313h-75.066406c.25-1.144532.359374-2.3125.640624-3.445313l8.792969-35.175781c4.558594 5.167968 9.519531 10.007812 14.949219 14.359375l13.152344 10.503906 13.152344-10.511719c5.433593-4.351562 10.394531-9.183594 14.953124-14.359375zm35.109375 185.320313c0 9.964843-3.292969 19.847656-9.269532 27.824218-6.722656 8.957032-17.417968 14.300782-28.601562 14.300782-9.550781 0-18.527344-3.71875-25.28125-10.480469l-8.847656-8.832031-8.839844 8.832031c-6.75 6.761719-15.726562 10.480469-25.285156 10.480469-11.1875 0-21.882813-5.34375-28.601563-14.300782-5.976562-7.96875-9.273437-17.859375-9.273437-27.824218v-15.503907c0-25.570312 20.800781-46.371093 46.371094-46.371093h51.261718c25.570313 0 46.367188 20.800781 46.367188 46.371093zm-53.757813-77.875h-36.480469l-8-24h52.472657zm21.757813-82.191407c0 3.417969-.222656 6.816407-.558594 10.191407h-31.441406v16h28.609375c-.582031 2.257812-1.207031 4.511718-1.945313 6.730468l-3.09375 9.269532h-63.136718l-3.089844-9.269532c-.742188-2.226562-1.359375-4.472656-1.941406-6.730468h28.597656v-16h-31.4375c-.335938-3.382813-.5625-6.773438-.5625-10.191407 0-1.941406.25-3.871093.363281-5.808593h79.285156c.105469 1.9375.351563 3.867187.351563 5.808593zm-58.34375-213.808593h5.402344l-.984376 1.976562c-11.824218 23.640625-18.074218 50.113281-18.074218 76.535156 0 19.609375 3.488281 38.722656 10 57.066406-8.917969-12.152343-15.167969-26.183593-18.152344-41.136718l-3.367188-16.839844-22.519531 28.144531c8.417969-37.710937 24.25-73.9375 46.25-105.671875.476563-.007812.957031-.074218 1.445313-.074218zm40.378906 135.53125c6.316406-17.832032 9.789062-36.394532 9.957031-55.402344l.007813-1.617188h-16l-.007813 1.417969c-.183593 20.648437-4.40625 40.726563-12.527343 59.695313l-3.464844 8.074218-3.460938-8.074218c-8.320312-19.414063-12.539062-39.976563-12.539062-61.113282 0-23.644531 5.546875-47.320312 15.992187-68.535156 8.480469 17.214844 13.6875 35.617188 15.394531 54.738281l15.933594-1.425781c-1.910156-21.433594-7.765625-42.0625-17.390625-61.320312l-.984375-1.96875h5.398438c.488281 0 .96875.066406 1.449218.074218 21.992188 31.726563 37.824219 67.949219 46.242188 105.65625l-22.515625-28.136718-3.367187 16.839843c-2.984376 14.9375-9.222657 28.953125-18.117188 41.097657zm-85.347656-116.90625c6.234375-6.222657 13.539062-10.96875 21.480468-14.128907-19.496093 31.503907-33.429687 66.585938-40.886718 102.847657-3.457032-9.351563-5.28125-19.117188-5.28125-29.117188 0-22.511719 8.769531-43.671875 24.6875-59.601562zm-131.941406 59.953124c20.558593-10.28125 46.785156-7.929687 65.191406 5.871094l5.664062 4.25c-7.40625 9.335938-13.519531 19.679688-18.128906 30.679688-19.617188-16.167969-42.703125-27.808594-67.3125-34.128906 4.921875-2.113282 9.816406-4.289063 14.585938-6.671876zm19.261718 93.175782c-8.292968-2.074219-15.964844-5.730469-22.8125-10.855469-11.691406-8.769531-20.082031-21.402344-23.625-35.570313l-6.9375-27.765624c30.089844 4.519531 58.441406 17.847656 81.136719 38.054687l-2.914063 9.710937c-3.039062 10.121094-6.46875 20.167969-10.214843 30.089844zm12.195313 50.496094 7.078125-15.929688c8.113281-18.246094 15.144531-37.222656 20.894531-56.40625l3.992187-13.3125c5.371094-17.894531 15.296876-34.3125 28.464844-47.542969.976563 9.039063 3.128906 17.886719 6.535156 26.40625l14.496094 36.25 30.753906-38.449219c2.855469 8.230469 6.609376 16.09375 11.144532 23.488282l-11.976563 47.902344c-2.375 9.527343-3.585937 19.335937-3.585937 29.152343 0 12.929688 2.082031 25.710938 6.167968 37.992188l14.984376 44.96875c-30.023438 4.464843-53.152344 30.351562-53.152344 61.601562v9.628907h-14.742188c-15.289062 0-30.59375-3.613282-44.265625-10.445313-4.75-2.378906-9.199219-5.25-13.488281-8.335937l-8.230469-24.722657c-4.824219-14.472656-7.273437-29.527343-7.273437-44.757812 0-19.9375 4.105468-39.273438 12.203125-57.488281zm-17.113281 186.191406-1.296876-.855469c-12.296874-8.199219-21.648437-20.441406-26.320312-34.457031-4.535156-13.625-4.535156-28.625 0-42.238282l2.945312-8.832031 7.167969 10.742188c11.085938 16.625 26.382813 30.136719 44.246094 39.066406 15.890625 7.941406 33.671875 12.132813 51.425781 12.132813h15.589844c1.425781 8.5625 4.777344 16.714843 9.539062 23.984374-15.25 10.3125-33.488281 16.015626-51.921874 16.015626-18.34375 0-36.113282-5.375-51.375-15.558594zm180.910156 55.558594c-26.285156 0-49.957032-15.789063-60.46875-39.335938 7.902344 4.679688 16.980468 7.335938 26.34375 7.335938 12.695312 0 24.6875-4.535157 34.125-12.839844 9.441406 8.304687 21.433594 12.839844 34.128906 12.839844 9.359375 0 18.441406-2.65625 26.34375-7.335938-10.511719 23.539062-34.183594 39.335938-60.472656 39.335938zm205.585937-141.949219 2.945313 8.832031c4.535156 13.621094 4.535156 28.621094 0 42.246094-4.675782 14.015625-14.027344 26.25-26.3125 34.449218l-1.3125.871094c-15.257813 10.175782-33.023438 15.550782-51.367188 15.550782-18.433594 0-36.671875-5.703126-51.929687-16.015626 4.761719-7.269531 8.121093-15.421874 9.535156-23.984374h15.59375c17.757813 0 35.535156-4.191407 51.421875-12.132813 17.867188-8.9375 33.167969-22.441406 44.25-39.066406zm-29.585937-42.3125c0 15.230469-2.445313 30.285156-7.253906 44.75l-8.242188 24.730469c-4.285156 3.085937-8.734375 5.957031-13.488281 8.335937-13.679688 6.832031-28.980469 10.445313-44.269531 10.445313h-14.746094v-9.628907c0-31.257812-23.125-57.136719-53.160156-61.617187l14.984374-44.96875c4.097657-12.273438 6.175782-25.046875 6.175782-37.976563 0-9.816406-1.207032-19.625-3.589844-29.136719l-11.976562-47.902343c4.535156-7.390625 8.289062-15.257813 11.144531-23.488281l30.75 38.449218 14.496093-36.25c3.410157-8.519531 5.5625-17.367187 6.539063-26.40625 13.167969 13.230469 23.101563 29.648438 28.460937 47.542969l3.992188 13.3125c5.761719 19.175781 12.792969 38.160156 20.898438 56.398437l7.078124 15.929688c8.105469 18.207031 12.207032 37.542969 12.207032 57.480469zm-14.628906-104.320313c-3.746094-9.921875-7.175782-19.96875-10.21875-30.089844l-2.910157-9.710937c22.6875-20.207031 51.046875-33.535156 81.136719-38.054687l-6.9375 27.765624c-3.542969 14.167969-11.9375 26.808594-23.632812 35.578126-6.832032 5.128906-14.503907 8.78125-22.808594 10.855468zm0 0"/><path d="m313.558594 224.054688c0 22.058593 17.945312 40 40 40 22.058594 0 40-17.941407 40-40v-8h-80zm62.632812 8c-3.304687 9.3125-12.199218 16-22.632812 16-10.429688 0-19.328125-6.6875-22.628906-16zm0 0"/></svg>