<svg height="496pt" viewBox="0 -27 496 495" width="496pt" xmlns="http://www.w3.org/2000/svg"><g fill="#dfb28b"><path d="m128 219.058594c0 1.761718.078125 3.601562.160156 5.441406h-29.199218c-20.480469 0-38.160157-12.878906-44.960938-31.28125l2-.71875h72zm0 0"/><path d="m440 192.5 2 .71875c-6.800781 18.402344-24.480469 31.28125-44.960938 31.28125h-29.199218c.082031-1.839844.160156-3.679688.160156-5.441406v-26.558594zm0 0"/><path d="m447.601562 151.78125.398438.71875-3.28125 29.28125c-.480469 4-1.359375 7.839844-2.71875 11.4375l-2-.71875h-72v-10.71875c0-14.320312-3.199219-27.839844-8.960938-40l.960938-.480469 14.238281 8.558594c11.601563 6.960937 24.882813 10.640625 38.402344 10.640625 12.398437 0 24.398437-3.039062 34.960937-8.71875zm0 0"/><path d="m136 141.300781.960938.480469c-5.761719 12.160156-8.960938 25.679688-8.960938 40v10.71875h-72l-2 .71875c-1.359375-3.597656-2.238281-7.4375-2.71875-11.4375l-3.28125-29.28125.398438-.71875c10.5625 5.679688 22.5625 8.71875 34.960937 8.71875 13.519531 0 26.800781-3.679688 38.402344-10.640625zm0 0"/></g><path d="m280 400.5h37.199219c-6.480469 18.640625-24.320313 32-45.199219 32h-48c-20.878906 0-38.71875-13.359375-45.199219-32h37.199219c5.121094 0 10-2 13.679688-5.679688l4.640624-4.640624c3.679688-3.679688 8.558594-5.679688 13.679688-5.679688s10 2 13.679688 5.679688l4.640624 4.640624c3.679688 3.679688 8.558594 5.679688 13.679688 5.679688zm0 0" fill="#656d78"/><path d="m320 376.5v8c0 5.601562-.960938 10.960938-2.800781 16h-37.199219c-5.121094 0-10-2-13.679688-5.679688l-4.640624-4.640624c-3.679688-3.679688-8.558594-5.679688-13.679688-5.679688s-10 2-13.679688 5.679688l-4.640624 4.640624c-3.679688 3.679688-8.558594 5.679688-13.679688 5.679688h-37.199219c-1.839843-5.039062-2.800781-10.398438-2.800781-16v-8c0-21.839844 17.761719-39.601562 39.601562-39.601562 2.71875 0 5.4375.320312 8.078126.882812 7.441406 1.519531 14.398437 5.199219 19.921874 10.71875l4.398438 4.398438 4.398438-4.398438c5.523437-5.519531 12.480468-9.199219 19.921874-10.71875 2.640626-.5625 5.359376-.882812 8.078126-.882812 10.960937 0 20.800781 4.402343 28 11.601562 7.121093 7.199219 11.601562 17.121094 11.601562 28zm0 0" fill="#838f9b"/><path d="m312.078125 96.339844-.078125.160156-2 4c-24.960938 50-38 105.121094-38 160.960938v75.039062l.320312 1.28125c-7.441406 1.519531-14.398437 5.199219-19.921874 10.71875l-4.398438 4.398438-4.398438-4.398438c-5.523437-5.519531-12.480468-9.199219-19.921874-10.71875l.320312-1.28125v-75.039062c0-55.839844-13.039062-110.960938-38-160.960938l-2-4-.078125-.160156c11.4375-5.039063 24.078125-7.839844 37.359375-7.839844h53.4375c13.28125 0 25.921875 2.800781 37.359375 7.839844zm0 0" fill="#b27946"/><path d="m433.121094 81.140625c9.757812-17.28125 14.878906-36.71875 14.878906-56.480469v-.160156l7.28125 4.398438c10.160156 6.082031 18.320312 14.640624 24 24.5625 5.597656 9.917968 8.71875 21.359374 8.71875 33.199218 0 11.679688-3.039062 23.199219-8.878906 33.359375l-1.601563 2.878907c-6.640625 11.679687-16.160156 21.042968-27.359375 27.523437-.878906.476563-1.679687.957031-2.558594 1.359375-10.5625 5.679688-22.5625 8.71875-34.960937 8.71875-13.519531 0-26.800781-3.679688-38.402344-10.640625l-14.238281-8.558594-.960938.480469h-.078124c-9.519532-20.242188-26.242188-36.480469-46.882813-45.441406-11.4375-5.039063-24.078125-7.839844-37.359375-7.839844h-26.71875l-2.640625-5.28125c-3.519531-7.039062-5.359375-14.796875-5.359375-22.71875s1.839844-15.679688 5.359375-22.71875l2.640625-5.28125 2.558594-2.558594c6.882812-6.882812 14.960937-12.242187 23.761718-15.839844 8.800782-3.679687 18.320313-5.601562 28-5.601562 16.640626 0 32.71875 5.679688 45.757813 16.078125 13.042969 10.402344 23.363281 24 30 39.441406l7.121094 16.640625c1.601562 3.679688 3.921875 6.800782 6.800781 9.359375 4.71875 4.082031 10.800781 6.480469 17.199219 6.480469 9.199219 0 17.679687-4.800781 22.402343-12.640625.558594-.878906 1.039063-1.757813 1.519532-2.71875zm0 0" fill="#e6e9ed"/><path d="m368 192.5v26.558594c0 1.761718-.078125 3.601562-.160156 5.441406-.160156 1.839844-.320313 3.679688-.480469 5.441406l-10.71875 90.796875c-2.960937 25.441407-16.242187 48.402344-36.640625 63.761719v-8c0-10.878906-4.480469-20.800781-11.601562-28-7.199219-7.199219-17.039063-11.601562-28-11.601562-2.71875 0-5.4375.320312-8.078126.882812l-.320312-1.28125v-75.039062c0-55.839844 13.039062-110.960938 38-160.960938l2-4 .078125-.160156c20.640625 8.960937 37.363281 25.199218 46.882813 45.441406h.078124c5.761719 12.160156 8.960938 25.679688 8.960938 40zm0 0" fill="#dfb28b"/><path d="m296 192.5h48c0 13.28125-10.71875 24-24 24s-24-10.71875-24-24zm0 0" fill="#b27946"/><path d="m104 90.019531c2.878906-2.558593 5.199219-5.679687 6.800781-9.359375l7.121094-16.640625c6.636719-15.441406 16.957031-29.039062 30-39.441406 13.039063-10.398437 29.117187-16.078125 45.757813-16.078125 19.441406 0 38 7.679688 51.761718 21.441406l2.558594 2.558594-2.640625 5.28125c-3.519531 7.039062-5.359375 14.796875-5.359375 22.71875s1.839844 15.679688 5.359375 22.71875l2.640625 5.28125h-26.71875c-13.28125 0-25.921875 2.800781-37.359375 7.839844-20.640625 8.960937-37.363281 25.199218-46.882813 45.441406h-.078124l-.960938-.480469-14.238281 8.558594c-11.601563 6.960937-24.882813 10.640625-38.402344 10.640625-12.398437 0-24.398437-3.039062-34.960937-8.71875-12.320313-6.402344-22.796876-16.402344-29.917969-28.882812l-1.601563-2.878907c-5.839844-10.160156-8.878906-21.679687-8.878906-33.359375 0-23.679687 12.398438-45.601562 32.71875-57.761718l7.28125-4.398438v.160156c0 19.761719 5.121094 39.199219 14.878906 56.480469.480469.960937.960938 1.839844 1.519532 2.71875 4.722656 7.839844 13.203124 12.640625 22.402343 12.640625 6.398438 0 12.480469-2.398438 17.199219-6.480469zm0 0" fill="#e6e9ed"/><path d="m224 261.460938v75.039062l-.320312 1.28125c-2.640626-.5625-5.359376-.882812-8.078126-.882812-21.839843 0-39.601562 17.761718-39.601562 39.601562v8c-20.398438-15.359375-33.679688-38.320312-36.640625-63.761719l-10.71875-90.796875c-.160156-1.761718-.320313-3.601562-.480469-5.441406-.082031-1.839844-.160156-3.679688-.160156-5.441406v-37.277344c0-14.320312 3.199219-27.839844 8.960938-40h.078124c9.519532-20.242188 26.242188-36.480469 46.882813-45.441406l.078125.160156 2 4c24.960938 50 38 105.121094 38 160.960938zm0 0" fill="#dfb28b"/><path d="m152 192.5h48c0 13.28125-10.71875 24-24 24s-24-10.71875-24-24zm0 0" fill="#b27946"/><path d="m200 360.5h16v16h-16zm0 0"/><path d="m280 360.5h16v16h-16zm0 0"/><path d="m459.433594 22.027344-19.433594-11.519532v14.128907c0 19.390625-5.273438 38.4375-15.257812 55.070312-3.246094 5.425781-9.207032 8.792969-15.527344 8.792969-7.253906 0-13.78125-4.3125-16.648438-10.976562l-7.160156-16.695313c-7.09375-16.566406-18.285156-31.273437-32.359375-42.527344-14.34375-11.480469-32.359375-17.800781-50.726563-17.800781-20.28125 0-39.375 7.472656-54.320312 20.976562-14.945312-13.503906-34.039062-20.976562-54.320312-20.976562-18.367188 0-36.382813 6.320312-50.726563 17.800781-14.082031 11.253907-25.273437 25.96875-32.367187 42.527344l-7.160157 16.695313c-2.859375 6.664062-9.386719 10.976562-16.640625 10.976562-6.328125 0-12.273437-3.367188-15.527344-8.792969-9.984374-16.632812-15.257812-35.679687-15.257812-55.207031v-14.128906l-19.433594 11.65625c-22.558594 13.535156-36.566406 38.289062-36.566406 64.59375 0 13.085937 3.433594 26.007812 9.929688 37.367187l1.636718 2.863281c7.035156 12.3125 17.074219 22.3125 28.816406 29.464844l2.929688 26.359375c3.152344 28.410157 27.070312 49.824219 55.648438 49.824219h21.925781l10.496093 89.207031c3.074219 26.113281 16.472657 50.144531 36.816407 66.6875 2.007812 29.066407 26.234375 52.105469 55.800781 52.105469h48c29.566406 0 53.792969-23.039062 55.800781-52.105469 20.34375-16.542969 33.742188-40.574219 36.816407-66.6875l10.496093-89.207031h21.925781c28.578126 0 52.496094-21.414062 55.65625-49.816406l2.929688-26.359375c11.742188-7.152344 21.773438-17.152344 28.816406-29.464844l1.636719-2.863281c6.488281-11.367188 9.921875-24.289063 9.921875-37.375 0-26.304688-14.007812-51.058594-36.566406-64.59375zm-147.433594 362.472656c0 2.734375-.28125 5.414062-.808594 8h-31.191406c-2.976562 0-5.894531-1.207031-8-3.3125l-4.6875-4.6875c-10.3125-10.320312-28.3125-10.320312-38.625 0l-4.6875 4.6875c-2.105469 2.105469-5.023438 3.3125-8 3.3125h-31.191406c-.527344-2.585938-.808594-5.265625-.808594-8v-8c0-17.425781 14.175781-31.601562 31.601562-31.601562 8.4375 0 16.375 3.289062 22.34375 9.257812l10.054688 10.054688 10.054688-10.054688c5.96875-5.96875 13.90625-9.257812 22.34375-9.257812 17.425781 0 31.601562 14.175781 31.601562 31.601562zm-48-52.617188c-5.863281 2.152344-11.3125 5.386719-16 9.746094-4.6875-4.359375-10.136719-7.59375-16-9.746094v-70.398437c0-55.441406-12.871094-110.894531-37.089844-160.761719 8.3125-2.710937 17.160156-4.222656 26.371094-4.222656h53.4375c9.210938 0 18.058594 1.511719 26.371094 4.222656-24.21875 49.867188-37.089844 105.328125-37.089844 160.761719zm-238.542969-212.96875-1.640625-2.863281c-5.113281-8.941406-7.816406-19.125-7.816406-29.429687 0-19.105469 9.382812-37.167969 24.777344-48.226563 1.558594 13.882813 5.574218 27.371094 11.6875 39.953125-8.199219 6.183594-14.386719 14.632813-17.703125 24.59375l-2.347657 7.03125 15.179688 5.0625 2.34375-7.03125c2.078125-6.246094 5.855469-11.582031 10.765625-15.710937 2.570313 3.046875 5.625 5.621093 9.03125 7.597656-3.695313 9.066406-5.734375 18.816406-5.734375 28.609375h16c0-8.28125 1.847656-16.527344 5.183594-24.105469.535156.027344 1.0625.105469 1.601562.105469 3.34375 0 6.605469-.503906 9.710938-1.425781 1.03125 10.066406 3.824218 19.953125 8.34375 29l14.3125-7.160157c-4.679688-9.359374-7.152344-19.839843-7.152344-30.300781v-1.34375c2.496094-2.753906 4.617188-5.898437 6.136719-9.441406l7.160156-16.695313c6.0625-14.160156 15.632813-26.722656 27.664063-36.34375 11.503906-9.21875 25.96875-14.289062 40.71875-14.289062 16.703124 0 32.410156 6.296875 44.535156 17.671875l-.007813.015625c-4.054687 8.121094-6.207031 17.222656-6.207031 26.3125 0 6.800781 1.207031 13.601562 3.511719 20h-14.230469c-38.777344 0-72.488281 21.921875-89.503906 54l-14.167969 8.496094c-10.34375 6.214844-22.210937 9.503906-34.28125 9.503906-23.863281 0-46.039063-12.863281-57.871094-33.585938zm57.871094 49.585938c13.855469 0 27.414063-3.632812 39.550781-10.257812-1.816406 7.570312-2.878906 15.425781-2.878906 23.539062v2.71875h-60.054688c-.25-1.191406-.601562-2.34375-.746093-3.585938l-1.863281-16.804687c8.289062 2.757813 17.015624 4.390625 25.992187 4.390625zm-16.3125 32h52.984375v16h-21.039062c-13.007813 0-24.617188-6.246094-31.945313-16zm80.257813 119.335938-10.6875-90.839844c-.394532-3.304688-.585938-6.65625-.585938-9.96875v-37.246094c0-32.144531 17.894531-60.175781 44.230469-74.714844 12.015625 24.617188 21.105469 50.671875 27.105469 77.425782h-63.335938v8c0 17.648437 14.351562 32 32 32s32-14.351563 32-32v-4.769532c5.199219 24.242188 8 48.984375 8 73.753906v67.457032c-.136719 0-.265625-.042969-.398438-.042969-23.066406 0-42.335937 16.496094-46.671874 38.304687-11.859376-13.0625-19.578126-29.648437-21.65625-47.359374zm42.574218-119.335938c-2.769531 4.777344-7.945312 8-13.847656 8s-11.078125-3.222656-13.847656-8zm82.152344 224h-48c-13.015625 0-24.488281-6.34375-31.792969-16h23.792969c7.296875 0 14.160156-2.839844 19.3125-8l4.6875-4.6875c4.207031-4.207031 11.792969-4.207031 16 0l4.6875 4.6875c5.160156 5.160156 12.015625 8 19.3125 8h23.792969c-7.304688 9.65625-18.777344 16-31.792969 16zm88-205.472656c0 3.3125-.191406 6.664062-.585938 9.96875l-10.6875 90.839844c-2.078124 17.703124-9.796874 34.289062-21.648437 47.367187-4.335937-21.808594-23.605469-38.304687-46.671875-38.304687-.132812 0-.261719.042968-.398438.042968v-67.457031c0-24.761719 2.800782-49.511719 8-73.753906v4.769531c0 17.648438 14.351563 32 32 32 17.648438 0 32-14.351562 32-32v-8h-63.335937c6-26.761719 15.089844-52.808594 27.105469-77.433594 26.328125 14.539063 44.222656 42.570313 44.222656 74.714844zm-53.847656-18.527344h27.703125c-2.765625 4.777344-7.945313 8-13.847657 8-5.902343 0-11.085937-3.222656-13.855468-8zm90.886718 16h-21.039062v-16h52.984375c-7.328125 9.753906-18.9375 16-31.945313 16zm39.761719-35.585938c-.136719 1.234376-.496093 2.386719-.746093 3.585938h-60.054688v-2.71875c0-8.113281-1.0625-15.96875-2.871094-23.539062 12.128906 6.625 25.6875 10.257812 39.542969 10.257812 8.976563 0 17.695313-1.632812 25.984375-4.390625zm35.382813-64.863281-1.640625 2.863281c-11.832031 20.722657-34.007813 33.585938-57.871094 33.585938-12.078125 0-23.9375-3.289062-34.289063-9.496094l-14.167968-8.496094c-17.007813-32.085937-50.71875-54.007812-89.496094-54.007812h-21.773438l-.425781-.839844c-2.960937-5.921875-4.519531-12.542968-4.519531-19.160156s1.558594-13.238281 4.519531-19.160156l2.046875-4.105469 1.640625-1.636719c12.320313-12.3125 28.695313-19.097656 46.113281-19.097656 14.75 0 29.214844 5.070312 40.734376 14.289062 12.023437 9.621094 21.59375 22.183594 27.65625 36.34375l7.152343 16.6875c1.519531 3.542969 3.640625 6.6875 6.136719 9.449219v1.34375c0 10.460938-2.472656 20.941407-7.160156 30.3125l14.3125 7.160157c4.519531-9.050782 7.3125-18.9375 8.34375-29 3.113281.917968 6.375 1.414062 9.71875 1.414062.539062 0 1.066406-.078125 1.59375-.105469 3.34375 7.578125 5.191406 15.824219 5.191406 24.105469h16c0-9.792969-2.039062-19.542969-5.734375-28.617188 3.414063-1.976562 6.460937-4.550781 9.03125-7.597656 4.910156 4.125 8.6875 9.460938 10.765625 15.710938l2.34375 7.03125 15.179688-5.0625-2.347657-7.03125c-3.316406-9.960938-9.503906-18.410156-17.703125-24.59375 6.097656-12.566406 10.113282-26.039063 11.679688-39.953125 15.402344 11.066406 24.785156 29.128906 24.785156 48.234375 0 10.304687-2.703125 20.488281-7.816406 29.429687zm0 0"/></svg>