<svg height="496pt" viewBox="0 -15 496 495" width="496pt" xmlns="http://www.w3.org/2000/svg"><path d="m487.359375 32.578125c-.398437 7.921875-.960937 15.921875-1.757813 23.84375l-4.160156 41.839844c-.960937 9.519531-1.441406 19.039062-1.441406 28.558593 0 18-4.480469 35.441407-12.71875 50.800782-8.242188 15.4375-20.242188 28.878906-35.28125 38.878906l-1.601562.320312c-2.636719-16.800781-8.558594-33.039062-17.519532-47.679687l-30.71875-50.160156c-5.601562-9.199219-12.238281-17.519531-19.761718-24.878907l13.28125-13.28125c21.121093-21.121093 47.601562-36.160156 76.640624-43.359374 11.441407-2.882813 23.28125-4.480469 35.039063-4.882813zm0 0" fill="#656d78"/><path d="m468.320312 8.5h19.679688c0 8-.238281 16.078125-.640625 24.078125-11.757813.402344-23.597656 2-35.039063 4.882813-29.039062 7.199218-55.519531 22.238281-76.640624 43.359374l-13.28125 13.28125c-8.078126-8.082031-17.277344-14.960937-27.117188-20.480468l.71875-1.121094 15.679688-15.679688c21.121093-21.121093 47.601562-36.160156 76.640624-43.359374 13.039063-3.28125 26.480469-4.960938 40-4.960938zm0 0" fill="#969faa"/><path d="m176 72.5c31.519531 57.761719 48 122.480469 48 188.238281v43.761719h-2.398438c-8.160156 0-15.523437 3.359375-20.960937 8.640625-1.121094 1.121094-2.160156 2.398437-3.039063 3.679687-6.722656-2.800781-13.921874-4.320312-21.601562-4.320312-25.519531 0-47.039062 17.039062-53.761719 40.320312-3.359375.71875-6.636719 1.601563-9.917969 2.480469l-30.558593-52.320312c-11.601563-20-17.761719-42.640625-17.761719-65.761719 0-6.878906.558594-13.679688 1.601562-20.398438 2.636719-16.800781 8.558594-33.039062 17.519532-47.679687l30.71875-50.160156c5.601562-9.199219 12.238281-17.519531 19.761718-24.878907 8.078126-8.082031 17.277344-14.960937 27.117188-20.480468 4.160156-2.402344 8.480469-4.5625 12.882812-6.402344zm0 0" fill="#aab2bd"/><path d="m362.398438 94.101562c7.523437 7.359376 14.160156 15.679688 19.761718 24.878907l30.71875 50.160156c8.960938 14.640625 14.882813 30.878906 17.519532 47.679687 1.042968 6.71875 1.601562 13.519532 1.601562 20.398438 0 23.121094-6.160156 45.761719-17.761719 65.761719l-30.558593 52.320312c-3.28125-.878906-6.558594-1.761719-9.917969-2.480469-6.722657-23.28125-28.242188-40.320312-53.761719-40.320312-7.679688 0-14.878906 1.519531-21.601562 4.320312-5.359376-7.441406-14.160157-12.320312-24-12.320312h-2.398438v-43.761719c0-65.757812 16.480469-130.476562 48-188.238281l2.398438-5.28125c4.402343 1.839844 8.722656 4 12.882812 6.402344 9.839844 5.519531 19.039062 12.398437 27.117188 20.480468zm0 0" fill="#aab2bd"/><path d="m265.519531 381.300781c4.640625 19.757813 19.761719 35.597657 39.199219 41.039063l-.71875 2.160156s-16 32-56 32-56-32-56-32l-.71875-2.160156c19.4375-5.441406 34.558594-21.28125 39.199219-41.039063 5.519531 2.078125 11.441406 3.199219 17.519531 3.199219s12-1.121094 17.519531-3.199219zm0 0" fill="#aab2bd"/><path d="m373.761719 352.820312c-6.722657-23.28125-28.242188-40.320312-53.761719-40.320312-7.679688 0-14.878906 1.519531-21.601562 4.320312 3.523437 4.878907 5.601562 10.800782 5.601562 17.28125 0 3.597657-.640625 7.117188-1.921875 10.398438-1.039063 2.878906-2.636719 5.679688-4.558594 8.078125l-7.199219 8.960937-3.359374 4.242188c-5.679688 7.117188-13.039063 12.398438-21.441407 15.519531 4.640625 19.757813 19.761719 35.597657 39.199219 41.039063 4.882812 1.441406 10 2.160156 15.28125 2.160156 16.160156 0 30.640625-6.800781 40.71875-17.679688 9.519531-10 15.28125-23.441406 15.28125-38.320312 0-5.441406-.800781-10.71875-2.238281-15.679688zm0 0" fill="#e6e9ed"/><path d="m209.039062 365.78125-3.359374-4.242188-7.199219-8.960937c-1.921875-2.398437-3.519531-5.199219-4.558594-8.078125-1.28125-3.28125-1.921875-6.800781-1.921875-10.398438 0-6.480468 2.078125-12.402343 5.601562-17.28125-6.722656-2.800781-13.921874-4.320312-21.601562-4.320312-25.519531 0-47.039062 17.039062-53.761719 40.320312-1.4375 4.960938-2.238281 10.238282-2.238281 15.679688 0 14.878906 5.761719 28.320312 15.28125 38.320312 10.078125 10.878907 24.558594 17.679688 40.71875 17.679688 5.28125 0 10.398438-.71875 15.28125-2.160156 19.4375-5.441406 34.558594-21.28125 39.199219-41.039063-8.402344-3.121093-15.761719-8.402343-21.441407-15.519531zm0 0" fill="#e6e9ed"/><path d="m322.398438 67.21875-2.398438 5.28125c-31.519531 57.761719-48 122.480469-48 188.238281v43.761719h-48v-43.761719c0-65.757812-16.480469-130.476562-48-188.238281l-2.398438-5.28125c16-6.957031 33.597657-10.71875 51.597657-10.71875h45.601562c18 0 35.597657 3.761719 51.597657 10.71875zm0 0" fill="#969faa"/><g fill="#656d78"><path d="m302.078125 344.5c-1.039063 2.878906-2.636719 5.679688-4.558594 8.078125l-7.199219 8.960937-3.359374 4.242188c-5.679688 7.117188-13.039063 12.398438-21.441407 15.519531-5.519531 2.078125-11.441406 3.199219-17.519531 3.199219s-12-1.121094-17.519531-3.199219c-8.402344-3.121093-15.761719-8.402343-21.441407-15.519531l-3.359374-4.242188-7.199219-8.960937c-1.921875-2.398437-3.519531-5.199219-4.558594-8.078125-1.28125-3.28125-1.921875-6.800781-1.921875-10.398438 0-6.480468 2.078125-12.402343 5.601562-17.28125.878907-1.28125 1.917969-2.558593 3.039063-3.679687 5.4375-5.28125 12.800781-8.640625 20.960937-8.640625h52.796876c9.839843 0 18.640624 4.878906 24 12.320312 3.523437 4.878907 5.601562 10.800782 5.601562 17.28125 0 3.597657-.640625 7.117188-1.921875 10.398438zm0 0"/><path d="m192 200.5-12.71875 12.71875c-7.203125 7.203125-17.042969 11.28125-27.28125 11.28125s-20.078125-4.078125-27.28125-11.28125l-12.71875-12.71875 12.71875-12.71875c7.203125-7.203125 17.042969-11.28125 27.28125-11.28125s20.078125 4.078125 27.28125 11.28125zm0 0"/><path d="m384 200.5-12.71875 12.71875c-7.203125 7.203125-17.042969 11.28125-27.28125 11.28125s-20.078125-4.078125-27.28125-11.28125l-12.71875-12.71875 12.71875-12.71875c7.203125-7.203125 17.042969-11.28125 27.28125-11.28125s20.078125 4.078125 27.28125 11.28125zm0 0"/><path d="m8.640625 32.578125c.398437 7.921875.960937 15.921875 1.757813 23.84375l4.160156 41.839844c.960937 9.519531 1.441406 19.039062 1.441406 28.558593 0 18 4.480469 35.441407 12.71875 50.800782 8.242188 15.4375 20.242188 28.878906 35.28125 38.878906l1.601562.320312c2.636719-16.800781 8.558594-33.039062 17.519532-47.679687l30.71875-50.160156c5.601562-9.199219 12.238281-17.519531 19.761718-24.878907l-13.28125-13.28125c-21.121093-21.121093-47.601562-36.160156-76.640624-43.359374-11.441407-2.882813-23.28125-4.480469-35.039063-4.882813zm0 0"/></g><path d="m27.679688 8.5h-19.679688c0 8 .238281 16.078125.640625 24.078125 11.757813.402344 23.597656 2 35.039063 4.882813 29.039062 7.199218 55.519531 22.238281 76.640624 43.359374l13.28125 13.28125c8.078126-8.082031 17.277344-14.960937 27.117188-20.480468l-.71875-1.121094-15.679688-15.679688c-21.121093-21.121093-47.601562-36.160156-76.640624-43.359374-13.039063-3.28125-26.480469-4.960938-40-4.960938zm0 0" fill="#969faa"/><path d="m264 328.5h16v16h-16zm0 0"/><path d="m216 328.5h16v16h-16zm0 0"/><path d="m152 232.5c12.273438 0 24.289062-4.976562 32.96875-13.65625l18.34375-18.34375-18.34375-18.34375c-8.679688-8.679688-20.695312-13.65625-32.96875-13.65625s-24.289062 4.976562-32.96875 13.65625l-18.34375 18.34375 18.34375 18.34375c8.679688 8.679688 20.695312 13.65625 32.96875 13.65625zm-21.65625-39.03125c5.703125-5.695312 13.59375-8.96875 21.65625-8.96875s15.953125 3.273438 21.65625 8.96875l7.03125 7.03125-7.03125 7.03125c-5.703125 5.695312-13.59375 8.96875-21.65625 8.96875s-15.953125-3.273438-21.65625-8.96875l-7.03125-7.03125zm0 0"/><path d="m468.296875.5c-14.128906 0-28.234375 1.734375-41.929687 5.160156-30.390626 7.601563-58.167969 23.328125-80.320313 45.480469l-12.558594 12.558594c-19.199219-9.773438-40.648437-15.199219-62.671875-15.199219h-45.625c-22.03125 0-43.472656 5.425781-62.671875 15.199219l-12.558593-12.558594c-22.160157-22.152344-49.929688-37.871094-80.320313-45.480469-13.703125-3.425781-27.808594-5.160156-41.9375-5.160156h-27.703125v8c0 16.199219.824219 32.574219 2.433594 48.679688l4.183594 41.871093c.910156 9.210938 1.382812 18.546875 1.382812 27.761719 0 37.71875 18.320312 72.6875 49 94.390625-.617188 5.304687-1 10.640625-1 16.015625 0 24.496094 6.519531 48.632812 18.863281 69.792969l25.410157 43.550781c-22.226563 6.707031-43.785157 15.625-64.160157 26.945312l7.765625 13.984376c20.496094-11.382813 42.257813-20.230469 64.695313-26.695313l3.546875 6.0625c.480468 13.136719 4.917968 25.257813 12.191406 35.226563-6.441406 6.054687-12.640625 12.359374-18.457031 19l-15.878907 18.148437 12.046876 10.539063 15.878906-18.152344c5.449218-6.234375 11.273437-12.144532 17.3125-17.832032 11.089844 9.183594 25.304687 14.710938 40.785156 14.710938 3.703125 0 7.34375-.3125 10.886719-.921875 5.800781 9.136719 24.417969 32.921875 61.113281 32.921875s55.3125-23.785156 61.113281-32.921875c3.542969.609375 7.183594.921875 10.886719.921875 15.480469 0 29.695312-5.527344 40.777344-14.710938 6.039062 5.6875 11.863281 11.597657 17.320312 17.839844l15.878906 18.152344 12.046876-10.539062-15.878907-18.140626c-5.808593-6.640624-12.015625-12.945312-18.457031-19 7.273438-9.96875 11.710938-22.089843 12.191406-35.226562l3.546875-6.0625c22.4375 6.464844 44.199219 15.3125 64.695313 26.695312l7.765625-13.984374c-20.375-11.320313-41.933594-20.238282-64.160157-26.945313l25.417969-43.558594c12.335938-21.175781 18.855469-45.304687 18.855469-69.800781 0-5.375-.382812-10.710938-1-16.007812 30.679688-21.710938 49-56.679688 49-94.398438 0-9.214844.472656-18.550781 1.382812-27.753906l4.183594-41.878906c1.609375-16.105469 2.433594-32.480469 2.433594-48.679688v-8zm-110.9375 61.953125c20.105469-20.105469 45.304687-34.367187 72.878906-41.265625 12.433594-3.113281 25.242188-4.6875 38.058594-4.6875h11.632813c-.050782 2.832031-.226563 5.664062-.320313 8.496094-9.867187.726562-19.664063 2.273437-29.242187 4.664062-30.390626 7.601563-58.167969 23.328125-80.320313 45.480469l-7.917969 7.917969c-4.554687-3.984375-9.351562-7.664063-14.367187-11.007813zm-86.542969 2.046875c14.007813 0 27.742188 2.503906 40.6875 7.097656-31.03125 58.015625-47.503906 123.316406-47.503906 189.140625v35.761719h-32v-35.761719c0-65.824219-16.472656-131.117187-47.496094-189.140625 12.9375-4.59375 26.671875-7.097656 40.679688-7.097656zm38.894532 257.136719c3.359374-.738281 6.792968-1.136719 10.289062-1.136719 16.625 0 31.289062 8.496094 39.902344 21.367188-15.871094-2.886719-31.957032-4.535157-48.132813-5.039063.0625-.914063.230469-1.800781.230469-2.710937 0-4.402344-.894531-8.554688-2.289062-12.480469zm-13.710938 12.480469c0 4.886718-1.679688 9.679687-4.742188 13.503906l-10.515624 13.152344c-8 9.992187-19.925782 15.726562-32.742188 15.726562s-24.742188-5.734375-32.742188-15.734375l-10.523437-13.152344c-3.054687-3.816406-4.734375-8.617187-4.734375-13.496093 0-11.921876 9.695312-21.617188 21.609375-21.617188h52.78125c11.914063 0 21.609375 9.695312 21.609375 21.617188zm-111.769531 2.710937c-16.175781.503906-32.261719 2.152344-48.132813 5.039063 8.613282-12.871094 23.277344-21.367188 39.902344-21.367188 3.496094 0 6.929688.40625 10.289062 1.144531-1.394531 3.917969-2.289062 8.070313-2.289062 12.472657 0 .910156.167969 1.796874.230469 2.710937zm-160.230469-210.015625c0-9.746094-.496094-19.617188-1.464844-29.34375l-4.183594-41.878906c-.480468-4.800782-.816406-9.648438-1.144531-14.480469 8.28125.71875 16.503907 2.070313 24.546875 4.078125 11.980469 3 23.597656 7.417969 34.542969 13.128906l7.40625-14.183594c-12.0625-6.296874-24.871094-11.167968-38.070313-14.472656-9.578124-2.390625-19.375-3.9375-29.242187-4.664062-.101563-2.832032-.269531-5.664063-.320313-8.496094h11.632813c12.816406 0 25.625 1.574219 38.058594 4.679688 27.574219 6.894531 52.78125 21.167968 72.878906 41.265624l9.589844 9.597657c-5.015625 3.351562-9.804688 7.03125-14.367188 11.007812l-7.917969-7.917969c-7.808593-7.792968-16.371093-14.855468-25.480468-21.007812l-8.945313 13.253906c8.257813 5.585938 16.039063 12 23.121094 19.066406l7.792969 7.789063c-5.730469 6.3125-10.914063 13.160156-15.425782 20.539063l-30.6875 50.214843c-7.351562 12.03125-12.710937 25.0625-16.097656 38.601563-22.808594-18.84375-36.222656-46.808594-36.222656-76.777344zm48 110.40625c0-22.542969 6.214844-44.640625 17.976562-63.878906l30.6875-50.214844c11.945313-19.546875 29.152344-35.039062 49.121094-45.191406 30.214844 56 46.214844 119.152344 46.214844 182.804687v36.328125c-8.0625 1.226563-15.328125 4.882813-20.863281 10.371094-6.167969-1.9375-12.578125-2.9375-19.136719-2.9375-27.375 0-50.71875 17.3125-59.847656 41.527344l-27.464844-47.085938c-10.917969-18.714844-16.6875-40.058594-16.6875-61.722656zm56 131.28125c0-3.015625.3125-5.960938.847656-8.824219 19.71875-4.273437 39.847656-6.648437 60.097656-7 .976563 1.71875 2.054688 3.375 3.292969 4.929688l.800781 1c-20.304687 9.878906-39.40625 22.308593-56.75 36.824219-5.226562-7.683594-8.289062-16.953126-8.289062-26.929688zm19.40625 38.464844c17.058594-14.160156 35.9375-26.128906 55.96875-35.519532 4.871094 5.902344 10.769531 10.648438 17.3125 14.152344-6.984375 18.445313-24.480469 30.902344-44.6875 30.902344-10.71875 0-20.59375-3.574219-28.59375-9.535156zm100.59375 41.535156c-24.800781 0-38.929688-13.800781-45.097656-21.894531 14.976562-6.914063 26.867187-19.488281 32.859375-35.433594 3.972656.847656 8.070312 1.328125 12.238281 1.328125s8.265625-.480469 12.238281-1.328125c5.992188 15.9375 17.875 28.511719 32.839844 35.425781-6.191406 8.0625-20.375 21.902344-45.078125 21.902344zm72-32c-20.207031 0-37.703125-12.457031-44.695312-30.902344 6.542968-3.503906 12.4375-8.25 17.3125-14.152344 20.03125 9.390626 38.910156 21.359376 55.96875 35.519532-7.992188 5.960937-17.867188 9.535156-28.585938 9.535156zm-17.046875-57.894531.800781-1c1.238282-1.554688 2.324219-3.21875 3.300782-4.9375 20.25.359375 40.378906 2.726562 60.097656 7 .535156 2.871093.847656 5.816406.847656 8.832031 0 9.976562-3.0625 19.246094-8.296875 26.9375-17.34375-14.523438-36.445313-26.953125-56.75-36.832031zm104.367187-59.65625-27.472656 47.085937c-9.128906-24.222656-32.472656-41.535156-59.847656-41.535156-6.558594 0-12.96875 1-19.136719 2.9375-5.535156-5.496094-12.800781-9.152344-20.863281-10.371094v-36.328125c0-63.652343 16-126.804687 46.214844-182.804687 19.96875 10.160156 37.175781 25.644531 49.121094 45.191406l30.6875 50.214844c11.761718 19.238281 17.976562 41.328125 17.976562 63.878906 0 21.664062-5.769531 43.007812-16.679688 61.730469zm66.144532-201.480469c-.96875 9.726562-1.464844 19.597656-1.464844 29.34375 0 29.96875-13.414062 57.933594-36.222656 76.785156-3.394532-13.546875-8.746094-26.578125-16.097656-38.601562l-30.6875-50.214844c-4.503907-7.378906-9.695313-14.234375-15.425782-20.539062l7.792969-7.789063c20.105469-20.105469 45.304687-34.367187 72.878906-41.265625 8.050781-2.015625 16.273438-3.367188 24.554688-4.078125-.335938 4.839844-.664063 9.679687-1.144531 14.480469zm0 0"/><path d="m344 168.5c-12.273438 0-24.289062 4.976562-32.96875 13.65625l-18.34375 18.34375 18.34375 18.34375c8.679688 8.679688 20.695312 13.65625 32.96875 13.65625s24.289062-4.976562 32.96875-13.65625l18.34375-18.34375-18.34375-18.34375c-8.679688-8.679688-20.695312-13.65625-32.96875-13.65625zm21.65625 39.03125c-5.703125 5.695312-13.59375 8.96875-21.65625 8.96875s-15.953125-3.273438-21.65625-8.96875l-7.03125-7.03125 7.03125-7.03125c5.703125-5.695312 13.59375-8.96875 21.65625-8.96875s15.953125 3.273438 21.65625 8.96875l7.03125 7.03125zm0 0"/></svg>