<svg height="496pt" viewBox="-22 0 496 496" width="496pt" xmlns="http://www.w3.org/2000/svg"><path d="m382.808594 143.121094-4.480469.878906-3.359375 1.679688c-9.601562-18.320313-22.5625-34.558594-38-48.078126l1.359375-1.601562 4-4c7.917969-7.921875 14.558594-17.121094 19.601563-27.199219 5.039062-10.082031 12.71875-18.242187 21.839843-23.921875 9.199219-5.679687 20-8.878906 31.199219-8.878906 6.160156 0 12 .878906 17.519531 2.640625 6.238281 9.359375 9.839844 20.640625 9.839844 32.71875v3.199219c0 11.441406-2.640625 22.800781-7.839844 33.042968-5.121093 10.238282-12.398437 18.957032-21.28125 25.757813-8.800781 6.800781-19.199219 11.519531-30.398437 13.761719zm0 0" fill="#e6e9ed"/><path d="m110.328125 92 4 4 1.359375 1.601562-8.160156 7.597657c-11.839844 11.839843-22 25.519531-29.839844 40.480469l-3.359375-1.679688-4.480469-.878906c-11.199218-2.242188-21.601562-6.960938-30.398437-13.761719-8.882813-6.800781-16.160157-15.519531-21.28125-25.757813-5.199219-10.242187-7.839844-21.601562-7.839844-33.042968v-3.199219c0-12.078125 3.601563-23.359375 9.839844-32.71875 5.519531-1.761719 11.359375-2.640625 17.519531-2.640625 11.199219 0 22 3.199219 31.199219 8.878906 9.121093 5.679688 16.800781 13.839844 21.839843 23.921875 5.042969 10.078125 11.679688 19.277344 19.601563 27.199219zm0 0" fill="#e6e9ed"/><path d="m142.328125 68 4 4 1.679687 3.359375-9.121093 5.199219c-8.238281 4.960937-16 10.722656-23.199219 17.042968l-1.359375-1.601562-4-4c-7.921875-7.921875-14.558594-17.121094-19.601563-27.199219-5.039062-10.082031-12.71875-18.242187-21.839843-23.921875-9.199219-5.679687-20-8.878906-31.199219-8.878906-6.160156 0-12 .878906-17.519531 2.640625 2.160156-3.359375 4.71875-6.480469 7.519531-9.28125 10.800781-10.71875 25.601562-17.359375 42-17.359375 11.199219 0 22 3.199219 31.199219 8.878906 9.121093 5.679688 16.800781 13.839844 21.839843 23.921875 5.042969 10.078125 11.679688 19.277344 19.601563 27.199219zm0 0" fill="#b27946"/><path d="m342.328125 92-4 4-1.359375 1.601562c-7.199219-6.320312-14.960938-12.082031-23.199219-17.042968-2.960937-1.839844-6-3.597656-9.121093-5.199219l1.679687-3.359375 4-4c7.917969-7.921875 14.558594-17.121094 19.601563-27.199219 5.039062-10.082031 12.71875-18.242187 21.839843-23.921875 9.199219-5.679687 20-8.878906 31.199219-8.878906 16.398438 0 31.199219 6.640625 42 17.359375 2.800781 2.800781 5.359375 5.921875 7.519531 9.28125-5.519531-1.761719-11.359375-2.640625-17.519531-2.640625-11.199219 0-22 3.199219-31.199219 8.878906-9.121093 5.679688-16.800781 13.839844-21.839843 23.921875-5.042969 10.078125-11.683594 19.277344-19.601563 27.199219zm0 0" fill="#b27946"/><path d="m394.328125 224v16l.160156 1.039062c-7.519531 1.039063-14.960937 2.722657-22.082031 5.121094-12.160156 4.078125-23.679688 10-34.078125 17.839844v-24l-8.558594 1.441406c-25.28125 4.238282-48 18-63.441406 38.558594l-.640625.640625c-4.160156-4.082031-9.441406-6.960937-15.441406-8.082031l.082031-.558594v-37.519531c0-57.679688 22.800781-113.039063 63.441406-153.921875 8.238281 4.960937 16 10.722656 23.199219 17.042968 15.4375 13.519532 28.398438 29.757813 38 48.078126 12.398438 23.359374 19.359375 50 19.359375 78.320312zm0 0" fill="#cf9e76"/><path d="m186.328125 280c-15.441406-20.558594-38.160156-34.320312-63.441406-38.558594l-8.558594-1.441406v24c-10.398437-7.839844-21.921875-13.761719-34.082031-17.839844-7.199219-2.398437-14.558594-4.082031-22.078125-5.121094l.160156-1.039062v-16c0-28.320312 6.960937-54.960938 19.359375-78.320312 7.839844-14.960938 18-28.640626 29.839844-40.480469l8.160156-7.597657c7.199219-6.320312 14.960938-12.082031 23.199219-17.042968 40.640625 40.882812 63.441406 96.242187 63.441406 153.921875v37.519531l.078125.558594c-6 1.121094-11.277344 4-15.4375 8.082031zm0 0" fill="#cf9e76"/><path d="m244.726562 272h-36.796874c-1.921876 0-3.761719.160156-5.523438.558594l-.078125-.558594v-37.519531c0-57.679688-22.800781-113.039063-63.441406-153.921875l9.121093-5.199219c23.359376-12.398437 50-19.359375 78.320313-19.359375s54.960937 6.960938 78.320313 19.359375c3.121093 1.601563 6.160156 3.359375 9.121093 5.199219-40.640625 40.882812-63.441406 96.242187-63.441406 153.921875v37.519531l-.082031.558594c-1.757813-.398438-3.597656-.558594-5.519532-.558594zm0 0" fill="#b27946"/><g fill="#e6e9ed"><path d="m227.847656 399.039062c8.640625 12.960938 22.480469 22.082032 38.558594 24.402344l-.078125.558594-16 64h-24v-88zm0 0"/><path d="m226.328125 400v88h-24l-16-64-.082031-.558594c17.042968-2.402344 31.601562-12.5625 40.082031-26.722656.480469.800781.960937 1.601562 1.519531 2.320312zm0 0"/><path d="m441.367188 323.121094.960937 4.878906-32-8 .878906 2.558594c4.722657 14.242187 7.121094 29.042968 7.121094 44 0 22.480468-9.121094 42.882812-23.839844 57.601562s-35.121093 23.839844-57.601562 23.839844c-14.796875 0-29.277344-4-41.917969-11.601562l-20.640625-12.398438c30.960937 0 56-25.039062 56-56s-25.039063-56-56-56l-1.679687-.558594c1.121093-3.121094 1.679687-6.480468 1.679687-9.839844 0-8.160156-3.359375-15.523437-8.640625-20.960937l.640625-.640625c15.441406-20.558594 38.160156-34.320312 63.441406-38.558594l8.558594-1.441406v24c10.398437-7.839844 21.917969-13.761719 34.078125-17.839844 7.121094-2.398437 14.5625-4.082031 22.082031-5.121094 5.199219-.71875 10.558594-1.039062 15.839844-1.039062h16l-24 32c10.078125 5.039062 18.71875 12.320312 25.441406 21.039062 6.636719 8.722657 11.359375 18.960938 13.597657 30.082032zm0 0"/><path d="m178.328125 301.601562c0 3.359376.558594 6.71875 1.679687 9.839844l-1.679687.558594c-30.960937 0-56 25.039062-56 56s25.039063 56 56 56l-20.640625 12.398438c-12.640625 7.601562-27.121094 11.601562-41.917969 11.601562-22.480469 0-42.882812-9.121094-57.601562-23.839844s-23.839844-35.121094-23.839844-57.601562c0-14.957032 2.398437-29.757813 7.121094-44l.878906-2.558594-32 8 .960937-4.878906c2.238282-11.121094 6.957032-21.359375 13.597657-30.082032 6.722656-8.71875 15.359375-16 25.441406-21.039062l-24-32h16c5.28125 0 10.640625.320312 15.839844 1.039062 7.519531 1.039063 14.878906 2.722657 22.078125 5.121094 12.160156 4.078125 23.683594 10 34.082031 17.839844v-24l8.558594 1.441406c25.28125 4.238282 48 18 63.441406 38.558594l.640625.640625c-5.28125 5.4375-8.640625 12.800781-8.640625 20.960937zm0 0"/></g><path d="m274.328125 312c30.960937 0 56 25.039062 56 56s-25.039063 56-56 56c-2.71875 0-5.359375-.160156-7.921875-.558594-16.078125-2.320312-29.917969-11.441406-38.558594-24.402344-.558594-.71875-1.039062-1.519531-1.519531-2.320312-8.480469 14.160156-23.039063 24.320312-40.082031 26.722656-2.558594.398438-5.199219.558594-7.917969.558594-30.960937 0-56-25.039062-56-56s25.039063-56 56-56l1.679687-.558594c1.121094 3.117188 2.71875 6 4.800782 8.636719l16.640625 20.800781c5.597656 7.042969 14.078125 11.121094 23.117187 11.121094h3.523438c9.039062 0 17.519531-4.078125 23.117187-11.121094l16.640625-20.800781c2.082032-2.636719 3.679688-5.519531 4.800782-8.636719zm0 0" fill="#b27946"/><path d="m207.929688 272h36.796874c1.921876 0 3.761719.160156 5.519532.558594 6 1.121094 11.28125 4 15.441406 8.082031 5.28125 5.4375 8.640625 12.800781 8.640625 20.960937 0 3.359376-.558594 6.71875-1.679687 9.839844-1.121094 3.117188-2.71875 6-4.800782 8.636719l-16.640625 20.800781c-5.597656 7.042969-14.078125 11.121094-23.117187 11.121094h-3.523438c-9.039062 0-17.519531-4.078125-23.117187-11.121094l-16.640625-20.800781c-2.082032-2.636719-3.679688-5.519531-4.800782-8.636719-1.121093-3.121094-1.679687-6.480468-1.679687-9.839844 0-8.160156 3.359375-15.523437 8.640625-20.960937 4.160156-4.082031 9.4375-6.960937 15.4375-8.082031 1.761719-.398438 3.601562-.558594 5.523438-.558594zm0 0" fill="#656d78"/><path d="m330.328125 176c0 8.835938-7.164063 16-16 16s-16-7.164062-16-16 7.164063-16 16-16 16 7.164062 16 16zm0 0" fill="#656d78"/><path d="m154.328125 176c0 8.835938-7.164063 16-16 16s-16-7.164062-16-16 7.164063-16 16-16 16 7.164062 16 16zm0 0" fill="#656d78"/><path d="m234.328125 296h16v16h-16zm0 0"/><path d="m202.328125 296h16v16h-16zm0 0"/><path d="m452.65625 338.832031-3.464844-17.320312c-4.320312-21.601563-16.894531-40.085938-35.039062-51.9375l28.175781-37.574219h-32c-2.671875 0-5.335937.097656-8 .273438v-8.273438c0-26.238281-5.816406-51.128906-16.152344-73.519531 24.191407-5.390625 44.367188-21.03125 55.496094-43.28125 5.664063-11.328125 8.65625-24.007813 8.65625-36.671875v-3.199219c0-37.128906-30.199219-67.328125-67.335937-67.328125-25.664063 0-48.746094 14.265625-60.222657 37.214844-4.65625 9.320312-10.753906 17.777344-18.121093 25.144531l-2.726563 2.730469c-22.914063-10.945313-48.546875-17.089844-75.59375-17.089844s-52.679687 6.144531-75.59375 17.089844l-2.726563-2.730469c-7.367187-7.367187-13.464843-15.832031-18.121093-25.144531-11.488281-22.949219-34.558594-37.214844-60.222657-37.214844-37.136718 0-67.335937 30.199219-67.335937 67.335938v3.199218c0 12.664063 2.992187 25.34375 8.65625 36.671875 11.128906 22.25 31.304687 37.890625 55.496094 43.28125-10.335938 22.382813-16.152344 47.273438-16.152344 73.511719v8.273438c-2.664063-.175782-5.328125-.273438-8-.273438h-32l28.175781 37.574219c-18.144531 11.851562-30.71875 30.335937-35.039062 51.9375l-3.464844 17.320312 30.648438-7.664062c-2.871094 11.566406-4.320313 23.425781-4.320313 35.390625 0 49.3125 40.128906 89.441406 89.441406 89.441406 16.207031 0 32.117188-4.40625 46.015625-12.742188l18.351563-11.019531 15.941406 63.761719h60.496094l15.945312-63.761719 18.351563 11.019531c13.898437 8.335938 29.808594 12.742188 46.015625 12.742188 49.3125 0 89.441406-40.128906 89.441406-89.441406 0-11.964844-1.449219-23.824219-4.320313-35.390625zm-66.328125-104.503906c-14.03125 2.703125-27.609375 7.703125-40 14.839844v-18.617188l-17.855469 2.984375c-25.136718 4.183594-47.578125 17-64.023437 36.199219-1.9375-1.207031-3.96875-2.246094-6.121094-3.085937v-32.136719c0-53.800781 20.097656-104.488281 56.648437-143.601563 42.976563 28.722656 71.351563 77.640625 71.351563 133.089844zm-112 181.671875c-16.976563 0-32.351563-8.742188-41.144531-23.382812l-6.855469-11.433594-6.855469 11.433594c-8.792968 14.640624-24.167968 23.382812-41.144531 23.382812-26.472656 0-48-21.527344-48-48 0-25.433594 19.894531-46.246094 44.929687-47.847656.972657 1.726562 2.0625 3.390625 3.308594 4.953125l16.625 20.78125c7.175782 8.96875 17.878906 14.113281 29.367188 14.113281h3.53125c11.484375 0 22.191406-5.144531 29.367187-14.121094l16.621094-20.773437c1.25-1.5625 2.335937-3.226563 3.3125-4.953125 25.042969 1.601562 44.9375 22.414062 44.9375 47.847656 0 26.472656-21.527344 48-48 48zm-66.382813-136h36.773438c11.914062 0 21.609375 9.695312 21.609375 21.617188 0 4.886718-1.679687 9.679687-4.734375 13.503906l-16.625 20.773437c-4.121094 5.144531-10.273438 8.105469-16.871094 8.105469h-3.53125c-6.597656 0-12.75-2.960938-16.878906-8.113281l-16.625-20.773438c-3.054688-3.816406-4.734375-8.617187-4.734375-13.496093 0-11.921876 9.695313-21.617188 21.617187-21.617188zm226.382813-209.472656c0 10.191406-2.40625 20.402344-6.96875 29.511718-9.175781 18.351563-25.976563 31.183594-46.09375 35.207032l-2.730469.546875c-8.261718-14.207031-18.457031-27.160157-30.230468-38.496094 8.421874-8.503906 15.421874-18.226563 20.773437-28.929687 8.753906-17.496094 26.355469-28.367188 45.914063-28.367188 4.230468 0 8.351562.679688 12.398437 1.6875 4.386719 7.558594 6.9375 16.296875 6.9375 25.648438zm-97.238281-26.152344c8.742187-17.503906 26.34375-28.375 45.902344-28.375 10.273437 0 19.832031 3.0625 27.871093 8.289062-23.976562 1.453126-45.238281 15.222657-56.09375 36.933594-4.65625 9.320313-10.753906 17.777344-18.121093 25.144532l-.359376.359374c-6.234374-5.007812-12.800781-9.605468-19.6875-13.734374 8.285157-8.433594 15.199219-18.039063 20.488282-28.617188zm-36.226563 38.160156c-37.832031 41.722656-58.535156 95.257813-58.535156 151.96875v29.496094h-32v-29.496094c0-56.710937-20.703125-110.246094-58.535156-151.96875 22.277343-11.78125 47.621093-18.535156 74.535156-18.535156 26.910156 0 52.257813 6.753906 74.535156 18.535156zm-185.296875-38.160156c5.289063 10.578125 12.195313 20.183594 20.488282 28.609375-6.886719 4.128906-13.453126 8.734375-19.6875 13.734375l-.359376-.359375c-7.367187-7.367187-13.464843-15.832031-18.121093-25.144531-10.855469-21.710938-32.109375-35.480469-56.09375-36.933594 8.03125-5.21875 17.589843-8.28125 27.871093-8.28125 19.558594 0 37.160157 10.871094 45.902344 28.375zm-44.183594 90.882812c-20.109374-4.027343-36.910156-16.859374-46.085937-35.210937-4.5625-9.117187-6.96875-19.328125-6.96875-29.519531v-3.199219c0-9.34375 2.550781-18.089844 6.9375-25.640625 4.039063-1.007812 8.167969-1.6875 12.398437-1.6875 19.566407 0 37.160157 10.871094 45.910157 28.375 5.355469 10.714844 12.355469 20.433594 20.777343 28.929688-11.765624 11.335937-21.960937 24.28125-30.230468 38.496093zm-5.054687 88.742188c0-55.449219 28.375-104.367188 71.351563-133.089844 36.550781 39.113282 56.648437 89.800782 56.648437 143.59375v32.136719c-2.152344.839844-4.183594 1.886719-6.121094 3.085937-16.453125-19.199218-38.886719-32.015624-64.023437-36.199218l-17.855469-2.976563v18.617188c-12.390625-7.128907-25.96875-12.136719-40-14.839844zm49.441406 216c-40.496093 0-73.441406-32.945312-73.441406-73.441406 0-14.101563 2.265625-28.039063 6.71875-41.421875l5.488281-16.433594-33.382812 8.34375c5.375-16.453125 17.007812-30.015625 32.757812-37.886719l8.578125-4.289062-20.160156-26.871094c24.070313 0 47.9375 7.960938 67.199219 22.398438l12.800781 9.601562v-30.550781c21.382813 3.742187 40.414063 14.847656 54.3125 31.367187-3.976563 5.96875-6.3125 13.113282-6.3125 20.800782 0 .976562.167969 1.933593.246094 2.902343-31.636719 3.839844-56.246094 30.816407-56.246094 63.480469 0 27.496094 17.457031 50.921875 41.847656 59.96875l-2.617187 1.566406c-11.414063 6.847656-24.480469 10.464844-37.789063 10.464844zm80.175781-10.527344c8.199219-2.328125 15.773438-6.265625 22.382813-11.609375v62.136719h-9.753906zm48.132813 50.527344h-9.75v-62.128906c6.609375 5.34375 14.183594 9.273437 22.382813 11.609375zm92.808594-40c-13.3125 0-26.375-3.617188-37.78125-10.464844l-2.617188-1.566406c24.382813-9.046875 41.839844-32.472656 41.839844-59.96875 0-32.664062-24.609375-59.640625-56.25-63.480469.082031-.976562.25-1.925781.25-2.902343 0-7.6875-2.335937-14.832032-6.3125-20.792969 13.894531-16.527344 32.929687-27.625 54.3125-31.367188v30.542969l12.800781-9.601562c19.261719-14.4375 43.128906-22.398438 67.199219-22.398438l-20.152344 26.871094 8.578125 4.289062c15.742188 7.871094 27.375 21.433594 32.757813 37.886719l-33.382813-8.34375 5.488282 16.425781c4.445312 13.382813 6.710937 27.328125 6.710937 41.429688 0 40.496094-32.945313 73.441406-73.441406 73.441406zm0 0"/><path d="m138.328125 200c13.230469 0 24-10.769531 24-24s-10.769531-24-24-24-24 10.769531-24 24 10.769531 24 24 24zm0-32c4.40625 0 8 3.59375 8 8s-3.59375 8-8 8-8-3.59375-8-8 3.59375-8 8-8zm0 0"/><path d="m314.328125 152c-13.230469 0-24 10.769531-24 24s10.769531 24 24 24 24-10.769531 24-24-10.769531-24-24-24zm0 32c-4.40625 0-8-3.59375-8-8s3.59375-8 8-8 8 3.59375 8 8-3.59375 8-8 8zm0 0"/></svg>