<svg height="496pt" viewBox="0 0 496 496" width="496pt" xmlns="http://www.w3.org/2000/svg"><path d="m144.398438 248c-.238282 2.640625-.398438 5.28125-.398438 8 0 7.921875.800781 15.761719 2.238281 23.441406l-2.238281.558594h-27.519531c-2.960938 0-5.921875-.398438-8.800781-1.121094-16.320313-4-27.679688-18.640625-27.679688-35.359375v-35.519531h.078125c.640625 15.199219 9.441406 28.800781 23.042969 35.601562 5.839844 2.878907 12.238281 4.398438 18.800781 4.398438zm0 0" fill="#b27946"/><path d="m152 216 2.640625.160156c-.71875 1.359375-1.519531 2.71875-2.160156 4.078125-4.320313 8.640625-7.121094 18-8.082031 27.761719h-22.476563c-6.5625 0-12.960937-1.519531-18.800781-4.398438-13.601563-6.800781-22.402344-20.402343-23.042969-35.601562-.078125-.640625-.078125-1.28125-.078125-1.921875v-6.078125zm0 0" fill="#dfb28b"/><path d="m416 208v35.519531c0 16.71875-11.359375 31.359375-27.679688 35.359375-2.878906.722656-5.839843 1.121094-8.800781 1.121094h-27.519531l-2.238281-.558594c1.4375-7.679687 2.238281-15.519531 2.238281-23.441406l-.398438-8h22.476563c6.5625 0 12.960937-1.519531 18.800781-4.398438 13.601563-6.800781 22.402344-20.402343 23.042969-35.601562zm0 0" fill="#b27946"/><path d="m344 216 72-16v6.078125c0 .640625 0 1.28125-.078125 1.921875-.640625 15.199219-9.441406 28.800781-23.042969 35.601562-5.839844 2.878907-12.238281 4.398438-18.800781 4.398438h-22.476563c-4.402343-19.761719-6.082031-23.839844-8.082031-27.761719-.640625-1.359375-1.441406-2.71875-2.160156-4.078125zm0 0" fill="#dfb28b"/><path d="m488 57.679688c0 4.160156-.960938 8.242187-2.800781 12l-3.277344 6.558593c-11.921875 23.761719-25.921875 46.480469-41.921875 67.761719l21.601562 28.800781c1.519532 2.078125 2.398438 4.640625 2.398438 7.199219 0 6.640625-5.359375 12-12 12h-.800781c-2.078125 0-4.160157-.558594-6-1.601562l-48.160157-27.519532c-3.277343-1.917968-7.039062-2.878906-10.800781-2.878906-6.476562 0-12.636719 2.878906-16.796875 7.839844l-33.441406 40.160156c-4.480469-6-9.839844-11.441406-16-16-2.960938-2.238281-6-4.320312-9.121094-6.160156l1.121094-1.839844c26.558594-31.839844 48.398438-67.28125 65.039062-105.28125l28.402344-64.957031c1.597656-3.523438 5.039063-5.761719 8.878906-5.761719 5.359376 0 9.679688 4.320312 9.679688 9.679688v3.679687c0 1.761719-.160156 3.519531-.558594 5.28125-4.882812 24.71875-14.082031 48.398437-27.042968 70.078125l-2.636719 4.402344c-1.121094 1.839844-1.761719 4.078125-1.761719 6.320312v.238282c0 6.800781 5.519531 12.320312 12.320312 12.320312 2.398438 0 4.71875-.71875 6.800782-2.078125 13.757812-9.203125 25.839844-20.882813 35.519531-34.402344l22.480469-31.441406c1.839844-2.558594 4.71875-4.078125 7.839844-4.078125h1.359374c5.359376 0 9.679688 4.320312 9.679688 9.679688zm0 0" fill="#b27946"/><path d="m10.800781 69.679688c-1.839843-3.757813-2.800781-7.839844-2.800781-12 0-5.359376 4.320312-9.679688 9.679688-9.679688h1.359374c3.121094 0 6 1.519531 7.839844 4.078125l22.480469 31.441406c9.679687 13.519531 21.761719 25.199219 35.519531 34.402344 2.082032 1.359375 4.402344 2.078125 6.800782 2.078125 6.800781 0 12.320312-5.519531 12.320312-12.320312v-.238282c0-2.242187-.640625-4.480468-1.761719-6.320312l-2.636719-4.402344c-12.960937-21.679688-22.160156-45.359375-27.042968-70.078125-.398438-1.761719-.558594-3.519531-.558594-5.28125v-3.679687c0-5.359376 4.320312-9.679688 9.679688-9.679688 3.839843 0 7.28125 2.238281 8.878906 5.761719l28.402344 64.957031c16.640624 38 38.480468 73.441406 65.039062 105.28125v2.480469c-2.71875 1.679687-5.441406 3.597656-8 5.519531-6.160156 4.558594-11.519531 10-16 16l-33.441406-40.160156c-4.160156-4.960938-10.320313-7.839844-16.796875-7.839844-3.761719 0-7.523438.960938-10.800781 2.878906l-48.160157 27.519532c-1.839843 1.042968-3.921875 1.601562-6 1.601562h-.800781c-6.640625 0-12-5.359375-12-12 0-2.558594.878906-5.121094 2.398438-7.199219l21.601562-28.800781c-16-21.28125-30-44-41.921875-67.761719zm0 0" fill="#b27946"/><path d="m351.601562 248c-4.402343-19.761719-6.082031-23.839844-8.082031-27.761719-.640625-1.359375-1.441406-2.71875-2.160156-4.078125-1.597656-2.800781-3.4375-5.519531-5.359375-8.160156-4.480469-6-9.839844-11.441406-16-16-2.960938-2.238281-6-4.320312-9.121094-6.160156l-15.4375-8c-3.121094-1.359375-6.320312-2.558594-9.519531-3.679688-12.160156-4.082031-24.960937-6.160156-37.921875-6.160156s-25.761719 2.078125-37.921875 6.160156c-3.199219 1.121094-6.398437 2.320313-9.519531 3.679688-5.757813 2.398437-11.277344 5.28125-16.558594 8.640625-2.71875 1.679687-5.441406 3.597656-8 5.519531-6.160156 4.558594-11.519531 10-16 16-1.921875 2.640625-3.761719 5.359375-5.359375 8.160156-.71875 1.359375-1.519531 2.71875-2.160156 4.078125-4.320313 8.640625-7.121094 18-8.082031 27.761719-.238282 2.640625-.398438 5.28125-.398438 8 0 7.921875.800781 15.761719 2.238281 23.441406 2.5625 12.71875 7.121094 24.957032 13.601563 36.320313 10.71875 18.71875 18.800781 38.878906 24.082031 59.757812l8.078125 32.480469.480469.078125c.960937-7.117187 3.28125-13.839844 6.71875-20 4.640625-8.15625 11.359375-15.117187 19.679687-20.15625 4.320313-2.640625 8.882813-4.5625 13.679688-5.921875 4.800781-1.359375 9.761718-2 14.800781-2h1.28125c10.078125 0 19.917969 2.71875 28.480469 7.921875 14.640625 8.71875 24.238281 23.597656 26.398437 40.15625l.480469-.078125 8.078125-32.480469c5.28125-20.878906 13.363281-41.039062 24.082031-59.757812 6.480469-11.363281 11.039063-23.601563 13.601563-36.320313 1.4375-7.679687 2.238281-15.519531 2.238281-23.441406zm0 0" fill="#dfb28b"/><path d="m247.359375 360c-5.039063 0-10 .640625-14.800781 2l-.558594-2-2.558594-36.320312c-3.519531-49.601563-13.28125-98.558594-28.882812-145.839844 3.121094-1.359375 6.320312-2.558594 9.519531-3.679688 12.160156-4.082031 24.960937-6.160156 37.921875-6.160156s25.761719 2.078125 37.921875 6.160156c3.199219 1.121094 6.398437 2.320313 9.519531 3.679688-15.601562 47.28125-25.363281 96.238281-28.882812 145.839844l-2.558594 36.320312zm0 0" fill="#e6e9ed"/><path d="m257.441406 452.71875c4.320313 2.160156 9.039063 3.28125 13.917969 3.28125 5.679687 0 11.121094-1.519531 15.839844-4.480469-2.480469 9.761719-11.917969 36.480469-39.199219 36.480469s-36.71875-26.71875-39.199219-36.480469c4.71875 2.960938 10.160157 4.480469 15.839844 4.480469 4.878906 0 9.597656-1.121094 13.917969-3.28125l8.882812-4.398438v-.398437c.160156.078125.398438.078125.558594.078125s.398438 0 .558594-.078125v.398437zm0 0" fill="#ccd1d9"/><path d="m303.519531 408.078125c-2.160156-16.558594-11.757812-31.4375-26.398437-40.15625-8.5625-5.203125-18.402344-7.921875-28.480469-7.921875h-1.28125c-5.039063 0-10 .640625-14.800781 2-4.796875 1.359375-9.359375 3.28125-13.679688 5.921875-8.320312 5.039063-15.039062 12-19.679687 20.15625-3.4375 6.160156-5.757813 12.882813-6.71875 20-.320313 2.402344-.480469 4.800781-.480469 7.28125v4.480469c0 7.921875 2.320312 15.679687 6.800781 22.320312 2.640625 3.917969 6.078125 7.121094 10 9.359375 4.71875 2.960938 10.160157 4.480469 15.839844 4.480469 4.878906 0 9.597656-1.121094 13.917969-3.28125l8.882812-4.398438v-.398437h1.117188v.398437l8.882812 4.398438c4.320313 2.160156 9.039063 3.28125 13.917969 3.28125 5.679687 0 11.121094-1.519531 15.839844-4.480469 3.921875-2.238281 7.359375-5.441406 10-9.359375 4.480469-6.640625 6.800781-14.398437 6.800781-22.320312v-4.480469c0-2.480469-.160156-4.878906-.480469-7.28125zm0 0" fill="#e6e9ed"/><path d="m272 412.960938c0 2-.480469 4-1.359375 5.757812l-11.039063 22.160156c-2.160156 4.160156-6.402343 6.882813-11.042968 7.042969-.160156.078125-.398438.078125-.558594.078125s-.398438 0-.558594-.078125c-4.960937-.320313-8.960937-3.042969-11.042968-7.042969l-11.039063-22.160156c-.878906-1.757812-1.359375-3.757812-1.359375-5.757812 0-7.199219 5.761719-12.960938 12.960938-12.960938h22.078124c7.199219 0 12.960938 5.761719 12.960938 12.960938zm0 0" fill="#969faa"/><path d="m304 272h16v16h-16zm0 0"/><path d="m184 272h16v16h-16zm0 0"/><path d="m478.328125 40h-1.351563c-5.703124 0-11.082031 2.769531-14.375 7.398438l-22.503906 31.503906c-9.136718 12.777344-20.386718 23.671875-33.441406 32.378906-2.65625 1.765625-6.65625-.242188-6.65625-3.882812 0-.773438.207031-1.535157.609375-2.207032l2.621094-4.375c13.503906-22.503906 22.953125-46.945312 28.082031-72.625.464844-2.230468.6875-4.535156.6875-6.847656v-3.671875c0-9.742187-7.929688-17.671875-17.671875-17.671875-7.015625 0-13.367187 4.152344-16.191406 10.59375l-28.417969 64.957031c-15.71875 35.921875-36.277344 69.464844-61.046875 99.824219-18.574219-9.96875-39.542969-15.375-60.671875-15.375s-42.097656 5.40625-60.671875 15.375c-24.769531-30.359375-45.328125-63.902344-61.046875-99.824219l-28.417969-64.964843c-2.824219-6.433594-9.175781-10.585938-16.191406-10.585938-9.742187 0-17.671875 7.929688-17.671875 17.671875v3.671875c0 2.3125.222656 4.617188.679688 6.824219 5.136718 25.703125 14.585937 50.152343 28.089843 72.648437l2.621094 4.382813c.402344.664062.609375 1.425781.609375 2.519531 0 3.210938-4.007812 5.335938-6.65625 3.5625-13.054688-8.707031-24.304688-19.601562-33.441406-32.378906l-22.496094-31.496094c-3.300781-4.636719-8.679688-7.40625-14.382812-7.40625h-1.351563c-9.742187 0-17.671875 7.929688-17.671875 17.671875 0 5.367187 1.265625 10.753906 3.671875 15.566406l3.28125 6.5625c11.199219 22.390625 24.328125 43.953125 39.070313 64.167969l-18.03125 24.039062c-2.578126 3.441407-3.992188 7.695313-3.992188 11.992188 0 11.023438 8.96875 20 20 20h.816406c3.472656 0 6.894532-.910156 9.917969-2.640625l48.21875-27.550781c5.621094-3.207032 13.285156-1.839844 17.4375 3.152344l28.449219 34.136718-76.839844-17.074218v16.089843c0 .640625.105469 1.253907.128906 1.886719h-.128906v35.503906c0 20.449219 13.855469 38.199219 33.703125 43.167969 3.527344.878906 7.160156 1.328125 10.792969 1.328125h23.59375c2.847656 11.070312 7.132812 21.769531 12.847656 31.753906 10.328125 18.0625 18.132812 37.484375 23.191406 57.710938l8.117188 32.472656.113281-.035156c-.160156 1.808594-.359375 3.601562-.359375 5.425781v4.488281c0 9.558594 2.808594 18.824219 8.113281 26.769532 2.65625 3.988281 5.976563 7.375 9.75 10.078124 4.992188 16.609376 18.761719 39.335938 46.136719 39.335938s41.144531-22.726562 46.136719-39.335938c3.773437-2.710937 7.09375-6.097656 9.75-10.078124 5.304687-7.953126 8.113281-17.21875 8.113281-26.777344v-4.488282c0-1.824218-.199219-3.617187-.359375-5.410156l.113281.035156 8.117188-32.472656c5.066406-20.234375 12.863281-39.648437 23.191406-57.710937 5.707031-9.984375 10-20.683594 12.847656-31.753907h23.59375c3.625 0 7.257813-.449218 10.792969-1.328124 19.847656-4.976563 33.703125-22.71875 33.703125-43.175782v-35.503906h-.128906c.023437-.632812.128906-1.246094.128906-1.886719v-16.089843l-76.839844 17.074218 28.449219-34.136718c4.167969-5 11.824219-6.367188 17.445313-3.152344l48.210937 27.542968c3.023437 1.726563 6.453125 2.640626 9.917969 2.640626h.816406c11.03125 0 20-8.976563 20-20 0-4.296876-1.414062-8.550782-4-12l-18.023438-24.03125c14.742188-20.207032 27.863282-41.777344 39.070313-64.167969l3.28125-6.570313c2.40625-4.796875 3.671875-10.183594 3.671875-15.550781 0-9.742187-7.929688-17.671875-17.671875-17.671875zm-192.800781 142.59375c-14.421875 45.621094-23.511719 92.839844-26.910156 140.542969l-2.105469 29.398437c-2.589844-.328125-5.199219-.535156-7.832031-.535156h-1.359376c-2.632812 0-5.242187.207031-7.839843.535156l-2.105469-29.398437c-3.398438-47.703125-12.496094-94.921875-26.910156-140.542969 12.023437-4.28125 24.742187-6.59375 37.535156-6.59375 12.800781 0 25.511719 2.3125 37.527344 6.59375zm-190.519532-26.664062-48.207031 27.542968c-.609375.34375-1.296875.527344-1.984375.527344h-.816406c-2.199219 0-4-1.792969-4-4 0-.871094.28125-1.703125.800781-2.398438l25.199219-33.601562-3.601562-4.800781c-15.621094-20.832031-29.46875-43.222657-41.132813-66.550781l-3.28125-6.558594c-1.296875-2.601563-1.984375-5.515625-1.984375-8.417969 0-.917969.753906-1.671875 1.671875-1.671875h1.351563c.535156 0 1.039062.257812 1.359374.703125l22.503907 31.503906c10.257812 14.359375 22.898437 26.601563 37.578125 36.386719 3.351562 2.230469 7.238281 3.40625 11.253906 3.40625 11.175781 0 20.28125-9.097656 20.28125-20.601562 0-3.679688-1-7.292969-2.886719-10.429688l-2.625-4.382812c-12.550781-20.921876-21.34375-43.648438-26.128906-67.578126-.238281-1.199218-.359375-2.433593-.359375-3.664062v-3.671875c.007812-1.582031 2.574219-2.113281 3.207031-.664063l28.417969 64.960938c16.03125 36.632812 36.917969 70.871094 62.03125 101.941406-.816406.578125-1.664062 1.097656-2.464844 1.699219-4.023437 3.015625-7.640625 6.453125-11.046875 10.078125l-27.464843-32.960938c-8.984376-10.804687-25.511719-13.75-37.671876-6.796874zm47.953126 66.253906c-2.394532 5.726562-4.175782 11.679687-5.328126 17.816406h-15.746093c-5.230469 0-10.480469-1.238281-15.160157-3.574219-10.375-5.1875-17.222656-15.082031-18.511718-26.402343zm-26.464844 49.816406c-2.320313 0-4.648438-.289062-6.910156-.847656-12.714844-3.175782-21.585938-14.542969-21.585938-27.648438v-.761718c3.40625 3.136718 7.28125 5.84375 11.574219 7.984374 6.898437 3.449219 14.609375 5.273438 22.3125 5.273438h14.113281c0 5.359375.359375 10.703125 1.023438 16zm75.144531 101.585938c-5.417969-21.65625-13.769531-42.441407-24.824219-61.769532-9.6875-16.96875-14.816406-36.265625-14.816406-55.816406 0-22.535156 10.769531-44.070312 28.800781-57.601562 4.71875-3.535157 9.71875-6.671876 14.917969-9.40625 13.753906 43.9375 22.433594 89.375 25.714844 135.28125l2.308594 32.367187c-3.085938 1.238281-6.117188 2.65625-9 4.375-8.695313 5.214844-15.789063 12.480469-21.023438 20.886719zm56.359375 106.414062c-13.023438 0-20.992188-7.984375-25.734375-16.144531.796875.046875 1.582031.144531 2.390625.144531 6.039062 0 12.085938-1.433594 17.496094-4.128906l5.847656-2.925782 5.847656 2.925782c5.410156 2.695312 11.457032 4.128906 17.496094 4.128906.777344 0 1.527344-.097656 2.296875-.144531-4.769531 8.152343-12.71875 16.144531-25.640625 16.144531zm15.480469-64.839844-11.054688 22.105469c-1.691406 3.382813-7.160156 3.375-8.839843 0l-11.058594-22.113281c-.351563-.679688-.527344-1.449219-.527344-2.207032 0-2.730468 2.214844-4.945312 4.945312-4.945312h22.109376c2.730468 0 4.945312 2.214844 4.945312 4.945312 0 .757813-.175781 1.527344-.519531 2.214844zm32.519531 4.648438c0 6.390625-1.871094 12.582031-5.425781 17.902344-5.484375 8.234374-16.261719 11.953124-25.652344 9.351562.613281-.871094 1.316406-1.664062 1.8125-2.636719l11.058594-22.113281c1.4375-2.898438 2.207031-6.136719 2.207031-9.367188 0-11.554687-9.398438-20.945312-20.945312-20.945312h-22.109376c-11.546874 0-20.945312 9.390625-20.945312 20.945312 0 3.230469.769531 6.46875 2.207031 9.367188l11.058594 22.113281c.488281.972657 1.191406 1.765625 1.804687 2.628907-9.390624 2.601562-20.167968-1.109376-25.65625-9.351563-3.542968-5.3125-5.414062-11.503906-5.414062-17.894531v-4.488282c0-16.527343 8.808594-32.082031 22.96875-40.578124 7.367188-4.40625 15.785156-6.742188 24.351562-6.742188h1.359376c8.566406 0 16.984374 2.335938 24.34375 6.742188 14.167968 8.503906 22.976562 24.058593 22.976562 40.585937zm33.175781-107.992188c-11.054687 19.335938-19.40625 40.121094-24.824219 61.769532l-2.078124 8.324218c-5.234376-8.40625-12.328126-15.671875-21.035157-20.894531-2.878906-1.726563-5.902343-3.136719-8.992187-4.375l2.3125-32.367187c3.28125-45.90625 11.960937-91.34375 25.714844-135.28125 5.199218 2.734374 10.199218 5.871093 14.910156 9.40625 18.046875 13.53125 28.816406 35.066406 28.816406 57.601562 0 19.550781-5.128906 38.847656-14.824219 55.816406zm78.824219-69.0625v.757813c0 13.097656-8.871094 24.464843-21.574219 27.640625-2.265625.558594-4.59375.847656-6.921875.847656h-20.527344c.664063-5.296875 1.023438-10.640625 1.023438-16h14.113281c7.703125 0 15.421875-1.824219 22.3125-5.265625 4.292969-2.148437 8.167969-4.847656 11.574219-7.980469zm-18.734375-6.328125c-4.679687 2.335938-9.921875 3.574219-15.152344 3.574219h-15.746093c-1.152344-6.136719-2.933594-12.089844-5.328126-17.816406l54.746094-12.160156c-1.289062 11.3125-8.144531 21.207031-18.519531 26.402343zm88.75-170.347656-3.28125 6.5625c-11.664063 23.328125-25.503906 45.71875-41.132813 66.550781l-3.601562 4.808594 25.191406 33.59375c.527344.703125.808594 1.535156.808594 2.40625 0 2.207031-1.800781 4-4 4h-.816406c-.695313 0-1.382813-.183594-1.984375-.527344l-48.199219-27.542968c-12.183594-6.976563-28.695312-4.019532-37.6875 6.789062l-27.464844 32.960938c-3.40625-3.625-7.023437-7.0625-11.046875-10.078126-.800781-.601562-1.648437-1.113281-2.457031-1.699218 25.113281-31.070313 46-65.308594 62.039062-101.941406l28.417969-64.953126c.625-1.457031 3.199219-.917968 3.199219.664063v3.671875c0 1.222656-.121094 2.457031-.367188 3.6875-4.777343 23.90625-13.5625 46.632812-26.121093 67.554688l-2.625 4.367187c-1.886719 3.160156-2.886719 6.765625-2.886719 10.765625 0 11.183594 9.105469 20.28125 20.28125 20.28125 4.015625 0 7.902344-1.175781 11.246094-3.40625 14.679687-9.785156 27.320312-22.027344 37.578125-36.386719l22.511719-31.511719c.320312-.4375.824218-.695312 1.359374-.695312h1.351563c.917969 0 1.671875.753906 1.671875 1.671875 0 2.902344-.6875 5.816406-1.984375 8.40625zm0 0"/></svg>