<svg height="490pt" viewBox="0 0 490.96 490" width="490pt" xmlns="http://www.w3.org/2000/svg"><path d="m29.71875 77.304688c0-10.082032-.957031-20.082032-8.238281-49.199219l.238281-.082031 9.679688.71875c39.839843 3.042968 76.722656 22.082031 102.320312 52.800781l1.921875 2.480469c-1.921875 1.601562-3.839844 3.28125-5.761719 4.960937-23.039062 20.71875-36.160156 50.238281-36.160156 81.28125 0 7.597656.800781 15.199219 2.402344 22.636719l-2.402344.640625-8.480469-4.238281c-12.636719-6.320313-23.597656-15.121094-32.398437-25.679688-8.800782-10.640625-15.441406-23.039062-19.28125-36.5625-2.558594-8.957031-3.839844-18.238281-3.839844-27.597656zm0 0" fill="#e6e9ed"/><path d="m31.160156 28.742188-9.679687-.71875-.242188.082031c-2.160156-6.320313-4.71875-12.5625-7.757812-18.5625l41.679687 3.199219c39.839844 3.042968 76.71875 22.082031 102.320313 52.800781l1.441406 2.722656c-8.320313 4.476563-16.160156 9.757813-23.523437 15.757813l-1.917969-2.480469c-25.601563-30.71875-62.480469-49.757813-102.320313-52.800781zm0 0" fill="#dfb28b"/><path d="m469.960938 28.105469c-7.28125 29.117187-8.242188 39.117187-8.242188 49.199219v22.160156c0 9.359375-1.277344 18.640625-3.839844 27.597656-3.839844 13.523438-10.480468 25.921875-19.277344 36.5625-8.800781 10.558594-19.761718 19.359375-32.402343 25.679688l-8.480469 4.238281-2.398438-.640625c1.601563-7.4375 2.398438-15.039063 2.398438-22.636719 0-31.042969-13.117188-60.5625-36.160156-81.28125-1.917969-1.679687-3.839844-3.359375-5.757813-4.960937l1.917969-2.480469c25.601562-30.71875 62.480469-49.757813 102.320312-52.800781l9.679688-.71875zm0 0" fill="#e6e9ed"/><g fill="#dfb28b"><path d="m435.800781 12.742188 41.679688-3.199219c-3.039063 6-5.601563 12.242187-7.761719 18.5625l-.238281-.082031-9.679688.71875c-39.839843 3.042968-76.722656 22.082031-102.320312 52.800781l-1.921875 2.480469c-7.359375-6-15.199219-11.28125-23.519532-15.757813l1.441407-2.722656c25.597656-30.71875 62.480469-49.757813 102.320312-52.800781zm0 0"/><path d="m393.238281 200.265625-11.757812 41.277344-1.28125 3.839843c6.082031 12.722657 9.28125 26.722657 9.28125 40.882813 0 17.839844-5.039063 35.277344-14.402344 50.398437l-25.597656 40.878907-.960938-.078125c.640625-4.480469.960938-9.039063.960938-13.601563v-2.480469c0-25.679687-9.359375-50.480468-26.242188-69.839843-9.4375-10.800781-20.957031-19.277344-33.757812-25.117188-6.558594-2.960937-13.359375-5.203125-20.402344-6.722656l.402344-2.160156v-33.4375c0-56.480469 16.71875-111.601563 48-158.5625l1.441406-3.597657c4.476563 1.917969 8.878906 4 13.117187 6.320313 8.320313 4.476563 16.160157 9.757813 23.519532 15.757813 1.921875 1.601562 3.839844 3.28125 5.761718 4.960937 23.039063 20.71875 36.160157 50.238281 36.160157 81.28125 0 7.597656-.800781 15.199219-2.402344 22.636719-.558594 2.480468-1.117187 4.960937-1.839844 7.363281zm0 0"/><path d="m173.480469 65.542969c31.28125 46.960937 48 102.082031 48 158.5625v35.679687c-6.878907 1.519532-13.601563 3.757813-20 6.640625-12.800781 5.839844-24.320313 14.316407-33.761719 25.117188-16.878906 19.359375-26.238281 44.160156-26.238281 69.839843v2.480469c0 4.5625.320312 9.121094.960937 13.601563l-.960937.078125-25.601563-40.878907c-9.359375-15.121093-14.398437-32.558593-14.398437-50.398437 0-14.160156 3.199219-28.160156 9.28125-40.882813l-1.28125-3.839843-11.761719-41.277344c-.71875-2.402344-1.277344-4.882813-1.839844-7.363281-1.597656-7.4375-2.398437-15.039063-2.398437-22.636719 0-31.042969 13.121093-60.5625 36.160156-81.28125 1.917969-1.679687 3.839844-3.359375 5.757813-4.960937 7.363281-6 15.203124-11.28125 23.523437-15.757813 4.238281-2.320313 8.636719-4.402344 13.117187-6.320313zm0 0"/></g><path d="m258.519531 49.542969c20.960938 0 41.519531 4.320312 60.402344 12.402343l-1.441406 3.597657c-31.28125 46.960937-48 102.082031-48 158.5625v33.4375l-.402344 2.160156c-6.796875-1.4375-13.757813-2.160156-20.796875-2.160156h-5.601562c-7.121094 0-14.238282.800781-21.199219 2.242187v-35.679687c0-56.480469-16.71875-111.601563-48-158.5625l-1.441407-3.597657c18.882813-8.082031 39.441407-12.402343 60.402344-12.402343zm0 0" fill="#ccd1d9"/><path d="m289.480469 441.542969 11.679687-1.359375.320313 1.359375s-8 40-56 40-56-40-56-40l.320312-1.359375 11.679688 1.359375c17.519531 0 33.839843-8.71875 43.519531-23.277344l.480469-.722656.480469.722656c9.679687 14.558594 26 23.277344 43.519531 23.277344zm0 0" fill="#ccd1d9"/><path d="m323.480469 291.542969c-9.441407-10.800781-20.960938-19.277344-33.761719-25.117188-6.558594-2.960937-13.359375-5.203125-20.398438-6.722656-6.800781-1.4375-13.761718-2.160156-20.800781-2.160156h-5.597656c-7.121094 0-14.242187.800781-21.203125 2.242187-6.878906 1.519532-13.597656 3.757813-20 6.640625-12.796875 5.839844-24.320312 14.316407-33.757812 25.117188-16.882813 19.359375-26.242188 44.160156-26.242188 69.839843v2.480469c0 4.5625.320312 9.121094.960938 13.601563 2 14.558594 7.359374 28.480468 15.519531 40.800781 4.800781 7.277344 11.359375 13.117187 18.800781 17.117187 4.078125 2.160157 8.480469 3.839844 13.039062 4.800782l11.679688 1.359375c17.519531 0 33.839844-8.71875 43.519531-23.277344l.480469-.722656.480469.722656c9.679687 14.558594 26 23.277344 43.519531 23.277344l11.679688-1.359375c4.5625-.960938 8.960937-2.640625 13.042968-4.800782 7.4375-4 14-9.839843 18.796875-17.117187 8.160157-12.320313 13.523438-26.242187 15.523438-40.800781.636719-4.480469.957031-9.039063.957031-13.601563v-2.480469c0-25.679687-9.359375-50.480468-26.238281-69.839843zm0 0" fill="#e6e9ed"/><path d="m297.71875 359.625-28.957031 46.238281c-4.480469 7.28125-12.480469 11.679688-21.042969 11.679688h-4.480469c-8.558593 0-16.558593-4.398438-21.039062-11.679688l-28.960938-46.238281c-2.476562-4-3.757812-8.5625-3.757812-13.199219 0-6.882812 2.800781-13.121093 7.28125-17.601562 4.476562-4.480469 10.71875-7.28125 17.597656-7.28125h62.242187c13.757813 0 24.878907 11.121093 24.878907 24.882812 0 4.636719-1.28125 9.199219-3.761719 13.199219zm0 0" fill="#838f9b"/><path d="m261.480469 353.542969h16v16h-16zm0 0"/><path d="m213.480469 353.542969h16v16h-16zm0 0"/><path d="m165.480469 153.542969h16v16h-16zm0 0"/><path d="m309.480469 153.542969h16v16h-16zm0 0"/><path d="m435.160156 4.777344c-40.632812 3.125-78.863281 22.527344-105.585937 53.222656-21.925781-10.742188-46.167969-16.457031-71.039063-16.457031h-26.121094c-24.863281 0-49.101562 5.714843-71.039062 16.457031-26.710938-30.695312-64.941406-50.097656-105.574219-53.222656l-55.800781-4.289063 6.320312 12.640625c9.917969 19.816406 15.160157 42.015625 15.160157 64.191406v22.160157c0 10.070312 1.398437 20.09375 4.167969 29.792969 8.328124 29.140624 28.65625 53.628906 55.757812 67.191406l8.097656 4.046875c.175782.648437.304688 1.3125.488282 1.960937l11.894531 41.605469.304687.914063c-5.695312 12.960937-8.710937 26.96875-8.710937 41.3125 0 19.320312 5.414062 38.191406 15.65625 54.582031l25.558593 40.898437.328126-.199218c2.472656 14.621093 7.9375 28.597656 16.273437 41.101562 7.558594 11.34375 18.582031 19.496094 31.144531 23.671875 4.75 16.578125 22.636719 43.183594 63.039063 43.183594 40.398437 0 58.289062-26.605469 63.046875-43.183594 12.550781-4.175781 23.585937-12.335937 31.144531-23.671875 8.335937-12.503906 13.800781-26.480469 16.273437-41.101562l.328126.199218 25.558593-40.898437c10.230469-16.390625 15.648438-35.261719 15.648438-54.582031 0-14.410157-3.046875-28.480469-8.792969-41.496094l12.273438-42.34375c.183593-.648438.3125-1.3125.488281-1.960938l8.09375-4.046875c27.113281-13.5625 47.433593-38.050781 55.761719-67.191406 2.773437-9.691406 4.175781-19.714844 4.175781-29.785156v-22.160157c0-22.175781 5.238281-44.375 15.160156-64.199218l6.320313-12.640625zm1.230469 15.949218 28.320313-2.175781c-.238282.609375-.398438 1.242188-.632813 1.847657l-4.917969.378906c-40.222656 3.09375-78.070312 22.167968-104.753906 52.320312-3.40625-2.511718-6.902344-4.867187-10.476562-7.097656 23.863281-26.0625 57.125-42.550781 92.460937-45.273438zm-177.855469 36.816407c16.9375 0 33.519532 3.042969 49.160156 8.648437-30.160156 47.28125-46.214843 101.6875-46.214843 157.878906v26.355469c-4.351563-.539062-8.738281-.882812-13.167969-.882812h-5.664062c-4.433594 0-8.824219.34375-13.167969.890625v-26.355469c0-56.191406-16.054688-110.597656-46.214844-157.878906 15.636719-5.613281 32.222656-8.65625 49.160156-8.65625zm-203.96875-36.816407c35.335938 2.722657 68.601563 19.210938 92.457032 45.28125-3.566407 2.222657-7.070313 4.585938-10.480469 7.097657-26.679688-30.152344-64.527344-49.226563-104.75-52.320313l-4.914063-.386718c-.222656-.605469-.382812-1.238282-.621094-1.847657zm-13.535156 104.144532c-2.359375-8.261719-3.550781-16.808594-3.550781-25.390625v-22.160157c0-13.617187-1.921875-27.207031-5.367188-40.390624 35.300781 3.117187 68.445313 19.886718 92.03125 46.277343-24.570312 22.199219-38.664062 53.898438-38.664062 87.023438 0 3.496093.214843 6.984375.527343 10.457031-21.800781-11.792969-38.144531-31.925781-44.976562-55.816406zm68.449219 161.433594c0-17.226563 5.046875-33.914063 14.609375-48.25l2.734375-4.101563c9.589843-14.386719 14.65625-31.121094 14.65625-48.410156h-16c0 14.121093-4.144531 27.785156-11.96875 39.527343l-.214844.328126-7.921875-27.335938c-2.582031-9.046875-3.894531-18.40625-3.894531-27.832031 0-28.679688 12.222656-56.125 33.542969-75.308594 10.105468-9.089844 21.3125-16.632813 33.296874-22.507813 29.503907 45.25 45.160157 97.59375 45.160157 151.65625v29.65625c-19.839844 5.601563-37.914063 16.714844-51.769531 32.539063-15.800782 18.054687-25.414063 40.550781-27.6875 64.253906l-11.320313-18.113281c-8.65625-13.847656-13.222656-29.78125-13.222656-46.101562zm136 187.238281c-26.832031 0-39.066407-14.078125-44.390625-24.023438.125 0 .253906.023438.390625.023438 16.886719 0 32.695312-7.078125 44-19.191407 11.304687 12.113282 27.113281 19.191407 44 19.191407.167969 0 .335937-.03125.503906-.03125-5.222656 9.9375-17.375 24.03125-44.503906 24.03125zm2.214843-64h-4.4375c-5.851562 0-11.203124-2.96875-14.304687-7.925781l-28.921875-46.273438c-1.664062-2.679688-2.550781-5.769531-2.550781-8.9375 0-9.292969 7.566406-16.863281 16.863281-16.863281h62.265625c9.300781 0 16.871094 7.570312 16.871094 16.863281 0 3.167969-.886719 6.257812-2.570313 8.945312l-28.910156 46.265626c-3.105469 4.957031-8.449219 7.925781-14.304688 7.925781zm93.785157-45.6875c0 17.832031-5.234375 35.113281-15.128907 49.953125-8.230468 12.359375-22.023437 19.734375-36.871093 19.734375-10.726563 0-20.863281-3.894531-28.792969-10.695313 6.039062-2.589844 11.257812-6.953125 14.878906-12.757812l28.914063-46.265625c3.273437-5.214844 5-11.25 5-17.417969 0-18.117188-14.746094-32.863281-32.863281-32.863281h-62.265626c-18.128906 0-32.871093 14.746093-32.871093 32.863281 0 6.167969 1.726562 12.195312 5 17.417969l28.910156 46.265625c3.625 5.796875 8.839844 10.167968 14.882813 12.757812-7.929688 6.800782-18.066407 10.695313-28.792969 10.695313-14.847657 0-28.640625-7.375-36.871094-19.734375-9.898437-14.839844-15.128906-32.113282-15.128906-49.953125v-2.441407c0-23.773437 8.625-46.71875 24.273437-64.605468 17.390625-19.871094 42.492188-31.265625 68.894532-31.265625h5.664062c26.398438 0 51.511719 11.394531 68.894531 31.265625 15.648438 17.886718 24.273438 40.832031 24.273438 64.605468zm44.105469-165.792969-7.84375 27.449219-.292969-.441407c-7.824219-11.742187-11.96875-25.40625-11.96875-39.527343h-16c0 17.289062 5.0625 34.023437 14.65625 48.410156l2.734375 4.101563c9.5625 14.335937 14.609375 31.015624 14.609375 48.25 0 16.320312-4.570313 32.261718-13.222657 46.101562l-11.320312 18.113281c-2.273438-23.703125-11.890625-46.199219-27.691406-64.253906-13.847656-15.824219-31.917969-26.9375-51.765625-32.539063v-29.65625c0-54.0625 15.65625-106.414062 45.160156-151.664062 11.976563 5.882812 23.191406 13.417969 33.296875 22.503906 21.320312 19.195313 33.542969 46.640625 33.542969 75.320313 0 9.425781-1.3125 18.785156-3.894531 27.832031zm67.894531-98.582031c0 8.589843-1.191407 17.136719-3.550781 25.390625-6.832032 23.898437-23.175782 44.03125-44.96875 55.824218.304687-3.480468.519531-6.96875.519531-10.464843 0-33.125-14.097657-64.824219-38.664063-87.023438 23.574219-26.390625 56.726563-43.160156 92.03125-46.277343-3.449218 13.183593-5.367187 26.773437-5.367187 40.390624zm0 0"/></svg>