<svg height="496pt" viewBox="-32 0 496 496" width="496pt" xmlns="http://www.w3.org/2000/svg"><path d="m328 151.28125c0-34.5625-17.28125-66.800781-46-85.921875-.71875-.480469-1.359375-.878906-2.078125-1.28125v-.078125c12.878906-10.160156 28.957031-16 46-16 13.039063 0 25.597656 3.441406 36.636719 9.601562 10.960937 6.238282 20.402344 15.277344 27.121094 26.476563l5.039062 8.480469c13.921875 23.203125 21.28125 49.761718 21.28125 76.800781 0 2.960937-.078125 5.839844-.238281 8.71875-1.121094 3.441406-2.402344 6.800781-3.839844 10.082031l-11.921875 27.839844-24-8v24h-6.078125c-20.800781 0-40.960937-8-56.082031-22.238281 9.199218-15.921875 14.160156-34.160157 14.160156-52.960938zm0 0" fill="#aab2bd"/><path d="m402.71875 52.558594c13.921875 23.203125 21.28125 49.761718 21.28125 76.800781 0 13.039063-1.679688 25.921875-8.238281 48.71875.160156-2.878906.238281-5.757813.238281-8.71875 0-27.039063-7.359375-53.597656-21.28125-76.800781l-5.039062-8.480469c-6.71875-11.199219-16.160157-20.238281-27.121094-26.476563-11.039063-6.160156-23.597656-9.601562-36.636719-9.601562-17.042969 0-33.121094 5.839844-46 16v.078125c-5.042969-3.277344-10.320313-6-15.84375-8.238281l3.363281-6.800782c12.636719-25.117187 38.320313-41.039062 66.480469-41.039062 13.039063 0 25.597656 3.441406 36.636719 9.601562 10.960937 6.238282 20.402344 15.277344 27.121094 26.476563zm0 0" fill="#969faa"/><path d="m106.078125 48c17.042969 0 33.121094 5.839844 46 16v.078125c-.71875.402344-1.359375.800781-2.078125 1.28125-14.320312 9.519531-25.839844 22.402344-33.761719 37.199219-7.917969 14.722656-12.238281 31.441406-12.238281 48.722656v5.519531c0 18.800781 4.960938 37.039063 14.160156 52.960938-15.121094 14.238281-35.28125 22.238281-56.082031 22.238281h-6.078125v-24l-24 8-11.921875-27.839844c-1.4375-3.28125-2.71875-6.640625-3.839844-10.082031-.160156-2.878906-.238281-5.757813-.238281-8.71875 0-27.039063 7.359375-53.597656 21.28125-76.800781l5.039062-8.480469c6.71875-11.199219 16.160157-20.238281 27.121094-26.476563 11.039063-6.160156 23.597656-9.601562 36.636719-9.601562zm0 0" fill="#aab2bd"/><path d="m98.078125 8c28.160156 0 53.84375 15.921875 66.480469 41.039062l3.363281 6.800782c-5.523437 2.238281-10.800781 4.960937-15.84375 8.238281v-.078125c-12.878906-10.160156-28.957031-16-46-16-13.039063 0-25.597656 3.441406-36.636719 9.601562-10.960937 6.238282-20.402344 15.277344-27.121094 26.476563l-5.039062 8.480469c-13.921875 23.203125-21.28125 49.761718-21.28125 76.800781 0 2.960937.078125 5.839844.238281 8.71875-5.519531-15.597656-8.238281-32.078125-8.238281-48.71875 0-27.039063 7.359375-53.597656 21.28125-76.800781l5.039062-8.480469c6.71875-11.199219 16.160157-20.238281 27.121094-26.476563 11.039063-6.160156 23.597656-9.601562 36.636719-9.601562zm0 0" fill="#969faa"/><path d="m120.800781 287.039062 22.480469 18-62.960938 90.882813c-5.199218 7.597656-13.839843 12.078125-23.039062 12.078125-10.5625 0-20.242188-6-25.042969-15.519531l-8.238281-16.480469c20.078125 0 38.960938-9.601562 50.800781-25.839844l45.199219-62.160156zm0 0" fill="#e6e9ed"/><path d="m408 376-8.238281 16.480469c-4.800781 9.519531-14.480469 15.519531-25.042969 15.519531-9.199219 0-17.839844-4.480469-23.039062-12.078125l-62.960938-90.882813 22.480469-18 .800781.960938 45.199219 62.160156c11.839843 16.238282 30.722656 25.839844 50.800781 25.839844zm0 0" fill="#e6e9ed"/><path d="m313.839844 209.761719c9.199218-15.921875 14.160156-34.160157 14.160156-52.960938v-5.519531c0-34.5625-17.28125-66.800781-46-85.921875-.71875-.480469-1.359375-.878906-2.078125-1.28125-5.042969-3.277344-10.320313-6-15.84375-8.238281-12.398437-5.199219-25.757813-7.839844-39.359375-7.839844h-17.4375c-13.601562 0-26.960938 2.640625-39.359375 7.839844-5.523437 2.238281-10.800781 4.960937-15.84375 8.238281-.71875.402344-1.359375.800781-2.078125 1.28125-14.320312 9.519531-25.839844 22.402344-33.761719 37.199219-7.917969 14.722656-12.238281 31.441406-12.238281 48.722656v5.519531c0 18.800781 4.960938 37.039063 14.160156 52.960938 6.238282 11.039062 14.558594 20.957031 24.640625 29.199219l-30.800781 41.039062 8.800781 7.039062 22.480469 18 8.71875 6.960938 17.839844-22.320312c.480468 4.960937.960937 9.921874 1.679687 14.878906 1.28125 10.242187 2.960938 20.640625 5.039063 31.441406.882812 4.800781 1.839844 9.761719 2.882812 14.800781l3.597656 17.359375 6.722657 32.320313 9.597656 46c5.039063 24.160156 26.320313 41.519531 51.039063 41.519531 13.839843 0 27.121093-5.519531 36.882812-15.28125 10.71875-10.71875 16.71875-25.199219 16.71875-40.398438v-5.921874c0-5.757813-4.640625-10.398438-10.398438-10.398438-3.523437 0-6.800781 1.761719-8.722656 4.640625l-4 6.078125c-5.519531 8.320312-14.878906 13.28125-24.878906 13.28125l-.320312.078125c-3.757813-13.117187-6.078126-26.558594-7.039063-40.15625-.480469-4.960937-.640625-10-.640625-14.960937 0-5.601563.238281-11.28125.71875-16.882813.882812-10.796875 2.640625-21.519531 5.28125-32.078125 0-.078125.078125-.160156.078125-.238281 2.5625-10.242188 4.640625-20.640625 6.160156-31.121094.800781-4.960937 1.441407-9.921875 1.921875-14.960937l17.839844 22.320312 8.71875-6.960938 22.480469-18 8.800781-7.039062-30.800781-41.039062c10.082031-8.242188 18.402343-18.160157 24.640625-29.199219zm0 0" fill="#969faa"/><path d="m363.648438 345.414062-41.417969-56.949218 8.824219-7.066406-31.0625-41.414063c5.929687-5.585937 11.160156-11.710937 15.703124-18.296875 15.542969 11.824219 34.375 18.3125 54.242188 18.3125h14.0625v-20.902344l20.457031 6.824219 14.832031-34.601563c8.4375-19.695312 12.71875-40.542968 12.71875-61.960937 0-28.503906-7.75-56.496094-22.414062-80.933594l-5.082031-8.464843c-14.792969-24.648438-41.839844-39.960938-70.582031-39.960938-31.386719 0-59.59375 17.433594-73.625 45.503906l-.167969.335938c-11.335938-3.808594-23.257813-5.839844-35.402344-5.839844h-17.46875c-12.144531 0-24.066406 2.03125-35.402344 5.839844l-.167969-.34375c-14.03125-28.0625-42.238281-45.496094-73.625-45.496094-28.742187 0-55.789062 15.3125-70.574218 39.960938l-5.082032 8.464843c-14.660156 24.4375-22.414062 52.421875-22.414062 80.925781 0 21.417969 4.28125 42.265626 12.71875 61.96875l14.832031 34.601563 20.449219-6.824219v20.902344h14.0625c19.875 0 38.707031-6.488281 54.25-18.3125 4.542969 6.585938 9.777344 12.710938 15.703125 18.296875l-31.0625 41.414063 8.824219 7.066406-41.417969 56.949218c-10.289063 14.144532-26.863281 22.585938-44.359375 22.585938h-12.945312l14.050781 28.089844c6.125 12.277344 18.480469 19.910156 32.214843 19.910156 11.824219 0 22.886719-5.800781 29.617188-15.511719l58.046875-83.855469 8.261719 6.605469 10.84375-13.542969c1.8125 13.28125 4.261718 27.199219 7.503906 42.753907l19.925781 95.664062c5.785157 27.75 30.542969 47.886719 58.878907 47.886719 16.074218 0 31.167968-6.257812 42.53125-17.617188 12.292968-12.292968 19.070312-28.648437 19.070312-46.039062v-5.917969c0-10.160156-8.265625-18.425781-18.425781-18.425781-6.175781 0-11.902344 3.0625-15.328125 8.199219l-4.03125 6.046875c-2.96875 4.457031-7.414063 7.554687-12.4375 8.929687-3.699219-15.085937-5.777344-30.519531-5.777344-46.214843 0-15.921876 1.953125-31.808594 5.816406-47.234376 2.351563-9.414062 4.152344-18.949218 5.695313-28.535156l11.242187 14.046875 8.261719-6.605469 58.046875 83.855469c6.730469 9.710938 17.792969 15.511719 29.617188 15.511719 13.734374 0 26.089843-7.632812 32.214843-19.910156l14.050781-28.089844h-12.945312c-17.496094 0-34.070312-8.441406-44.351562-22.585938zm31.894531-139.335937-27.542969-9.175781v27.074218c-16.214844-.417968-31.519531-6.066406-44.054688-16.082031 4.933594-9.886719 8.320313-20.503906 10.214844-31.535156 7.144532.746094 14.160156 2.746094 20.574219 5.953125l1.691406.839844 7.160157-14.3125-1.699219-.839844c-8.144531-4.070312-17.039063-6.601562-26.09375-7.542969.039062-1.234375.207031-2.441406.207031-3.679687v-5.503906c0-3.320313-.320312-6.59375-.609375-9.867188 7.714844-3.484375 16.144531-5.40625 24.609375-5.40625v-16c-9.265625 0-18.511719 1.800781-27.167969 5.121094-2.121093-8.808594-5.304687-17.265625-9.457031-25.234375 7.226562-2.535157 14.871094-3.886719 22.511719-3.886719h6.113281v-16h-6.113281c-10.605469 0-21.183594 2.160156-31.046875 6.089844-5.886719-8.136719-12.976563-15.417969-21.007813-21.792969 9.792969-5.386719 20.871094-8.296875 32.097657-8.296875 23.160156 0 44.941406 12.335938 56.855468 32.191406l5.078125 8.464844c13.175781 21.953125 20.136719 47.085938 20.136719 72.695312 0 2.335938-.097656 4.664063-.207031 6.992188-1.023438 2.902344-1.992188 5.824219-3.207031 8.671875zm-61.613281-190.078125c23.160156 0 44.941406 12.335938 56.855468 32.191406l5.078125 8.464844c11.328125 18.878906 18.03125 40.128906 19.695313 61.992188-3.574219-10.496094-8.222656-20.640626-13.972656-30.234376l-5.082032-8.460937c-14.785156-24.640625-41.832031-39.953125-70.574218-39.953125-16.546876 0-32.816407 5.105469-46.441407 14.398438-1.480469-.839844-3.007812-1.574219-4.519531-2.34375 11.40625-22.238282 33.910156-36.054688 58.960938-36.054688zm-297.792969 40.65625 5.078125-8.464844c11.914062-19.855468 33.695312-32.191406 56.855468-32.191406 25.050782 0 47.554688 13.816406 58.960938 36.054688-1.511719.769531-3.039062 1.503906-4.519531 2.34375-13.625-9.292969-29.894531-14.398438-46.441407-14.398438-28.742187 0-55.789062 15.3125-70.574218 39.960938l-5.082032 8.464843c-5.75 9.582031-10.398437 19.734375-13.972656 30.230469 1.664063-21.871094 8.359375-43.121094 19.695313-62zm27.863281 167.320312v-27.074218l-27.542969 9.175781-9.03125-21.0625c-1.226562-2.847656-2.1875-5.769531-3.210937-8.671875-.117188-2.328125-.214844-4.65625-.214844-6.992188 0-25.609374 6.960938-50.75 20.136719-72.695312l5.078125-8.464844c11.914062-19.855468 33.695312-32.191406 56.855468-32.191406 11.226563 0 22.3125 2.910156 32.089844 8.304688-8.023437 6.367187-15.113281 13.65625-21.007812 21.792968-9.855469-3.9375-20.433594-6.097656-31.039063-6.097656h-6.113281v16h6.113281c7.648438 0 15.285157 1.351562 22.511719 3.886719-4.152344 7.96875-7.328125 16.425781-9.457031 25.234375-8.65625-3.320313-17.902344-5.121094-27.167969-5.121094v16c8.464844 0 16.894531 1.921875 24.609375 5.398438-.289063 3.273437-.609375 6.546874-.609375 9.867187v5.503906c0 1.238281.167969 2.445313.207031 3.679688-9.054687.941406-17.960937 3.472656-26.09375 7.542969l-1.6875.839843 7.160157 14.3125 1.6875-.839843c6.414062-3.207032 13.4375-5.207032 20.574218-5.953126 1.894532 11.03125 5.28125 21.648438 10.214844 31.535157-12.542969 10.023437-27.847656 15.671875-44.0625 16.089843zm9.785156 167.398438c-3.746094 5.402344-9.898437 8.625-16.464844 8.625-7.632812 0-14.496093-4.238281-17.90625-11.0625l-3.015624-6.042969c17.847656-3.191406 34.074218-13.191406 44.890624-28.070312l40.992188-56.359375 10.183594 8.144531zm166.382813.625h-44l-3.335938-16h47.441407c-.128907 2.984375-.273438 5.96875-.273438 8.960938 0 2.351562.089844 4.695312.167969 7.039062zm-24.167969-64v16h28.078125c-1.046875 5.304688-1.933594 10.632812-2.574219 16h-52.007812l-2.25-10.808594c-.375-1.785156-.679688-3.449218-1.03125-5.191406h13.785156v-16h-16.816406c-.96875-5.480469-1.847656-10.816406-2.597656-16h70.308593c-.949219 5.359375-2.101562 10.6875-3.328125 16zm71.527344 103.128906 4.03125-6.050781c1.195312-1.78125 4.441406-.796875 4.441406 1.347656v5.917969c0 13.121094-5.113281 25.449219-14.382812 34.726562-8.335938 8.335938-19.425782 12.929688-31.21875 12.929688-20.796876 0-38.964844-14.777344-43.214844-35.144531l-7.679688-36.855469h41.800782c2.070312 18.902344 6.640624 37.40625 13.765624 55.222656l1.503907 3.753906 14.859375-5.945312-1.503906-3.75c-1.417969-3.527344-2.515626-7.136719-3.714844-10.722656 8.617187-2.414063 16.21875-7.78125 21.3125-15.429688zm-17.207032-144.03125c1.007813-10.671875 1.679688-21.386718 1.679688-32.105468v-6.992188h-16v6.992188c0 3.007812-.191406 6.007812-.28125 9.007812h-15.71875v16h14.921875c-.417969 5.34375-.882813 10.679688-1.554687 16h-74.847657c-.582031-5.367188-1.03125-10.6875-1.40625-16h46.886719v-16h-47.710938c-.175781-5.238281-.289062-10.535156-.289062-16h-16c0 13.625.503906 26.375 1.59375 39.207031l-10.839844 13.554688-27.699218-22.160157 43.34375-57.800781-12.796876-9.601562-11.96875 15.953125c-18.914062-18.472656-29.632812-43.59375-29.632812-70.375v-5.503906c0-31.921876 15.855469-61.554688 42.425781-79.265626 15.703125-10.472656 33.964844-16 52.839844-16h17.46875c18.875 0 37.144531 5.527344 52.839844 16 26.570312 17.703126 42.425781 47.335938 42.425781 79.257813v5.503906c0 26.78125-10.71875 51.902344-29.632812 70.382813l-11.96875-15.953125-12.796876 9.601562 43.34375 57.800781-27.699218 22.160157zm122.265626 101.839844c-3.410157 6.824219-10.273438 11.0625-17.90625 11.0625-6.566407 0-12.71875-3.222656-16.464844-8.625l-58.679688-84.757812 10.183594-8.144532 40.992188 56.359375c10.824218 14.878907 27.042968 24.878907 44.890624 28.070313zm0 0"/><path d="m264 136h16v16h-16zm0 0"/><path d="m152 136h16v16h-16zm0 0"/></svg>