<svg height="496pt" viewBox="0 0 496 496" width="496pt" xmlns="http://www.w3.org/2000/svg"><path d="m488 21.28125c0 1.757812-.398438 3.597656-1.039062 5.199219l-2.882813 6.71875-5.917969.5625c-39.839844 4-77.679687 19.679687-108.71875 45.117187l-1.28125-3.039062c-4.238281-10.320313-13.519531-17.601563-24.238281-19.441406l.078125-.398438c31.28125-26.078125 69.679688-42.160156 110.160156-46.238281l17.199219-1.683594c.402344-.078125.878906-.078125 1.28125-.078125h2.078125c7.359375 0 13.28125 5.921875 13.28125 13.28125zm0 0" fill="#b27946"/><path d="m484.078125 33.199219-68.078125 158.800781-.398438.078125c-1.28125-12.398437-6.082031-24.15625-13.921874-33.917969l.320312-.160156-32.558594-79.121094c31.039063-25.4375 68.878906-41.117187 108.71875-45.117187zm0 0" fill="#f0d0b4"/><path d="m464 312-136 96-1.359375-.320312c.878906-3.359376 1.359375-6.960938 1.359375-10.640626v-5.039062l5.679688-15.519531c17.441406-48.160157 41.199218-93.679688 70.558593-135.601563 6.800781-9.679687 10.800781-21.117187 11.601563-32.878906h.160156l3.601562 14.320312c4.078126 16.398438 9.917969 32.238282 17.359376 47.28125 7.4375 15.039063 16.480468 29.277344 27.039062 42.398438zm0 0" fill="#b27946"/><path d="m295.601562 216 8.398438-56 16.238281-12.238281c10.242188-7.601563 22.640625-11.761719 35.441407-11.761719 8.960937 0 17.679687 2.078125 25.519531 5.839844 7.839843 3.761718 14.878906 9.359375 20.480469 16.320312 7.839843 9.761719 12.640624 21.519532 13.921874 33.917969.238282 2.242187.398438 4.480469.398438 6.800781v4.5625c0 1.519532-.078125 3.039063-.160156 4.558594-.800782 11.761719-4.800782 23.199219-11.601563 32.878906-29.359375 41.921875-53.117187 87.441406-70.558593 135.601563l-5.679688 15.519531c0-2.640625-.160156-5.359375-.398438-7.921875-1.839843-18.957031-10.320312-35.917969-23.042968-48.636719-6.957032-6.960937-15.199219-12.640625-24.398438-16.640625l5.839844-38.800781 4.71875-31.601562zm0 0" fill="#dfb28b"/><path d="m369.441406 78.878906 32.558594 79.121094-.320312.160156c-5.601563-6.960937-12.640626-12.558594-20.480469-16.320312-7.839844-3.761719-16.558594-5.839844-25.519531-5.839844-12.800782 0-25.199219 4.160156-35.441407 11.761719l-16.238281 12.238281-56-56-56 56-16.238281-12.238281c-10.242188-7.601563-22.640625-11.761719-35.441407-11.761719-8.960937 0-17.679687 2.078125-25.519531 5.839844-7.839843 3.761718-14.878906 9.359375-20.480469 16.320312l-.320312-.160156 32.558594-79.121094 1.28125-3.039062c4.238281-10.320313 13.519531-17.601563 24.238281-19.441406 1.761719-.238282 3.523437-.398438 5.363281-.398438h181.117188c1.839844 0 3.601562.160156 5.363281.398438 10.71875 1.839843 20 9.121093 24.238281 19.441406zm0 0" fill="#cf9e76"/><path d="m376 192v16c0 17.679688-14.320312 32-32 32h-16v-16c0-17.679688 14.320312-32 32-32zm0 0" fill="#838f9b"/><path d="m328 392v5.039062c0 3.679688-.480469 7.28125-1.359375 10.640626-2.402344 9.441406-7.921875 17.601562-15.441406 23.28125-7.199219 5.679687-16.320313 9.039062-26.160157 9.039062-4.320312 0-8.558593-.640625-12.640624-1.921875 5.363281-27.679687 27.28125-49.199219 55.203124-54 .238282 2.5625.398438 5.28125.398438 7.921875zm0 0" fill="#ecc19c"/><path d="m272.398438 438.078125c4.082031 1.28125 8.320312 1.921875 12.640624 1.921875 9.839844 0 18.960938-3.359375 26.160157-9.039062l.800781 1.039062s-10.640625 56-64 56-64-56-64-56l.800781-1.039062c7.199219 5.679687 16.320313 9.039062 26.160157 9.039062 4.320312 0 8.558593-.640625 12.640624-1.921875 3.917969-1.199219 7.757813-2.957031 11.199219-5.277344l13.199219-8.800781 13.199219 8.800781c3.441406 2.320313 7.28125 4.078125 11.199219 5.277344zm0 0" fill="#cf9e76"/><path d="m280.160156 318.800781c9.199219 4 17.441406 9.679688 24.398438 16.640625 12.722656 12.71875 21.203125 29.679688 23.042968 48.636719-27.921874 4.800781-49.839843 26.320313-55.203124 54-3.917969-1.199219-7.757813-2.957031-11.199219-5.277344l-13.199219-8.800781-13.199219 8.800781c-3.441406 2.320313-7.28125 4.078125-11.199219 5.277344-5.363281-27.679687-27.28125-49.199219-55.203124-54 2.882812-29.277344 21.601562-53.917969 47.441406-65.277344 9.839844-4.402343 20.71875-6.800781 32.160156-6.800781s22.320312 2.398438 32.160156 6.800781zm0 0" fill="#b27946"/><path d="m248 104-56 56 8.398438 56 4.882812 32.398438 4.71875 31.601562 5.839844 38.800781c9.839844-4.402343 20.71875-6.800781 32.160156-6.800781s22.320312 2.398438 32.160156 6.800781l5.839844-38.800781 4.71875-31.601562 4.882812-32.398438 8.398438-56zm0 0" fill="#b27946"/><path d="m210 280 5.839844 38.800781c-25.839844 11.359375-44.558594 36-47.441406 65.277344-.238282 2.5625-.398438 5.28125-.398438 7.921875l-5.679688-15.519531c-17.441406-48.160157-41.199218-93.679688-70.558593-135.601563-6.800781-9.679687-10.800781-21.117187-11.601563-32.878906-.082031-1.519531-.160156-3.039062-.160156-4.558594v-4.5625c0-2.320312.160156-4.558594.398438-6.800781 1.28125-12.398437 6.082031-24.15625 13.921874-33.917969 5.601563-6.960937 12.640626-12.558594 20.480469-16.320312 7.839844-3.761719 16.558594-5.839844 25.519531-5.839844 12.800782 0 25.199219 4.160156 35.441407 11.761719l16.238281 12.238281 8.398438 56 4.882812 32.398438zm0 0" fill="#dfb28b"/><path d="m223.601562 438.078125c-4.082031 1.28125-8.320312 1.921875-12.640624 1.921875-9.839844 0-18.960938-3.359375-26.160157-9.039062-1.441406-1.039063-2.878906-2.320313-4.160156-3.601563-5.359375-5.359375-9.359375-12.078125-11.28125-19.679687-.878906-3.359376-1.359375-6.960938-1.359375-10.640626v-5.039062c0-2.640625.160156-5.359375.398438-7.921875 27.921874 4.800781 49.839843 26.320313 55.203124 54zm0 0" fill="#ecc19c"/><path d="m169.359375 407.679688-1.359375.320312-136-96c10.558594-13.121094 19.601562-27.359375 27.039062-42.398438 7.441407-15.042968 13.28125-30.882812 17.359376-47.28125l3.601562-14.320312h.160156c.800782 11.761719 4.800782 23.199219 11.601563 32.878906 29.359375 41.921875 53.117187 87.441406 70.558593 135.601563l5.679688 15.519531v5.039062c0 3.679688.480469 7.28125 1.359375 10.640626zm0 0" fill="#b27946"/><path d="m168 224v16h-16c-17.679688 0-32-14.320312-32-32v-16h16c17.679688 0 32 14.320312 32 32zm0 0" fill="#838f9b"/><path d="m152 56 .078125.398438c-10.71875 1.839843-20 9.121093-24.238281 19.441406l-1.28125 3.039062c-31.039063-25.4375-68.878906-41.117187-108.71875-45.117187l-5.917969-.5625-2.882813-6.71875c-.640624-1.601563-1.039062-3.441407-1.039062-5.199219 0-7.359375 5.921875-13.28125 13.28125-13.28125h2.078125c.402344 0 .878906 0 1.28125.078125l17.199219 1.683594c40.480468 4.078125 78.878906 20.160156 110.160156 46.238281zm0 0" fill="#b27946"/><path d="m126.558594 78.878906-32.558594 79.121094.320312.160156c-7.839843 9.761719-12.640624 21.519532-13.921874 33.917969l-.398438-.078125-68.078125-158.800781 5.917969.5625c39.839844 4 77.679687 19.679687 108.71875 45.117187zm0 0" fill="#f0d0b4"/><path d="m152 248h24v-24c0-22.054688-17.945312-40-40-40h-24v24c0 22.054688 17.945312 40 40 40zm-24-48h8c13.230469 0 24 10.769531 24 24v8h-8c-13.230469 0-24-10.769531-24-24zm0 0"/><path d="m320 224v24h24c22.054688 0 40-17.945312 40-40v-24h-24c-22.054688 0-40 17.945312-40 40zm48-16c0 13.230469-10.769531 24-24 24h-8v-8c0-13.230469 10.769531-24 24-24h8zm0 0"/><path d="m496 21.273438c0-11.730469-9.542969-21.273438-21.273438-21.273438h-2.0625c-.710937 0-1.40625.03125-2.121093.105469l-17.167969 1.710937c-41.359375 4.136719-80.101562 20.199219-112.335938 46.359375-.824218-.039062-1.632812-.175781-2.472656-.175781h-181.132812c-.832032 0-1.640625.136719-2.472656.183594-32.234376-26.160156-70.976563-42.222656-112.335938-46.359375l-17.183594-1.71875c-.699218-.074219-1.394531-.105469-2.105468-.105469h-2.0625c-11.730469 0-21.273438 9.542969-21.273438 21.273438 0 2.878906.574219 5.695312 1.71875 8.382812l70.488281 164.457031c-.109375 1.589844-.207031 3.175781-.207031 4.765625v4.554688c0 .925781.175781 1.832031.207031 2.75l-3.542969 14.175781c-7.96875 31.855469-22.40625 61.007813-42.910156 86.640625l-5.304687 6.632812 142.648437 100.695313c2.789063 7.6875 7.351563 14.503906 13.230469 19.96875 4.441406 21.800781 24.808594 61.703125 71.671875 61.703125s67.230469-39.902344 71.679688-61.703125c5.871093-5.464844 10.441406-12.28125 13.230468-19.96875l142.648438-100.695313-5.300782-6.632812c-20.503906-25.632812-34.945312-54.785156-42.914062-86.640625l-3.542969-14.175781c.023438-.917969.199219-1.816406.199219-2.742188v-4.5625c0-1.589844-.097656-3.183594-.207031-4.765625l70.496093-164.480469c1.136719-2.65625 1.710938-5.472656 1.710938-8.359374zm-41.03125-3.53125 17.695312-1.742188h2.0625c2.90625 0 5.273438 2.367188 5.273438 5.273438 0 .71875-.152344 1.421874-.425781 2.078124l-1.007813 2.351563-1.191406.121094c-38.3125 3.832031-74.359375 17.929687-105.085938 40.761719-3.265624-5.152344-7.609374-9.402344-12.679687-12.546876 28.007813-20.3125 60.695313-32.832031 95.359375-36.296874zm-116.402344 46.257812c9.761719 0 18.472656 5.832031 22.1875 14.863281l22.734375 55.226563c-8.601562-3.9375-18.046875-6.089844-27.832031-6.089844-14.390625 0-28.664062 4.761719-40.175781 13.390625l-10.726563 8.050781-56.753906-56.753906-56.753906 56.753906-10.726563-8.050781c-11.511719-8.628906-25.785156-13.390625-40.175781-13.390625-9.792969 0-19.230469 2.152344-27.839844 6.089844l22.734375-55.226563c3.722657-9.03125 12.433594-14.863281 22.195313-14.863281zm-72.957031 362.128906-17.609375-11.746094-17.609375 11.738282c-.460937.304687-.957031.527344-1.429687.808594-7.984376-23.761719-27.289063-42.144532-51.5625-48.96875 6.546874-32.992188 35.699218-57.960938 70.601562-57.960938s64.054688 24.96875 70.609375 57.96875c-24.273437 6.824219-43.578125 25.207031-51.5625 48.96875-.472656-.28125-.976563-.503906-1.4375-.808594zm-177.609375-227.25c0-12.949218 4.457031-25.648437 12.542969-35.75 9.722656-12.152344 24.234375-19.128906 39.800781-19.128906 10.953125 0 21.824219 3.625 30.585938 10.191406l13.644531 10.242188 22.457031 149.75c-19.199219 10.144531-34.144531 27.199218-41.65625 47.816406-17.222656-44.425781-39.703125-86.695312-67.039062-125.734375-6.761719-9.671875-10.335938-21.027344-10.335938-32.824219zm116.886719-6.878906h51.113281v-16h-53.511719l-1.976562-13.191406 47.488281-47.496094 47.496094 47.496094-1.984375 13.191406h-21.511719v16h19.113281l-2.402343 16h-81.421876zm43.113281 112c-8.953125 0-17.585938 1.359375-25.726562 3.855469l-2.984376-19.855469h12.710938v-16h-15.113281l-2.398438-16h67.015625l-2.398437 16h-31.105469v16h28.710938l-2.976563 19.855469c-8.148437-2.496094-16.78125-3.855469-25.734375-3.855469zm35.910156-64h-71.820312l-2.402344-16h76.625zm46.714844 122c-7.511719-20.617188-22.457031-37.671875-41.65625-47.816406l22.457031-149.75 13.644531-10.234375c8.761719-6.574219 19.632813-10.199219 30.585938-10.199219 15.566406 0 30.078125 6.976562 39.808594 19.136719 8.078125 10.101562 12.535156 22.800781 12.535156 35.742187v4.554688c0 11.804687-3.574219 23.152344-10.34375 32.8125-27.335938 39.058594-49.808594 81.320312-67.03125 125.753906zm-309.351562-346 19.757812 1.742188c34.664062 3.472656 67.351562 15.984374 95.351562 36.304687-5.070312 3.136719-9.414062 7.386719-12.679687 12.546875-30.71875-22.839844-66.765625-36.9375-105.085937-40.769531l-1.183594-.121094-1-2.335937c-.28125-.671876-.433594-1.375-.433594-2.09375 0-2.90625 2.367188-5.273438 5.273438-5.273438zm3.488281 26.808594c33.636719 4.710937 65.175781 17.960937 92.09375 38.6875l-30.246094 73.464844.085937.039062c-3.160156 4.222656-5.878906 8.734375-8.054687 13.511719zm55.710937 194.582031c1.4375 2.746094 2.960938 5.464844 4.757813 8.042969 28.9375 41.328125 52.355469 86.328125 69.59375 133.75l4.761719 13.082031-116.144532-81.984375c16.488282-22.136719 28.886719-46.578125 37.03125-72.890625zm95.527344 156.832031c17.710938 5.960938 31.664062 19.890625 37.6875 37.578125-.902344.070313-1.792969.199219-2.703125.199219-19.289063 0-34.984375-15.695312-34.984375-34.984375zm72 85.777344c-29.367188 0-43.9375-19.398438-50.753906-33.9375 4.378906 1.234375 8.96875 1.9375 13.738281 1.9375 10.09375 0 19.871094-2.960938 28.28125-8.558594l8.734375-5.824218 8.734375 5.824218c8.410156 5.597656 18.1875 8.558594 28.28125 8.558594 4.792969 0 9.417969-.710938 13.824219-1.953125-6.75 14.527344-21.28125 33.953125-50.839844 33.953125zm37.015625-48c-.910156 0-1.800781-.128906-2.703125-.199219 6.03125-17.6875 19.976562-31.617187 37.6875-37.578125v2.792969c0 19.289063-15.695312 34.984375-34.984375 34.984375zm167.542969-121.71875-116.144532 81.984375 4.761719-13.082031c17.238281-47.421875 40.65625-92.421875 69.59375-133.75 1.796875-2.578125 3.320313-5.296875 4.757813-8.042969 8.144531 26.304687 20.542968 50.753906 37.03125 72.890625zm-43.246094-155.289062.085938-.03125-30.246094-73.464844c26.910156-20.726563 58.449218-33.976563 92.085937-38.6875l-53.871093 125.703125c-2.175782-4.777344-4.894532-9.296875-8.054688-13.519531zm0 0"/></svg>