<svg height="496pt" viewBox="-48 0 496 496" width="496pt" xmlns="http://www.w3.org/2000/svg"><path d="m390.558594 285.679688c.960937 6.878906 1.441406 13.839843 1.441406 20.800781 0 48.480469-23.921875 93.917969-64 121.28125l-54.960938 37.679687c-10.800781 7.359375-22.480468 12.957032-34.800781 16.796875-12.316406 3.839844-25.199219 5.761719-38.238281 5.761719-26.078125 0-51.519531-7.839844-73.039062-22.558594l-54.960938-37.679687c-20-13.683594-36-31.921875-47.039062-52.722657-10.960938-20.800781-16.960938-44.320312-16.960938-68.558593 0-6.960938.480469-13.921875 1.441406-20.800781 4.398438-30.398438 6.558594-61.121094 6.558594-91.757813v-1.921875c0-50.800781 20.640625-96.800781 53.921875-130.078125 33.277344-33.28125 79.277344-53.921875 130.078125-53.921875 101.601562 0 184 82.398438 184 184v1.921875c0 30.636719 2.160156 61.359375 6.558594 91.757813zm0 0" fill="#838f9b"/><path d="m336 158.398438-1.28125-2.078126c-14.160156-22.558593-38.878906-36.320312-65.597656-36.320312-11.679688 0-23.121094 2.640625-33.441406 7.601562-10.320313 4.957032-19.519532 12.238282-26.878907 21.4375l-8.800781 10.960938-8.800781-10.960938c-14.640625-18.398437-36.878907-29.039062-60.320313-29.039062-13.359375 0-26.238281 3.441406-37.519531 9.679688-11.28125 6.320312-21.039063 15.359374-28.078125 26.640624l-1.28125 2.078126c-10.480469 16.722656-16 36.082031-16 55.839843 0 10.960938 1.761719 21.761719 5.039062 32.160157 3.28125 10.320312 8.242188 20.160156 14.5625 29.121093 6.398438 8.960938 14.796876 16 24.238282 20.960938 9.519531 4.878906 20.160156 7.519531 31.199218 7.519531h153.921876c22 0 42.640624-10.640625 55.4375-28.480469 6.320312-8.960937 11.28125-18.800781 14.5625-29.121093 3.277343-10.398438 5.039062-21.199219 5.039062-32.160157 0-19.757812-5.519531-39.117187-16-55.839843zm0 0" fill="#e6e9ed"/><path d="m200 408c32.238281 0 63.28125-11.519531 87.601562-32.238281l.320313.398437c-1.203125 3.761719-21.601563 63.839844-87.921875 63.839844-68.480469 0-88-64-88-64l.320312-.398438c10.800782 9.359376 22.960938 16.71875 35.917969 22.078126 16.242188 6.800781 33.839844 10.320312 51.761719 10.320312zm0 0" fill="#969faa"/><path d="m264.640625 312.640625c15.28125 15.28125 26.160156 34.398437 31.359375 55.359375l-.398438.398438c-2.5625 2.5625-5.203124 5.042968-8 7.363281-24.320312 20.71875-55.363281 32.238281-87.601562 32.238281-17.921875 0-35.519531-3.519531-51.761719-10.320312-12.957031-5.359376-25.117187-12.71875-35.917969-22.078126-2.71875-2.242187-5.359374-4.640624-7.921874-7.203124l-.398438-.398438c5.199219-20.960938 16.078125-40.078125 31.359375-55.359375l.640625-.640625.800781-.078125c-.5625-2.5625-.800781-5.203125-.800781-7.921875 0-19.359375 13.761719-35.519531 32.078125-39.199219 2.5625-.5625 5.203125-.800781 7.921875-.800781 9.039062 0 17.28125 3.121094 24 8.160156 6.71875-5.039062 14.960938-8.160156 24-8.160156 2.71875 0 5.359375.238281 7.921875.800781 18.316406 3.679688 32.078125 19.839844 32.078125 39.199219 0 2.71875-.238281 5.359375-.800781 7.921875l.800781.078125zm0 0" fill="#656d78"/><path d="m224 200 8 64-.078125.800781c-2.5625-.5625-5.203125-.800781-7.921875-.800781-9.039062 0-17.28125 3.121094-24 8.160156-6.71875-5.039062-14.960938-8.160156-24-8.160156-2.71875 0-5.359375.238281-7.921875.800781l-.078125-.800781 8-64-.960938-.238281c.082032-.160157.082032-.402344.160157-.5625l.402343-2c7.519532 1.761719 15.679688 2.800781 24.398438 2.800781s16.878906-1.039062 24.398438-2.800781l.402343 2c.078125.160156.078125.402343.160157.5625zm0 0" fill="#969faa"/><path d="m280.71875 171.761719c4.5625 5.519531 7.28125 12.558593 7.28125 20.238281 0 17.679688-14.320312 32-32 32-14.960938 0-27.601562-10.320312-31.039062-24.238281-.082032-.160157-.082032-.402344-.160157-.5625l-.402343-2c17.441406-3.917969 31.601562-11.519531 41.28125-17.917969 4.71875-3.121094 9.761718-5.679688 15.039062-7.519531zm0 0" fill="#b27946"/><path d="m134.320312 179.28125c9.679688 6.398438 23.839844 14 41.28125 17.917969l-.402343 2c-.078125.160156-.078125.402343-.160157.5625-3.4375 13.917969-16.078124 24.238281-31.039062 24.238281-17.679688 0-32-14.320312-32-32 0-7.679688 2.71875-14.71875 7.28125-20.238281 5.277344 1.839843 10.320312 4.398437 15.039062 7.519531zm0 0" fill="#b27946"/><path d="m168 296h16v16h-16zm0 0"/><path d="m216 296h16v16h-16zm0 0"/><path d="m341.496094 152.097656c-15.695313-25.105468-42.734375-40.097656-72.34375-40.097656-26.046875 0-50.335938 11.664062-66.609375 32.015625l-2.542969 3.175781-2.542969-3.175781c-16.28125-20.351563-40.5625-32.015625-66.617187-32.015625-29.609375 0-56.648438 14.992188-72.335938 40.089844l-1.28125 2.039062c-11.261718 18.039063-17.222656 38.824219-17.222656 60.09375 0 23.777344 7.304688 46.5625 21.121094 65.90625 14.246094 19.960938 37.398437 31.871094 61.917968 31.871094h1.976563c-13.824219 15.390625-23.742187 33.929688-28.777344 54.0625l-.695312 4.792969 3.199219 3.199219c1.929687 1.929687 3.992187 3.648437 6 5.449218 3.160156 8.886719 26.875 68.496094 95.257812 68.496094 68.449219 0 92.144531-59.726562 95.265625-68.527344 2.132813-1.90625 4.320313-3.738281 6.367187-5.785156l3.238282-3.207031-1.101563-4.417969c-5.042969-20.140625-14.96875-38.679688-28.785156-54.0625h1.976563c24.519531 0 47.671874-11.910156 61.925781-31.863281 13.808593-19.34375 21.113281-42.136719 21.113281-65.914063 0-21.277344-5.960938-42.054687-17.238281-60.101562zm-141.496094 279.902344c-33.519531 0-54.078125-16.617188-66.03125-32.128906 20.160156 10.503906 42.65625 16.128906 66.03125 16.128906 23.222656 0 45.566406-5.566406 65.703125-16.023438-12.054687 15.480469-32.605469 32.023438-65.703125 32.023438zm0-32c-32.457031 0-63.046875-12.070312-87.039062-34.472656 4.199218-14.261719 11.328124-27.4375 20.71875-38.917969 8.097656 15.09375 24.023437 25.390625 42.320312 25.390625v-16c-17.648438 0-32-14.351562-32-32s14.351562-32 32-32c6.855469 0 13.496094 2.273438 19.175781 6.558594l4.824219 3.640625 4.824219-3.640625c5.679687-4.285156 12.320312-6.558594 19.175781-6.558594 17.648438 0 32 14.351562 32 32s-14.351562 32-32 32v16c18.296875 0 34.222656-10.296875 42.320312-25.390625 9.398438 11.480469 16.527344 24.664063 20.726563 38.933594-23.664063 22.257812-54.414063 34.457031-87.046875 34.457031zm-77.585938-218.34375c2.5625 1.230469 5.058594 2.65625 7.480469 4.265625 8.832031 5.886719 20.9375 12.375 35.511719 16.804687-3.972656 8-12.09375 13.273438-21.40625 13.273438-13.230469 0-24-10.769531-24-24 0-3.664062.878906-7.144531 2.414062-10.34375zm155.171876 0c1.535156 3.199219 2.414062 6.679688 2.414062 10.34375 0 13.230469-10.769531 24-24 24-9.3125 0-17.433594-5.273438-21.40625-13.273438 14.574219-4.421874 26.671875-10.910156 35.511719-16.804687 2.414062-1.617187 4.917969-3.035156 7.480469-4.265625zm-60.816407 25.015625 6.175781 49.398437c-8.089843.1875-15.914062 2.371094-22.945312 6.496094-7.03125-4.125-14.855469-6.320312-22.945312-6.496094l6.175781-49.398437c5.378906.777344 10.921875 1.328125 16.769531 1.328125s11.390625-.550781 16.769531-1.328125zm109.085938 64.160156c-11.246094 15.761719-29.527344 25.167969-48.894531 25.167969h-5.679688c-2.960938-17.519531-15.410156-31.824219-31.898438-37.425781l-4.046874-32.367188c6.070312 3.65625 13.121093 5.792969 20.664062 5.792969 22.054688 0 40-17.945312 40-40 0-5.257812-1.152344-10.390625-3.128906-15.191406 2.976562-.503906 5.976562-.808594 8.984375-.808594h2.144531v-16h-2.144531c-14.207031 0-28.253907 4.359375-40.632813 12.609375-13.261718 8.847656-34.664062 19.390625-61.222656 19.390625s-47.960938-10.542969-61.222656-19.390625c-12.378906-8.25-26.433594-12.609375-40.632813-12.609375h-2.144531v16h2.144531c3.007813 0 6.007813.304688 8.984375.808594-1.976562 4.800781-3.128906 9.933594-3.128906 15.191406 0 22.054688 17.945312 40 40 40 7.542969 0 14.59375-2.136719 20.664062-5.792969l-4.046874 32.367188c-16.480469 5.601562-28.9375 19.90625-31.898438 37.425781h-5.679688c-19.367187 0-37.648437-9.40625-48.902343-25.167969-11.863281-16.617187-18.136719-36.183593-18.136719-56.609375 0-18.269531 5.121094-36.125 14.800781-51.613281l1.277344-2.042969c12.746094-20.390625 34.714844-32.566406 58.769531-32.566406 21.167969 0 40.886719 9.480469 54.121094 26.007812l15.03125 18.800782 15.03125-18.800782c13.234375-16.527343 32.960938-26.007812 54.128906-26.007812 24.046875 0 46.015625 12.175781 58.769532 32.574219l1.269531 2.035156c9.679687 15.496094 14.800781 33.34375 14.800781 51.613281 0 20.425782-6.273438 39.992188-18.144531 56.609375zm0 0"/><path d="m398.441406 284.519531c-4.273437-29.910156-6.441406-60.40625-6.441406-90.640625v-1.878906c0-105.863281-86.136719-192-192-192-105.871094 0-192 86.136719-192 192v1.871094c0 30.234375-2.167969 60.730468-6.441406 90.648437-1.039063 7.242188-1.558594 14.617188-1.558594 21.929688 0 51.199219 25.230469 99.03125 67.488281 127.941406l54.992188 37.625c22.925781 15.6875 49.734375 23.984375 77.519531 23.984375s54.59375-8.296875 77.527344-23.984375l54.984375-37.625c42.257812-28.910156 67.488281-76.742187 67.488281-127.941406 0-7.3125-.519531-14.6875-1.558594-21.929688zm-74.960937 136.664063-54.984375 37.625c-20.265625 13.863281-43.953125 21.191406-68.496094 21.191406s-48.230469-7.328125-68.496094-21.183594l-54.992187-37.625c-37.886719-25.933594-60.511719-68.832031-60.511719-114.742187 0-6.5625.472656-13.167969 1.390625-19.65625 4.386719-30.664063 6.609375-61.929688 6.609375-92.914063v-1.878906c0-97.039062 78.953125-176 176-176s176 78.953125 176 176v1.878906c0 30.984375 2.222656 62.25 6.609375 92.914063.917969 6.480469 1.390625 13.085937 1.390625 19.65625 0 45.910156-22.625 88.808593-60.519531 114.734375zm0 0"/></svg>