<svg height="496pt" viewBox="0 -27 496 495" width="496pt" xmlns="http://www.w3.org/2000/svg"><path d="m97.28125 65.78125c5.679688 5.679688 11.757812 10.796875 18.320312 15.359375-16.160156 20.640625-27.601562 45.121094-32.640624 71.917969l-2.960938-.558594h-6.320312c-10.480469 0-20.71875-2.640625-29.679688-7.441406-9.039062-4.796875-16.878906-11.757813-22.71875-20.558594-8.640625-13.039062-13.28125-28.320312-13.28125-44 0-2.878906.160156-5.679688.558594-8.480469 5.363281-7.199219 12.402344-13.121093 20.320312-17.121093 8.160156-4.160157 17.28125-6.398438 26.722656-6.398438 15.597657 0 30.636719 6.238281 41.679688 17.28125zm0 0" fill="#b27946"/><path d="m137.839844 57.699219c-8.160156 7.039062-15.679688 14.878906-22.238282 23.441406-6.5625-4.5625-12.640624-9.679687-18.320312-15.359375-11.042969-11.042969-26.082031-17.28125-41.679688-17.28125-9.441406 0-18.5625 2.238281-26.722656 6.398438-7.917968 4-14.957031 9.921874-20.320312 17.121093 1.28125-12.640625 5.679687-24.878906 12.722656-35.519531l1.199219-1.761719c5.519531-8.160156 12.800781-14.71875 21.28125-19.277343 8.398437-4.480469 18-6.960938 27.839843-6.960938 15.597657 0 30.636719 6.238281 41.679688 17.28125 9.917969 9.917969 21.199219 18.160156 33.597656 24.558594-3.117187 2.320312-6.160156 4.800781-9.039062 7.359375zm0 0" fill="#cf9e76"/><path d="m487.441406 72.019531c.398438 2.800781.558594 5.601563.558594 8.480469 0 15.679688-4.640625 30.960938-13.28125 44-5.839844 8.800781-13.679688 15.761719-22.71875 20.558594-8.960938 4.800781-19.199219 7.441406-29.679688 7.441406h-6.320312l-2.960938.558594c-5.039062-26.796875-16.480468-51.277344-32.640624-71.917969 6.5625-4.5625 12.640624-9.679687 18.320312-15.359375 11.042969-11.042969 26.082031-17.28125 41.679688-17.28125 9.441406 0 18.5625 2.238281 26.722656 6.398438 7.917968 4 14.957031 9.921874 20.320312 17.121093zm0 0" fill="#b27946"/><path d="m358.160156 57.699219c-2.878906-2.558594-5.921875-5.039063-9.039062-7.359375 12.398437-6.398438 23.679687-14.640625 33.597656-24.558594 11.042969-11.042969 26.082031-17.28125 41.679688-17.28125 9.839843 0 19.441406 2.480469 27.839843 6.960938 8.480469 4.558593 15.761719 11.117187 21.28125 19.277343l1.199219 1.761719c7.042969 10.640625 11.441406 22.878906 12.722656 35.519531-5.363281-7.199219-12.402344-13.121093-20.320312-17.121093-8.160156-4.160157-17.28125-6.398438-26.722656-6.398438-15.597657 0-30.636719 6.238281-41.679688 17.28125-5.679688 5.679688-11.757812 10.796875-18.320312 15.359375-4.160157-5.441406-8.71875-10.5625-13.597657-15.441406-2.800781-2.800781-5.679687-5.4375-8.640625-8zm0 0" fill="#cf9e76"/><path d="m224 192.5 1.359375 3.679688c-14.398437 4.800781-26.800781 14-35.597656 26.082031-15.921875-8.800781-34.242188-13.761719-53.761719-13.761719-20.398438 0-39.519531 5.441406-56 15.039062v-39.039062c0-10.71875 1.039062-21.28125 2.960938-31.441406 5.039062-26.796875 16.480468-51.277344 32.640624-71.917969 6.558594-8.5625 14.078126-16.402344 22.238282-23.441406l18.640625 11.839843c42.078125 26.800782 67.519531 73.121094 67.519531 122.960938zm0 0" fill="#e6e9ed"/><path d="m416 184.5v39.039062c-16.480469-9.597656-35.601562-15.039062-56-15.039062-19.519531 0-37.839844 4.960938-53.761719 13.761719-8.796875-12.082031-21.199219-21.28125-35.597656-26.082031l1.359375-3.679688c0-49.839844 25.441406-96.160156 67.519531-122.960938l18.640625-11.839843c2.960938 2.5625 5.839844 5.199219 8.640625 8 4.878907 4.878906 9.4375 10 13.597657 15.441406 16.160156 20.640625 27.601562 45.121094 32.640624 71.917969 1.921876 10.160156 2.960938 20.722656 2.960938 31.441406zm0 0" fill="#e6e9ed"/><path d="m358.160156 57.699219-18.640625 11.839843c-42.078125 26.800782-67.519531 73.121094-67.519531 122.960938l-1.359375 3.679688c-7.121094-2.398438-14.71875-3.679688-22.640625-3.679688s-15.519531 1.28125-22.640625 3.679688l-1.359375-3.679688c0-49.839844-25.441406-96.160156-67.519531-122.960938l-18.640625-11.839843c2.878906-2.558594 5.921875-5.039063 9.039062-7.359375 28.160156-21.28125 63.199219-33.839844 101.121094-33.839844s72.960938 12.558594 101.121094 33.839844c3.117187 2.320312 6.160156 4.800781 9.039062 7.359375zm0 0" fill="#cf9e76"/><path d="m416 223.539062c-16.480469-9.597656-35.601562-15.039062-56-15.039062-19.519531 0-37.839844 4.960938-53.761719 13.761719-8.796875-12.082031-21.199219-21.28125-35.597656-26.082031-7.121094-2.398438-14.71875-3.679688-22.640625-3.679688s-15.519531 1.28125-22.640625 3.679688c-14.398437 4.800781-26.800781 14-35.597656 26.082031-15.921875-8.800781-34.242188-13.761719-53.761719-13.761719-20.398438 0-39.519531 5.441406-56 15.039062-33.519531 19.359376-56 55.519532-56 96.960938 0 61.839844 50.160156 112 112 112 22.960938 0 44.320312-6.960938 62.078125-18.800781-21.199219-19.839844-28-49.277344-29.597656-58.398438 7.121093 3.359375 15.121093 5.199219 23.519531 5.199219 7.761719 0 15.199219-1.601562 21.921875-4.398438 20-8.5625 34.078125-28.402343 34.078125-51.601562.238281 22.960938 14.238281 42.640625 34.160156 51.039062 6.71875 2.882813 14.078125 4.402344 21.839844 4.402344 8.480469 0 16.480469-1.839844 23.679688-5.28125-1.441407 8.238282-8 38.71875-29.757813 58.960938 17.757813 11.917968 39.039063 18.878906 62.078125 18.878906 61.839844 0 112-50.160156 112-112 0-41.441406-22.480469-77.601562-56-96.960938zm0 0" fill="#dfb28b"/><path d="m297.921875 413.621094c-11.683594 10.878906-27.84375 18.878906-49.921875 18.878906s-38.238281-8-49.921875-18.800781c-21.199219-19.839844-28-49.277344-29.597656-58.398438 7.121093 3.359375 15.121093 5.199219 23.519531 5.199219 7.761719 0 15.199219-1.601562 21.921875-4.398438l2.078125 4.398438 8 40h48l8-40 2.160156-4.960938c6.71875 2.882813 14.078125 4.402344 21.839844 4.402344 8.480469 0 16.480469-1.839844 23.679688-5.28125-1.441407 8.238282-8 38.71875-29.757813 58.960938zm0 0" fill="#f0d0b4"/><path d="m282.160156 355.539062-2.160156 4.960938-8 40h-48l-8-40-2.078125-4.398438c20-8.5625 34.078125-28.402343 34.078125-51.601562.238281 22.960938 14.238281 42.640625 34.160156 51.039062zm0 0" fill="#e6e9ed"/><g fill="#838f9b"><path d="m248 304.5c-9.921875 0-19.121094-5.199219-24.238281-13.679688l-13.121094-21.839843c-1.679687-2.960938-2.640625-6.242188-2.640625-9.679688 0-5.199219 2.078125-9.921875 5.519531-13.28125 3.359375-3.441406 8.082031-5.519531 13.28125-5.519531h42.398438c10.402343 0 18.800781 8.398438 18.800781 18.800781 0 3.4375-.960938 6.71875-2.640625 9.679688l-13.121094 21.839843c-5.117187 8.480469-14.316406 13.679688-24.238281 13.679688zm0 0"/><path d="m360 144.5c0 8.835938-7.164062 16-16 16s-16-7.164062-16-16 7.164062-16 16-16 16 7.164062 16 16zm0 0"/><path d="m168 144.5c0 8.835938-7.164062 16-16 16s-16-7.164062-16-16 7.164062-16 16-16 16 7.164062 16 16zm0 0"/></g><path d="m176 144.5c0-13.230469-10.769531-24-24-24s-24 10.769531-24 24 10.769531 24 24 24 24-10.769531 24-24zm-32 0c0-4.40625 3.59375-8 8-8s8 3.59375 8 8-3.59375 8-8 8-8-3.59375-8-8zm0 0"/><path d="m481.34375 128.90625c9.59375-14.382812 14.65625-31.117188 14.65625-48.40625s-5.0625-34.023438-14.65625-48.398438l-1.175781-1.769531c-12.457031-18.679687-33.289063-29.832031-55.734375-29.832031-17.898438 0-34.714844 6.96875-47.371094 19.625-8.175781 8.175781-17.4375 15.101562-27.476562 20.789062-28.722657-20.382812-63.761719-32.414062-101.585938-32.414062s-72.863281 12.03125-101.585938 32.414062c-10.039062-5.6875-19.300781-12.613281-27.476562-20.789062-12.65625-12.65625-29.472656-19.625-47.371094-19.625-22.445312 0-43.277344 11.152344-55.734375 29.832031l-1.167969 1.761719c-9.601562 14.382812-14.664062 31.117188-14.664062 48.40625s5.0625 34.023438 14.65625 48.40625c13.191406 19.777344 35.253906 31.59375 59.023438 31.59375-1.078126 7.855469-1.679688 15.855469-1.679688 24v34.671875c-33.59375 21.289063-56 58.695313-56 101.328125 0 66.167969 53.832031 120 120 120 21.800781 0 42.886719-5.902344 61.414062-17.007812 12.449219 10.015624 28.898438 17.007812 50.585938 17.007812s38.136719-6.992188 50.585938-17.007812c18.542968 11.105468 39.621093 17.007812 61.414062 17.007812 66.167969 0 120-53.832031 120-120 0-42.632812-22.40625-80.039062-56-101.328125v-34.671875c0-8.144531-.601562-16.144531-1.679688-24 23.769532 0 45.832032-11.816406 59.023438-31.59375zm-92.96875-97.46875c9.632812-9.632812 22.441406-14.9375 36.058594-14.9375 17.085937 0 32.941406 8.488281 42.414062 22.695312l1.175782 1.769532c1.671874 2.503906 3.082031 5.136718 4.417968 7.800781-9.722656-5.289063-20.6875-8.265625-32.007812-8.265625-17.898438 0-34.714844 6.96875-47.371094 19.625-3.582031 3.574219-7.453125 6.871094-11.453125 10.015625-5.699219-6.648437-11.882813-12.855469-18.488281-18.59375 9.125-5.734375 17.605468-12.453125 25.253906-20.109375zm-44.09375 25.582031-9.089844 5.785157c-42.800781 27.238281-68.976562 73.039062-71 123.421874-5.289062-1.109374-10.703125-1.726562-16.191406-1.726562s-10.902344.617188-16.199219 1.71875c-2.023437-50.382812-28.191406-96.183594-71-123.421875l-9.089843-5.785156c26.832031-20.304688 60.121093-32.511719 96.289062-32.511719s69.457031 12.207031 96.28125 32.519531zm-316.304688-16.054687 1.167969-1.761719c9.480469-14.214844 25.335938-22.703125 42.421875-22.703125 13.625 0 26.425782 5.304688 36.058594 14.9375 7.65625 7.65625 16.128906 14.375 25.253906 20.109375-6.613281 5.738281-12.789062 11.945313-18.488281 18.59375-3.992187-3.144531-7.871094-6.433594-11.453125-10.015625-12.65625-12.65625-29.472656-19.625-47.371094-19.625-11.308594 0-22.285156 2.976562-32.007812 8.273438 1.328125-2.671876 2.746094-5.304688 4.417968-7.808594zm45.710938 103.535156c-18.40625 0-35.503906-9.152344-45.71875-24.472656-7.824219-11.742188-11.96875-25.40625-11.96875-39.527344 0-1.855469.265625-3.679688.40625-5.519531 9.632812-11.585938 24.007812-18.480469 39.160156-18.480469 13.625 0 26.425782 5.304688 36.058594 14.9375 4.039062 4.039062 8.414062 7.75 12.917969 11.292969-13.03125 18.3125-22.640625 39.210937-27.902344 61.769531zm14.3125 40c0-46.03125 19.65625-87.464844 50.878906-116.6875l13.335938 8.488281c39.617187 25.207031 63.359375 68.136719 63.753906 115.023438-10.777344 4.742187-20.511719 11.792969-28.359375 20.832031-16.058594-7.640625-33.761719-11.65625-51.609375-11.65625-17.070312 0-33.289062 3.640625-48 10.089844zm91.585938 182.769531c4.015624.789063 8.167968 1.230469 12.414062 1.230469 5.878906 0 11.558594-.863281 16.96875-2.359375l8.472656 42.359375h61.117188l8.578125-42.894531c5.382812 1.46875 11.015625 2.328125 16.863281 2.328125 4.28125 0 8.457031-.441406 12.503906-1.25-1.960937 6.417968-4.847656 14.121094-9.222656 21.894531-13.410156 23.832031-33.351562 35.921875-59.28125 35.921875-44.335938 0-61.855469-35.734375-68.414062-57.230469zm68.414062-70.769531c-7.070312 0-13.726562-3.769531-17.367188-9.832031l-13.089843-21.824219c-1.015625-1.679688-1.542969-3.589844-1.542969-5.542969 0-5.953125 4.839844-10.800781 10.792969-10.800781h42.414062c5.953125 0 10.792969 4.839844 10.792969 10.800781 0 1.953125-.527344 3.863281-1.535156 5.542969l-13.089844 21.824219c-3.648438 6.0625-10.304688 9.832031-17.375 9.832031zm-23.976562 63.328125c10.121093-5.878906 18.519531-14.417969 24.152343-24.695313 5.648438 10.054688 13.929688 18.414063 23.902344 24.183594l-6.636719 33.183594h-34.882812zm239.976562-39.328125c0 57.34375-46.65625 104-104 104-17.488281 0-34.449219-4.382812-49.609375-12.664062 15.425781-18.441407 21.929687-40.894532 24.320313-51.785157 19.816406-10.886719 33.289062-31.957031 33.289062-56.117187 0-31.640625-23.585938-58.875-54.863281-63.355469l-2.265625 15.84375c23.449218 3.351563 41.128906 23.78125 41.128906 47.511719 0 26.46875-21.527344 48-48 48-23.921875 0-43.753906-17.609375-47.359375-40.53125 9.253906-2.292969 17.449219-8.167969 22.449219-16.503906l13.085937-21.824219c2.503907-4.160157 3.824219-8.925781 3.824219-13.773438 0-14.777343-12.015625-26.800781-26.792969-26.800781h-42.414062c-14.777344 0-26.792969 12.023438-26.792969 26.800781 0 4.847657 1.320312 9.613281 3.824219 13.785157l13.085937 21.820312c5.019532 8.363281 13.242188 14.242188 22.539063 16.523438-3.378907 23.183593-23.335938 41.070312-47.449219 41.070312-26.472656 0-48-21.527344-48-48 0-23.726562 17.679688-44.160156 41.136719-47.503906l-2.265625-15.839844c-31.285156 4.472656-54.871094 31.703125-54.871094 63.34375 0 24.222656 13.535156 45.351562 33.441406 56.214844 2.503906 11.121094 9.046875 33.042968 24.175782 51.128906-15.167969 8.273438-32.121094 12.65625-49.617188 12.65625-57.34375 0-104-46.65625-104-104s46.65625-104 104-104c17.441406 0 34.703125 4.414062 49.9375 12.777344l6.175781 3.390625 4.144531-5.703125c12.039063-16.578125 31.382813-26.464844 51.742188-26.464844s39.703125 9.886719 51.742188 26.464844l4.144531 5.703125 6.175781-3.390625c15.234375-8.363282 32.496094-12.777344 49.9375-12.777344 57.34375 0 104 46.65625 104 104zm-104-120c-17.847656 0-35.550781 4.015625-51.601562 11.65625-7.847657-9.039062-17.589844-16.089844-28.359376-20.832031.394532-46.886719 24.136719-89.816407 63.753907-115.023438l13.335937-8.488281c31.214844 29.222656 50.871094 70.65625 50.871094 116.6875v26.089844c-14.710938-6.449219-30.929688-10.089844-48-10.089844zm62.3125-56h-2.953125c-5.261719-22.558594-14.871094-43.457031-27.902344-61.769531 4.503907-3.542969 8.886719-7.253907 12.917969-11.292969 9.632812-9.632812 22.441406-14.9375 36.058594-14.9375 15.152344 0 29.527344 6.894531 39.160156 18.480469.140625 1.839843.40625 3.664062.40625 5.519531 0 14.121094-4.144531 27.785156-11.96875 39.527344-10.214844 15.320312-27.3125 24.472656-45.71875 24.472656zm0 0"/><path d="m344 120.5c-13.230469 0-24 10.769531-24 24s10.769531 24 24 24 24-10.769531 24-24-10.769531-24-24-24zm0 32c-4.40625 0-8-3.59375-8-8s3.59375-8 8-8 8 3.59375 8 8-3.59375 8-8 8zm0 0"/></svg>