<svg height="496pt" viewBox="-64 0 496 496" width="496pt" xmlns="http://www.w3.org/2000/svg"><path d="m226.960938 440c7.679687 0 14.878906-2.398438 20.800781-6.398438l-1.839844 13.199219c-3.441406 23.597657-23.683594 41.199219-47.523437 41.199219h-28.796876c-23.839843 0-44.082031-17.601562-47.523437-41.199219l-1.839844-13.199219c5.921875 4 13.121094 6.398438 20.800781 6.398438zm0 0" fill="#dfb28b"/><path d="m247.761719 433.601562c-5.921875 4-13.121094 6.398438-20.800781 6.398438h-85.921876c-7.679687 0-14.878906-2.398438-20.800781-6.398438-9.839843-6.640624-16.238281-17.839843-16.238281-30.640624 0-.960938 0-2 .160156-2.960938.640625-10.640625 5.28125-20.238281 12.480469-27.359375 7.757813-7.839844 18.480469-12.640625 30.320313-12.640625 1.039062 0 2.078124 0 3.199218.078125 7.359375.5625 14.480469 2.960937 20.640625 7.121094l13.199219 8.800781 13.199219-8.800781c3.519531-2.398438 7.359375-4.160157 11.359375-5.359375 4.082031-1.199219 8.242187-1.839844 12.480468-1.839844 11.839844 0 22.5625 4.800781 30.320313 12.640625 7.199219 7.121094 11.839844 16.71875 12.480469 27.359375.160156.960938.160156 2 .160156 2.960938 0 10.238281-4.160156 19.519531-10.878906 26.160156-1.601563 1.679687-3.441406 3.117187-5.359375 4.480468zm0 0" fill="#b27946"/><path d="m360 33.519531v3.28125c0 32.320313-14.71875 62.960938-40 83.199219l-4.160156 1.199219c-4.558594-14.878907-12.640625-28.398438-23.601563-39.4375l1.761719-1.761719 4.398438-5.921875c8.960937-11.917969 20.160156-22 33.042968-29.757813 8.796875-5.28125 18.480469-8.960937 28.558594-10.800781zm0 0" fill="#b27946"/><path d="m298.398438 74.078125-4.398438 5.921875-1.761719 1.761719c-5.199219-5.363281-10.957031-10-17.359375-14l-3.757812-2.320313.878906-1.441406 10.398438-13.921875c8.960937-11.917969 20.160156-22 33.042968-29.757813 13.4375-8.082031 28.878906-12.320312 44.558594-12.320312v25.519531c-10.078125 1.839844-19.761719 5.519531-28.558594 10.800781-12.882812 7.757813-24.082031 17.839844-33.042968 29.757813zm0 0" fill="#cf9e76"/><path d="m74 80 1.761719 1.761719c-10.960938 11.039062-19.042969 24.558593-23.601563 39.4375l-4.160156-1.199219c-25.28125-20.238281-40-50.878906-40-83.199219v-3.28125c10.078125 1.839844 19.761719 5.519531 28.558594 10.800781 12.882812 7.757813 24.082031 17.839844 33.042968 29.757813zm0 0" fill="#b27946"/><path d="m93.121094 67.761719c-6.402344 4-12.160156 8.636719-17.359375 14l-1.761719-1.761719-4.398438-5.921875c-8.960937-11.917969-20.160156-22-33.042968-29.757813-8.796875-5.28125-18.480469-8.960937-28.558594-10.800781v-25.519531c15.679688 0 31.121094 4.238281 44.558594 12.320312 12.882812 7.757813 24.082031 17.839844 33.042968 29.757813l10.398438 13.921875.878906 1.441406zm0 0" fill="#cf9e76"/><path d="m160 360-9.839844.078125c-1.121094-.078125-2.160156-.078125-3.199218-.078125-11.839844 0-22.5625 4.800781-30.320313 12.640625-7.199219 7.121094-11.839844 16.71875-12.480469 27.359375h-.160156l-5.921875-53.199219c-1.359375-12.402343-5.117187-24.402343-11.117187-35.359375l-27.199219-49.921875c-7.761719-14.160156-11.761719-29.917969-11.761719-46v-66.320312c0-9.597657 1.441406-19.039063 4.160156-28 4.558594-14.878907 12.640625-28.398438 23.601563-39.4375 5.199219-5.363281 10.957031-10 17.359375-14l3.757812-2.320313 12.640625-7.921875c-.160156.242188-.320312.558594-.480469.878907-3.277343 6.882812-5.039062 14.402343-5.039062 22.160156 0 10.082031 2.960938 19.921875 8.558594 28.320312l7.441406 11.121094 16-16 .320312 2c.320313 1.839844.640626 3.679688 1.039063 5.441406l-1.359375.558594.71875 3.039062c15.441406 61.761719 23.28125 125.121094 23.28125 188.800782zm0 0" fill="#dfb28b"/><path d="m231.679688 106 .320312-2 16 16 7.441406-11.121094c5.597656-8.398437 8.558594-18.238281 8.558594-28.320312 0-7.757813-1.761719-15.277344-5.039062-22.160156-.160157-.320313-.320313-.636719-.480469-.878907l12.640625 7.921875 3.757812 2.320313c6.402344 4 12.160156 8.636719 17.359375 14 10.960938 11.039062 19.042969 24.558593 23.601563 39.4375 2.71875 8.960937 4.160156 18.402343 4.160156 28v66.320312c0 16.082031-4 31.839844-11.761719 46l-27.199219 49.921875c-6 10.957032-9.757812 22.957032-11.117187 35.359375l-5.921875 53.199219h-.160156c-.640625-10.640625-5.28125-20.238281-12.480469-27.359375-7.757813-7.839844-18.480469-12.640625-30.320313-12.640625-4.238281 0-8.398437.640625-12.480468 1.839844l-.558594-1.839844v-56.160156c0-63.679688 7.839844-127.039063 23.28125-188.800782l.71875-3.039062-1.359375-.558594c.398437-1.761718.71875-3.601562 1.039063-5.441406zm0 0" fill="#dfb28b"/><path d="m184 176c23.761719-14.238281 40.558594-37.679688 46.640625-64.558594l1.359375.558594-.71875 3.039062c-15.441406 61.761719-23.28125 125.121094-23.28125 188.800782v56.160156l.558594 1.839844c-4 1.199218-7.839844 2.960937-11.359375 5.359375l-13.199219 8.800781-13.199219-8.800781c-6.160156-4.160157-13.28125-6.558594-20.640625-7.121094l9.839844-.078125v-56.160156c0-63.679688-7.839844-127.039063-23.28125-188.800782l-.71875-3.039062 1.359375-.558594c2.800781 12.558594 8 24.320313 15.121094 34.796875 8.160156 12 18.878906 22.160157 31.519531 29.761719zm0 0" fill="#e6e9ed"/><path d="m248 120-16-16-.320312 2c-.320313 1.839844-.640626 3.679688-1.039063 5.441406-6.082031 26.878906-22.878906 50.320313-46.640625 64.558594-12.640625-7.601562-23.359375-17.761719-31.519531-29.761719-7.121094-10.476562-12.320313-22.238281-15.121094-34.796875-.398437-1.761718-.71875-3.601562-1.039063-5.441406l-.320312-2-16 16-7.441406-11.121094c-5.597656-8.398437-8.558594-18.238281-8.558594-28.320312 0-7.757813 1.761719-15.277344 5.039062-22.160156.160157-.320313.320313-.636719.480469-.878907 3.199219-6.480469 7.839844-12.320312 13.679688-16.878906 13.441406-10.800781 30.242187-16.640625 47.519531-16.640625h26.5625c17.277344 0 34.078125 5.839844 47.519531 16.640625 5.839844 4.558594 10.480469 10.398437 13.679688 16.878906.160156.242188.320312.558594.480469.878907 3.277343 6.882812 5.039062 14.402343 5.039062 22.160156 0 10.082031-2.960938 19.921875-8.558594 28.320312zm0 0" fill="#b27946"/><path d="m144 392h16v16h-16zm0 0"/><path d="m208 392h16v16h-16zm0 0"/><path d="m104 176h16v16h-16zm0 0"/><path d="m248 176h16v16h-16zm0 0"/><path d="m360 0c-17.152344 0-33.984375 4.664062-48.695312 13.488281-13.777344 8.265625-25.648438 18.976563-35.296876 31.832031l-7.023437 9.367188-4.472656-2.792969c-3.679688-6.613281-8.574219-12.574219-14.679688-17.460937-14.847656-11.890625-33.496093-18.433594-52.511719-18.433594h-26.632812c-19.015625 0-37.664062 6.542969-52.511719 18.425781-6.105469 4.878907-11 10.847657-14.679687 17.460938l-4.472656 2.792969-7.023438-9.367188c-9.648438-12.855469-21.519531-23.570312-35.296875-31.832031-14.71875-8.816407-31.550781-13.480469-48.703125-13.480469h-8v36.777344c0 34.871094 15.574219 67.367187 42.734375 89.230468-1.703125 7.519532-2.734375 15.265626-2.734375 23.199219v66.3125c0 17.34375 4.390625 34.570313 12.695312 49.808594l27.234376 49.910156c5.503906 10.097657 8.933593 21 10.207031 32.425781l5.910156 53.214844.058594-.007812c-.027344.714844-.105469 1.402344-.105469 2.113281 0 14.128906 6.558594 26.742187 16.777344 35.007813l1.414062 9.929687c3.914063 27.40625 27.746094 48.078125 55.433594 48.078125h28.742188c27.6875 0 51.519531-20.664062 55.433593-48.078125l1.414063-9.929687c10.226562-8.265626 16.785156-20.878907 16.785156-35.007813 0-.710937-.078125-1.398437-.105469-2.105469l.058594.007813 5.910156-53.214844c1.273438-11.425781 4.703125-22.335937 10.207031-32.425781l27.234376-49.917969c8.304687-15.238281 12.695312-32.464844 12.695312-49.808594v-66.3125c0-7.933593-1.03125-15.679687-2.734375-23.199219 27.160156-21.863281 42.734375-54.359374 42.734375-89.230468v-36.777344zm-71.191406 54.921875c8.398437-11.195313 18.734375-20.515625 30.726562-27.714844 9.921875-5.949219 21.007813-9.632812 32.464844-10.800781v10.746094c-8.671875 2.273437-16.960938 5.695312-24.695312 10.335937-13.777344 8.265625-25.648438 18.976563-35.296876 31.832031l-.601562.800782c-2.820312-2.402344-5.847656-4.601563-8.957031-6.722656zm-160.648438-8.011719c12.023438-9.613281 27.128906-14.910156 42.519532-14.910156h26.632812c15.390625 0 30.496094 5.296875 42.519531 14.910156 5.289063 4.234375 9.390625 9.554688 12.152344 15.496094l-.222656.378906.527343.328125c2.390626 5.414063 3.710938 11.3125 3.710938 17.421875 0 8.527344-2.496094 16.792969-7.230469 23.890625l-2.007812 3.015625-20.089844-20.089844-2.886719 17.320313c-4.21875 25.320313-18.617187 47.601563-39.777344 61.847656-21.167968-14.246093-35.558593-36.535156-39.777343-61.847656l-2.886719-17.320313-20.085938 20.089844-2.011718-3.015625c-4.75-7.097656-7.246094-15.355469-7.246094-23.890625 0-6.109375 1.320312-12.015625 3.71875-17.421875l.527344-.328125-.230469-.378906c2.753906-5.941406 6.855469-11.261719 12.144531-15.496094zm71.839844 309.675782c-2.503906 1.132812-4.945312 2.429687-7.265625 3.972656l-8.734375 5.824218-8.734375-5.824218c-2.320313-1.542969-4.761719-2.839844-7.265625-3.972656v-52.738282c0-47.398437-4.335938-94.757812-12.847656-141.375 7.128906 7.878906 15.40625 14.792969 24.726562 20.382813l4.121094 2.472656 4.121094-2.472656c9.328125-5.589844 17.597656-12.503907 24.726562-20.382813-8.511718 46.617188-12.847656 93.976563-12.847656 141.375zm-151.535156-329.378907c11.992187 7.191407 22.335937 16.511719 30.726562 27.714844l6.359375 8.484375c-3.109375 2.121094-6.125 4.320312-8.957031 6.722656l-.601562-.800781c-9.648438-12.855469-21.519532-23.566406-35.296876-31.832031-7.734374-4.648438-16.023437-8.070313-24.695312-10.34375v-10.746094c11.449219 1.167969 22.535156 4.851562 32.464844 10.800781zm-32.066406 16.753907c5.585937 1.824218 10.976562 4.199218 16.058593 7.246093 11.992188 7.191407 22.335938 16.511719 30.726563 27.703125l1.992187 2.65625c-7.160156 8.3125-13.015625 17.601563-17.199219 27.691406-18.5625-17.027343-29.761718-40.195312-31.578124-65.296874zm89.632812 301.933593c-1.503906-13.503906-5.550781-26.390625-12.054688-38.320312l-27.234374-49.917969c-7.03125-12.878906-10.742188-27.457031-10.742188-42.136719v-66.3125c0-30.09375 15.0625-57.566406 40.289062-73.855469-.144531 1.71875-.289062 3.441407-.289062 5.183594 0 11.695313 3.433594 23.023438 9.921875 32.761719l12.839844 19.253906 11.246093-11.246093c14.558594 59.710937 21.992188 121.09375 21.992188 182.542968v48.519532c-1.664062-.160157-3.328125-.367188-5.015625-.367188-15.28125 0-28.976563 6.792969-38.328125 17.472656zm92.335938 134.105469h-28.742188c-19.433594 0-36.121094-14.28125-39.359375-33.351562 3.453125.847656 7.039063 1.351562 10.75 1.351562h85.96875c3.710937 0 7.296875-.503906 10.742187-1.351562-3.230468 19.070312-19.925781 33.351562-39.359374 33.351562zm28.617187-48h-85.96875c-16 0-29.015625-13.015625-29.015625-29.015625 0-19.289063 15.695312-34.984375 34.984375-34.984375 6.9375 0 13.640625 2.03125 19.40625 5.871094l17.609375 11.746094 17.609375-11.738282c5.765625-3.847656 12.46875-5.878906 19.40625-5.878906 19.289063 0 34.984375 15.695312 34.984375 34.984375 0 16-13.015625 29.015625-29.015625 29.015625zm85.015625-216.480469c0 14.679688-3.710938 29.257813-10.742188 42.144531l-27.234374 49.921876c-6.503907 11.925781-10.558594 24.8125-12.054688 38.316406l-2.625 23.578125c-9.351562-10.6875-23.046875-17.480469-38.328125-17.480469-1.6875 0-3.351563.207031-5.015625.367188v-48.519532c0-61.449218 7.433594-122.832031 21.992188-182.542968l11.246093 11.246093 12.839844-19.253906c6.488281-9.730469 9.921875-21.058594 9.921875-32.761719 0-1.742187-.144531-3.464844-.289062-5.183594 25.226562 16.28125 40.289062 43.761719 40.289062 73.855469zm8.023438-106.261719c-4.183594-10.089843-10.03125-19.378906-17.199219-27.691406l1.984375-2.644531c8.398437-11.195313 18.734375-20.515625 30.726562-27.714844 5.089844-3.046875 10.480469-5.421875 16.066406-7.246093-1.816406 25.101562-13.015624 48.269531-31.578124 65.296874zm0 0"/></svg>