<svg height="496pt" viewBox="-24 0 496 496" width="496pt" xmlns="http://www.w3.org/2000/svg"><path d="m168 136c20.960938 36.71875 32 78.238281 32 120.480469v23.519531l2.078125 3.761719c-2.316406.878906-4.636719 1.839843-6.796875 2.878906-8.882812 4.398437-16.722656 10.640625-22.960938 18.640625l-18.398437 23.679688c-11.601563 14.960937-17.921875 33.359374-17.921875 52.238281 0 12.082031 3.359375 23.761719 9.601562 33.839843l-1.601562.960938c-17.679688 0-33.679688-7.199219-45.28125-18.71875-11.519531-11.601562-18.71875-27.601562-18.71875-45.28125 0-31.921875 3.359375-63.761719 10.078125-94.960938l7.042969-32.878906c4.480468-21.121094 14.398437-40.640625 28.71875-56.71875l4.960937-5.601562c6.238281-7.039063 13.121094-13.199219 20.640625-18.558594 4.957032-3.519531 10.238282-6.722656 15.597656-9.519531zm0 0" fill="#dfb28b"/><path d="m296.558594 143.28125c7.519531 5.359375 14.402344 11.519531 20.640625 18.558594l4.960937 5.601562c14.320313 16.078125 24.238282 35.597656 28.71875 56.71875l7.042969 32.878906c6.71875 31.199219 10.078125 63.039063 10.078125 94.960938 0 35.359375-28.640625 64-64 64l-1.601562-.960938c6.242187-10.078124 9.601562-21.757812 9.601562-33.839843 0-18.878907-6.320312-37.277344-17.921875-52.238281l-18.398437-23.679688c-7.679688-9.839844-17.839844-17.121094-29.28125-21.28125v-.078125l1.601562-3.921875v-23.519531c0-42.242188 11.039062-83.761719 32-120.480469l.960938-2.238281c5.359374 2.796875 10.640624 6 15.597656 9.519531zm0 0" fill="#dfb28b"/><path d="m168 240c0 8.835938-7.164062 16-16 16s-16-7.164062-16-16 7.164062-16 16-16 16 7.164062 16 16zm0 0" fill="#b27946"/><path d="m312 240c0 8.835938-7.164062 16-16 16s-16-7.164062-16-16 7.164062-16 16-16 16 7.164062 16 16zm0 0" fill="#b27946"/><g fill="#e6e9ed"><path d="m125.839844 167.441406c-14.320313 16.078125-24.238282 35.597656-28.71875 56.71875l-1.121094-.160156-9.039062-3.839844c-15.121094-6.480468-28.722657-15.679687-40.160157-27.039062-11.519531-11.359375-20.878906-24.800782-27.601562-39.839844-7.359375-16.640625-11.199219-34.722656-11.199219-52.960938v-12.242187l9.761719-24.398437c3.757812-9.441407 12.957031-15.679688 23.117187-15.679688 4.640625 0 9.199219 1.28125 13.199219 3.761719 19.121094 11.917969 36.960937 25.757812 53.363281 41.117187 16.238282 15.28125 30.957032 32.160156 44 50.402344-7.519531 5.359375-14.402344 11.519531-20.640625 18.558594zm0 0"/><path d="m352 224-1.121094.160156c-4.480468-21.121094-14.398437-40.640625-28.71875-56.71875l-4.960937-5.601562c-6.238281-7.039063-13.121094-13.199219-20.640625-18.558594 13.042968-18.242188 27.761718-35.121094 44-50.402344 16.402344-15.359375 34.242187-29.199218 53.363281-41.117187 4-2.480469 8.558594-3.761719 13.199219-3.761719 10.160156 0 19.359375 6.238281 23.117187 15.679688l9.761719 24.398437v12.242187c0 18.238282-3.839844 36.320313-11.199219 52.960938-6.722656 15.039062-16.082031 28.480469-27.601562 39.839844-11.4375 11.359375-25.039063 20.558594-40.160157 27.039062zm0 0"/><path d="m264.71875 126.878906c5.601562 1.839844 11.042969 4.160156 16.242188 6.882813l-.960938 2.238281c-20.960938 36.71875-32 78.238281-32 120.480469v23.519531l-1.601562 3.921875c-7.039063-2.5625-14.636719-3.921875-22.398438-3.921875-7.519531 0-14.960938 1.28125-21.921875 3.761719l-2.078125-3.761719v-23.519531c0-42.242188-11.039062-83.761719-32-120.480469l-.960938-2.238281c2-.960938 3.921876-1.921875 5.921876-2.800781 3.359374-1.519532 6.800781-2.882813 10.320312-4.082032 12.957031-4.480468 26.71875-6.878906 40.71875-6.878906s27.761719 2.398438 40.71875 6.878906zm0 0"/><path d="m312 381.199219c0 12.082031-3.359375 23.761719-9.601562 33.839843-2.558594 4.320313-5.757813 8.320313-9.359376 11.921876-5.917968 5.917968-13.359374 10-21.359374 11.839843-3.28125.800781-6.71875 1.199219-10.160157 1.199219-8.800781 0-17.441406-2.640625-24.800781-7.519531l-12.71875-8.480469c5.121094 0 10-2 13.679688-5.679688l13.359374-13.359374c3.199219-3.199219 4.960938-7.519532 4.960938-12 0-9.359376-7.601562-16.960938-16.960938-16.960938h-30.078124c-4.640626 0-8.960938 1.921875-12 4.960938-3.039063 3.039062-4.960938 7.359374-4.960938 12 0 4.480468 1.761719 8.800781 4.960938 12l13.359374 13.359374c3.679688 3.679688 8.558594 5.679688 13.679688 5.679688l-12.71875 8.480469c-7.359375 4.878906-16 7.519531-24.800781 7.519531-3.441407 0-6.878907-.398438-10.160157-1.199219-8-1.839843-15.441406-5.921875-21.359374-11.839843-3.601563-3.601563-6.800782-7.601563-9.359376-11.921876-6.242187-10.078124-9.601562-21.757812-9.601562-33.839843 0-18.878907 6.320312-37.277344 17.921875-52.238281l18.398437-23.679688c6.238282-8 14.078126-14.242188 22.960938-18.640625 2.160156-1.039063 4.480469-2 6.796875-2.878906 6.960937-2.480469 14.402344-3.761719 21.921875-3.761719 7.761719 0 15.359375 1.359375 22.398438 3.921875v.078125c11.441406 4.160156 21.601562 11.441406 29.28125 21.28125l18.398437 23.679688c11.601563 14.960937 17.921875 33.359374 17.921875 52.238281zm0 0"/></g><path d="m261.519531 440c3.441407 0 6.878907-.398438 10.160157-1.199219l.320312 1.199219s-8 48-48 48-48-48-48-48l.320312-1.199219c3.28125.800781 6.71875 1.199219 10.160157 1.199219 8.800781 0 17.441406-2.640625 24.800781-7.519531l12.71875-8.480469 12.71875 8.480469c7.359375 4.878906 16 7.519531 24.800781 7.519531zm0 0" fill="#cf9e76"/><path d="m239.039062 376c9.359376 0 16.960938 7.601562 16.960938 16.960938 0 4.480468-1.761719 8.800781-4.960938 12l-13.359374 13.359374c-3.679688 3.679688-8.558594 5.679688-13.679688 5.679688s-10-2-13.679688-5.679688l-13.359374-13.359374c-3.199219-3.199219-4.960938-7.519532-4.960938-12 0-4.640626 1.921875-8.960938 4.960938-12 3.039062-3.039063 7.359374-4.960938 12-4.960938zm0 0" fill="#656d78"/><path d="m440 39.839844v48.238281l-9.761719-24.398437c-3.757812-9.441407-12.957031-15.679688-23.117187-15.679688-4.640625 0-9.199219 1.28125-13.199219 3.761719-19.121094 11.917969-36.960937 25.757812-53.363281 41.117187-16.238282 15.28125-30.957032 32.160156-44 50.402344-4.957032-3.519531-10.238282-6.722656-15.597656-9.519531-5.199219-2.722657-10.640626-5.042969-16.242188-6.882813 31.441406-46.800781 73.761719-85.359375 123.28125-112.320312l4.878906-2.636719c4.640625-2.5625 9.921875-3.921875 15.28125-3.921875 8.800782 0 16.800782 3.519531 22.558594 9.28125 5.761719 5.757812 9.28125 13.757812 9.28125 22.558594zm0 0" fill="#dfb28b"/><path d="m183.28125 126.878906c-3.519531 1.199219-6.960938 2.5625-10.320312 4.082032-2 .878906-3.921876 1.839843-5.921876 2.800781-5.359374 2.796875-10.640624 6-15.597656 9.519531-13.042968-18.242188-27.761718-35.121094-44-50.402344-16.402344-15.359375-34.242187-29.199218-53.363281-41.117187-4-2.480469-8.558594-3.761719-13.199219-3.761719-10.160156 0-19.359375 6.238281-23.117187 15.679688l-9.761719 24.398437v-48.238281c0-8.800782 3.519531-16.800782 9.28125-22.558594 5.757812-5.761719 13.757812-9.28125 22.558594-9.28125 5.359375 0 10.640625 1.359375 15.28125 3.921875l4.878906 2.636719c49.519531 26.960937 91.839844 65.519531 123.28125 112.320312zm0 0" fill="#dfb28b"/><path d="m152 264c13.230469 0 24-10.769531 24-24s-10.769531-24-24-24-24 10.769531-24 24 10.769531 24 24 24zm0-32c4.414062 0 8 3.59375 8 8s-3.585938 8-8 8-8-3.59375-8-8 3.585938-8 8-8zm0 0"/><path d="m408.128906 0c-6.648437 0-13.242187 1.679688-19.089844 4.863281l-4.894531 2.671875c-48.695312 26.5625-90.847656 64.578125-122.550781 110.066406-12.105469-3.585937-24.730469-5.601562-37.601562-5.601562-12.863282 0-25.480469 2.015625-37.585938 5.601562-31.703125-45.488281-73.855469-83.503906-122.550781-110.066406l-4.894531-2.671875c-5.839844-3.183593-12.441407-4.863281-19.089844-4.863281-21.984375 0-39.871094 17.886719-39.871094 39.871094v60.472656c0 19.480469 4.007812 38.375 11.921875 56.183594 14.214844 31.984375 39.765625 57.183594 71.917969 70.96875l4 1.710937-5.609375 26.175781c-6.78125 31.722657-10.230469 64.226563-10.230469 96.617188 0 39.007812 31.191406 70.792969 69.9375 71.894531 2.222656 3.042969 4.621094 5.976563 7.335938 8.691407 5.605468 5.605468 12.285156 9.734374 19.550781 12.316406 4.414062 19.511718 20.40625 51.097656 55.175781 51.097656s50.761719-31.585938 55.175781-51.089844c7.265625-2.582031 13.9375-6.710937 19.550781-12.316406 2.714844-2.714844 5.113282-5.648438 7.335938-8.691406 38.746094-1.109375 69.9375-32.894532 69.9375-71.902344 0-32.390625-3.449219-64.894531-10.230469-96.617188l-5.609375-26.183593 3.992188-1.710938c32.167968-13.785156 57.710937-38.984375 71.925781-70.96875 7.914063-17.800781 11.921875-36.703125 11.921875-56.183593v-60.464844c0-21.984375-17.886719-39.871094-39.871094-39.871094zm-16.328125 21.585938 4.894531-2.675782c3.496094-1.902344 7.457032-2.910156 11.433594-2.910156 13.160156 0 23.871094 10.703125 23.871094 23.871094v11.542968c-6.121094-7.117187-15.0625-11.414062-24.863281-11.414062-6.160157 0-12.175781 1.726562-17.433594 5-36.941406 23.097656-68.773437 52.464844-95.101563 87.542969-5.585937-3.511719-11.355468-6.6875-17.386718-9.328125 30-41.886719 69.335937-76.941406 114.585937-101.628906zm-167.800781 106.414062c16.03125 0 31.6875 3.382812 46.113281 9.59375-19.640625 36.484375-30.113281 77.421875-30.113281 118.902344v17.273437c-5.191406-1.144531-10.542969-1.769531-16-1.769531s-10.808594.625-16 1.777344v-17.273438c0-41.480468-10.472656-82.414062-30.113281-118.902344 14.425781-6.21875 30.082031-9.601562 46.113281-9.601562zm-184.128906-112c3.976562 0 7.929687 1.007812 11.433594 2.910156l4.894531 2.675782c45.25 24.6875 84.578125 59.742187 114.578125 101.628906-6.023438 2.640625-11.792969 5.808594-17.378906 9.320312-26.132813-34.894531-58.046876-64.375-95.117188-87.542968-5.234375-3.265626-11.257812-4.992188-17.417969-4.992188-9.800781 0-18.742187 4.296875-24.863281 11.414062v-11.542968c0-13.167969 10.710938-23.871094 23.871094-23.871094zm-13.328125 134.023438c-7-15.742188-10.542969-32.464844-10.542969-49.6875v-10.695313l9.175781-23.007813c2.585938-6.464843 8.734375-10.632812 15.6875-10.632812 3.167969 0 6.257813.886719 8.945313 2.566406 35.183594 21.984375 65.496094 49.9375 90.589844 83.320313-5.511719 4.480469-10.796876 9.273437-15.582032 14.65625l-4.953125 5.570312c-13.136719 14.773438-22.792969 32.367188-28.269531 51.292969l-1.449219-.613281c-28.441406-12.191407-51.023437-34.480469-63.601562-62.769531zm61.457031 201.976562c0-31.265625 3.320312-62.648438 9.871094-93.257812l7.058594-32.917969c4.214843-19.679688 13.511718-38.039063 26.886718-53.082031l4.953125-5.566407c7.855469-8.832031 16.964844-16.253906 26.894531-22.253906 18.488282 34.222656 28.335938 72.644531 28.335938 111.574219v22.800781c-10 4.839844-18.886719 11.949219-25.960938 21.046875l-18.40625 23.664062c-12.664062 16.28125-19.632812 36.609376-19.632812 57.222657 0 8.90625 1.664062 17.539062 4.710938 25.625-25.480469-5.238281-44.710938-27.847657-44.710938-54.855469zm136 128c-23.097656 0-33.40625-19.792969-37.59375-32h.074219c10.421875 0 20.519531-3.054688 29.191406-8.832031l8.328125-5.550781 8.320312 5.542968c8.671876 5.785156 18.777344 8.839844 29.191407 8.839844h.074219c-4.179688 12.207031-14.488282 32-37.585938 32zm-8-67.3125-13.375-13.375c-1.671875-1.671875-2.625-3.984375-2.625-6.34375 0-4.945312 4.023438-8.96875 8.96875-8.96875h30.0625c4.945312 0 8.96875 4.023438 8.96875 8.96875 0 2.359375-.953125 4.671875-2.625 6.34375l-13.375 13.375c-1.703125 1.695312-3.9375 2.519531-6.238281 2.871094l-1.761719-1.175782-1.761719 1.175782c-2.300781-.351563-4.535156-1.175782-6.238281-2.871094zm71.414062 8.585938c-6.917968 6.910156-16.117187 10.726562-25.902343 10.726562-7.253907 0-14.28125-2.128906-20.320313-6.152344l-.070312-.046875c.734375-.601562 1.511718-1.121093 2.191406-1.800781l13.375-13.375c4.648438-4.648438 7.3125-11.082031 7.3125-17.65625 0-13.769531-11.199219-24.96875-24.96875-24.96875h-30.0625c-13.769531 0-24.96875 11.199219-24.96875 24.96875 0 6.574219 2.664062 13.007812 7.3125 17.65625l13.375 13.375c.679688.679688 1.457031 1.207031 2.191406 1.800781l-.070312.046875c-14.167969 9.449219-34.167969 7.480469-46.214844-4.574218-10.707031-10.699219-16.59375-24.914063-16.59375-40.042969 0-17.078125 5.777344-33.910157 16.257812-47.398438l18.40625-23.664062c10.960938-14.089844 27.488282-22.167969 45.335938-22.167969s34.375 8.078125 45.335938 22.167969l18.40625 23.664062c10.480468 13.488281 16.257812 30.328125 16.257812 47.398438 0 15.128906-5.886719 29.34375-16.585938 40.042969zm27.875-14.417969c3.046876-8.085938 4.710938-16.71875 4.710938-25.625 0-20.613281-6.96875-40.941407-19.632812-57.222657l-18.40625-23.664062c-7.074219-9.085938-15.960938-16.207031-25.960938-21.046875v-22.800781c0-38.9375 9.847656-77.359375 28.328125-111.585938 9.929687 6 19.039063 13.425782 26.894531 22.257813l4.953125 5.566406c13.375 15.042969 22.671875 33.402344 26.886719 53.082031l7.058594 32.910156c6.558594 30.625 9.878906 62.007813 9.878906 93.273438 0 27.007812-19.222656 49.617188-44.710938 54.855469zm106.167969-256.832031c-12.570312 28.28125-35.160156 50.570312-63.609375 62.761718l-1.441406.613282c-5.484375-18.933594-15.132812-36.519532-28.269531-51.292969l-4.953125-5.570313c-4.785156-5.382812-10.078125-10.183594-15.589844-14.664062 24.910156-33.207032 55.308594-61.253906 90.589844-83.304688 2.6875-1.679687 5.785156-2.566406 8.953125-2.566406 6.953125 0 13.109375 4.167969 15.6875 10.632812l9.175781 23.007813v10.695313c0 17.222656-3.542969 33.945312-10.542969 49.6875zm0 0"/><path d="m296 216c-13.230469 0-24 10.769531-24 24s10.769531 24 24 24 24-10.769531 24-24-10.769531-24-24-24zm0 32c-4.414062 0-8-3.59375-8-8s3.585938-8 8-8 8 3.59375 8 8-3.585938 8-8 8zm0 0"/></svg>