<svg height="491pt" viewBox="0 -25 491.008 491" width="491pt" xmlns="http://www.w3.org/2000/svg"><path d="m405.265625 180.324219c-10.320313-22.398438-23.839844-43.359375-40.320313-62.160157-15.121093-17.199218-33.519531-30.71875-53.839843-40-.242188-.078124-.5625-.238281-.800781-.320312 5.039062-14.238281 13.199218-27.039062 23.679687-37.359375 10.878906-11.039063 24.398437-19.441406 39.519531-24.480469 15.921875-5.28125 32.558594-8 49.28125-8h22.71875l-8 16h6.082032c11.757812 0 23.359374 2.71875 33.917968 8l-24 24c7.679688 7.679688 13.679688 16.71875 17.761719 26.558594 4.078125 9.921875 6.238281 20.480469 6.238281 31.363281 0 33.917969-16.398437 65.757813-44 85.519531l-12 8.558594-4.800781 1.28125c-3.199219-9.839844-7.039063-19.519531-11.4375-28.960937zm0 0" fill="#dfb28b"/><path d="m85.742188 180.324219c-2.796876 5.917969-5.277344 11.839843-7.597657 17.917969-1.359375 3.683593-2.640625 7.28125-3.839843 11.042968l-4.800782-1.28125-12-8.558594c-27.601562-19.761718-44-51.601562-44-85.519531 0-10.882812 2.160156-21.441406 6.238282-31.363281 4.082031-9.839844 10.082031-18.878906 17.761718-26.558594l-24-24c10.558594-5.28125 22.160156-8 33.921875-8h6.078125l-8-16h22.71875c16.722656 0 33.363282 2.71875 49.28125 8 15.121094 5.039063 28.640625 13.441406 39.519532 24.480469 10.480468 10.320313 18.640624 23.121094 23.679687 37.359375-.238281.082031-.558594.242188-.800781.320312-20.316406 9.28125-38.71875 22.800782-53.839844 40-16.476562 18.800782-30 39.761719-40.320312 62.160157zm0 0" fill="#dfb28b"/><path d="m383.625 46.363281c2.6875-.894531 5.398438-1.695312 8.128906-2.40625l5.75 36.046875 33.375-1.375c9.433594 9.4375 14.625 21.976563 14.625 35.3125 0 23.535156-11.441406 45.765625-30.59375 59.445313l-12.007812 8.578125-63.039063-91.839844c6.847657-20.5625 23.199219-36.914062 43.761719-43.761719zm0 0" fill="#d3a06c"/><path d="m107.382812 46.363281c-2.6875-.894531-5.398437-1.695312-8.125-2.40625l-5.753906 36.046875-33.375-1.375c-9.433594 9.4375-14.625 21.976563-14.625 35.3125 0 23.535156 11.441406 45.765625 30.59375 59.445313l12.007813 8.578125 63.039062-91.839844c-6.847656-20.5625-23.199219-36.914062-43.761719-43.761719zm0 0" fill="#d3a06c"/><path d="m405.265625 180.324219c4.398437 9.441406 8.238281 19.121093 11.4375 28.960937 8.402344 25.839844 12.800781 53.117188 12.800781 80.800782v45.917968l-74.480468 53.519532c-29.28125 27.28125-67.757813 42.480468-107.757813 42.480468h-3.523437c-40 0-78.476563-15.199218-107.757813-42.480468l-74.480469-53.519532v-45.917968c0-27.683594 4.398438-54.960938 12.800782-80.800782 1.199218-3.761718 2.480468-7.359375 3.839843-11.042968 2.320313-6.078126 4.800781-12 7.597657-17.917969 10.320312-22.398438 23.84375-43.359375 40.320312-62.160157 15.121094-17.199218 33.523438-30.71875 53.839844-40 .242187-.078124.5625-.238281.800781-.320312 20.160156-9.039062 42.242187-13.839844 64.800781-13.839844s44.640625 4.800782 64.800782 13.839844c.238281.082031.558593.242188.800781.320312 20.320312 9.28125 38.71875 22.800782 53.839843 40 16.480469 18.800782 30 39.761719 40.320313 62.160157zm0 0" fill="#ecc19c"/><path d="m300.945312 325.683594c-2.882812 15.039062-16 26.320312-31.839843 26.320312-2.160157 0-4.402344-.238281-6.480469-.71875-.722656-2.242187-1.121094-4.722656-1.121094-7.28125 0-13.28125 10.71875-24 24-24 5.921875 0 11.28125 2.160156 15.441406 5.679688zm0 0" fill="#b27946"/><path d="m229.503906 344.003906c0 2.558594-.398437 5.039063-1.121094 7.28125-2.078124.480469-4.320312.71875-6.480468.71875-15.839844 0-29.039063-11.359375-31.839844-26.398437 4.160156-3.519531 9.523438-5.601563 15.441406-5.601563 13.28125 0 24 10.71875 24 24zm0 0" fill="#b27946"/><path d="m341.503906 176.003906c0 8.835938-7.164062 16-16 16-8.835937 0-16-7.164062-16-16 0-8.835937 7.164063-16 16-16 8.835938 0 16 7.164063 16 16zm0 0" fill="#969faa"/><path d="m301.503906 232.003906v87.601563c0 2.078125-.160156 4.078125-.558594 6.078125-4.160156-3.519532-9.519531-5.679688-15.441406-5.679688-13.28125 0-24 10.71875-24 24 0 2.558594.398438 5.039063 1.121094 7.28125-2.722656-.5625-5.441406-1.441406-7.921875-2.722656l-9.199219-4.558594-9.199218 4.558594c-2.480469 1.28125-5.199219 2.160156-7.921876 2.722656.722657-2.242187 1.121094-4.722656 1.121094-7.28125 0-13.28125-10.71875-24-24-24-5.917968 0-11.28125 2.082032-15.441406 5.601563-.398438-1.921875-.558594-3.921875-.558594-6v-87.601563c0-30.960937 25.039063-56 56-56 12.558594 0 24.160156 4.160156 33.519532 11.199219l11.28125 11.28125c7.039062 9.359375 11.199218 20.960937 11.199218 33.519531zm0 0" fill="#656d78"/><path d="m181.503906 176.003906c0 8.835938-7.164062 16-16 16-8.835937 0-16-7.164062-16-16 0-8.835937 7.164063-16 16-16 8.835938 0 16 7.164063 16 16zm0 0" fill="#969faa"/><path d="m181.503906 319.644531c0 22.253907 18.105469 40.359375 40.359375 40.359375 6.214844 0 12.464844-1.472656 18.058594-4.257812l5.582031-2.796875 5.59375 2.808593c5.582032 2.773438 11.832032 4.246094 18.046875 4.246094 22.253907 0 40.359375-18.105468 40.359375-40.359375v-87.640625c0-13.871094-4.425781-27.113281-12.792968-38.289062l-12.808594 9.59375c6.28125 8.382812 9.601562 18.304687 9.601562 28.695312v81.144532c-2.609375-.679688-5.273437-1.144532-8-1.144532-16.039062 0-29.222656 11.886719-31.527344 27.296875l-8.472656-4.242187-8.480468 4.242187c-2.296876-15.410156-15.480469-27.296875-31.519532-27.296875-2.726562 0-5.390625.464844-8 1.144532v-81.144532c0-26.472656 21.527344-48 48-48 10.382813 0 20.304688 3.320313 28.695313 9.601563l9.59375-12.816407c-11.175781-8.359374-24.425781-12.785156-38.289063-12.785156-35.289062 0-64 28.710938-64 64zm104 8.359375c2.121094 0 4.136719.441406 6.03125 1.207032-3.679687 8.578124-12.152344 14.609374-22.023437 14.753906.015625-8.800782 7.183593-15.960938 15.992187-15.960938zm-64 15.960938c-9.871094-.152344-18.335937-6.167969-22.023437-14.746094 1.902343-.765625 3.933593-1.214844 6.023437-1.214844 8.808594 0 15.976563 7.160156 16 15.960938zm0 0"/><path d="m491.007812 29.8125-9.929687-4.96875c-9.566406-4.785156-20.09375-7.703125-30.773437-8.566406l8.144531-16.27343775h-35.648438c-17.640625 0-35.082031 2.83203175-51.832031 8.40624975-28.96875 9.65625-52.578125 31.328125-65.007812 58.953125-19.066407-7.421875-39.535157-11.359375-60.457032-11.359375-20.917968 0-41.390625 3.9375-60.464844 11.359375-12.429687-27.625-36.039062-49.296875-65.007812-58.953125-16.742188-5.574218-34.183594-8.40624975-51.824219-8.40624975h-35.648437l8.144531 16.27343775c-10.679687.863281-21.199219 3.78125-30.773437 8.566406l-9.929688 4.96875 26.441406 26.441406c-13.554687 16.148438-20.9375 36.351563-20.9375 57.695313 0 36.429687 17.695313 70.816406 47.34375 91.992187l11.632813 8.300782c-7.191407 24.449218-10.976563 49.960937-10.976563 75.851562v50.015625l77.40625 55.613281c30.785156 28.5625 70.851563 44.28125 112.859375 44.28125h3.46875c42.007813 0 82.074219-15.71875 112.859375-44.28125l77.40625-55.613281v-50.015625c0-25.890625-3.785156-51.402344-10.976562-75.851562l11.632812-8.300782c29.648438-21.175781 47.34375-55.570312 47.34375-91.992187 0-21.335938-7.382812-41.539063-20.929687-57.695313zm-428.863281 163.101562c-25.449219-18.175781-40.640625-47.695312-40.640625-78.964843 0-19.753907 7.6875-38.320313 21.65625-52.289063l5.65625-5.65625-21.082031-21.078125c6.371094-1.921875 13.019531-2.921875 19.65625-2.921875h19.058594l-8-16h9.757812c15.914063 0 31.648438 2.550782 46.769531 7.59375 24.71875 8.238282 44.871094 26.726563 55.488282 50.300782-4.800782 2.425781-9.472656 5.089843-14.023438 7.960937-8.609375-20.191406-25.5625-36.101563-46.511718-43.085937-2.859376-.960938-5.746094-1.808594-8.648438-2.5625l-4.035156 15.488281c2.546875.664062 5.089844 1.410156 7.609375 2.257812 17.710937 5.902344 31.839843 19.824219 38.167969 37.351563-8.238282 6.429687-15.960938 13.625-22.953126 21.617187-14.832031 16.949219-27.292968 35.582031-37.34375 55.367188l-1.972656-1.417969c-17.066406-12.183594-27.25-31.96875-27.25-52.933594 0-11.195312 4.359375-21.730468 12.28125-29.65625l-11.3125-11.3125c-10.945312 10.953125-16.96875 25.503906-16.96875 40.96875 0 26.117188 12.6875 50.773438 33.945313 65.949219l4.320312 3.089844c-2.195312 5.046875-4.203125 10.160156-6.082031 15.328125zm359.359375 138.984376-71.152344 51.121093-.800781.648438c-27.863281 26.015625-64.199219 40.335937-102.3125 40.335937h-3.46875c-38.121093 0-74.457031-14.320312-102.320312-40.335937l-71.945313-51.769531v-41.8125c0-61.3125 22.230469-120.488282 62.609375-166.632813 28.605469-32.695313 69.941407-51.449219 113.390625-51.449219 43.457032 0 84.785156 18.753906 113.390625 51.457032 40.378907 46.144531 62.609375 105.320312 62.609375 166.632812zm48-217.949219c0 31.269531-15.191406 60.789062-40.640625 78.976562l-7.542969 5.390625c-1.871093-5.167968-3.886718-10.28125-6.082031-15.328125l4.320313-3.082031c21.257812-15.191406 33.945312-39.847656 33.945312-65.964844 0-15.472656-6.023437-30.015625-16.96875-40.96875l-11.3125 11.3125c7.921875 7.925782 12.28125 18.460938 12.28125 29.65625 0 20.964844-10.183594 40.75-27.238281 52.933594l-1.976563 1.410156c-10.050781-19.785156-22.511718-38.417968-37.34375-55.378906-6.992187-7.992188-14.714843-15.183594-22.953124-21.605469 6.320312-17.527343 20.457031-31.449219 38.167968-37.359375 2.511719-.839844 5.054688-1.585937 7.601563-2.25l-4.035157-15.488281c-2.902343.761719-5.789062 1.609375-8.636718 2.5625-20.960938 6.980469-37.914063 22.894531-46.523438 43.085937-4.550781-2.878906-9.222656-5.542968-14.023437-7.960937 10.617187-23.574219 30.769531-42.0625 55.488281-50.300781 15.121094-5.035156 30.855469-7.585938 46.769531-7.585938h9.757813l-8 16h19.058594c6.640624 0 13.285156 1 19.65625 2.921875l-21.082032 21.078125 5.65625 5.65625c13.96875 13.96875 21.65625 32.535156 21.65625 52.289063zm0 0"/><path d="m326.449219 314.492188c-5.273438 26.34375-20.210938 49.449218-42.066407 65.054687-22.832031 16.296875-54.933593 16.296875-77.765624 0-21.847657-15.605469-36.792969-38.710937-42.066407-65.054687l-7.207031-36.054688-15.6875 3.140625 7.207031 36.058594c6.074219 30.335937 23.273438 56.953125 48.457031 74.925781 14.136719 10.097656 30.800782 15.441406 48.183594 15.441406 17.382813 0 34.046875-5.34375 48.175782-15.449218 25.175781-17.976563 42.382812-44.589844 48.457031-74.925782l7.207031-36.058594-15.6875-3.140624zm0 0"/><path d="m165.503906 200.003906c13.230469 0 24-10.769531 24-24 0-13.230468-10.769531-24-24-24-13.230468 0-24 10.769532-24 24 0 13.230469 10.769532 24 24 24zm0-32c4.417969 0 8 3.59375 8 8s-3.582031 8-8 8c-4.414062 0-8-3.59375-8-8s3.585938-8 8-8zm0 0"/><path d="m325.503906 152.003906c-13.230468 0-24 10.769532-24 24 0 13.230469 10.769532 24 24 24 13.230469 0 24-10.769531 24-24 0-13.230468-10.769531-24-24-24zm0 32c-4.414062 0-8-3.59375-8-8s3.585938-8 8-8c4.417969 0 8 3.59375 8 8s-3.582031 8-8 8zm0 0"/></svg>