<svg height="496pt" viewBox="0 -6 496 496" width="496pt" xmlns="http://www.w3.org/2000/svg"><path d="m488 233.097656-24-8v12.878906c0 28.480469-5.441406 56.71875-16 83.121094l-5.199219-5.203125c-6.878906-6.878906-16.320312-10.796875-26.082031-10.796875-5.757812 0-11.359375 1.359375-16.480469 3.917969l-8.238281 4.082031 5.839844 23.277344c1.441406 5.761719 2.160156 11.761719 2.160156 17.679688 0 32.5625-21.601562 61.203124-52.878906 70.160156l-9.839844 2.800781c-32.5625 9.28125-62.882812 24.960937-89.28125 46.082031-26.398438-21.121094-56.71875-36.800781-89.28125-46.082031l-9.839844-2.800781c-15.597656-4.480469-28.878906-13.839844-38.160156-26.238282-9.277344-12.320312-14.71875-27.601562-14.71875-43.921874 0-5.917969.71875-11.917969 2.160156-17.679688l5.839844-23.277344-8.238281-4.082031c-5.121094-2.558594-10.722657-3.917969-16.480469-3.917969-9.761719 0-19.203125 3.917969-26.082031 10.796875l-5.199219 5.203125c-10.558594-26.402344-16-54.640625-16-83.121094v-12.878906l-24 8c0-46.960937 13.921875-92.882812 39.921875-131.921875l8.078125-12.078125-16-32c26.398438-10.5625 54.640625-16 83.121094-16h12.878906l-8-32 33.601562 3.359375c30.558594 3.039063 60 12.800781 86.398438 28.640625 26.320312-15.839844 55.839844-25.601562 86.398438-28.640625l33.601562-3.359375-8 32h12.878906c28.480469 0 56.722656 5.4375 83.121094 16l-16 32 8.078125 12.078125c13.042969 19.519531 22.960937 40.71875 29.683594 62.960938 6.71875 22.238281 10.238281 45.4375 10.238281 68.960937zm0 0" fill="#ecc19c"/><path d="m181.039062 127.335938c-9.4375 4.480468-17.839843 11.359374-24.160156 20.078124l-32.640625 44.882813c-1.917969 2.558594-3.597656 5.277344-5.039062 8.078125-26.71875-4.238281-47.199219-27.359375-47.199219-55.277344 0-30.960937 25.039062-56 56-56 24.71875 0 45.679688 16 53.039062 38.238282zm0 0" fill="#b27946"/><path d="m152 145.097656c0 13.253906-10.746094 24-24 24s-24-10.746094-24-24c0-13.257812 10.746094-24 24-24s24 10.742188 24 24zm0 0" fill="#cf9e76"/><path d="m371.761719 192.296875-32.640625-44.882813c-6.320313-8.71875-14.722656-15.597656-24.160156-20.078124 7.359374-22.238282 28.320312-38.238282 53.039062-38.238282 30.960938 0 56 25.039063 56 56 0 27.917969-20.480469 51.039063-47.199219 55.277344-1.441406-2.800781-3.121093-5.519531-5.039062-8.078125zm0 0" fill="#b27946"/><path d="m392 145.097656c0 13.253906-10.746094 24-24 24s-24-10.746094-24-24c0-13.257812 10.746094-24 24-24s24 10.742188 24 24zm0 0" fill="#cf9e76"/><path d="m376.800781 200.375c-1.441406-2.800781-3.121093-5.519531-5.039062-8.078125l-32.640625-44.882813c-6.320313-8.71875-14.722656-15.597656-24.160156-20.078124-8.480469-4.078126-17.761719-6.238282-27.441407-6.238282h-79.039062c-9.679688 0-18.960938 2.160156-27.441407 6.238282-9.4375 4.480468-17.839843 11.359374-24.160156 20.078124l-32.640625 44.882813c-1.917969 2.558594-3.597656 5.277344-5.039062 8.078125-4.71875 9.121094-7.199219 19.199219-7.199219 29.441406 0 7.441406 1.28125 14.878906 3.839844 21.839844l28.160156 77.441406h208l28.160156-77.441406c2.558594-6.960938 3.839844-14.398438 3.839844-21.839844 0-10.242187-2.480469-20.320312-7.199219-29.441406zm0 0" fill="#cf9e76"/><path d="m351.679688 329.097656c-1.679688-16.5625-10.320313-31.601562-24-41.363281l-31.679688-22.636719h-96l-31.679688 22.636719c-7.679687 5.441406-13.761718 12.5625-17.921874 20.640625-3.277344 6.402344-5.359376 13.441406-6.078126 20.722656-.242187 1.917969-.320312 3.917969-.320312 5.917969 0 32.082031 26 58.082031 58.078125 58.082031h91.84375c16 0 30.558594-6.480468 41.039063-17.042968 10.558593-10.480469 17.039062-25.039063 17.039062-41.039063 0-2-.078125-4-.320312-5.917969zm0 0" fill="#cf9e76"/><path d="m287.28125 299.015625c12.398438 7.761719 15.277344 11.199219 17.277344 15.199219 4.882812 9.761718 7.441406 20.5625 7.441406 31.519531 0 8.480469-6.878906 15.363281-15.359375 15.363281h-97.28125c-4.238281 0-8.078125-1.761718-10.878906-4.480468-2.71875-2.800782-4.480469-6.640626-4.480469-10.882813 0-10.957031 2.558594-21.757813 7.441406-31.519531 2-4 4.878906-7.4375 17.277344-15.199219 3.28125-1.28125 6.800781-1.917969 10.402344-1.917969 8.238281 0 16.160156 3.277344 21.917968 9.039063l6.960938 6.960937 6.960938-6.960937c5.757812-5.761719 13.679687-9.039063 21.917968-9.039063 3.601563 0 7.121094.636719 10.402344 1.917969zm0 0" fill="#838f9b"/><g fill="#b27946"><path d="m288 297.097656-.71875 1.917969c-3.28125-1.28125-6.800781-1.917969-10.402344-1.917969-8.238281 0-16.160156 3.277344-21.917968 9.039063l-6.960938 6.960937-6.960938-6.960937c-5.757812-5.761719-13.679687-9.039063-21.917968-9.039063-3.601563 0-7.121094.636719-10.402344 1.917969l-.71875-1.917969-3.441406-6.882812c-3.039063-6-4.558594-12.640625-4.558594-19.277344 0-2 .160156-3.921875.398438-5.839844.960937-6.960937 3.523437-13.523437 7.601562-19.28125l27.359375-38.242187c2.878906-4.078125 7.601563-6.476563 12.640625-6.476563s9.761719 2.398438 12.640625 6.476563l27.359375 38.242187c4.078125 5.757813 6.640625 12.320313 7.601562 19.28125.238282 1.917969.398438 3.839844.398438 5.839844 0 6.636719-1.519531 13.277344-4.558594 19.277344zm0 0"/><path d="m208 201.097656-10.320312 10.316406c-3.679688 3.683594-8.558594 5.683594-13.679688 5.683594s-10-2-13.679688-5.683594l-10.320312-10.316406 10.320312-10.320312c3.679688-3.679688 8.558594-5.679688 13.679688-5.679688s10 2 13.679688 5.679688zm0 0"/><path d="m336 201.097656-10.320312 10.316406c-3.679688 3.683594-8.558594 5.683594-13.679688 5.683594s-10-2-13.679688-5.683594l-10.320312-10.316406 10.320312-10.320312c3.679688-3.679688 8.558594-5.679688 13.679688-5.679688s10 2 13.679688 5.679688zm0 0"/></g><path d="m208 321.097656h16v16h-16zm0 0"/><path d="m164.6875 185.097656-16 16 16 16c5.167969 5.160156 12.023438 8 19.3125 8s14.152344-2.839844 19.3125-8l16-16-16-16c-10.328125-10.320312-28.296875-10.320312-38.625 0zm27.3125 20.679688c-4.28125 4.277344-11.71875 4.277344-16 0l-4.6875-4.679688 4.6875-4.683594c4.28125-4.277343 11.71875-4.277343 16 0l4.6875 4.683594zm0 0"/><path d="m272 321.097656h16v16h-16zm0 0"/><path d="m292.6875 185.097656-16 16 16 16c5.167969 5.160156 12.023438 8 19.3125 8s14.152344-2.839844 19.3125-8l16-16-16-16c-10.328125-10.320312-28.296875-10.320312-38.625 0zm27.3125 20.679688c-4.28125 4.277344-11.71875 4.277344-16 0l-4.6875-4.679688 4.6875-4.683594c4.28125-4.277343 11.71875-4.277343 16 0l4.6875 4.683594zm0 0"/><path d="m368 81.097656c-24.542969 0-46.878906 14.34375-57.488281 35.902344-7.34375-2.496094-15.085938-3.902344-23.007813-3.902344h-79c-7.917968 0-15.671875 1.40625-23.015625 3.902344-10.609375-21.558594-32.945312-35.902344-57.488281-35.902344-35.289062 0-64 28.710938-64 64 0 27.925782 18.382812 52.390625 44.199219 60.839844-2.695313 7.613281-4.199219 15.648438-4.199219 23.910156 0 8.410156 1.457031 16.671875 4.328125 24.550782l27.902344 76.738281c-.070313 1.289062-.230469 2.558593-.230469 3.855469 0 36.449218 29.65625 66.105468 66.105469 66.105468h91.796875c36.441406 0 66.097656-29.65625 66.097656-66.105468 0-1.296876-.160156-2.566407-.230469-3.855469l27.902344-76.738281c2.871094-7.878907 4.328125-16.132813 4.328125-24.550782 0-8.261718-1.503906-16.296875-4.199219-23.917968 25.816407-8.441407 44.199219-32.90625 44.199219-60.832032 0-35.289062-28.710938-64-64-64zm-288 64c0-26.472656 21.527344-48 48-48 18.335938 0 35.007812 10.671875 43 26.71875-4.726562 2.894532-9.105469 6.335938-13.070312 10.273438-4.515626-12.21875-16.160157-20.992188-29.929688-20.992188-17.648438 0-32 14.351563-32 32 0 16.804688 13.070312 30.476563 29.558594 31.75l-7.824219 10.753906c-.847656 1.167969-1.46875 2.445313-2.246094 3.65625-20.550781-5.578124-35.488281-24.394531-35.488281-46.160156zm48 16c-8.824219 0-16-7.175781-16-16 0-8.824218 7.175781-16 16-16s16 7.175782 16 16c0 8.824219-7.175781 16-16 16zm165.894531 224h-91.789062c-27.625 0-50.105469-22.480468-50.105469-50.105468 0-16.144532 7.839844-31.382813 20.976562-40.769532l19.925782-14.238281c.867187 4.777344 2.320312 9.449219 4.496094 13.785156l.738281 1.46875c-5.800781 3.714844-10.632813 8.953125-13.855469 15.410157-5.425781 10.847656-8.28125 22.96875-8.28125 35.0625 0 12.890624 10.496094 23.386718 23.382812 23.386718h97.234376c12.886718 0 23.382812-10.496094 23.382812-23.386718 0-12.09375-2.855469-24.214844-8.273438-35.0625-3.230468-6.457032-8.0625-11.695313-13.855468-15.410157l.738281-1.46875c2.167969-4.335937 3.621094-9.007812 4.496094-13.785156l19.925781 14.238281c13.128906 9.386719 20.96875 24.632813 20.96875 40.769532 0 27.625-22.480469 50.105468-50.105469 50.105468zm-82.183593-98.480468c-2.429688-4.847657-3.710938-10.28125-3.710938-15.695313 0-7.371094 2.265625-14.433594 6.535156-20.417969l27.328125-38.246094c2.816407-3.953124 9.449219-3.960937 12.273438.007813l27.320312 38.238281c4.277344 5.984375 6.542969 13.046875 6.542969 20.417969 0 5.421875-1.28125 10.847656-3.710938 15.703125l-1.480468 2.960938c-1.953125-.304688-3.9375-.488282-5.96875-.488282-10.425782 0-20.207032 4.054688-27.574219 11.421875l-1.265625 1.265625-1.265625-1.265625c-7.367187-7.367187-17.160156-11.421875-27.574219-11.421875-2.023437 0-4.015625.183594-5.96875.476563zm7.449218 18.480468c6.152344 0 11.917969 2.390625 16.265625 6.734375l12.574219 12.574219 12.574219-12.574219c4.347656-4.34375 10.121093-6.734375 16.265625-6.734375 8.769531 0 16.648437 4.863282 20.566406 12.703125 4.3125 8.632813 6.59375 18.289063 6.59375 27.910157 0 4.074218-3.3125 7.386718-7.382812 7.386718h-97.234376c-4.070312 0-7.382812-3.3125-7.382812-7.386718 0-9.621094 2.28125-19.277344 6.585938-27.902344 3.917968-7.847656 11.804687-12.710938 20.574218-12.710938zm153.480469-56.167968-20.175781 55.484374c-4.746094-9.085937-11.585938-17.09375-20.144532-23.207031l-29.625-21.160156c-1.464843-6.726563-4.136718-13.144531-8.222656-18.847656l-27.3125-38.238281c-4.398437-6.175782-11.566406-9.863282-19.160156-9.863282s-14.761719 3.6875-19.160156 9.855469l-27.320313 38.246094c-4.078125 5.703125-6.757812 12.121093-8.222656 18.847656l-29.625 21.160156c-8.558594 6.113281-15.390625 14.121094-20.144531 23.207031l-20.175782-55.492187c-2.214843-6.113281-3.351562-12.53125-3.351562-19.074219 0-11.871094 3.695312-23.230468 10.679688-32.832031l32.671874-44.925781c10.472657-14.402344 27.34375-22.992188 45.144532-22.992188h79c17.808594 0 34.679687 8.589844 45.152344 22.992188l32.671874 44.933594c6.984376 9.59375 10.679688 20.953124 10.679688 32.824218 0 6.542969-1.136719 12.960938-3.359375 19.082032zm-20.640625-103.832032c0-8.824218 7.175781-16 16-16s16 7.175782 16 16c0 8.824219-7.175781 16-16 16s-16-7.175781-16-16zm28.503906 46.167969c-.777344-1.210937-1.398437-2.488281-2.246094-3.65625l-7.824218-10.761719c16.496094-1.261718 29.566406-14.945312 29.566406-31.75 0-17.648437-14.351562-32-32-32-13.769531 0-25.414062 8.773438-29.929688 20.992188-3.964843-3.9375-8.351562-7.378906-13.070312-10.273438 8-16.046875 24.671875-26.71875 43-26.71875 26.472656 0 48 21.527344 48 48 0 21.765625-14.9375 40.582032-35.496094 46.167969zm0 0"/><path d="m454.71875 96.753906-5.488281-8.234375 17.816406-35.625-8.078125-3.222656c-27.480469-11-56.441406-16.574219-86.046875-16.574219h-2.675781l8.265625-33.097656-44.894531 4.496094c-29.945313 2.992187-59.441407 12.425781-85.617188 27.335937-26.167969-14.910156-55.671875-24.335937-85.617188-27.335937l-44.894531-4.496094 8.265625 33.097656h-2.675781c-29.605469 0-58.558594 5.574219-86.046875 16.574219l-8.078125 3.222656 17.816406 35.625-5.488281 8.234375c-27.007812 40.511719-41.28125 87.660156-41.28125 136.34375v11.09375l24-8v1.824219c0 29.617187 5.574219 58.570313 16.566406 86.046875l4.503906 11.265625 13.769532-13.769531c8.617187-8.613282 22.472656-10.871094 33.367187-5.414063l2.472657 1.230469-4.265626 17.066406c-1.597656 6.4375-2.414062 13.039063-2.414062 19.628906 0 35.953126 24.144531 67.960938 58.710938 77.832032l9.847656 2.816406c31.65625 9.050781 60.746094 24.058594 86.441406 44.625l5.007812 3.984375 5-3.992187c25.695313-20.558594 54.785157-35.566407 86.433594-44.617188l9.847656-2.816406c34.566407-9.871094 58.710938-41.878906 58.710938-77.832032 0-6.589843-.816406-13.191406-2.425781-19.621093l-4.253907-17.066407 2.480469-1.230468c10.871094-5.472656 24.742188-3.207032 33.359375 5.414062l13.769532 13.769532 4.503906-11.265626c10.992187-27.484374 16.566406-56.445312 16.566406-86.054687v-1.824219l24 8v-11.09375c0-48.683594-14.273438-95.832031-41.28125-136.34375zm1.28125 117.246094v24.015625c0 23.570313-3.792969 46.671875-11.289062 68.871094-13.253907-10.605469-32.679688-12.75-48.078126-5.046875l-13.953124 6.96875 7.375 29.511718c1.289062 5.167969 1.945312 10.464844 1.945312 15.75 0 28.839844-19.367188 54.523438-47.105469 62.449219l-9.847656 2.816407c-31.671875 9.054687-60.917969 23.71875-87.046875 43.617187-26.121094-19.898437-55.367188-34.5625-87.046875-43.617187l-9.847656-2.816407c-27.738281-7.917969-47.105469-33.597656-47.105469-62.449219 0-5.285156.65625-10.582031 1.9375-15.75l7.382812-29.511718-13.945312-6.96875c-6.207031-3.105469-13.152344-4.742188-20.085938-4.742188-10.304687 0-20.082031 3.445313-28 9.789063-7.496093-22.199219-11.289062-45.300781-11.289062-68.871094v-24.015625l-23.726562 7.910156c2-41.527344 15.152343-81.511718 38.320312-116.277344l10.636719-15.960937-14.101563-28.222656c23.128906-8.203125 47.296875-12.351563 71.949219-12.351563h23.167969l-7.734375-30.90625 22.273437 2.222656c29.183594 2.921876 57.902344 12.433594 82.96875 27.464844l4.15625 2.59375 4.203125-2.519531c25.167969-15.097656 53.902344-24.617187 83.09375-27.539063l22.273438-2.222656-7.726563 30.90625h23.167969c24.652344 0 48.820313 4.148438 71.949219 12.351563l-14.109375 28.214843 10.636719 15.960938c23.167968 34.765625 36.320312 74.75 38.320312 116.277344zm0 0"/></svg>