<svg height="496pt" viewBox="0 0 496 496" width="496pt" xmlns="http://www.w3.org/2000/svg"><path d="m0 407.9375h24l24-16 24 16 24-16 24 16h88l16-8 24 8 24-8 16 8h96l24-16 24 16 24-16 24 16h16v88h-496zm0 0" fill="#ecc19c"/><path d="m160 375.9375h-32l-2.71875 1.121094 12.320312 30.878906.476563 1.121094c3.601563 8.960937 12.242187 14.878906 21.921875 14.878906s18.320312-5.917969 21.921875-14.878906l.636719-1.679688 12.160156-30.320312-2.71875-1.121094zm0 0" fill="#969faa"/><path d="m368 375.9375h-64l-2.71875 1.121094 12.320312 30.878906.476563 1.121094c3.601563 8.960937 12.242187 14.878906 21.921875 14.878906s18.320312-5.917969 21.921875-14.878906l.476563-1.121094 12.320312-30.878906zm0 0" fill="#969faa"/><g fill="#ecc19c"><path d="m384 327.9375v6.722656c0 6.160156-1.199219 12.160156-3.441406 17.839844l-9.839844 24.558594-2.71875-1.121094h-64l-2.71875 1.121094-9.839844-24.558594c-2.242187-5.679688-3.441406-11.679688-3.441406-17.839844v-6.722656c0-14.878906 6.800781-28.238281 17.441406-37.039062 8.320313-6.878907 18.957032-10.960938 30.558594-10.960938 13.28125 0 25.28125 5.363281 33.921875 14.082031 8.71875 8.640625 14.078125 20.640625 14.078125 33.917969zm0 0"/><path d="m208 327.9375v6.722656c0 6.160156-1.199219 12.160156-3.441406 17.839844l-9.839844 24.558594-2.71875-1.121094h-64l-2.71875 1.121094-9.839844-24.558594c-2.242187-5.679688-3.441406-11.679688-3.441406-17.839844v-6.722656c0-26.480469 21.519531-48 48-48 8.238281 0 16.078125 2.082031 30.558594 10.960938 1.121094.960937 2.242187 2 3.363281 3.121093 8.71875 8.640625 14.078125 20.640625 14.078125 33.917969zm0 0"/><path d="m281.761719 303.21875c-5.363281 12.800781-15.363281 24.71875-33.761719 24.71875s-28.398438-11.917969-33.761719-24.71875c-4.71875-11.359375-5.839843-23.441406-6.160156-28.640625 8.5625 12.878906 23.28125 21.359375 39.921875 21.359375 13.28125 0 25.28125-5.359375 33.921875-14.078125l6-7.28125c-.320313 5.199219-1.441406 17.28125-6.160156 28.640625zm0 0"/><path d="m366.398438 55.9375h-17.277344c-8.640625 0-17.28125 1.679688-25.28125 4.882812-8.878906 3.519532-16.800782 8.878907-23.359375 15.519532-6.558594 6.640625-11.679688 14.71875-15.039063 23.679687-8.882812 23.757813-13.441406 48.878907-13.441406 74.238281v57.679688h-48v-57.679688c0-25.359374-4.558594-50.480468-13.441406-74.238281-3.359375-8.960937-8.480469-17.039062-15.039063-23.679687-6.558593-6.640625-14.480469-12-23.359375-15.519532-8-3.203124-16.640625-4.882812-25.28125-4.882812h-17.277344c8.320313-13.117188 19.359376-24.636719 32.71875-33.519531 14.160157-9.4375 30.71875-14.480469 47.757813-14.480469 9.203125 0 18.402344 1.519531 27.203125 4.402344l10.71875 3.597656 10.71875-3.597656c8.800781-2.882813 18-4.402344 27.203125-4.402344 17.039063 0 33.597656 5.042969 47.757813 14.480469 13.359374 8.882812 24.398437 20.402343 32.71875 33.519531zm0 0"/></g><path d="m200 247.9375c0 9.839844 2.960938 18.960938 8.078125 26.640625.320313 5.199219 1.441406 17.28125 6.160156 28.640625-8.238281-3.519531-15.917969-8-22.796875-13.441406-13.679687-10.71875-24.480468-24.878906-31.203125-41.199219-.078125-.238281-.160156-.398437-.238281-.640625l-14.480469-36.078125c-.238281-.558594-.398437-1.039063-.640625-1.519531-.878906-2.160156-1.757812-4.160156-2.71875-6.160156l-18.238281-36.402344c-7.84375-15.679688-11.921875-32.957032-11.921875-50.558594v-.800781c0-18.878907 4.71875-37.117188 13.359375-53.277344 1.28125-2.480469 2.71875-4.882813 4.242187-7.203125h17.277344c8.640625 0 17.28125 1.679688 25.28125 4.882812 8.878906 3.519532 16.800782 8.878907 23.359375 15.519532 6.558594 6.640625 11.679688 14.71875 15.039063 23.679687 8.882812 23.757813 13.441406 48.878907 13.441406 74.238281v57.679688h-8c-4.398438 0-8.398438 1.761719-11.28125 4.722656-2.957031 2.878906-4.71875 6.878906-4.71875 11.277344zm0 0" fill="#b27946"/><path d="m287.921875 274.578125c7.839844-20.640625 8.078125-23.597656 8.078125-26.640625 0-8.796875-7.199219-16-16-16h-8v-57.679688c0-25.359374 4.558594-50.480468 13.441406-74.238281 3.359375-8.960937 8.480469-17.039062 15.039063-23.679687 6.558593-6.640625 14.480469-12 23.359375-15.519532 8-3.203124 16.640625-4.882812 25.28125-4.882812h17.277344c11.363281 17.839844 17.601562 38.722656 17.601562 60.480469v.800781c0 17.601562-4.078125 34.878906-11.921875 50.558594l-18.238281 36.402344c-.960938 2-1.839844 4-2.71875 6.160156-.242188.480468-.402344.960937-.640625 1.519531l-14.480469 36.078125c-.078125.242188-.160156.402344-.238281.640625-6.722657 16.320313-17.523438 30.480469-31.203125 41.199219-6.878906 5.441406-14.558594 9.921875-22.796875 13.441406 4.71875-11.359375 5.839843-23.441406 6.160156-28.640625zm0 0" fill="#b27946"/><path d="m336 143.9375c0 8.839844-7.164062 16-16 16s-16-7.160156-16-16c0-8.835938 7.164062-16 16-16s16 7.164062 16 16zm0 0" fill="#969faa"/><path d="m192 143.9375c0 8.839844-7.164062 16-16 16s-16-7.160156-16-16c0-8.835938 7.164062-16 16-16s16 7.164062 16 16zm0 0" fill="#969faa"/><path d="m208.078125 274.578125c-5.117187-7.679687-8.078125-16.800781-8.078125-26.640625 0-4.398438 1.761719-8.398438 4.71875-11.277344 2.882812-2.960937 6.882812-4.722656 11.28125-4.722656h64c8.800781 0 16 7.203125 16 16 0 3.042969-.238281 6-8.078125 26.640625l-6 7.28125c-8.640625 8.71875-20.640625 14.078125-33.921875 14.078125-16.640625 0-31.359375-8.480469-39.921875-21.359375zm0 0" fill="#838f9b"/><path d="m264 247.9375h16v16h-16zm0 0"/><path d="m216 247.9375h16v16h-16zm0 0"/><path d="m482.425781 399.9375-26.425781-17.613281-24 16-24-16-26.425781 17.613281h-11.367188l17.785157-44.445312c2.664062-6.640626 4.007812-13.640626 4.007812-20.800782v-6.753906c0-30.871094-25.121094-56-56-56-1.375 0-2.726562.113281-4.078125.210938 3.277344-4.738282 6.132813-9.753907 8.628906-14.992188 22.328125 2.695312 43.929688 10 63.335938 21.640625l8.234375-13.722656c-20.015625-12.007813-42.152344-19.824219-65.074219-23.207031l9.945313-24.855469c23.390624-6.023438 47.457031-9.074219 71.9375-9.074219h3.070312v-16h-3.070312c-21.457032 0-42.609376 2.257812-63.3125 6.65625l13.605468-27.207031c8.363282-16.71875 12.777344-35.441407 12.777344-54.128907v-.832031c0-40.558593-20.152344-78.207031-53.894531-100.703125-23.898438-15.9375-54.578125-20.054687-81.882813-10.960937l-8.222656 2.746093-8.230469-2.746093c-27.304687-9.109375-57.976562-4.984375-81.875 10.960937-33.742187 22.496094-53.894531 60.144532-53.894531 100.710938v.832031c0 18.6875 4.414062 37.410156 12.777344 54.128906l13.605468 27.207031c-20.703124-4.40625-41.855468-6.664062-63.3125-6.664062h-3.070312v16h3.070312c24.480469 0 48.546876 3.050781 71.945313 9.082031l9.945313 24.855469c-22.921876 3.375-45.066407 11.199219-65.074219 23.207031l8.234375 13.722657c19.398437-11.640626 41.007812-18.945313 63.335937-21.640626 2.496094 5.230469 5.351563 10.246094 8.632813 14.992188-1.363282-.105469-2.714844-.21875-4.089844-.21875-30.878906 0-56 25.128906-56 56v6.761719c0 7.160156 1.34375 14.160156 4.007812 20.800781l17.777344 44.4375h-3.359375l-26.425781-17.613281-24 16-24-16-26.425781 17.613281h-21.574219v16h26.425781l21.574219-14.382812 24 16 24-16 21.574219 14.382812h14.953125c5.570312 9.832031 15.921875 16 27.464844 16 11.542968 0 21.902343-6.167969 27.464843-16h22.421875l14.730469-7.359375 23.390625 7.792969 23.382812-7.792969 14.730469 7.359375h22.414063c5.570312 9.832031 15.921875 16 27.464844 16 11.542968 0 21.902343-6.167969 27.464843-16h22.949219l21.59375-14.382812 24 16 24-16 21.574219 14.382812h18.425781v-16zm-106.425781-72v6.761719c0 5.121093-.960938 10.113281-2.855469 14.855469l-7.359375 18.382812h-59.578125l-7.351562-18.382812c-1.894531-4.75-2.855469-9.742188-2.855469-14.855469v-6.761719c0-22.054688 17.945312-40 40-40s40 17.945312 40 40zm-96-88c4.40625 0 8 3.585938 8 8 0 22.058594-17.945312 40-40 40s-40-17.941406-40-40c0-4.414062 3.59375-8 8-8zm-32 64c10.152344 0 19.65625-2.757812 27.871094-7.503906-4.03125 11.839844-12.023438 23.503906-27.871094 23.503906s-23.839844-11.664062-27.871094-23.503906c8.214844 4.746094 17.71875 7.503906 27.871094 7.503906zm128-186.679688c0 16.21875-3.832031 32.464844-11.089844 46.96875l-18.191406 36.390626c-.503906 1.011718-.910156 2.058593-1.382812 3.082031-12.351563 3.535156-24.535157 7.769531-36.480469 12.886719l6.304687 14.703124c7.320313-3.132812 14.75-5.878906 22.246094-8.382812l-6.933594 17.34375c-3.039062-.160156-6.082031-.3125-9.121094-.3125h-9.351562v16h9.351562c.609376 0 1.199219.058594 1.808594.066406-7.015625 12.398438-16.785156 23.054688-28.519531 31.054688.605469-3.550782 1-6.976563 1.191406-10.144532 5.144531-8.464843 8.167969-18.359374 8.167969-28.976562 0-13.230469-10.769531-24-24-24v-49.648438c0-24.484374 4.359375-48.519531 12.960938-71.460937 5.902343-15.746094 18.246093-28.359375 33.863281-34.601563 7.105469-2.839843 14.601562-4.289062 22.265625-4.289062h12.710937c9.085938 15.730469 14.199219 33.714844 14.199219 52.496094zm-209.230469-88.214843c19.832031-13.222657 45.285157-16.648438 67.941407-9.105469l13.289062 4.433594 13.289062-4.433594c22.664063-7.542969 48.109376-4.125 67.941407 9.105469 8.035156 5.351562 15.089843 11.777343 21.226562 18.894531h-1.378906c-9.710937 0-19.199219 1.832031-28.199219 5.433594-19.78125 7.910156-35.421875 23.886718-42.902344 43.839844-9.273437 24.734374-13.976562 50.671874-13.976562 77.078124v49.648438h-32v-49.648438c0-26.40625-4.703125-52.34375-13.976562-77.070312-7.480469-19.960938-23.121094-35.9375-42.902344-43.847656-9.007813-3.601563-18.496094-5.433594-28.210938-5.433594h-1.375c6.144532-7.117188 13.199219-13.542969 21.234375-18.894531zm7.878907 210.894531c-3.046876 0-6.082032.152344-9.105469.3125l-6.933594-17.34375c7.488281 2.511719 14.917969 5.25 22.246094 8.394531l6.304687-14.707031c-11.945312-5.117188-24.136718-9.359375-36.480468-12.886719-.472657-1.023437-.878907-2.070312-1.382813-3.078125l-18.191406-36.394531c-7.273438-14.511719-11.105469-30.757813-11.105469-46.976563v-.832031c0-18.78125 5.113281-36.765625 14.199219-52.496093h12.710937c7.664063 0 15.160156 1.449218 22.265625 4.289062 15.617188 6.238281 27.960938 18.855469 33.855469 34.609375 8.601562 22.925781 12.960938 46.96875 12.960938 71.453125v49.65625c-13.230469 0-24 10.769531-24 24 0 10.617188 3.023437 20.511719 8.167968 28.976562.191406 3.167969.582032 6.59375 1.191406 10.144532-11.734374-8-21.503906-18.664063-28.519531-31.054688.617188-.007812 1.207031-.066406 1.816407-.066406h9.351562v-16zm-54.648438 94.761719v-6.761719c0-22.054688 17.945312-40 40-40s40 17.945312 40 40v6.761719c0 5.121093-.960938 10.113281-2.855469 14.855469l-7.359375 18.382812h-59.570312l-7.351563-18.382812c-1.902343-4.75-2.863281-9.742188-2.863281-14.855469zm25.488281 71.40625-8.871093-22.167969h15.382812v29.699219c-2.863281-1.722657-5.207031-4.265625-6.511719-7.53125zm29.023438 0c-1.304688 3.265625-3.648438 5.808593-6.511719 7.523437v-29.691406h15.382812zm98.105469-14.804688-24.617188 8.207031-24.617188-8.207031-17.269531 8.636719h-11.90625l17.785157-44.445312c2.664062-6.640626 4.007812-13.640626 4.007812-20.800782v-6.753906c0-2.46875-.214844-4.878906-.527344-7.269531 7.359375 8.96875 17.832032 15.269531 32.527344 15.269531s25.167969-6.300781 32.527344-15.269531c-.3125 2.390625-.527344 4.800781-.527344 7.269531v6.761719c0 7.160156 1.34375 14.160156 4.007812 20.800781l17.777344 44.4375h-11.898437zm48.871093 14.804688-8.871093-22.167969h15.382812v29.699219c-2.863281-1.722657-5.207031-4.265625-6.511719-7.53125zm29.023438 0c-1.3125 3.265625-3.65625 5.808593-6.511719 7.523437v-29.691406h15.382812zm0 0"/><path d="m16 439.9375h16v16h-16zm0 0"/><path d="m48 479.9375h16v16h-16zm0 0"/><path d="m104 439.9375h16v16h-16zm0 0"/><path d="m184 455.9375h16v16h-16zm0 0"/><path d="m480 439.9375h16v16h-16zm0 0"/><path d="m448 479.9375h16v16h-16zm0 0"/><path d="m392 439.9375h16v16h-16zm0 0"/><path d="m312 455.9375h16v16h-16zm0 0"/><path d="m320 119.9375c-13.230469 0-24 10.769531-24 24 0 13.234375 10.769531 24 24 24s24-10.765625 24-24c0-13.230469-10.769531-24-24-24zm0 32c-4.40625 0-8-3.582031-8-8 0-4.414062 3.59375-8 8-8s8 3.585938 8 8c0 4.417969-3.59375 8-8 8zm0 0"/><path d="m200 143.9375c0-13.230469-10.769531-24-24-24s-24 10.769531-24 24c0 13.234375 10.769531 24 24 24s24-10.765625 24-24zm-24 8c-4.40625 0-8-3.582031-8-8 0-4.414062 3.59375-8 8-8s8 3.585938 8 8c0 4.417969-3.59375 8-8 8zm0 0"/></svg>