<svg height="496pt" viewBox="0 0 496 496" width="496pt" xmlns="http://www.w3.org/2000/svg"><path d="m76.078125 301.519531-4.078125 2.480469c-11.839844 0-23.039062-3.921875-32.078125-10.640625-9.042969-6.71875-16-16.320313-19.441406-27.679687-8.242188-27.601563-12.480469-56.320313-12.480469-85.199219v-27.519531c0-4.640626 1.921875-8.960938 4.960938-12 3.039062-3.039063 7.359374-4.960938 12-4.960938 4.480468 0 8.800781 1.761719 12 4.960938l16.160156 16.160156c-3.359375 14.160156-5.121094 28.878906-5.121094 44.078125 0 22.878906 4 45.359375 11.761719 66.480469 4.316406 11.761718 9.757812 23.121093 16.316406 33.839843zm0 0" fill="#cf9e76"/><path d="m488 152.960938v27.519531c0 28.878906-4.238281 57.597656-12.480469 85.199219-3.441406 11.359374-10.398437 20.960937-19.441406 27.679687-9.039063 6.71875-20.238281 10.640625-32.078125 10.640625l-4.078125-2.480469c18.316406-30.078125 28.078125-64.71875 28.078125-100.320312 0-15.199219-1.761719-29.917969-5.121094-44.078125l16.160156-16.160156c3.199219-3.199219 7.519532-4.960938 12-4.960938 4.640626 0 8.960938 1.921875 12 4.960938 3.039063 3.039062 4.960938 7.359374 4.960938 12zm0 0" fill="#cf9e76"/><path d="m53.121094 157.121094c19.839844-85.441406 96.558594-149.121094 188.078125-149.121094h13.601562c53.359375 0 101.679688 21.601562 136.640625 56.558594 25.039063 25.042968 43.199219 56.882812 51.4375 92.5625 3.359375 14.160156 5.121094 28.878906 5.121094 44.078125 0 35.601562-9.761719 70.242187-28.078125 100.320312-5.203125 8.558594-11.042969 16.71875-17.601563 24.480469l-24.082031 28.480469c-11.917969 14.078125-19.597656 31.199219-22.238281 49.441406-6.878906 48.238281-48.238281 84.078125-96.960938 84.078125h-22.078124c-24.320313 0-46.882813-8.960938-64.160157-23.921875-17.28125-15.039063-29.359375-36.078125-32.800781-60.15625-2.640625-18.242187-10.320312-35.363281-22.238281-49.441406l-24.082031-28.480469c-6.558594-7.761719-12.398438-15.921875-17.601563-24.480469-6.558594-10.71875-12-22.078125-16.316406-33.839843-7.761719-21.121094-11.761719-43.601563-11.761719-66.480469 0-15.199219 1.761719-29.917969 5.121094-44.078125zm0 0" fill="#b27946"/><path d="m264 264h-41.359375c-6.242187 0-11.921875 2.558594-16 6.640625-4.082031 4.078125-6.640625 9.757813-6.640625 16 0 3.839844.960938 7.597656 2.800781 10.878906-13.121093 3.199219-24.402343 10.960938-32.160156 21.601563-51.121094-6.480469-90.640625-50.160156-90.640625-103.121094 0-57.441406 46.558594-104 104-104 24.160156 0 46.320312 8.320312 64 22.160156 17.679688-13.839844 39.839844-22.160156 64-22.160156 57.441406 0 104 46.558594 104 104 0 52.960938-39.519531 96.640625-90.640625 103.121094-.480469-.722656-1.039063-1.359375-1.519531-2-7.679688-9.601563-18.320313-16.640625-30.640625-19.601563 1.839843-3.28125 2.800781-7.039062 2.800781-10.878906 0-12.480469-10.160156-22.640625-22.640625-22.640625zm0 0" fill="#e6e9ed"/><g fill="#cf9e76"><path d="m329.921875 358.078125-2.800781 11.761719c-8.882813 36.480468-41.601563 62.160156-79.121094 62.160156-18.71875 0-36.320312-6.398438-50.320312-17.441406-14-10.957032-24.398438-26.480469-28.800782-44.71875l-2.800781-11.761719c21.683594 21.683594 51.203125 33.921875 81.921875 33.921875 15.359375 0 30.398438-3.039062 44.320312-8.800781 13.917969-5.757813 26.71875-14.238281 37.601563-25.121094zm0 0"/><path d="m336 352-6.078125 6.078125c-10.882813 10.882813-23.683594 19.363281-37.601563 25.121094-13.921874 5.761719-28.960937 8.800781-44.320312 8.800781v-64c10.238281 0 20.078125-4.078125 27.28125-11.28125l14.078125-14.078125c1.519531-1.519531 2.800781-3.28125 3.839844-5.121094 12.320312 2.960938 22.960937 10 30.640625 19.601563.480468.640625 1.039062 1.277344 1.519531 2 6.640625 9.199218 10.640625 20.558594 10.640625 32.878906zm0 0"/><path d="m248 328v64c-30.71875 0-60.238281-12.238281-81.921875-33.921875l-6.078125-6.078125c0-12.320312 4-23.679688 10.640625-32.878906 7.757813-10.640625 19.039063-18.402344 32.160156-21.601563 1.039063 1.839844 2.320313 3.601563 3.839844 5.121094l14.078125 14.078125c7.203125 7.203125 17.042969 11.28125 27.28125 11.28125zm0 0"/></g><path d="m293.199219 297.519531c-1.039063 1.839844-2.320313 3.601563-3.839844 5.121094l-14.078125 14.078125c-7.203125 7.203125-17.042969 11.28125-27.28125 11.28125s-20.078125-4.078125-27.28125-11.28125l-14.078125-14.078125c-1.519531-1.519531-2.800781-3.28125-3.839844-5.121094-1.839843-3.28125-2.800781-7.039062-2.800781-10.878906 0-6.242187 2.558594-11.921875 6.640625-16 4.078125-4.082031 9.757813-6.640625 16-6.640625h50.71875c12.480469 0 22.640625 10.160156 22.640625 22.640625 0 3.839844-.960938 7.597656-2.800781 10.878906zm0 0" fill="#656d78"/><path d="m348.480469 186.800781 3.519531 5.199219c-4.960938 7.519531-11.679688 13.441406-19.441406 17.601562-7.679688 4.160157-16.398438 6.398438-25.4375 6.398438h-2.402344c-5.757812 0-11.519531-.960938-17.039062-2.800781l-15.679688-5.199219-1.761719-.320312c1.363281-10.398438 6-19.917969 13.441407-27.359376 7.921874-7.921874 18.558593-12.320312 29.761718-12.320312 7.039063 0 13.839844 1.761719 19.917969 4.960938 6 3.277343 11.28125 8 15.121094 13.839843zm0 0" fill="#656d78"/><path d="m225.761719 207.679688-1.761719.320312-15.679688 5.199219c-5.519531 1.839843-11.28125 2.800781-17.039062 2.800781h-2.402344c-9.039062 0-17.757812-2.238281-25.4375-6.398438-7.761718-4.160156-14.480468-10.082031-19.441406-17.601562l3.519531-5.199219c3.839844-5.839843 9.121094-10.5625 15.121094-13.839843 6.078125-3.199219 12.878906-4.960938 19.917969-4.960938 11.203125 0 21.839844 4.398438 29.761718 12.320312 7.441407 7.441407 12.078126 16.960938 13.441407 27.359376zm0 0" fill="#656d78"/><path d="m312 104c-23.136719 0-45.136719 6.960938-64 20.183594-18.863281-13.222656-40.863281-20.183594-64-20.183594-61.761719 0-112 50.238281-112 112 0 52.199219 36.230469 97.054688 85.992188 108.902344-3.847657 8.273437-5.992188 17.464844-5.992188 27.097656v3.3125l6.816406 6.816406 2.320313 9.558594c9.757812 40.222656 45.480469 68.3125 86.863281 68.3125s77.105469-28.089844 86.863281-68.304688l2.320313-9.558593 6.816406-6.824219v-3.3125c0-9.632812-2.144531-18.816406-5.992188-27.089844 49.753907-11.847656 85.992188-56.710937 85.992188-108.910156 0-61.761719-50.238281-112-112-112zm-111.023438 204.28125 14.054688 14.0625c6.890625 6.886719 15.5625 11.3125 24.96875 12.9375v48.335938c-25.792969-1.882813-49.808594-12.730469-68.28125-31.210938l-3.613281-3.613281c1.253906-19.175781 13.796875-35.480469 31.75-41.863281.390625.4375.695312.933593 1.121093 1.351562zm72.390626-36.28125c8.074218 0 14.632812 6.558594 14.632812 14.625 0 3.847656-1.558594 7.613281-4.289062 10.34375l-14.054688 14.0625c-11.566406 11.5625-31.746094 11.5625-43.3125 0l-14.0625-14.0625c-2.722656-2.730469-4.28125-6.488281-4.28125-10.34375 0-8.066406 6.558594-14.625 14.632812-14.625zm21.65625 36.28125c.425781-.417969.730468-.921875 1.121093-1.359375 17.960938 6.382813 30.496094 22.6875 31.75 41.863281l-3.605469 3.613282c-18.480468 18.472656-42.496093 29.320312-68.289062 31.210937v-48.328125c9.40625-1.625 18.078125-6.050781 24.96875-12.9375zm-47.023438 115.71875c-29.59375 0-55.640625-17.496094-67.167969-43.832031 19.847657 12.871093 42.960938 19.832031 67.167969 19.832031s47.320312-6.960938 67.167969-19.832031c-11.527344 26.328125-37.574219 43.832031-67.167969 43.832031zm80.695312-113.550781c-6.695312-7.855469-15.304687-14.082031-25.269531-17.976563.367188-1.914062.574219-3.863281.574219-5.847656 0-16.882812-13.734375-30.625-30.632812-30.625h-.429688l4.207031-37.847656 8.03125 2.679687c6.335938 2.097657 12.921875 3.167969 19.566407 3.167969h2.410156c20.742187 0 39.992187-10.304688 51.503906-27.558594l2.960938-4.441406-6.449219-9.679688c-9.320313-13.976562-24.910157-22.320312-41.710938-22.320312-13.394531 0-25.984375 5.214844-35.449219 14.6875-8.800781 8.800781-14.398437 20.457031-15.777343 32.824219l-5.390625 48.488281h-17.679688l-5.390625-48.496094c-1.378906-12.367187-6.976562-24.023437-15.769531-32.824218-9.472656-9.464844-22.054688-14.679688-35.457031-14.679688-16.800781 0-32.390625 8.34375-41.710938 22.320312l-6.449219 9.679688 2.960938 4.441406c11.503906 17.253906 30.761719 27.558594 51.496094 27.558594h2.40625c6.65625 0 13.234375-1.070312 19.578125-3.175781l8.023437-2.671875 4.214844 37.847656h-.429688c-16.898437 0-30.632812 13.742188-30.632812 30.625 0 1.984375.207031 3.933594.566406 5.847656-9.964844 3.894532-18.566406 10.121094-25.269531 17.976563-45.488281-7.992188-79.296875-47.769531-79.296875-94.449219 0-52.9375 43.0625-96 96-96 21.566406 0 42 7.070312 59.0625 20.441406l4.9375 3.863282 4.9375-3.863282c17.0625-13.371094 37.496094-20.441406 59.0625-20.441406 52.9375 0 96 43.0625 96 96 0 46.679688-33.808594 86.464844-79.304688 94.449219zm-49.070312-108.335938c1.863281-6.050781 5.183594-11.609375 9.695312-16.113281 6.441407-6.449219 15.015626-10 24.136719-10 11.4375 0 22.054688 5.679688 28.398438 15.191406l.359375.535156c-8.671875 10.273438-21.429688 16.273438-35.054688 16.273438h-2.40625c-4.9375 0-9.816406-.792969-14.515625-2.351562zm-63.25 0-10.597656 3.527344c-4.707032 1.566406-9.59375 2.359375-14.519532 2.359375h-2.410156c-13.625 0-26.382812-6-35.054687-16.265625l.359375-.535156c6.34375-9.519531 16.960937-15.199219 28.390625-15.199219 9.121093 0 17.6875 3.550781 24.136719 10 4.503906 4.503906 7.824218 10.0625 9.695312 16.113281zm0 0"/><path d="m471.03125 128c-6.671875 0-12.941406 2.59375-17.65625 7.3125l-6.367188 6.367188c-25.449218-81.976563-101.992187-141.679688-192.230468-141.679688h-13.554688c-90.238281 0-166.78125 59.703125-192.230468 141.679688l-6.367188-6.367188c-4.714844-4.71875-10.984375-7.3125-17.65625-7.3125-13.769531 0-24.96875 11.199219-24.96875 24.96875v27.503906c0 29.65625 4.320312 59.101563 12.839844 87.503906 7.894531 26.335938 31.671875 44.023438 59.160156 44.023438v-2.28125c4.761719 7.433594 9.863281 14.671875 15.617188 21.472656l24.070312 28.464844c10.9375 12.910156 17.984375 28.609375 20.375 45.375 7.410156 51.855469 52.503906 90.96875 104.890625 90.96875h22.09375c52.386719 0 97.480469-39.113281 104.890625-90.96875 2.390625-16.765625 9.4375-32.464844 20.375-45.382812l24.070312-28.457032c5.753907-6.800781 10.847657-14.039062 15.617188-21.472656v2.28125c27.488281 0 51.265625-17.6875 59.160156-44.015625 8.519532-28.410156 12.839844-57.847656 12.839844-87.503906v-27.503907c0-13.777343-11.199219-24.976562-24.96875-24.976562zm-442.863281 135.390625c-8.070313-26.917969-12.167969-54.816406-12.167969-82.910156v-27.503907c0-4.953124 4.023438-8.976562 8.96875-8.976562 2.398438 0 4.648438.929688 6.34375 2.625l13.03125 13.03125c-2.832031 13.414062-4.34375 27.3125-4.34375 41.558594 0 32.945312 8.296875 65.136718 23.503906 93.9375-16.632812-3.089844-30.320312-15.039063-35.335937-31.761719zm368.007812 57.472656-24.070312 28.449219c-12.890625 15.222656-21.183594 33.710938-24 53.457031-6.296875 44.03125-44.585938 77.230469-89.058594 77.230469h-22.09375c-44.480469 0-82.761719-33.199219-89.050781-77.230469-2.8125-19.746093-11.117188-38.226562-24-53.449219l-24.070313-28.457031c-28.273437-33.398437-43.832031-75.894531-43.832031-119.648437 0-102.125 83.089844-185.214844 185.222656-185.214844h13.554688c102.132812 0 185.222656 83.089844 185.222656 185.214844 0 43.753906-15.558594 86.25-43.824219 119.648437zm83.824219-140.382812c0 28.105469-4.097656 55.992187-12.167969 82.910156-5.015625 16.730469-18.695312 28.671875-35.328125 31.761719 15.199219-28.792969 23.496094-60.992188 23.496094-93.9375 0-14.246094-1.511719-28.144532-4.34375-41.566406l13.03125-13.03125c1.695312-1.6875 3.945312-2.617188 6.34375-2.617188 4.945312 0 8.96875 4.023438 8.96875 8.96875zm0 0"/></svg>