<svg height="496pt" viewBox="0 -36 496 496" width="496pt" xmlns="http://www.w3.org/2000/svg"><path d="m104 8c-53.039062 0-96 42.960938-96 96 0 36.078125 19.921875 67.519531 49.359375 83.921875 4.242187-9.84375 8.878906-19.441406 14-28.882813 17.359375-32.238281 39.441406-61.839843 65.441406-87.839843l31.199219-31.199219h7.519531c-17.519531-19.679688-43.121093-32-71.519531-32zm0 0" fill="#656d78"/><path d="m149.28125 58.71875-12.480469 12.480469c-26 26-48.082031 55.601562-65.441406 87.839843-18.800781-11.117187-31.359375-31.597656-31.359375-55.039062 0-35.359375 28.640625-64 64-64 17.679688 0 33.679688 7.199219 45.28125 18.71875zm0 0" fill="#838f9b"/><path d="m392 8c-28.398438 0-54 12.320312-71.519531 32h7.519531l31.199219 31.199219c18.722656 18.722656 35.359375 39.28125 49.761719 61.359375 5.597656 8.640625 10.800781 17.441406 15.679687 26.480468 5.121094 9.441407 9.757813 19.039063 14 28.882813 29.4375-16.402344 49.359375-47.84375 49.359375-83.921875 0-53.039062-42.960938-96-96-96zm0 0" fill="#656d78"/><path d="m456 104c0 23.441406-12.558594 43.921875-31.359375 55.039062-4.878906-9.039062-10.082031-17.839843-15.679687-26.480468-14.402344-22.078125-31.039063-42.636719-49.761719-61.359375l-12.480469-12.480469c11.601562-11.519531 27.601562-18.71875 45.28125-18.71875 35.359375 0 64 28.640625 64 64zm0 0" fill="#838f9b"/><path d="m444.800781 202.960938c7.4375 19.199218 11.199219 39.597656 11.199219 60.160156 0 20.558594-4.640625 40.480468-13.199219 58.640625-8.5625 18.078125-21.039062 34.238281-36.960937 47.277343-24.480469 20-55.121094 30.960938-86.71875 30.960938h-23.121094l16.238281-10.160156c14.882813-9.28125 26.800781-22.078125 35.042969-36.878906 8.238281-14.882813 12.71875-31.761719 12.71875-49.28125 0-6.960938-.71875-13.839844-2.160156-20.558594 25.28125-15.441406 42.160156-43.359375 42.160156-75.121094 0-48.640625-39.359375-88-88-88-6.878906 0-13.519531.800781-19.921875 2.320312-2.71875-16.160156-4.078125-32.558593-4.078125-49.121093v-33.199219h40l31.199219 31.199219c18.722656 18.722656 35.359375 39.28125 49.761719 61.359375 5.597656 8.640625 10.800781 17.441406 15.679687 26.480468 5.121094 9.441407 9.757813 19.039063 14 28.882813 2.160156 4.957031 4.238281 10 6.160156 15.039063zm0 0" fill="#e6e9ed"/><path d="m208 40v33.199219c0 16.5625-1.359375 32.960937-4.078125 49.121093-6.402344-1.519531-13.042969-2.320312-19.921875-2.320312-48.640625 0-88 39.359375-88 88 0 31.761719 16.878906 59.679688 42.160156 75.121094-1.441406 6.71875-2.160156 13.597656-2.160156 20.558594 0 17.519531 4.480469 34.398437 12.71875 49.28125 8.242188 14.800781 20.160156 27.597656 35.042969 36.878906l16.238281 10.160156h-23.121094c-15.757812 0-31.359375-2.71875-46-8-14.71875-5.199219-28.480468-12.960938-40.71875-22.960938-15.921875-13.039062-28.398437-29.199218-36.960937-47.277343-8.558594-18.160157-13.199219-38.082031-13.199219-58.640625 0-20.5625 3.761719-40.960938 11.199219-60.160156 1.921875-5.039063 4-10.082032 6.160156-15.039063 4.242187-9.84375 8.878906-19.441406 14-28.882813 17.359375-32.238281 39.441406-61.839843 65.441406-87.839843l31.199219-31.199219zm0 0" fill="#e6e9ed"/><path d="m203.921875 122.320312c-7.121094 44.238282-24.160156 86.480469-49.84375 123.601563-7.839844 11.277344-13.199219 23.917969-15.917969 37.199219-25.28125-15.441406-42.160156-43.359375-42.160156-75.121094 0-48.640625 39.359375-88 88-88 6.878906 0 13.519531.800781 19.921875 2.320312zm0 0" fill="#656d78"/><path d="m400 208c0 31.761719-16.878906 59.679688-42.160156 75.121094-2.71875-13.28125-8.078125-25.921875-15.917969-37.199219-25.683594-37.121094-42.722656-79.363281-49.84375-123.601563 6.402344-1.519531 13.042969-2.320312 19.921875-2.320312 48.640625 0 88 39.359375 88 88zm0 0" fill="#656d78"/><path d="m312.238281 389.839844-16.238281 10.160156h-5.679688c13.28125-11.679688 21.679688-28.878906 21.679688-48v-32l-.238281-.238281c5.359375-6.882813 8.238281-15.363281 8.238281-24.160157 0-10.960937-4.480469-20.800781-11.601562-28-7.199219-7.121093-17.039063-11.601562-28-11.601562-10.476563 0-20.558594 4.160156-28 11.601562l-4.398438 4.398438-4.398438-4.398438c-7.441406-7.441406-17.523437-11.601562-28-11.601562-10.960937 0-20.800781 4.480469-28 11.601562-7.121093 7.199219-11.601562 17.039063-11.601562 28 0 8.796876 2.878906 17.277344 8.238281 24.160157l-.238281.238281v32c0 17.679688 7.199219 33.679688 18.71875 45.28125l2.960938 2.71875h-5.679688l-16.238281-10.160156c-14.882813-9.28125-26.800781-22.078125-35.042969-36.878906-8.238281-14.882813-12.71875-31.761719-12.71875-49.28125 0-6.960938.71875-13.839844 2.160156-20.558594 2.71875-13.28125 8.078125-25.921875 15.917969-37.199219 25.683594-37.121094 42.722656-79.363281 49.84375-123.601563 2.71875-16.160156 4.078125-32.558593 4.078125-49.121093v-33.199219h80v33.199219c0 16.5625 1.359375 32.960937 4.078125 49.121093 7.121094 44.238282 24.160156 86.480469 49.84375 123.601563 7.839844 11.277344 13.199219 23.917969 15.917969 37.199219 1.441406 6.71875 2.160156 13.597656 2.160156 20.558594 0 17.519531-4.480469 34.398437-12.71875 49.28125-8.242188 14.800781-20.160156 27.597656-35.042969 36.878906zm0 0" fill="#e6e9ed"/><path d="m312 320v32c0 19.121094-8.398438 36.320312-21.679688 48-11.28125 10-26.082031 16-42.320312 16s-31.039062-6.078125-42.320312-16l-2.960938-2.71875c-11.519531-11.601562-18.71875-27.601562-18.71875-45.28125v-32l.238281-.238281c1.042969 1.359375 2.160157 2.636719 3.363281 3.839843l33.117188 33.117188c7.203125 7.203125 17.042969 11.28125 27.28125 11.28125s20.078125-4.078125 27.28125-11.28125l33.117188-33.117188c1.203124-1.203124 2.320312-2.480468 3.363281-3.839843zm0 0" fill="#ccd1d9"/><path d="m320 295.601562c0 8.796876-2.878906 17.277344-8.238281 24.160157-1.042969 1.359375-2.160157 2.636719-3.363281 3.839843l-33.117188 33.117188c-7.203125 7.203125-17.042969 11.28125-27.28125 11.28125s-20.078125-4.078125-27.28125-11.28125l-33.117188-33.117188c-1.203124-1.203124-2.320312-2.480468-3.363281-3.839843-5.359375-6.882813-8.238281-15.363281-8.238281-24.160157 0-10.960937 4.480469-20.800781 11.601562-28 7.199219-7.121093 17.039063-11.601562 28-11.601562 10.476563 0 20.558594 4.160156 28 11.601562l4.398438 4.398438 4.398438-4.398438c7.441406-7.441406 17.523437-11.601562 28-11.601562 10.960937 0 20.800781 4.480469 28 11.601562 7.121093 7.199219 11.601562 17.039063 11.601562 28zm0 0" fill="#656d78"/><path d="m208 288h16v16h-16zm0 0"/><path d="m272 288h16v16h-16zm0 0"/><path d="m496 104c0-57.34375-46.65625-104-104-104-28.28125 0-55.296875 11.679688-74.863281 32h-138.273438c-19.566406-20.320312-46.582031-32-74.863281-32-57.34375 0-104 46.65625-104 104 0 35.328125 17.984375 68.128906 47.367188 87.238281-1.214844 2.945313-2.511719 5.832031-3.65625 8.816407-7.773438 20.210937-11.710938 41.441406-11.710938 63.097656 0 43.625 19.367188 84.488281 53.128906 112.105468 25.800782 21.109376 58.375 32.742188 91.71875 32.742188h25.992188c12.359375 9.984375 28.0625 16 45.160156 16s32.792969-6.015625 45.160156-16h25.992188c33.351562 0 65.917968-11.632812 91.71875-32.742188 33.761718-27.625 53.128906-68.480468 53.128906-112.105468 0-21.65625-3.9375-42.878906-11.710938-63.097656-1.144531-2.976563-2.441406-5.871094-3.65625-8.816407 29.382813-19.109375 47.367188-51.910156 47.367188-87.238281zm-147.480469 137.367188c-23.65625-34.175782-39.421875-72.421876-47.085937-112.605469 3.496094-.464844 7.023437-.761719 10.566406-.761719 44.113281 0 80 35.886719 80 80 0 24.382812-10.816406 46.816406-29.359375 61.910156-3.273437-10.070312-7.976563-19.679687-14.121094-28.542968zm-13.152343 9.113281c10.878906 15.703125 16.632812 34.113281 16.632812 53.238281 0 29.546875-13.726562 56.65625-36.9375 74.289062 3.144531-8.078124 4.9375-16.832031 4.9375-26.007812v-29.96875c5.199219-7.757812 8-16.878906 8-26.421875 0-26.25-21.351562-47.601563-47.601562-47.601563-12.125 0-23.558594 4.503907-32.398438 12.734376-8.832031-8.238282-20.273438-12.742188-32.398438-12.742188-26.25 0-47.601562 21.351562-47.601562 47.601562 0 9.550782 2.800781 18.671876 8 26.421876v29.976562c0 9.175781 1.792969 17.929688 4.9375 26.007812-23.210938-17.632812-36.9375-44.742187-36.9375-74.289062 0-19.125 5.753906-37.527344 16.632812-53.238281 36.214844-52.328125 55.367188-113.625 55.367188-177.257813v-25.222656h64v25.222656c0 63.632813 19.152344 124.929688 55.367188 177.257813zm-151.367188 45.121093c0-17.425781 14.175781-31.601562 31.601562-31.601562 8.4375 0 16.375 3.289062 22.34375 9.257812l10.054688 10.054688 10.054688-10.054688c5.96875-5.96875 13.90625-9.257812 22.34375-9.257812 17.425781 0 31.601562 14.175781 31.601562 31.601562 0 8.4375-3.289062 16.375-9.257812 22.34375l-33.085938 33.085938c-5.703125 5.703125-13.59375 8.96875-21.65625 8.96875s-15.953125-3.265625-21.65625-8.96875l-33.085938-33.085938c-5.96875-5.96875-9.257812-13.90625-9.257812-22.34375zm-50.640625-25.691406c-18.542969-15.101562-29.359375-37.535156-29.359375-61.910156 0-44.113281 35.886719-80 80-80 3.542969 0 7.0625.296875 10.566406.761719-7.664062 40.183593-23.429687 78.429687-47.085937 112.605469-6.144531 8.863281-10.847657 18.472656-14.121094 28.542968zm-117.359375-165.910156c0-48.519531 39.480469-88 88-88 20.664062 0 40.511719 7.398438 56.222656 20.464844l-11.300781 11.304687c-12.722656-10.203125-28.386719-15.769531-44.921875-15.769531-39.703125 0-72 32.296875-72 72 0 22.710938 10.976562 44.105469 28.96875 57.609375-2.464844 4.789063-4.777344 9.671875-7.046875 14.582031-23.53125-16.367187-37.921875-43.214844-37.921875-72.191406zm52.6875 43.390625c-12.902344-10.558594-20.6875-26.511719-20.6875-43.390625 0-30.871094 25.128906-56 56-56 12.246094 0 23.863281 3.96875 33.496094 11.191406l-6.382813 6.382813c-24.601562 24.601562-45.449219 52-62.425781 81.816406zm-20.6875 115.761719c0-19.679688 3.574219-38.976563 10.648438-57.34375 18.710937-48.664063 46.894531-92.039063 83.777343-128.914063l28.886719-28.894531h28.6875v25.222656c0 13.402344-1.039062 26.664063-2.808594 39.777344-4.367187-.601562-8.765625-1-13.191406-1-52.9375 0-96 43.0625-96 96 0 31.792969 15.433594 60.71875 41.335938 78.6875-.871094 5.601562-1.335938 11.28125-1.335938 17.03125 0 35.25 16.703125 67.511719 44.808594 88.105469-28.242188-.894531-55.640625-11.023438-77.550782-28.960938-30.035156-24.566406-47.257812-60.910156-47.257812-99.710937zm200 144.847656c-30.871094 0-56-25.128906-56-56v-12.6875l23.03125 23.03125c8.679688 8.679688 20.695312 13.65625 32.96875 13.65625s24.289062-4.976562 32.96875-13.65625l23.03125-23.03125v12.6875c0 30.871094-25.128906 56-56 56zm152.734375-45.128906c-21.894531 17.929687-49.300781 28.058594-77.542969 28.953125 28.105469-20.59375 44.808594-52.855469 44.808594-88.105469 0-5.742188-.457031-11.429688-1.335938-17.03125 25.902344-17.976562 41.335938-46.886719 41.335938-78.6875 0-52.9375-43.0625-96-96-96-4.433594 0-8.824219.398438-13.191406 1-1.769532-13.113281-2.808594-26.375-2.808594-39.777344v-25.222656h28.6875l28.886719 28.886719c36.875 36.875 65.066406 80.25 83.777343 128.914062 7.074219 18.367188 10.648438 37.671875 10.648438 57.351563 0 38.800781-17.222656 75.144531-47.265625 99.71875zm26.578125-215.480469c-16.976562-29.816406-37.824219-57.207031-62.425781-81.804687l-6.382813-6.386719c9.632813-7.230469 21.25-11.199219 33.496094-11.199219 30.871094 0 56 25.128906 56 56 0 16.878906-7.785156 32.832031-20.6875 43.390625zm14.765625 28.792969c-2.269531-4.902344-4.582031-9.792969-7.046875-14.582032 17.992188-13.496093 28.96875-34.890624 28.96875-57.601562 0-39.703125-32.296875-72-72-72-16.535156 0-32.199219 5.566406-44.921875 15.769531l-11.300781-11.304687c15.710937-13.066406 35.558594-20.464844 56.222656-20.464844 48.519531 0 88 39.480469 88 88 0 28.976562-14.390625 55.824219-37.921875 72.183594zm0 0"/><path d="m136 176h16v16h-16zm0 0"/><path d="m344 176h16v16h-16zm0 0"/></svg>