<svg height="496pt" viewBox="0 -20 496 496" width="496pt" xmlns="http://www.w3.org/2000/svg"><path d="m416 222.71875c0-16.320312-2.480469-32.160156-7.039062-46.957031-7.761719-24.960938-21.441407-47.28125-39.441407-65.28125-4.558593-4.558594-9.441406-8.878907-14.558593-12.800781-8.402344-6.640626-17.519532-12.398438-27.199219-17.199219-5.28125-2.640625-10.722657-4.960938-16.402344-7.039063-16.878906-6.082031-35.039063-9.441406-54.078125-9.441406h-18.5625c-19.039062 0-37.199219 3.359375-54.078125 9.441406-5.679687 2.078125-11.121094 4.398438-16.402344 7.039063-9.679687 4.800781-18.796875 10.558593-27.199219 17.199219-25.199218 19.601562-44.320312 46.800781-54 78.082031-4.558593 14.796875-7.039062 30.636719-7.039062 46.957031-11.839844 10.722656-21.679688 23.679688-28.558594 38.242188-6.960937 14.558593-10.960937 30.800781-11.441406 47.917968-1.679688 67.679688 55.679688 123.121094 123.359375 123.121094h35.359375c11.519531 9.441406 27.441406 16 49.28125 16 21.761719 0 37.601562-6.480469 49.121094-16h35.519531c67.679687 0 125.039063-55.441406 123.28125-123.121094-.800781-34.238281-16.160156-64.800781-39.921875-86.160156zm0 0" fill="#f0d0b4"/><path d="m139.679688 96 1.359374 1.679688c-25.199218 19.601562-44.320312 46.800781-54 78.082031l-7.4375-1.839844c-15.441406-3.84375-29.523437-11.84375-40.800781-23.121094-14.722656-14.722656-23.761719-34.160156-25.441406-54.878906l-4.640625-55.363281c1.519531-.398438 3.121094-.558594 4.800781-.558594 1.679688 0 3.28125.160156 4.878907.558594l45.363281 10.480468c29.519531 6.800782 56 22.5625 75.917969 44.960938zm0 0" fill="#f29ed0"/><path d="m487.28125 40.558594-4.640625 55.363281c-1.679687 20.71875-10.71875 40.15625-25.441406 54.878906-11.277344 11.277344-25.359375 19.277344-40.800781 23.121094l-7.4375 1.839844c-7.761719-24.960938-21.441407-47.28125-39.441407-65.28125-4.558593-4.558594-9.441406-8.878907-14.558593-12.800781l1.359374-1.679688c19.917969-22.398438 46.398438-38.160156 75.917969-44.960938l45.363281-10.480468c1.597657-.398438 3.199219-.558594 4.878907-.558594 1.679687 0 3.28125.160156 4.800781.558594zm0 0" fill="#f29ed0"/><path d="m488 29.519531v1.601563c0 .558594 0 1.199218-.078125 1.757812l-.640625 7.679688c-1.519531-.398438-3.121094-.558594-4.800781-.558594-1.679688 0-3.28125.160156-4.878907.558594l-45.363281 10.480468c-29.519531 6.800782-56 22.5625-75.917969 44.960938l-1.359374 1.679688c-8.402344-6.640626-17.519532-12.398438-27.199219-17.199219l.238281-.480469c20.558594-30.800781 52.078125-52.640625 88.238281-60.960938l45.363281-10.480468c1.597657-.398438 3.199219-.558594 4.878907-.558594 5.917969 0 11.28125 2.398438 15.199219 6.320312 3.921874 3.917969 6.320312 9.28125 6.320312 15.199219zm0 0" fill="#f0d0b4"/><path d="m168 80 .238281.480469c-9.679687 4.800781-18.796875 10.558593-27.199219 17.199219l-1.359374-1.679688c-19.917969-22.398438-46.398438-38.160156-75.917969-44.960938l-45.363281-10.480468c-1.597657-.398438-3.199219-.558594-4.878907-.558594-1.679687 0-3.28125.160156-4.800781.558594l-.640625-7.679688c-.078125-.558594-.078125-1.199218-.078125-1.757812v-1.601563c0-5.917969 2.398438-11.28125 6.320312-15.199219 3.917969-3.921874 9.28125-6.320312 15.199219-6.320312 1.679688 0 3.28125.160156 4.878907.558594l45.363281 10.480468c36.160156 8.320313 67.679687 30.160157 88.238281 60.960938zm0 0" fill="#f0d0b4"/><path d="m344 184c0 8.835938-7.164062 16-16 16s-16-7.164062-16-16 7.164062-16 16-16 16 7.164062 16 16zm0 0" fill="#b27946"/><path d="m168.238281 364.640625c-5.277343-7.359375-8.238281-16.320313-8.238281-25.921875 0-18.398438 7.519531-35.039062 19.519531-47.199219 11.519531-11.441406 27.199219-18.800781 44.480469-19.441406.878906-.078125 1.839844-.078125 2.71875-.078125h42.5625c.878906 0 1.839844 0 2.71875.078125 35.519531 1.441406 64 30.722656 64 66.640625 0 9.679688-3.039062 18.640625-8.238281 26-1.441407 2.160156-3.203125 4.160156-5.042969 6-8.160156 8.242188-19.519531 13.28125-32 13.28125-12 0-23.519531-4.800781-32-13.28125l-10.71875-10.71875-10.71875 10.71875c-8.480469 8.480469-20 13.28125-32 13.28125-12.480469 0-23.839844-5.039062-32-13.28125-1.921875-1.839844-3.601562-3.917969-5.042969-6.078125zm0 0" fill="#f29ed0"/><path d="m304 336c0 8.835938-7.164062 16-16 16s-16-7.164062-16-16 7.164062-16 16-16 16 7.164062 16 16zm0 0" fill="#d3a06c"/><path d="m224 336c0 8.835938-7.164062 16-16 16s-16-7.164062-16-16 7.164062-16 16-16 16 7.164062 16 16zm0 0" fill="#d3a06c"/><path d="m184 184c0 8.835938-7.164062 16-16 16s-16-7.164062-16-16 7.164062-16 16-16 16 7.164062 16 16zm0 0" fill="#b27946"/><path d="m288 312c-13.230469 0-24 10.769531-24 24s10.769531 24 24 24 24-10.769531 24-24-10.769531-24-24-24zm0 32c-4.40625 0-8-3.585938-8-8s3.59375-8 8-8 8 3.585938 8 8-3.59375 8-8 8zm0 0"/><path d="m208 312c-13.230469 0-24 10.769531-24 24s10.769531 24 24 24 24-10.769531 24-24-10.769531-24-24-24zm0 32c-4.40625 0-8-3.585938-8-8s3.59375-8 8-8 8 3.585938 8 8-3.59375 8-8 8zm0 0"/><path d="m192 184c0-13.230469-10.769531-24-24-24s-24 10.769531-24 24 10.769531 24 24 24 24-10.769531 24-24zm-32 0c0-4.414062 3.59375-8 8-8s8 3.585938 8 8-3.59375 8-8 8-8-3.585938-8-8zm0 0"/><path d="m328 160c-13.230469 0-24 10.769531-24 24s10.769531 24 24 24 24-10.769531 24-24-10.769531-24-24-24zm0 32c-4.40625 0-8-3.585938-8-8s3.59375-8 8-8 8 3.585938 8 8-3.59375 8-8 8zm0 0"/><path d="m466.457031 0c-2.226562 0-4.464843.257812-6.648437.761719l-45.394532 10.476562c-36.214843 8.363281-67.644531 29.402344-89.382812 59.328125-20.734375-9.277344-43.625-14.566406-67.765625-14.566406h-18.53125c-24.140625 0-47.03125 5.289062-67.765625 14.558594-21.738281-29.925782-53.167969-50.964844-89.375-59.320313l-45.402344-10.476562c-2.183594-.503907-4.414062-.761719-6.648437-.761719-16.285157 0-29.542969 13.257812-29.542969 29.542969v1.554687c0 .832032.03125 1.644532.105469 2.453125l5.246093 63.007813c1.878907 22.585937 11.746094 43.839844 27.769532 59.867187 12.191406 12.199219 27.472656 20.863281 44.199218 25.109375-3.089843 12.105469-5.015624 24.664063-5.289062 37.648438-24.941406 23.59375-39.109375 55.230468-39.992188 89.496094-.863281 33.847656 12 66.191406 36.242188 91.0625 24.933594 25.585937 59.589844 40.257812 95.09375 40.257812h32.9375c13.085938 9.847656 30.054688 16 51.6875 16 21.542969 0 38.472656-6.152344 51.550781-16h33.074219c35.496094 0 70.152344-14.671875 95.085938-40.246094 24.242187-24.867187 37.113281-57.203125 36.242187-91.066406-.882813-34.246094-15.050781-65.886719-39.992187-89.496094-.273438-12.984375-2.191407-25.550781-5.289063-37.648437 16.726563-4.253907 32.007813-12.917969 44.199219-25.109375 16.023437-16.027344 25.890625-37.28125 27.769531-59.867188l5.246094-62.992187c.082031-.820313.113281-1.644531.113281-2.46875v-1.5625c0-16.285157-13.257812-29.542969-29.542969-29.542969zm-48.449219 26.832031 45.398438-10.480469c8.363281-1.960937 16.59375 4.703126 16.59375 13.191407v1.554687c0 .375-.015625.742188-.046875 1.125l-.007813.097656c-1.386718.121094-2.777343.121094-4.136718.433594l-45.394532 10.476563c-29.503906 6.808593-55.828124 21.984375-76.582031 43.859375-4.625-3.296875-9.390625-6.378906-14.34375-9.203125 19.398438-25.695313 46.925781-43.773438 78.519531-51.054688zm-160.742187 45.167969c15.085937 0 29.636719 2.289062 43.390625 6.433594l-13.296875 31.902344c-15.503906 37.199218-23.359375 76.496093-23.359375 116.800781v36.863281h-32v-36.863281c0-40.296875-7.855469-79.59375-23.359375-116.800781l-13.296875-31.902344c13.753906-4.144532 28.304688-6.433594 43.390625-6.433594zm33.476563 304c-9.957032 0-19.308594-3.871094-26.34375-10.910156l-16.398438-16.402344-16.40625 16.402344c-7.035156 7.039062-16.386719 10.910156-26.335938 10.910156-20.546874 0-37.257812-16.710938-37.257812-37.257812 0-32.390626 26.351562-58.742188 58.742188-58.742188h42.503906c32.402344 0 58.753906 26.351562 58.753906 58.742188 0 20.546874-16.710938 37.257812-37.257812 37.257812zm-274.742188-346.457031c0-8.480469 8.183594-15.144531 16.59375-13.191407l45.398438 10.480469c31.59375 7.289063 59.121093 25.359375 78.519531 51.0625-4.953125 2.824219-9.726563 5.90625-14.351563 9.203125-20.753906-21.867187-47.082031-37.042968-76.574218-43.859375l-45.402344-10.476562c-1.351563-.3125-2.742188-.320313-4.128906-.441407l-.007813-.113281c-.03125-.367187-.046875-.726562-.046875-1.101562zm65.566406 136.609375c-14.054687-3.511719-26.894531-10.792969-37.132812-21.03125-13.355469-13.351563-21.570313-31.066406-23.136719-49.882813l-3.890625-46.695312 44.585938 10.289062c25.9375 5.984375 49.136718 19.199219 67.558593 38.214844-21.261719 18.496094-37.773437 42.21875-47.542969 69.21875zm-1.832031 222.421875c-21.199219-21.75-32.453125-49.972657-31.703125-79.484375.800781-30.984375 14.046875-59.539063 37.304688-80.410156l2.664062-2.375v-3.570313c0-62.390625 38.105469-116.039063 92.257812-138.917969l13.613282 32.679688c14.679687 35.238281 22.128906 72.457031 22.128906 110.640625v37.726562c-36.128906 5.242188-64 36.328125-64 73.878907 0 10.578124 3.136719 20.417968 8.472656 28.714843 1.765625 20.03125 8.023438 40.375 20.03125 56.542969h-17.128906c-31.207031 0-61.695312-12.910156-83.640625-35.425781zm100.136719-3.023438c7.554687 4.113281 16.199218 6.449219 25.386718 6.449219 14.230469 0 27.605469-5.535156 37.652344-15.601562l5.089844-5.085938 5.089844 5.085938c10.054687 10.066406 23.429687 15.601562 37.664062 15.601562 9.15625 0 17.78125-2.328125 25.316406-6.414062-6.429687 23.613281-23.34375 54.414062-68.070312 54.414062-44.847656 0-61.734375-30.640625-68.128906-54.449219zm268.097656-76.453125c.75 29.503906-10.503906 57.734375-31.710938 79.488282-21.9375 22.511718-52.425781 35.414062-83.632812 35.414062h-17.28125c12.054688-16.199219 18.382812-36.566406 20.183594-56.550781 5.335937-8.289063 8.472656-18.128907 8.472656-28.707031 0-37.550782-27.871094-68.636719-64-73.878907v-37.726562c0-38.175781 7.449219-75.402344 22.128906-110.640625l13.613282-32.679688c54.152343 22.878906 92.257812 76.527344 92.257812 138.917969v3.570313l2.65625 2.382812c23.265625 20.863281 36.511719 49.425781 37.3125 80.410156zm3.597656-163.976562c-10.238281 10.238281-23.078125 17.511718-37.132812 21.03125l-.449219.113281c-9.761719-27-26.28125-50.722656-47.542969-69.21875 18.429688-19.015625 41.621094-32.230469 67.566406-38.214844l44.585938-10.289062-3.890625 46.695312c-1.566406 18.816407-9.78125 36.53125-23.136719 49.882813zm0 0"/></svg>