<svg height="496pt" viewBox="0 0 496 496" width="496pt" xmlns="http://www.w3.org/2000/svg"><path d="m153.601562 177.519531c-17.523437 19.121094-29.28125 43.601563-32.640624 70.640625l-.960938-.160156-1.839844-1.359375c-19.921875-14.960937-36.558594-33.761719-48.878906-55.359375-8.800781-15.441406-15.28125-32.082031-19.28125-49.441406l-8.320312-35.761719c-5.441407-23.679687-14-46.398437-25.519532-67.757813 8.320313 2.558594 16.480469 5.601563 24.398438 9.199219 45.921875 20.878907 82.242187 58.402344 101.601562 104.960938l9.839844 23.519531zm0 0" fill="#cf9e76"/><path d="m377.839844 246.640625-1.839844 1.359375-.960938.160156c-3.359374-27.039062-15.117187-51.519531-32.640624-70.640625l1.601562-1.519531 9.839844-23.519531c19.359375-46.558594 55.679687-84.082031 101.601562-104.960938 7.917969-3.597656 16.078125-6.640625 24.398438-9.199219-11.519532 21.359376-20.078125 44.078126-25.519532 67.757813l-8.320312 35.761719c-4 17.359375-10.480469 34-19.28125 49.441406-12.320312 21.597656-28.957031 40.398438-48.878906 55.359375zm0 0" fill="#cf9e76"/><g fill="#dfb28b"><path d="m353.839844 152.480469-9.839844 23.519531-1.601562 1.519531c-2.636719-2.878906-5.359376-5.597656-8.238282-8.238281-6.878906-6.242188-14.480468-11.761719-22.640625-16.402344l.480469-.878906 9.839844-23.519531c19.359375-46.558594 55.679687-84.082031 101.601562-104.960938 11.039063-5.039062 22.480469-8.960937 34.160156-11.917969l12.878907-3.203124c1.039062-.238282 2-.398438 3.039062-.398438h1.921875c6.957032 0 12.558594 5.601562 12.558594 12.558594 0 2.242187-.640625 4.480468-1.761719 6.402344-2.238281 3.757812-4.398437 7.519531-6.398437 11.359374-8.320313 2.558594-16.480469 5.601563-24.398438 9.199219-45.921875 20.878907-82.242187 58.402344-101.601562 104.960938zm0 0"/><path d="m142.160156 152.480469c-19.359375-46.558594-55.679687-84.082031-101.601562-104.960938-7.917969-3.597656-16.078125-6.640625-24.398438-9.199219-2-3.839843-4.160156-7.601562-6.398437-11.359374-1.121094-1.921876-1.761719-4.160157-1.761719-6.402344 0-6.957032 5.601562-12.558594 12.558594-12.558594h1.921875c1.039062 0 2 .160156 3.039062.398438l12.878907 3.203124c11.679687 2.957032 23.121093 6.878907 34.160156 11.917969 45.921875 20.878907 82.242187 58.402344 101.601562 104.960938l9.839844 23.519531.480469.878906c-8.160157 4.640625-15.761719 10.160156-22.640625 16.402344-1.519532 1.359375-2.960938 2.71875-4.398438 4.160156-1.28125 1.359375-2.640625 2.636719-3.839844 4.078125l-1.601562-1.519531zm0 0"/><path d="m161.441406 300.71875 6.558594 3.28125.238281.320312-5.917969 5.359376c-11.761718 11.761718-18.320312 27.679687-18.320312 44.242187 0 19.039063 8.640625 36.957031 23.519531 48.878906l3.601563 2.878907c8.320312 6.71875 18.71875 10.320312 29.359375 10.320312l9.679687 45.039062-2.160156.480469c-12 6.71875-25.601562 10.480469-40 10.480469-48.640625 0-88-42.960938-88-96 0-30.558594 13.121094-54.078125 33.519531-70.320312 2.082031-1.601563 4.242188-3.039063 6.480469-4.238282 6.558594-3.601562 13.921875-5.441406 21.441406-5.441406 6.957032 0 13.839844 1.601562 20 4.71875zm0 0"/><path d="m376 301.441406c2.238281 1.199219 4.398438 2.636719 6.480469 4.238282 20.398437 16.242187 33.519531 39.761718 33.519531 70.320312 0 53.039062-39.359375 96-88 96-14.398438 0-28-3.761719-40-10.480469l-2.160156-.480469 9.679687-45.039062c10.640625 0 21.039063-3.601562 29.359375-10.320312l3.601563-2.878907c7.441406-6 13.28125-13.441406 17.359375-21.761719 4-8.398437 6.160156-17.597656 6.160156-27.117187 0-16.5625-6.558594-32.480469-18.320312-44.242187-1.917969-1.917969-3.839844-3.679688-5.917969-5.359376l.238281-.320312 6.558594-3.28125c6.160156-3.117188 13.042968-4.71875 20-4.71875 7.519531 0 14.882812 1.839844 21.441406 5.441406zm0 0"/></g><path d="m334.558594 300.71875-6.558594 3.28125-.238281.320312c-13.121094-10.480468-29.441407-16.320312-46.402344-16.320312h-9.359375l-3.359375-.480469 5.519531-38.878906c3.761719-25.921875 17.917969-49.28125 39.28125-64.480469l20.71875-14.878906c2.878906 2.640625 5.601563 5.359375 8.238282 8.238281 17.523437 19.121094 29.28125 43.601563 32.640624 70.640625.640626 5.199219.960938 10.480469.960938 15.839844v37.441406c-6.558594-3.601562-13.921875-5.441406-21.441406-5.441406-6.957032 0-13.839844 1.601562-20 4.71875zm0 0" fill="#b27946"/><path d="m221.839844 248.640625 5.519531 38.878906-3.359375.480469h-9.359375c-9.839844 0-19.441406 1.921875-28.320313 5.601562-6.480468 2.71875-12.558593 6.320313-18.082031 10.71875l-.238281-.320312-6.558594-3.28125c-6.160156-3.117188-13.042968-4.71875-20-4.71875-7.519531 0-14.882812 1.839844-21.441406 5.441406v-37.441406c0-5.359375.320312-10.640625.960938-15.839844 3.359374-27.039062 15.117187-51.519531 32.640624-70.640625 1.199219-1.441406 2.558594-2.71875 3.839844-4.078125 1.4375-1.441406 2.878906-2.800781 4.398438-4.160156l20.71875 14.878906c21.363281 15.199219 35.519531 38.558594 39.28125 64.480469zm0 0" fill="#b27946"/><path d="m257.921875 397.199219c4.476563 5.921875 10.15625 10.640625 16.558594 13.839843 6.480469 3.199219 13.679687 4.960938 21.039062 4.960938l-9.679687 45.039062-5.839844 26.960938h-64l-5.839844-26.960938-9.679687-45.039062c14.800781 0 28.71875-6.960938 37.597656-18.800781l9.921875-13.199219zm0 0" fill="#e6e9ed"/><path d="m248 384c5.039062 0 9.839844-2.320312 12.960938-6.238281l23.117187-28.882813c2.5625-3.199218 3.921875-7.039062 3.921875-11.117187 0-9.839844-7.921875-17.761719-17.761719-17.761719h-6.238281l4.640625-32.480469 3.359375.480469h9.359375c16.960937 0 33.28125 5.839844 46.402344 16.320312 2.078125 1.679688 4 3.441407 5.917969 5.359376 11.761718 11.761718 18.320312 27.679687 18.320312 44.242187 0 9.519531-2.160156 18.71875-6.160156 27.117187-4.078125 8.320313-9.917969 15.761719-17.359375 21.761719l-3.601563 2.878907c-8.320312 6.71875-18.71875 10.320312-29.359375 10.320312-7.359375 0-14.558593-1.761719-21.039062-4.960938-6.402344-3.199218-12.082031-7.917968-16.558594-13.839843zm0 0" fill="#fcd770"/><path d="m248 384-9.921875 13.199219c-8.878906 11.839843-22.796875 18.800781-37.597656 18.800781-10.640625 0-21.039063-3.601562-29.359375-10.320312l-3.601563-2.878907c-14.878906-11.921875-23.519531-29.839843-23.519531-48.878906 0-16.5625 6.558594-32.480469 18.320312-44.242187l5.917969-5.359376c5.523438-4.398437 11.601563-8 18.082031-10.71875 8.878907-3.679687 18.480469-5.601562 28.320313-5.601562h9.359375l3.359375-.480469 4.640625 32.480469h-6.238281c-4.960938 0-9.363281 2-12.5625 5.199219s-5.199219 7.601562-5.199219 12.5625c0 4.078125 1.359375 7.917969 3.921875 11.117187l23.117187 28.882813c3.121094 3.917969 7.921876 6.238281 12.960938 6.238281zm0 0" fill="#fcd770"/><path d="m334.160156 169.28125-20.71875 14.878906c-21.363281 15.199219-35.519531 38.558594-39.28125 64.480469l-5.519531 38.878906-4.640625 32.480469h-32l-4.640625-32.480469-5.519531-38.878906c-3.761719-25.921875-17.917969-49.28125-39.28125-64.480469l-20.71875-14.878906c6.878906-6.242188 14.480468-11.761719 22.640625-16.402344 18.71875-10.71875 40.398437-16.878906 63.519531-16.878906s44.800781 6.160156 63.519531 16.878906c8.160157 4.640625 15.761719 10.160156 22.640625 16.402344zm0 0" fill="#ecc19c"/><path d="m288 337.761719c0 4.078125-1.359375 7.917969-3.921875 11.117187l-23.117187 28.882813c-3.121094 3.917969-7.921876 6.238281-12.960938 6.238281s-9.839844-2.320312-12.960938-6.238281l-23.117187-28.882813c-2.5625-3.199218-3.921875-7.039062-3.921875-11.117187 0-4.960938 2-9.363281 5.199219-12.5625s7.601562-5.199219 12.5625-5.199219h44.476562c9.839844 0 17.761719 7.921875 17.761719 17.761719zm0 0" fill="#838f9b"/><path d="m168 240h16v16h-16zm0 0"/><path d="m312 240h16v16h-16zm0 0"/><path d="m475.472656 0h-1.929687c-1.671875 0-3.351563.199219-4.976563.617188l-12.863281 3.207031c-12.167969 3.039062-24.136719 7.214843-35.550781 12.414062-47.929688 21.792969-85.480469 60.546875-105.710938 109.136719l-6.890625 16.535156c-18.023437-8.8125-38.183593-13.910156-59.550781-13.910156s-41.527344 5.097656-59.535156 13.910156l-6.890625-16.535156c-20.238281-48.582031-57.78125-87.34375-105.71875-109.136719-11.414063-5.191406-23.375-9.375-35.550781-12.40625l-12.863282-3.214843c-1.625-.417969-3.304687-.617188-4.976562-.617188h-1.9375c-11.320313 0-20.527344 9.207031-20.527344 20.527344 0 3.730468 1.015625 7.382812 2.929688 10.5625 14.300781 23.847656 24.726562 49.6875 30.980468 76.773437l8.257813 35.808594c4.175781 18.105469 10.96875 35.457031 20.183593 51.574219 12.777344 22.378906 29.695313 41.570312 50.234376 57.128906-.320313 3.839844-.585938 7.703125-.585938 11.625v33.0625c-1.160156.769531-2.359375 1.472656-3.457031 2.335938-23.910157 19.007812-36.542969 45.496093-36.542969 76.601562 0 57.34375 43.0625 104 96 104 12.503906 0 24.894531-2.800781 36.390625-7.894531l5.144531 23.894531h76.921875l5.144531-23.894531c11.503907 5.09375 23.894532 7.894531 36.398438 7.894531 52.9375 0 96-46.65625 96-104 0-31.105469-12.632812-57.59375-36.542969-76.609375-1.089843-.863281-2.296875-1.566406-3.457031-2.335937v-33.054688c0-3.929688-.265625-7.785156-.59375-11.625 20.539062-15.558594 37.457031-34.75 50.234375-57.117188 9.214844-16.128906 16.007813-33.480468 20.183594-51.578124l8.253906-35.808594c6.257813-27.085938 16.683594-52.917969 30.976563-76.765625 1.929687-3.195313 2.945312-6.847657 2.945312-10.578125 0-11.320313-9.207031-20.527344-20.527344-20.527344zm-146.28125 131.527344c18.679688-44.839844 53.328125-80.617188 97.570313-100.726563 10.535156-4.800781 21.574219-8.648437 32.8125-11.457031l12.859375-3.214844c.375-.082031.734375-.128906 1.101562-.128906h1.929688c2.503906 0 4.535156 2.03125 4.535156 4.527344 0 .824218-.214844 1.617187-.648438 2.328125-1.726562 2.878906-3.207031 5.878906-4.832031 8.816406-7.589843 2.449219-15.128906 5.265625-22.382812 8.566406-47.929688 21.792969-85.480469 60.546875-105.710938 109.136719l-6.226562 14.945312c-5.773438-5.351562-11.984375-10.222656-18.613281-14.519531zm-8.246094 37.402344-12.160156 8.6875c-23.015625 16.4375-38.511718 41.917968-42.511718 69.910156l-9.21875 64.472656h-18.117188l-9.210938-64.472656c-4-27.992188-19.503906-53.480469-42.511718-69.910156l-12.160156-8.6875c20.25-15.570313 45.496093-24.929688 72.945312-24.929688s52.695312 9.359375 72.945312 24.929688zm7.070313 146.398437c10.152344 10.160156 15.984375 24.222656 15.984375 38.59375 0 16.671875-7.472656 32.199219-20.480469 42.613281l-3.648437 2.914063c-6.886719 5.511719-15.535156 8.550781-24.367188 8.550781-12.214844 0-23.878906-5.832031-31.207031-15.601562l-3.234375-4.308594c2.296875-1.449219 4.441406-3.152344 6.195312-5.335938l23.109376-28.890625c3.632812-4.558593 5.632812-10.269531 5.632812-16.09375 0-13.203125-10.007812-23.984375-22.816406-25.464843l2.328125-16.304688h5.839843c17.625 0 34.191407 6.863281 46.664063 19.328125zm-127.519531 92.671875c-8.832032 0-17.480469-3.039062-24.375-8.550781l-3.632813-2.90625c-13.015625-10.414063-20.488281-25.949219-20.488281-42.621094 0-14.371094 5.832031-28.441406 15.984375-38.59375 12.472656-12.464844 29.039063-19.328125 46.664063-19.328125h5.839843l2.328125 16.296875c-12.808594 1.488281-22.816406 12.269531-22.816406 25.472656 0 5.832031 2 11.535157 5.640625 16.101563l23.121094 28.882812c1.742187 2.183594 3.886719 3.886719 6.183593 5.335938l-3.242187 4.308594c-7.328125 9.769531-18.992187 15.601562-31.207031 15.601562zm69.734375-80c5.386719 0 9.769531 4.382812 9.769531 9.769531 0 2.207031-.761719 4.382813-2.144531 6.101563l-23.101563 28.882812c-3.3125 4.125-10.210937 4.125-13.507812 0l-23.109375-28.875c-1.375-1.726562-2.136719-3.902344-2.136719-6.109375 0-5.386719 4.382812-9.769531 9.769531-9.769531zm-249.703125-312h1.929687c.375 0 .734375.046875 1.101563.136719l12.875 3.222656c11.222656 2.800781 22.261718 6.648437 32.804687 11.449219 44.242188 20.113281 78.890625 55.878906 97.570313 100.726562l7.605468 18.265625c-6.636718 4.296875-12.839843 9.167969-18.613281 14.519531l-6.226562-14.945312c-20.238281-48.582031-57.78125-87.34375-105.71875-109.136719-7.253907-3.292969-14.785157-6.117187-22.382813-8.566406-1.617187-2.9375-3.105468-5.9375-4.832031-8.824219-.425781-.695312-.640625-1.496094-.640625-2.320312 0-2.496094 2.03125-4.527344 4.527344-4.527344zm55.71875 171.3125c-8.4375-14.777344-14.652344-30.664062-18.484375-47.234375l-8.257813-35.804687c-4.113281-17.824219-10.128906-35.058594-17.582031-51.671876 1.765625.742188 3.566406 1.414063 5.308594 2.207032 44.242187 20.113281 78.890625 55.878906 97.570312 100.726562l8.894531 21.34375c-13.597656 16.257813-23.40625 35.738282-28.246093 57.097656-15.695313-13.199218-28.96875-28.753906-39.203125-46.664062zm51.753906 76.6875c0-32.816406 13.265625-62.574219 34.679688-84.257812l15.242187 10.890624c19.476563 13.910157 32.582031 35.480469 35.964844 59.167969l4.320312 30.199219h-3.550781c-17.070312 0-33.320312 5.246094-47.007812 14.871094l-2.59375-1.296875c-11.382813-5.695313-24.78125-6.765625-37.046876-3.652344v-25.921875zm40 200c-44.113281 0-80-39.480469-80-88 0-26.054688 10.542969-48.207031 30.496094-64.078125 9.847656-7.84375 24.007812-9.882813 35.9375-5.441406-11.867188 13.015625-18.433594 29.703125-18.433594 47.441406 0 21.558594 9.65625 41.644531 26.496094 55.117187l3.632812 2.898438c7.992188 6.398438 17.679688 10.269531 27.78125 11.503906l7.027344 32.621094c-10.351562 5.175781-21.394531 7.9375-32.9375 7.9375zm88 16v-24h-16v24h-17.535156l-12.273438-56.96875c11.304688-2.046875 21.792969-7.542969 29.808594-15.816406v32.785156h16v-32.777344c8.015625 8.265625 18.503906 13.761719 29.808594 15.816406l-12.273438 56.960938zm152-104c0 48.519531-35.886719 88-80 88-11.542969 0-22.585938-2.761719-32.9375-7.9375l7.027344-32.621094c10.101562-1.234375 19.789062-5.105468 27.773437-11.496094l3.648438-2.90625c16.832031-13.472656 26.488281-33.550781 26.488281-55.117187 0-17.738281-6.566406-34.425781-18.433594-47.441406 11.9375-4.425781 26.089844-2.382813 35.9375 5.429687 19.953125 15.882813 30.496094 38.035156 30.496094 64.089844zm-77.046875-82.425781-2.59375 1.296875c-13.6875-9.625-29.933594-14.871094-47.007813-14.871094h-3.550781l4.3125-30.199219c3.382813-23.6875 16.496094-45.25 35.964844-59.167969l15.242187-10.890624c21.414063 21.683593 34.679688 51.441406 34.679688 84.257812v25.921875c-12.257812-3.113281-25.664062-2.042969-37.046875 3.652344zm115.542969-189.300781-8.257813 35.804687c-3.832031 16.570313-10.046875 32.464844-18.484375 47.234375-10.234375 17.910156-23.496094 33.464844-39.203125 46.65625-4.839843-21.359375-14.648437-40.839844-28.246093-57.097656l8.894531-21.34375c18.679687-44.839844 53.328125-80.617188 97.570312-100.726563 1.734375-.792969 3.542969-1.464843 5.308594-2.207031-7.453125 16.621094-13.46875 33.855469-17.582031 51.679688zm0 0"/></svg>