<svg height="492pt" viewBox="0 -36 492.64 492" width="492pt" xmlns="http://www.w3.org/2000/svg"><path d="m415.519531 154.398438 18.640625 32.722656c8 14 18.800782 26.160156 31.761719 35.839844l12.398437 9.359374-40 24 3.121094 6.238282c8.398438 16.882812 21.117188 31.28125 36.878906 41.761718l-12.398437 9.28125c-33.84375 25.359376-73.683594 41.4375-115.601563 46.71875l-2.558593.960938-15.761719-43.359375c-1.679688-4.640625-3.921875-8.960937-6.640625-12.882813l.960937-.71875c25.601563 0 50.160157-10.160156 68.320313-28.320312l2.800781-2.800781c5.679688-5.679688 8.878906-13.4375 8.878906-21.4375 0-7.363281-2.640624-14.480469-7.519531-20l-39.441406-45.042969c-5.757813-6.640625-14.078125-10.398438-22.800781-10.398438h-19.039063c-4.71875 0-9.359375 1.121094-13.597656 3.199219l-25.601563 12.800781-24-151.839843c38.160157 1.757812 61.199219 15.757812 68.960938 21.441406l62-44.320313c8.480469-6 18.640625-9.28125 29.039062-9.28125 5.519532 24.878907 8.320313 50.320313 8.320313 75.679688 0 22.960938-2.242187 46-6.800781 68.640625zm0 0" fill="#cf9e76"/><path d="m77.121094 154.398438-.320313-1.757813c-4.5625-22.640625-6.800781-45.679687-6.800781-68.640625 0-25.359375 2.800781-50.800781 8.320312-75.679688 10.398438 0 20.558594 3.28125 29.039063 9.28125l62 44.320313c7.761719-5.683594 30.800781-19.683594 68.960937-21.441406l-24 151.839843-25.601562-12.800781c-4.238281-2.078125-8.878906-3.199219-13.597656-3.199219h-19.042969c-8.71875 0-17.039063 3.757813-22.796875 10.398438l-39.441406 45.042969c-4.878906 5.519531-7.519532 12.636719-7.519532 20 0 8 3.199219 15.757812 8.878907 21.4375l2.800781 2.800781c18.160156 18.160156 42.71875 28.320312 68.320312 28.320312l.960938.71875c-2.722656 3.921876-4.960938 8.242188-6.640625 12.882813l-15.761719 43.359375-2.558594-.960938c-41.921874-5.28125-81.761718-21.359374-115.601562-46.71875l-12.398438-9.28125c15.757813-10.480468 28.480469-24.878906 36.878907-41.761718l3.121093-6.238282-40-24 12.398438-9.359374c12.960938-9.679688 23.761719-21.839844 31.761719-35.839844zm0 0" fill="#cf9e76"/><path d="m254.320312 40.480469 24 151.839843-16 72h-32l-16-72 24-151.839843c2.558594-.082031 5.28125-.160157 8-.160157s5.441407.078126 8 .160157zm0 0" fill="#f0d0b4"/><path d="m398.800781 231.761719c4.878907 5.519531 7.519531 12.636719 7.519531 20 0 8-3.199218 15.757812-8.878906 21.4375l-2.800781 2.800781c-18.160156 18.160156-42.71875 28.320312-68.320313 28.320312l-.960937.71875c-9.28125-13.4375-23.917969-22.398437-40.320313-24.238281-3.117187-9.601562-12.078124-16.480469-22.71875-16.480469l16-72 25.601563-12.800781c4.238281-2.078125 8.878906-3.199219 13.597656-3.199219h19.039063c8.722656 0 17.042968 3.757813 22.800781 10.398438zm0 0" fill="#e6e9ed"/><path d="m214.320312 192.320312 16 72c-6.640624 0-12.640624 2.71875-16.960937 7.039063-2.640625 2.640625-4.640625 5.839844-5.757813 9.441406-16.402343 1.839844-31.042968 10.800781-40.320312 24.238281l-.960938-.71875c-25.601562 0-50.160156-10.160156-68.320312-28.320312l-2.800781-2.800781c-5.679688-5.679688-8.878907-13.4375-8.878907-21.4375 0-7.363281 2.640626-14.480469 7.519532-20l39.441406-45.042969c5.757812-6.640625 14.078125-10.398438 22.796875-10.398438h19.042969c4.71875 0 9.359375 1.121094 13.597656 3.199219zm0 0" fill="#e6e9ed"/><path d="m246.320312 328.320312c10.078126 0 19.519532-4.71875 25.601563-12.800781l9.597656-12.800781c3.121094-4.160156 4.800781-9.199219 4.800781-14.398438 0-2.640624-.398437-5.199218-1.28125-7.519531 16.402344 1.839844 31.039063 10.800781 40.320313 24.238281 2.71875 3.921876 4.960937 8.242188 6.640625 12.882813l15.761719 43.359375 2.558593 7.039062h-15.679687c-21.121094 0-41.921875 5.757813-60 16.640626-8.160156 4.878906-15.761719 10.800781-22.480469 17.519531l-5.839844 5.839843-5.839843-5.839843c-6.71875-6.71875-14.320313-12.640625-22.480469-17.519531-18.078125-10.882813-38.878906-16.640626-60-16.640626h-15.679688l2.558594-7.039062 15.761719-43.359375c1.679687-4.640625 3.917969-8.960937 6.640625-12.882813 9.277344-13.4375 23.917969-22.398437 40.320312-24.238281-.882812 2.320313-1.28125 4.878907-1.28125 7.519531 0 5.199219 1.679688 10.238282 4.800782 14.398438l9.597656 12.800781c6.082031 8.082031 15.519531 12.800781 25.601562 12.800781zm0 0" fill="#ecc19c"/><path d="m222.320312 344.320312 2.945313 8.824219c3.015625 9.0625 11.503906 15.175781 21.054687 15.175781 9.550782 0 18.039063-6.113281 21.054688-15.175781l2.945312-8.824219-24-16zm0 0" fill="#f29ed0"/><path d="m350.320312 216.320312-10.320312 10.320313c-3.679688 3.679687-8.558594 5.679687-13.679688 5.679687-5.121093 0-10-2-13.679687-5.679687l-10.320313-10.320313 10.320313-10.320312c3.679687-3.679688 8.558594-5.679688 13.679687-5.679688 5.121094 0 10 2 13.679688 5.679688zm0 0" fill="#cf9e76"/><path d="m285.039062 280.800781c.882813 2.320313 1.28125 4.878907 1.28125 7.519531 0 5.199219-1.679687 10.238282-4.800781 14.398438l-9.597656 12.800781c-6.082031 8.082031-15.523437 12.800781-25.601563 12.800781-10.082031 0-19.519531-4.71875-25.601562-12.800781l-9.597656-12.800781c-3.121094-4.160156-4.800782-9.199219-4.800782-14.398438 0-2.640624.398438-5.199218 1.28125-7.519531 1.117188-3.601562 3.117188-6.800781 5.757813-9.441406 4.320313-4.320313 10.320313-7.039063 16.960937-7.039063h32c10.640626 0 19.601563 6.878907 22.71875 16.480469zm0 0" fill="#838f9b"/><path d="m190.320312 216.320312-10.320312 10.320313c-3.679688 3.679687-8.558594 5.679687-13.679688 5.679687-5.121093 0-10-2-13.679687-5.679687l-10.320313-10.320313 10.320313-10.320312c3.679687-3.679688 8.558594-5.679688 13.679687-5.679688 5.121094 0 10 2 13.679688 5.679688zm0 0" fill="#cf9e76"/><path d="m422.640625 84c0-18.113281-1.488281-36.265625-4.320313-54.222656l-4 2.542968-88 64 .625.9375c8.511719 12.773438 19.183594 23.742188 31.375 32.519532l16 9.796875c12.398438 6.386719 25.894532 10.738281 40 12.753906l1.496094.457031.023438-.144531c4.558594-22.640625 6.800781-45.679687 6.800781-68.640625zm0 0" fill="#b27946"/><path d="m70 84c0-18.113281 1.488281-36.265625 4.320312-54.222656l4 2.542968 88 64-.625.9375c-8.511718 12.773438-19.183593 23.742188-31.375 32.519532l-16 9.796875c-12.398437 6.386719-25.894531 10.738281-40 12.753906l-1.496093.457031-.023438-.144531c-4.5625-22.640625-6.800781-45.679687-6.800781-68.640625zm0 0" fill="#b27946"/><path d="m448.792969 259.367188 43.847656-26.304688-21.953125-16.46875c-12.101562-9.082031-22.039062-20.347656-29.550781-33.480469l-17.226563-30.136719c9.570313-48.6875 8.992188-97.9375-1.78125-146.402343l-1.394531-6.253907h-6.414063c-12.144531 0-23.785156 3.726563-33.664062 10.792969l-57.535156 41.09375c-12.304688-7.71875-37.863282-19.886719-76.800782-19.886719s-64.496093 12.167969-76.800781 19.886719l-57.535156-41.09375c-9.878906-7.066406-21.519531-10.792969-33.664063-10.792969h-6.417968l-1.390625 6.265626c-10.777344 48.453124-11.351563 97.710937-1.785157 146.398437l-17.222656 30.136719c-7.503906 13.136718-17.449218 24.398437-29.550781 33.480468l-21.953125 16.460938 43.847656 26.304688c-7.824218 15.457031-19.550781 28.6875-33.96875 38.296874l-9.398437 6.273438 21.449219 16.085938c32.949218 24.710937 71.664062 40.839843 112.316406 47.113281l-3.351563 9.183593h27.128907c19.671874 0 39 5.351563 55.863281 15.480469 7.625 4.574219 14.664062 10.070313 20.921875 16.328125l11.511718 11.503906 11.511719-11.503906c6.257813-6.257812 13.296875-11.753906 20.910157-16.328125 16.875-10.128906 36.195312-15.480469 55.875-15.480469h27.125l-3.34375-9.183593c40.65625-6.273438 79.371093-22.402344 112.320312-47.113281l21.449219-16.085938-9.40625-6.273438c-14.417969-9.609374-26.152344-22.847656-33.96875-38.296874zm-201.304688-211.015626 22.6875 143.71875-14.273437 64.25h-19.167969l-14.269531-64.25 22.6875-143.71875c.398437 0 .769531-.03125 1.167968-.03125.398438 0 .769532.03125 1.167969.03125zm37.816407 149.425782 22.183593-11.089844c3.097657-1.542969 6.550781-2.367188 10-2.367188h19.039063c6.457031 0 12.59375 2.792969 16.839844 7.640626l39.402343 45.03125c3.582031 4.085937 5.550781 9.320312 5.550781 14.742187 0 5.984375-2.328124 11.601563-6.558593 15.832031l-2.816407 2.824219c-16.203124 16.203125-37.585937 25.273437-60.410156 25.832031-9.582031-11.628906-22.992187-19.679687-37.960937-22.582031-3.878907-7.433594-10.542969-13.097656-18.652344-15.671875zm-50.113282 147.574218 11.128906-7.414062 11.128907 7.414062c1.101562.738282 2.285156 1.328126 3.445312 1.953126l-1.101562 3.3125c-1.9375 5.808593-7.351563 9.703124-13.472657 9.703124-6.121093 0-11.535156-3.894531-13.472656-9.710937l-1.105468-3.3125c1.167968-.625 2.347656-1.207031 3.449218-1.945313zm11.128906-25.03125c-7.511718 0-14.695312-3.585937-19.199218-9.59375l-9.601563-12.804687c-2.09375-2.800781-3.199219-6.121094-3.199219-9.601563 0-8.824218 7.175782-16 16-16h32c8.824219 0 16 7.175782 16 16 0 3.488282-1.105468 6.808594-3.199218 9.601563l-9.601563 12.796875c-4.503906 6.015625-11.6875 9.601562-19.199219 9.601562zm-82.214843-24.105468c-22.824219-.558594-44.210938-9.628906-60.410157-25.832032l-2.824218-2.824218c-4.222656-4.222656-6.550782-9.839844-6.550782-15.824219 0-5.421875 1.96875-10.65625 5.535157-14.742187l39.410156-45.03125c4.246094-4.847657 10.390625-7.640626 16.839844-7.640626h19.039062c3.457031 0 6.910157.824219 10.007813 2.367188l22.183594 11.089844 13.375 60.183594c-8.109376 2.574218-14.765626 8.238281-18.65625 15.671874-14.957032 2.894532-28.367188 10.941407-37.949219 22.582032zm-24.296875 55.609375c-39.207032-5.511719-76.59375-20.832031-108.28125-44.601563l-3.816406-2.855468c12.777343-10.414063 23.265624-23.472657 30.664062-38.261719l6.417969-12.832031-36.152344-21.699219 2.917969-2.183594c13.855468-10.390625 25.25-23.285156 33.839844-38.335937l17.960937-31.429688c13.480469-2.328125 26.457031-6.679688 38.625-12.945312l-7.320313-14.214844c-9.921874 5.101562-20.472656 8.664062-31.390624 10.808594-5.839844-33.082032-6.769532-66.394532-2.800782-99.496094l74.792969 54.390625c-7.210937 9.625-15.800781 18.054687-25.609375 25.121093l9.351562 12.984376c13.152344-9.472657 24.367188-21.105469 33.351563-34.570313l4.886719-7.320313-94.148438-68.480468c.527344-3.03125.992188-6.070313 1.597656-9.09375 6.464844.984375 12.59375 3.472656 17.992188 7.320312l98.984375 70.703125 9.296875-13.015625-27.082031-19.34375c9.496093-4.984375 24.464843-10.914062 44.914062-13.191406l-20.6875 131-15.808593-7.90625c-5.304688-2.648438-11.234376-4.054688-17.152344-4.054688h-19.039063c-11.066406 0-21.59375 4.777344-28.882812 13.113282l-39.40625 45.03125c-6.136719 7-9.503907 15.976562-9.503907 25.269531 0 10.257813 3.992188 19.898437 11.238282 27.144531l2.824218 2.824219c16.992188 16.992187 38.816407 27.359375 62.371094 29.945313-.523437 1.191406-1.160156 2.3125-1.609375 3.542968zm194.808594 8.496093c-22.578126 0-44.746094 6.144532-64.105469 17.757813-8.742188 5.25-16.816407 11.546875-24 18.738281l-.191407.191406-.191406-.191406c-7.183594-7.183594-15.257812-13.488281-24-18.738281-19.359375-11.613281-41.519531-17.757813-64.105468-17.757813h-4.289063l14.433594-39.671874c5.160156-14.191407 16.550781-24.914063 30.367187-29.640626.511719 5.945313 2.59375 11.726563 6.175782 16.503907l9.601562 12.816406c3.480469 4.640625 7.945312 8.359375 12.945312 11.078125l-.953124.632812c-9.839844 6.578126-23.769532 5.199219-32.144532-3.175781l-6.191406-6.191406-11.3125 11.3125 6.191406 6.191406c7.839844 7.832031 18.257813 12.144531 29.335938 12.144531 1.441406 0 2.847656-.167968 4.265625-.3125l1.222656 3.664063c4.121094 12.351563 15.632813 20.648437 28.648437 20.648437 13.015626 0 24.527344-8.296874 28.648438-20.648437l1.222656-3.664063c1.417969.144532 2.824219.3125 4.265625.3125 11.078125 0 21.496094-4.3125 29.328125-12.152343l6.191406-6.191407-11.3125-11.3125-6.199218 6.191407c-8.367188 8.390625-22.289063 9.769531-32.144532 3.175781l-.953124-.632812c5.007812-2.710938 9.472656-6.4375 12.953124-11.078126l9.589844-12.808593c3.585938-4.777344 5.675782-10.566407 6.1875-16.503907 13.8125 4.726563 25.207032 15.449219 30.367188 29.640626l14.429687 39.671874zm126.503906-53.097656c-31.695313 23.769532-69.074219 39.089844-108.28125 44.601563l-13.328125-36.648438c-.449219-1.230469-1.097657-2.34375-1.609375-3.542969 23.554687-2.578124 45.378906-12.953124 62.371094-29.945312l2.816406-2.824219c7.238281-7.230469 11.230468-16.871093 11.230468-27.128906 0-9.292969-3.367187-18.269531-9.496093-25.269531l-39.410157-45.03125c-7.285156-8.335938-17.8125-13.113282-28.878906-13.113282h-19.039062c-5.921875 0-11.855469 1.40625-17.167969 4.054688l-15.808594 7.90625-20.6875-131c20.457031 2.277344 35.414063 8.207031 44.910157 13.191406l-27.078126 19.34375 9.296876 13.015625 98.984374-70.703125c5.398438-3.847656 11.527344-6.335937 17.992188-7.320312.605469 3.023437 1.070312 6.0625 1.597656 9.09375l-94.144531 68.472656 4.890625 7.3125c8.984375 13.480469 20.207031 25.113281 33.351562 34.578125l9.351563-12.984375c-9.808594-7.066406-18.398437-15.496094-25.609375-25.121094l74.792969-54.390625c3.976562 33.101563 3.039062 66.414063-2.800781 99.496094-10.917969-2.144531-21.472657-5.707031-31.390626-10.808594l-7.320312 14.214844c12.167969 6.265625 25.144531 10.617187 38.625 12.945313l17.957031 31.429687c8.59375 15.050781 19.984375 27.945313 33.839844 38.335937l2.921875 2.183594-36.152344 21.699219 6.417969 12.832031c7.398437 14.796875 17.886719 27.847656 30.664063 38.261719zm0 0"/><path d="m147.007812 200.320312-16 16 16 16c5.160157 5.160157 12.015626 8 19.320313 8s14.160156-2.839843 19.3125-8l16-16-16-16c-10.320313-10.3125-28.328125-10.3125-38.632813 0zm27.3125 20.6875c-4.265624 4.28125-11.71875 4.28125-16 0l-4.6875-4.6875 4.6875-4.6875c4.265626-4.28125 11.71875-4.28125 16 0l4.6875 4.6875zm0 0"/><path d="m326.320312 240.320312c7.304688 0 14.160157-2.839843 19.3125-8l16-16-16-16c-10.3125-10.3125-28.328124-10.3125-38.632812 0l-16 16 16 16c5.160156 5.160157 12.015625 8 19.320312 8zm-8-28.6875c4.265626-4.28125 11.71875-4.28125 16 0l4.6875 4.6875-4.6875 4.6875c-4.265624 4.28125-11.71875 4.28125-16 0l-4.6875-4.6875zm0 0"/></svg>