<svg height="496pt" viewBox="0 -27 496 495" width="496pt" xmlns="http://www.w3.org/2000/svg"><path d="m379.121094 193.78125c-1.28125-2.5625-2.5625-5.121094-3.921875-7.601562l-26.558594-47.839844-5.519531-9.917969c-4.640625-8.242187-10.242188-15.84375-16.722656-22.480469-1.277344-1.363281-2.636719-2.722656-4-3.921875-19.839844-18.71875-46.320313-29.519531-74.398438-29.519531-19.761719 0-38.71875 5.359375-55.199219 15.039062-6.878906 4.082032-13.359375 8.882813-19.199219 14.480469-1.363281 1.199219-2.722656 2.558594-4 3.921875-6.480468 6.636719-12.082031 14.238282-16.722656 22.480469l-5.519531 9.917969-26.558594 47.839844c-1.359375 2.480468-2.640625 5.039062-3.921875 7.601562-8.480468 17.917969-12.878906 37.4375-12.878906 57.359375v7.757813c0 20.480468 4.640625 40.082031 13.121094 57.761718 6.800781 14.160156 16.078125 26.960938 27.277344 37.917969 11.28125 11.042969 24.640624 20.160156 39.523437 26.722656l-9.042969-10.878906c-6.078125-7.363281-10.398437-15.84375-12.800781-24.960937-1.359375-5.28125-2.078125-10.722657-2.078125-16.242188 0-5.679688.71875-11.277344 2.238281-16.640625 2.5625-9.757813 7.441407-18.796875 14.320313-26.398437l44.722656-49.757813c3.359375-3.761719 7.519531-6.800781 12.078125-8.800781 4.5625-2 9.519531-3.121094 14.640625-3.121094 10.160156 0 19.921875 4.320312 26.71875 11.921875l44.722656 49.757813c6.878906 7.601562 11.757813 16.640624 14.320313 26.398437 1.519531 5.363281 2.238281 10.960937 2.238281 16.640625 0 5.519531-.71875 10.960938-2.078125 16.242188-2.402344 9.117187-6.722656 17.597656-12.800781 24.960937l-9.042969 10.878906c14.882813-6.5625 28.242187-15.679687 39.523437-26.722656 11.199219-10.957031 20.476563-23.757813 27.277344-37.917969 8.480469-17.679687 13.121094-37.28125 13.121094-57.761718v-7.757813c0-19.921875-4.398438-39.441406-12.878906-57.359375zm0 0" fill="#838f9b"/><path d="m482.480469 58.5c3.597656 10 5.519531 20.558594 5.519531 31.359375 0 17.199219-4 33.921875-11.519531 48.878906-7.519531 14.960938-18.402344 28.242188-32.160157 38.5625-13.199218 9.839844-29.199218 15.199219-45.679687 15.199219h-14.640625l-4.878906 1.28125c-1.28125-2.5625-2.5625-5.121094-3.921875-7.601562l-26.558594-47.839844 3.359375-1.839844c15.359375-10.238281 26-26.160156 29.679688-44.320312l.320312-1.757813c5.839844-29.042969 31.28125-49.921875 60.878906-49.921875 13.679688 0 26.640625 4.480469 37.359375 12.398438.800781 1.839843 1.523438 3.679687 2.242188 5.601562zm0 0" fill="#ccd1d9"/><path d="m466.640625 30.820312c5.597656 6.71875 10.160156 14.160157 13.597656 22.078126-10.71875-7.917969-23.679687-12.398438-37.359375-12.398438-29.597656 0-55.039062 20.878906-60.878906 49.921875l-.320312 1.757813c-3.679688 18.160156-14.320313 34.082031-29.679688 44.320312l-3.359375 1.839844-5.519531-9.917969c-4.640625-8.242187-10.242188-15.84375-16.722656-22.480469l1.601562-1.441406c15.359375-10.238281 26-26.160156 29.679688-44.320312l.320312-1.757813c5.839844-29.042969 31.28125-49.921875 60.878906-49.921875 9.28125 0 18.242188 2.078125 26.402344 5.839844 8.160156 3.839844 15.4375 9.359375 21.359375 16.480468zm0 0" fill="#aab2bd"/><path d="m147.359375 138.339844-26.558594 47.839844c-1.359375 2.480468-2.640625 5.039062-3.921875 7.601562l-4.878906-1.28125h-14.640625c-16.480469 0-32.480469-5.359375-45.679687-15.199219-13.757813-10.320312-24.640626-23.601562-32.160157-38.5625-7.519531-14.957031-11.519531-31.679687-11.519531-48.878906 0-10.800781 1.921875-21.359375 5.519531-31.359375.71875-1.921875 1.441407-3.761719 2.242188-5.601562 10.71875-7.917969 23.679687-12.398438 37.359375-12.398438 29.597656 0 55.039062 20.878906 60.878906 49.921875l.320312 1.757813c3.679688 18.160156 14.320313 34.082031 29.679688 44.320312zm0 0" fill="#ccd1d9"/><path d="m168 104.5 1.601562 1.441406c-6.480468 6.636719-12.082031 14.238282-16.722656 22.480469l-5.519531 9.917969-3.359375-1.839844c-15.359375-10.238281-26-26.160156-29.679688-44.320312l-.320312-1.757813c-5.839844-29.042969-31.28125-49.921875-60.878906-49.921875-13.679688 0-26.640625 4.480469-37.359375 12.398438 3.4375-7.917969 8-15.359376 13.597656-22.078126 5.921875-7.121093 13.199219-12.640624 21.359375-16.480468 8.160156-3.761719 17.121094-5.839844 26.402344-5.839844 29.597656 0 55.039062 20.878906 60.878906 49.921875l.320312 1.757813c3.679688 18.160156 14.320313 34.082031 29.679688 44.320312zm0 0" fill="#aab2bd"/><path d="m322.398438 102.019531-2.398438 2.480469-32.960938 27.441406c-9.597656 8.078125-15.757812 19.597656-16.960937 32.078125l-6.078125 60.480469h-16c-5.121094 0-10.078125 1.121094-14.640625 3.121094l-1.359375-3.121094-6.078125-60.480469c-1.203125-12.480469-7.363281-24-16.960937-32.078125l-32.960938-27.441406-2.398438-2.480469c5.839844-5.597656 12.320313-10.398437 19.199219-14.480469 16.480469-9.679687 35.4375-15.039062 55.199219-15.039062 28.078125 0 54.558594 10.800781 74.398438 29.519531zm0 0" fill="#ccd1d9"/><path d="m333.761719 312.578125c-2.5625-9.757813-7.441407-18.796875-14.320313-26.398437l-44.722656-49.757813c-6.796875-7.601563-16.558594-11.921875-26.71875-11.921875-5.121094 0-10.078125 1.121094-14.640625 3.121094-4.558594 2-8.71875 5.039062-12.078125 8.800781l-44.722656 49.757813c-6.878906 7.601562-11.757813 16.640624-14.320313 26.398437-1.519531 5.363281-2.238281 10.960937-2.238281 16.640625 0 5.519531.71875 10.960938 2.078125 16.242188 2.402344 9.117187 6.722656 17.597656 12.800781 24.960937l9.042969 10.878906h.078125l5.121094 6.160157c4.957031 6 11.757812 10.160156 19.199218 11.917968 2.800782.722656 5.679688 1.121094 8.640626 1.121094 9.597656 0 18.878906-3.839844 25.679687-10.640625l5.359375-5.359375 5.359375 5.359375c6.800781 6.800781 16.082031 10.640625 25.679687 10.640625 2.960938 0 5.839844-.398438 8.640626-1.121094 7.441406-1.757812 14.242187-5.917968 19.199218-11.917968l5.121094-6.160157h.078125l9.042969-10.878906c6.078125-7.363281 10.398437-15.84375 12.800781-24.960937 1.359375-5.28125 2.078125-10.722657 2.078125-16.242188 0-5.679688-.71875-11.277344-2.238281-16.640625zm0 0" fill="#aab2bd"/><path d="m296 311.140625v.800781c-.238281 5.679688-2.558594 11.117188-6.640625 15.199219l-20.878906 20.878906c-5.441407 5.441407-12.800781 8.480469-20.480469 8.480469s-15.039062-3.039062-20.480469-8.480469l-20.878906-20.878906c-4.082031-4.082031-6.402344-9.519531-6.640625-15.199219 0-.242187 0-.5625 0-.800781 0-6.242187 2.558594-11.921875 6.640625-16 4.078125-4.082031 9.757813-6.640625 16-6.640625 6 0 11.757813 2.398438 16 6.640625l9.359375 9.359375 9.359375-9.359375c4.242187-4.242187 10-6.640625 16-6.640625 6.242187 0 11.921875 2.558594 16 6.640625 4.082031 4.078125 6.640625 9.757813 6.640625 16zm0 0" fill="#656d78"/><path d="m287.679688 399.378906.320312 1.121094s-8 32-40 32-40-32-40-32l.320312-1.121094c2.800782.722656 5.679688 1.121094 8.640626 1.121094 9.597656 0 18.878906-3.839844 25.679687-10.640625l5.359375-5.359375 5.359375 5.359375c6.800781 6.800781 16.082031 10.640625 25.679687 10.640625 2.960938 0 5.839844-.398438 8.640626-1.121094zm0 0" fill="#838f9b"/><path d="m273.375 280.5c-8.175781 0-15.871094 3.183594-21.65625 8.96875l-3.71875 3.71875-3.71875-3.71875c-5.785156-5.785156-13.472656-8.96875-21.65625-8.96875-16.882812 0-30.625 13.742188-30.625 30.625 0 8.175781 3.183594 15.871094 8.96875 21.65625l20.886719 20.886719c6.878906 6.878906 16.410156 10.832031 26.144531 10.832031s19.257812-3.945312 26.144531-10.832031l20.886719-20.886719c5.785156-5.785156 8.96875-13.472656 8.96875-21.65625 0-16.882812-13.742188-30.625-30.625-30.625zm10.34375 40.96875-20.886719 20.886719c-7.816406 7.800781-21.839843 7.800781-29.65625 0l-20.886719-20.886719c-2.730468-2.722656-4.289062-6.488281-4.289062-10.34375 0-8.066406 6.558594-14.625 14.625-14.625 3.847656 0 7.621094 1.558594 10.34375 4.28125l15.03125 15.03125 15.03125-15.03125c2.722656-2.722656 6.488281-4.28125 10.34375-4.28125 8.066406 0 14.625 6.558594 14.625 14.625 0 3.855469-1.558594 7.621094-4.28125 10.34375zm0 0"/><path d="m176 184.5h16v16h-16zm0 0"/><path d="m449.113281 183.667969c29.359375-22.015625 46.886719-57.070313 46.886719-93.777344 0-23.398437-8.246094-46.183594-23.230469-64.167969-13.363281-16.03125-32.992187-25.222656-53.859375-25.222656-33.300781 0-62.207031 23.703125-68.742187 56.351562l-.359375 1.800782c-2.953125 14.75-11.03125 27.601562-22.839844 36.671875-21.226562-19.496094-49.28125-30.824219-78.96875-30.824219s-57.742188 11.328125-78.976562 30.824219c-11.808594-9.082031-19.878907-21.921875-22.839844-36.671875l-.359375-1.800782c-6.527344-32.648437-35.433594-56.351562-68.734375-56.351562-20.867188 0-40.496094 9.191406-53.867188 25.222656-14.976562 17.976563-23.222656 40.769532-23.222656 64.167969 0 36.707031 17.527344 71.761719 46.886719 93.777344 14.472656 10.855469 32.410156 16.832031 50.503906 16.832031h8.035156c-6.167969 16.128906-9.425781 33.320312-9.425781 50.640625v7.71875c0 18.023437 3.457031 35.488281 9.792969 51.664063-15.9375 3.199218-31.632813 7.617187-46.984375 13.375l-13.617188 5.113281 5.625 14.984375 13.617188-5.113282c15.75-5.902343 31.878906-10.367187 48.261718-13.4375 5.25 9.855469 11.609376 19.085938 19.03125 27.453126-21.742187 13.648437-41.34375 30.648437-57.871093 50.472656l12.296875 10.25c16.238281-19.488282 35.648437-36.050782 57.230468-49.113282 10.464844 9.34375 22.386719 17.214844 35.5625 23.214844l4.039063 4.847656c4.917969 5.898438 11.207031 10.28125 18.183594 12.953126 4.558593 13.617187 18.800781 34.976562 46.832031 34.976562s42.273438-21.359375 46.832031-34.976562c6.984375-2.671876 13.273438-7.046876 18.183594-12.953126l4.03125-4.847656c13.175781-6 25.097656-13.878906 35.5625-23.214844 21.582031 13.0625 41 29.625 57.230469 49.113282l12.296875-10.25c-16.527344-19.824219-36.128907-36.832032-57.871094-50.472656 7.421875-8.367188 13.773437-17.597657 19.03125-27.453126 16.382813 3.0625 32.511719 7.535157 48.261719 13.4375l13.617187 5.113282 5.625-14.984375-13.617187-5.113281c-15.351563-5.757813-31.054688-10.167969-46.984375-13.375 6.34375-16.175782 9.800781-33.640626 9.800781-51.664063v-7.71875c0-17.320313-3.257812-34.519531-9.414062-50.640625h8.03125c18.085937 0 36.023437-5.976562 50.496093-16.832031zm-83.609375-121.878907.359375-1.800781c5.03125-25.199219 27.34375-43.488281 53.046875-43.488281 15.402344 0 29.875 6.542969 40.136719 17.929688-5.277344-1.257813-10.695313-1.929688-16.136719-1.929688-33.300781 0-62.207031 23.703125-68.742187 56.351562l-.359375 1.800782c-2.921875 14.566406-10.824219 27.289062-22.394532 36.34375l-1.351562-2.433594c-3.488281-6.277344-7.550781-12.117188-12.023438-17.550781 14.175782-11.375 23.847657-27.183594 27.464844-45.222657zm-55.152344 40.335938-28.398437 23.65625c-11.34375 9.460938-18.402344 22.757812-19.863281 37.453125l-5.417969 54.160156c-2.839844-.574219-5.734375-.894531-8.671875-.894531s-5.832031.320312-8.671875.886719l-5.417969-54.160157c-1.46875-14.695312-8.519531-27.992187-19.871094-37.453124l-28.390624-23.65625c17.488281-13.761719 39.359374-21.617188 62.351562-21.617188s44.863281 7.855469 62.351562 21.625zm-233.261718-85.625c25.703125 0 48.015625 18.289062 53.054687 43.496094l.359375 1.800781c3.609375 18.039063 13.28125 33.847656 27.457032 45.222656-4.480469 5.433594-8.535157 11.273438-12.023438 17.550781l-1.351562 2.433594c-11.570313-9.054687-19.472657-21.777344-22.394532-36.34375l-.359375-1.800781c-6.535156-32.65625-35.441406-56.359375-68.742187-56.359375-5.441406 0-10.859375.671875-16.136719 1.929688 10.261719-11.386719 24.734375-17.929688 40.136719-17.929688zm20.300781 168c-14.65625 0-29.175781-4.839844-40.902344-13.632812-25.351562-19.015626-40.488281-49.289063-40.488281-80.976563 0-10.886719 2.191406-21.589844 6.222656-31.558594 9.023438-6.289062 19.855469-9.832031 30.867188-9.832031 25.703125 0 48.015625 18.289062 53.054687 43.496094l.359375 1.800781c3.839844 19.183594 14.574219 35.808594 30.257813 47.289063l-22.929688 41.253906c-.648437 1.167968-1.214843 2.367187-1.832031 3.550781v-1.390625zm14.609375 74.359375v-7.71875c0-21.304687 5.472656-42.417969 15.816406-61.039063l32.105469-57.777343c3.902344-7.03125 8.621094-13.433594 13.933594-19.207031l29.953125 24.957031c8.113281 6.753906 13.152344 16.25 14.191406 26.753906l5.894531 58.953125c-3.109375 2.046875-6.007812 4.4375-8.535156 7.253906l-44.773437 49.753906c-6.339844 7.039063-11.113282 15.175782-14.265626 23.917969-11.535156.351563-23 1.34375-34.351562 2.992188-6.417969-15.183594-9.96875-31.710938-9.96875-48.839844zm17.574219 63.960937c7.617187-.960937 15.273437-1.65625 22.976562-2.007812-.328125 2.765625-.550781 5.558594-.550781 8.382812 0 3.992188.359375 7.960938 1.007812 11.863282-2.375 1.175781-4.769531 2.3125-7.105468 3.570312-6.222656-6.671875-11.695313-13.984375-16.328125-21.808594zm118.425781 101.679688c-15.070312 0-23.519531-8.902344-27.960938-16.296875 10.527344-.71875 20.367188-4.925781 27.960938-12.390625 7.59375 7.464844 17.433594 11.671875 27.960938 12.390625-4.441407 7.394531-12.890626 16.296875-27.960938 16.296875zm31.015625-32c-7.542969 0-14.640625-2.9375-19.976563-8.273438l-11.039062-11.039062-11.039062 11.039062c-5.335938 5.335938-12.433594 8.273438-19.976563 8.273438-8.417969 0-16.328125-3.703125-21.710937-10.167969l-14.210938-17.046875c-3.855469-4.632812-6.804688-9.875-9-15.410156 3.066406-1.304688 6.121094-2.640625 9.25-3.816406l5.503906-2.0625-5.625-14.984375-5.503906 2.0625c-2.457031.921875-4.839844 2-7.261719 3-.136719-1.628907-.425781-3.238281-.425781-4.878907 0-2.933593.28125-5.832031.726562-8.695312h15.273438v-16h-10.296875c2.28125-4.679688 5.21875-9.0625 8.769531-13.007812l44.773438-49.753907c5.28125-5.871093 12.851562-9.238281 20.753906-9.238281s15.472656 3.367188 20.761719 9.238281l44.773437 49.753907c3.542969 3.945312 6.480469 8.328124 8.769532 13.007812h-10.304688v16h15.273438c.445312 2.863281.726562 5.761719.726562 8.695312 0 1.640626-.289062 3.25-.425781 4.871094-2.421875-1-4.804688-2.070312-7.261719-3l-5.503906-2.0625-5.625 14.984375 5.503906 2.0625c3.128906 1.175781 6.183594 2.511719 9.25 3.816407-2.183594 5.535156-5.144531 10.777343-9 15.402343l-14.210938 17.054688c-5.382812 6.472656-13.292968 10.175781-21.710937 10.175781zm71.082031-47.871094c-2.335937-1.257812-4.730468-2.394531-7.105468-3.570312.648437-3.902344 1.007812-7.871094 1.007812-11.863282 0-2.824218-.222656-5.617187-.542969-8.382812 7.703125.351562 15.359375 1.046875 22.976563 2.007812-4.640625 7.824219-10.113282 15.136719-16.335938 21.808594zm-10.417968-39.921875c-3.144532-8.742187-7.925782-16.886719-14.265626-23.917969l-44.773437-49.753906c-2.527344-2.816406-5.425781-5.214844-8.535156-7.253906l5.894531-58.953125c1.046875-10.496094 6.089844-20 14.183594-26.753906l29.960937-24.957031c5.3125 5.773437 10.03125 12.183593 13.933594 19.207031l32.105469 57.777343c10.34375 18.621094 15.816406 39.734376 15.816406 61.039063v7.71875c0 17.128906-3.550781 33.65625-9.960938 48.847656-11.359374-1.648437-22.824218-2.640625-34.359374-3zm42.488281-122.375-22.929688-41.257812c15.683594-11.476563 26.417969-28.101563 30.257813-47.285157l.359375-1.800781c5.039062-25.199219 27.351562-43.496093 53.054687-43.496093 11.011719 0 21.84375 3.542968 30.859375 9.824218 4.039063 9.984375 6.230469 20.6875 6.230469 31.574219 0 31.6875-15.136719 61.960937-40.488281 80.976563-11.71875 8.792968-26.246094 13.632812-40.902344 13.632812h-14.609375v1.390625c-.617188-1.183594-1.183594-2.390625-1.832031-3.558594zm0 0"/><path d="m304 184.5h16v16h-16zm0 0"/><path d="m216 304.5h16v16h-16zm0 0"/><path d="m264 304.5h16v16h-16zm0 0"/></svg>