<svg height="490pt" viewBox="-29 0 490 490.08" width="490pt" xmlns="http://www.w3.org/2000/svg"><path d="m343.398438 170.078125-5.597657 1.28125-2.402343-10.160156c-1.359376-5.597657-3.199219-11.039063-5.679688-16.238281l5.28125-3.519532c10.640625-7.121094 17.039062-19.042968 17.039062-31.761718 0-7.601563-2.238281-14.960938-6.398437-21.199219l-9.601563-14.402344c0-12.398437 3.28125-24.316406 9.199219-34.796875 5.921875-10.480469 14.480469-19.441406 25.121094-25.761719l5.679687-3.441406 19.679688 19.683594c18.160156 18.160156 28.320312 42.71875 28.320312 68.316406l-16 16 8 16-16.878906 16.882813c-14.800781 14.800781-34.878906 23.117187-55.761718 23.117187zm0 0" fill="#f29ed0"/><path d="m97.078125 141.441406 5.28125 3.519532c-2.480469 5.199218-4.320313 10.640624-5.679687 16.238281l-2.398438 10.160156-5.601562-1.28125c-20.878907 0-40.960938-8.316406-55.757813-23.117187l-16.882813-16.882813 8-16-16-16c0-25.597656 10.160157-50.15625 28.320313-68.316406l19.679687-19.683594 5.679688 3.441406c10.640625 6.320313 19.203125 15.28125 25.121094 25.761719 5.921875 10.480469 9.199218 22.398438 9.199218 34.796875l-9.597656 14.402344c-4.160156 6.238281-6.402344 13.597656-6.402344 21.199219 0 12.71875 6.402344 24.640624 17.039063 31.761718zm0 0" fill="#f29ed0"/><g fill="#aab2bd"><path d="m345.640625 88.480469c4.160156 6.238281 6.398437 13.597656 6.398437 21.199219 0 12.71875-6.398437 24.640624-17.039062 31.761718l-5.28125 3.519532c-5.519531-12.320313-13.839844-23.199219-24.398438-31.761719l1.679688-1.121094c13.601562-9.039063 23.839844-22.476563 29.039062-38zm0 0"/><path d="m125.078125 112.078125 1.683594 1.121094c-10.5625 8.5625-18.882813 19.441406-24.402344 31.761719l-5.28125-3.519532c-10.636719-7.121094-17.039063-19.042968-17.039063-31.761718 0-7.601563 2.242188-14.960938 6.402344-21.199219l9.597656-14.402344c5.199219 15.523437 15.441407 28.960937 29.039063 38zm0 0"/><path d="m329.71875 144.960938c2.480469 5.199218 4.320312 10.640624 5.679688 16.238281l2.402343 10.160156 20.078125 85.679687c1.441406 6 2.160156 12.160157 2.160156 18.320313v42.800781c0 22.878906-9.757812 44.640625-26.878906 59.761719l-45.121094 40.15625-1.039062.160156c-.640625-4.078125-1.679688-8.160156-2.960938-12.078125l-3.277343-10c1.359375-1.519531 2.636719-3.121094 3.757812-4.878906 2.320313-3.359375 3.519531-7.359375 3.519531-11.519531 0-11.042969-5.519531-21.363281-14.71875-27.523438l-9.28125-6.160156-8.238281-31.757813-6.480469-24.558593-33.28125-127.683594-33.277343 127.683594-6.480469 24.558593-8.242188 31.757813-9.277343 6.160156c-9.203125 6.160157-14.722657 16.480469-14.722657 27.523438 0 4.160156 1.199219 8.160156 3.519532 11.519531l3.761718 4.878906-3.28125 10c-1.277343 3.917969-2.320312 8-2.960937 12.078125l-1.039063-.160156-45.117187-40.15625c-17.121094-15.121094-26.882813-36.882813-26.882813-59.761719v-42.800781c0-6.160156.722657-12.320313 2.160157-18.320313l20.082031-85.679687 2.398438-10.160156c1.359374-5.597657 3.199218-11.039063 5.679687-16.238281 5.519531-12.320313 13.839844-23.199219 24.402344-31.761719.957031-.800781 1.917969-1.597657 2.878906-2.320313 12.480469-9.359375 26.320313-16.558594 40.878906-21.4375 14.640625-4.800781 30-7.363281 45.519531-7.363281 15.519532 0 30.882813 2.5625 45.519532 7.363281 14.5625 4.878906 28.402344 12.078125 40.882812 21.4375.957032.722656 1.917969 1.519532 2.878906 2.320313 10.558594 8.5625 18.878907 19.441406 24.398438 31.761719zm0 0"/></g><path d="m268.601562 450.078125c1.117188 0 2.238282-.078125 3.359376-.316406l.078124.316406c-4.71875 18.800781-21.597656 32-40.960937 32h-30.078125c-19.359375 0-36.238281-13.199219-40.960938-32l.082032-.316406c1.117187.238281 2.238281.316406 3.359375.316406 2.960937 0 6-.71875 8.640625-2.078125l13.597656-6.800781c9.441406-4.640625 19.761719-7.121094 30.320312-7.121094 10.5625 0 20.882813 2.480469 30.320313 7.121094l13.601563 6.800781c2.640624 1.359375 5.679687 2.078125 8.640624 2.078125zm0 0" fill="#969faa"/><path d="m287 418.238281c.71875 4.082031 1.039062 8.242188 1.039062 12.402344 0 5.359375-2.160156 10.238281-5.679687 13.757813-2.800781 2.800781-6.398437 4.722656-10.398437 5.363281-1.121094.238281-2.242188.316406-3.359376.316406-2.960937 0-6-.71875-8.640624-2.078125l-13.601563-6.800781c-9.4375-4.640625-19.757813-7.121094-30.320313-7.121094-10.558593 0-20.878906 2.480469-30.320312 7.121094l-13.597656 6.800781c-2.640625 1.359375-5.679688 2.078125-8.640625 2.078125-1.121094 0-2.242188-.078125-3.359375-.316406-4-.640625-7.601563-2.5625-10.402344-5.363281-3.519531-3.519532-5.679688-8.398438-5.679688-13.757813 0-4.160156.320313-8.320313 1.039063-12.402344.640625-4.078125 1.683594-8.160156 2.960937-12.078125l3.28125-10c10.078126 8.238282 10.71875 8.558594 11.359376 8.960938 6.082031 3.199218 12.878906 4.957031 19.921874 4.957031 11.199219 0 21.839844-4.398437 29.757813-12.316406l3.679687-3.683594 3.679688 3.683594c7.921875 7.917969 18.5625 12.316406 29.761719 12.316406 7.039062 0 13.839843-1.757813 19.917969-4.957031 4.242187-2.320313 8.082031-5.28125 11.363281-8.960938l3.277343 10c1.28125 3.917969 2.320313 8 2.960938 12.078125zm0 0" fill="#838f9b"/><path d="m280.761719 396.160156c-3.28125 3.679688-7.121094 6.640625-11.363281 8.960938-6.078126 3.199218-12.878907 4.957031-19.917969 4.957031-11.199219 0-21.839844-4.398437-29.761719-12.316406l-3.679688-3.683594-3.679687 3.683594c-7.917969 7.917969-18.558594 12.316406-29.757813 12.316406-7.042968 0-13.839843-1.757813-19.921874-4.957031-.640626-.402344-1.28125-.722656-11.359376-8.960938l-3.761718-4.878906c-2.320313-3.359375-3.519532-7.359375-3.519532-11.519531 0-11.042969 5.519532-21.363281 14.722657-27.523438l9.277343-6.160156s16 16 48 16 48-16 48-16l9.28125 6.160156c9.199219 6.160157 14.71875 16.480469 14.71875 27.523438 0 4.160156-1.199218 8.160156-3.519531 11.519531-1.121093 1.757812-2.398437 3.359375-3.757812 4.878906zm0 0" fill="#838f9b"/><path d="m255.800781 314.320312-6.480469-24.558593-33.28125-127.683594-33.277343 127.683594-6.480469 24.558593-8.242188 31.757813s16 16 48 16 48-16 48-16zm0 0" fill="#e6e9ed"/><path d="m141.273438 241.089844c-1.792969 5.382812-6.808594 8.988281-12.472657 8.988281-3.511719 0-6.816406-1.367187-9.296875-3.847656l-9.808594-9.804688-11.3125 11.308594 9.808594 9.808594c5.503906 5.503906 12.824219 8.535156 20.609375 8.535156 12.566407 0 23.679688-8.007813 27.65625-19.925781l11.175781-33.535156-15.175781-5.066407zm0 0"/><path d="m120.039062 210.078125h16v16h-16zm0 0"/><path d="m312.574219 246.230469c-2.476563 2.480469-5.78125 3.847656-9.292969 3.847656-5.664062 0-10.679688-3.605469-12.472656-8.988281l-11.175782-33.539063-15.175781 5.066407 11.175781 33.535156c3.96875 11.917968 15.078126 19.925781 27.648438 19.925781 7.78125 0 15.101562-3.03125 20.605469-8.535156l9.808593-9.808594-11.3125-11.308594zm0 0"/><path d="m296.039062 210.078125h16v16h-16zm0 0"/><path d="m432.039062 98.078125c0-27.925781-10.878906-54.183594-30.632812-73.933594l-24.125-24.144531-11.058594 6.640625c-23.015625 13.800781-37.40625 38.808594-38.0625 65.574219-4.273437 12.359375-12.335937 23.144531-22.785156 30.984375-25.816406-18.75-57.421875-29.121094-89.335938-29.121094-31.910156 0-63.519531 10.371094-89.34375 29.121094-10.449218-7.847657-18.503906-18.625-22.773437-30.984375-.648437-26.765625-15.050781-51.773438-38.066406-65.574219l-11.054688-6.640625-24.128906 24.144531c-19.75 19.75-30.6328125 46.007813-30.6328125 73.933594v3.3125l14.2656255 14.265625-8 16 20.976562 20.976562c15.429688 15.421876 35.648438 24.230469 57.285156 25.238282l-18.199218 77.335937c-1.542969 6.617188-2.328126 13.386719-2.328126 20.152344v42.800781c0 25.113282 10.769532 49.085938 29.535157 65.769532l42.945312 38.175781c-.289062 2.839843-.480469 5.6875-.480469 8.558593 0 11.671876 7.367188 21.59375 17.671876 25.542969 6.945312 20.105469 25.714843 33.871094 47.3125 33.871094h30.03125c21.601562 0 40.371093-13.765625 47.3125-33.871094 10.304687-3.949219 17.671874-13.871093 17.671874-25.542969 0-2.871093-.191406-5.726562-.480468-8.566406l42.945312-38.175781c18.769532-16.675781 29.535156-40.65625 29.535156-65.761719v-42.800781c0-6.765625-.78125-13.535156-2.335937-20.160156l-18.199219-77.328125c21.640625-1.015625 41.863282-9.824219 57.289063-25.238282l20.976562-20.976562-8-16 14.269531-14.265625zm-94.632812-7.527344 1.5625 2.34375c3.320312 4.984375 5.070312 10.769531 5.070312 16.746094 0 9.253906-4.238281 17.863281-11.398437 23.558594-4.074219-7.015625-9.007813-13.503907-14.730469-19.304688 7.898438-6.488281 14.515625-14.429687 19.496094-23.34375zm-244.292969 2.351563 1.558594-2.34375c4.984375 8.90625 11.601563 16.855468 19.496094 23.351562-5.71875 5.800782-10.65625 12.289063-14.726563 19.304688-7.160156-5.710938-11.402344-14.320313-11.402344-23.574219 0-5.976563 1.753907-11.761719 5.074219-16.738281zm-54.519531 48.417968-12.824219-12.824218 8-16-17.671875-17.679688c.804688-22.433594 9.925782-43.410156 25.878906-59.367187l15.296876-15.296875.34375.199218c18.085937 10.847657 29.566406 30.367188 30.367187 51.367188l-8.191406 12.296875c-5.074219 7.617187-7.753907 16.480469-7.753907 25.625 0 15.421875 7.640626 29.734375 20.433594 38.328125-1.382812 3.726562-2.632812 7.519531-3.542968 11.421875l-.625 2.664063c-18.785157-.101563-36.417969-7.445313-49.710938-20.734376zm177.445312 196.757813c14.945313 0 26.953126-5.367187 34.953126-10.308594l3.992187 15.308594c-5.679687 4-18.511719 11-38.945313 11-20.445312 0-33.285156-7.015625-38.949218-10.988281l4-15.320313c8 4.941407 20.007812 10.308594 34.949218 10.308594zm-30.679687-26.6875 2.761719-10.582031c6.375 2.503906 16.007812 5.269531 27.917968 5.269531 11.914063 0 21.546876-2.765625 27.921876-5.269531l2.765624 10.617187c-5.34375 4.015625-16.292968 10.652344-30.6875 10.652344-14.238281 0-25.277343-6.671875-30.679687-10.6875zm30.679687-21.3125c-10.757812 0-19.207031-2.863281-23.855468-4.871094l23.855468-91.429687 23.855469 91.429687c-4.628906 2.007813-13.078125 4.871094-23.855469 4.871094zm-52.832031 68.832031 4.417969-2.941406c7.71875 5.429688 23.894531 14.109375 48.414062 14.109375 24.519532 0 40.695313-8.679687 48.417969-14.109375l4.414063 2.941406c6.992187 4.675782 11.167968 12.464844 11.167968 20.875 0 2.527344-.742187 4.992188-2.152343 7.101563-6.34375 9.511719-16.957031 15.191406-28.390625 15.191406-9.121094 0-17.6875-3.550781-24.144532-10l-9.3125-9.300781-9.320312 9.300781c-6.4375 6.449219-15.015625 10-24.132812 10-11.441407 0-22.058594-5.679687-28.394532-15.183594-1.40625-2.117187-2.152344-4.582031-2.152344-7.109375 0-8.410156 4.175782-16.199218 11.167969-20.875zm67.847657 115.167969h-30.03125c-12.542969 0-23.679688-6.839844-29.65625-17.316406 1.480468-.449219 2.96875-.882813 4.351562-1.570313l13.585938-6.800781c16.535156-8.261719 36.941406-8.261719 53.472656 0l13.597656 6.808594c1.378906.6875 2.863281 1.113281 4.335938 1.5625-5.976563 10.476562-17.109376 17.316406-29.65625 17.316406zm37.570312-32c-1.761719 0-3.527344-.414063-5.105469-1.199219l-13.589843-6.800781c-20.945313-10.46875-46.824219-10.46875-67.777344 0l-13.578125 6.792969c-1.582031.800781-3.351563 1.207031-5.117188 1.207031-6.296875 0-11.417969-5.117187-11.417969-11.414063 0-7.054687 1.152344-14.015624 3.265626-20.734374 8.007812 5.207031 17.414062 8.148437 27.28125 8.148437 12.46875 0 24.246093-4.519531 33.453124-12.796875 9.207032 8.269531 20.984376 12.796875 33.457032 12.796875 9.863281 0 19.28125-2.941406 27.289062-8.148437 2.101563 6.71875 3.261719 13.679687 3.261719 20.734374-.007813 6.296876-5.125 11.414063-11.421875 11.414063zm83.414062-166.71875v42.800781c0 20.542969-8.808593 40.160156-24.167968 53.816406l-36.09375 32.085938c-.050782-.140625-.082032-.292969-.128906-.4375l-1.953126-5.863281c.496094-.671875 1.046876-1.289063 1.511719-1.992188 3.160157-4.769531 4.832031-10.289062 4.832031-15.984375 0-13.769531-6.839843-26.546875-18.296874-34.175781l-6.726563-4.449219-54.976563-210.777344-54.976562 210.730469-6.734375 4.488281c-11.449219 7.636719-18.289063 20.414063-18.289063 34.183594 0 5.695313 1.671876 11.214844 4.832032 15.976563.464844.695312 1.015625 1.316406 1.511718 1.980469l-1.949218 5.867187c-.050782.144531-.082032.292969-.128906.4375l-36.097657-32.085937c-15.359375-13.648438-24.167969-33.257813-24.167969-53.800782v-42.800781c0-5.527344.648438-11.085937 1.914063-16.488281l22.542969-95.824219c4.296875-18.253906 14.929687-34.511719 29.945312-45.78125 23.390625-17.53125 52.375-27.1875 81.597656-27.1875 29.226563 0 58.207032 9.65625 81.601563 27.195313 15.007813 11.261718 25.648437 27.519531 29.945313 45.789062l22.542968 95.808594c1.261719 5.402344 1.910156 10.960937 1.910156 16.488281zm54.265626-146.855469-12.824219 12.824219c-13.289063 13.289063-30.929688 20.632813-49.703125 20.734375l-.625-2.65625c-.921875-3.902344-2.160156-7.695312-3.550782-11.429688 12.796876-8.59375 20.4375-22.90625 20.4375-38.335937 0-9.152344-2.679687-18.007813-7.757812-25.617187l-8.191406-12.296876c.796875-21 12.277344-40.511718 30.367187-51.367187l.34375-.199219 15.296875 15.296875c15.957032 15.957031 25.078125 36.933594 25.878906 59.367188l-17.671874 17.679687zm0 0"/><path d="m248.039062 378.078125h16v16h-16zm0 0"/><path d="m168.039062 378.078125h16v16h-16zm0 0"/></svg>