<svg height="496pt" viewBox="0 -36 496 496" width="496pt" xmlns="http://www.w3.org/2000/svg"><path d="m136.640625 87.839844c1.039063 6.480468 3.4375 12.480468 6.71875 17.679687l-8.078125 20.320313c-1.441406 3.679687-2.722656 7.359375-3.679688 11.121094l-3.601562-.960938c-15.601562 0-30.71875-5.039062-43.199219-14.398438l-12.800781-9.601562 12.800781-9.601562c12.480469-9.359376 27.597657-14.398438 43.199219-14.398438h8zm0 0" fill="#aab2bd"/><path d="m165.28125 35.761719c-9.839844 4.238281-18.082031 11.597656-23.28125 20.957031l-1.199219-.71875c-10.402343-10.078125-23.121093-16-36.800781-16-35.359375 0-64 39.359375-64 88s28.640625 88 64 88h32l-2.160156 8.71875c-1.679688 6.800781-5.679688 12.640625-10.960938 16.800781-5.277344 4.082031-11.839844 6.480469-18.878906 6.480469-53.039062 0-96-53.761719-96-120s42.960938-120 96-120c23.359375 0 44.800781 10.398438 61.28125 27.761719zm0 0" fill="#e6e9ed"/><path d="m368 88c15.601562 0 30.71875 5.039062 43.199219 14.398438l12.800781 9.601562-12.800781 9.601562c-12.480469 9.359376-27.597657 14.398438-43.199219 14.398438l-3.601562.960938c-.957032-3.761719-2.238282-7.441407-3.679688-11.121094l-8.078125-20.320313c3.28125-5.199219 5.679687-11.199219 6.71875-17.679687l.640625.160156zm0 0" fill="#aab2bd"/><path d="m392 40c-13.679688 0-26.398438 5.921875-36.800781 16l-1.199219.71875c-5.199219-9.359375-13.441406-16.71875-23.28125-20.957031 16.480469-17.363281 37.921875-27.761719 61.28125-27.761719 53.039062 0 96 53.761719 96 120s-42.960938 120-96 120c-7.039062 0-13.601562-2.398438-18.878906-6.480469-5.28125-4.160156-9.28125-10-10.960938-16.800781l-2.160156-8.71875h32c35.359375 0 64-39.359375 64-88s-28.640625-88-64-88zm0 0" fill="#e6e9ed"/><path d="m268.71875 376c6.960938 0 13.441406-2 18.882812-5.441406l-2.320312 13.839844c-1.519531 9.121093-6.242188 17.042968-12.882812 22.640624-6.636719 5.601563-15.117188 8.960938-24.398438 8.960938-18.480469 0-34.238281-13.359375-37.28125-31.601562l-2.320312-13.839844c5.441406 3.441406 11.921874 5.441406 18.882812 5.441406zm0 0" fill="#aab2bd"/><path d="m268.71875 376h-41.4375c-6.960938 0-13.441406-2-18.882812-5.441406-9.839844-6.238282-16.398438-17.277344-16.398438-29.839844 0-1.597656.078125-3.117188.398438-4.640625.800781-6.558594 3.523437-12.71875 7.761718-17.917969l21.601563-25.839844c.957031-1.199218 2-2.242187 3.117187-3.28125 6.242188-5.757812 14.480469-9.039062 23.121094-9.039062s16.878906 3.28125 23.121094 9.039062c1.117187 1.039063 2.160156 2.082032 3.117187 3.28125l21.601563 25.839844c4.238281 5.199219 6.960937 11.359375 7.761718 17.917969.320313 1.523437.398438 3.042969.398438 4.640625 0 9.761719-3.921875 18.5625-10.320312 24.960938-1.839844 1.839843-3.839844 3.441406-6.078126 4.878906-5.441406 3.441406-11.921874 5.441406-18.882812 5.441406zm0 0" fill="#e6e9ed"/><path d="m272 331.28125c0 3.039062-1.199219 5.917969-3.28125 8l-7.039062 7.039062c-3.679688 3.679688-8.558594 5.679688-13.679688 5.679688s-10-2-13.679688-5.679688l-7.039062-7.039062c-2.082031-2.082031-3.28125-4.960938-3.28125-8 0-6.242188 5.039062-11.28125 11.28125-11.28125h25.4375c6.242188 0 11.28125 5.039062 11.28125 11.28125zm0 0" fill="#656d78"/><path d="m355.359375 214.078125-51.359375 121.921875-.398438.078125c-.800781-6.558594-3.523437-12.71875-7.761718-17.917969l-21.601563-25.839844c-.957031-1.199218-2-2.242187-3.117187-3.28125l.878906-1.039062v-13.441406c0-33.4375 5.441406-66.796875 16-98.558594l-.078125-.71875c9.199219-1.441406 17.519531-5.601562 24.078125-11.601562 9.839844-8.71875 16-21.519532 16-35.679688 0-.960938-.078125-1.839844-.160156-2.71875 10.320312-3.601562 19.039062-10.640625 24.800781-19.761719l8.078125 20.320313c1.441406 3.679687 2.722656 7.359375 3.679688 11.121094 2.402343 8.640624 3.601562 17.597656 3.601562 26.558593 0 13.519531-2.71875 26.878907-7.921875 39.359375zm0 0" fill="#aab2bd"/><path d="m208 176c10.558594 31.761719 16 65.121094 16 98.558594v13.441406l.878906 1.039062c-1.117187 1.039063-2.160156 2.082032-3.117187 3.28125l-21.601563 25.839844c-4.238281 5.199219-6.960937 11.359375-7.761718 17.917969l-.398438-.078125-51.359375-121.921875-4.71875-11.199219c-5.203125-12.480468-7.921875-25.839844-7.921875-39.359375 0-8.960937 1.199219-17.917969 3.601562-26.558593.957032-3.761719 2.238282-7.441407 3.679688-11.121094l8.078125-20.320313c5.761719 9.121094 14.480469 16.160157 24.800781 19.761719-.082031.878906-.160156 1.757812-.160156 2.71875 0 14.160156 6.160156 26.960938 16 35.679688 6.558594 6 14.878906 10.160156 24.078125 11.601562zm0 0" fill="#aab2bd"/><path d="m248 280c-8.640625 0-16.878906 3.28125-23.121094 9.039062l-.878906-1.039062v-13.441406c0-33.4375-5.441406-66.796875-16-98.558594l.078125-.71875c2.5625.480469 5.203125.71875 7.921875.71875 12.320312 0 23.519531-4.640625 32-12.320312 8.480469 7.679687 19.679688 12.320312 32 12.320312 2.71875 0 5.359375-.238281 7.921875-.71875l.078125.71875c-10.558594 31.761719-16 65.121094-16 98.558594v13.441406l-.878906 1.039062c-6.242188-5.757812-14.480469-9.039062-23.121094-9.039062zm0 0" fill="#ccd1d9"/><path d="m204.160156 36.480469c7.441406-16.71875 24.320313-28.480469 43.839844-28.480469s36.398438 11.761719 43.839844 28.480469c6.160156-2.878907 12.960937-4.480469 20.160156-4.480469 6.640625 0 12.960938 1.359375 18.71875 3.761719 9.839844 4.238281 18.082031 11.597656 23.28125 20.957031 3.839844 6.882812 6 14.800781 6 23.28125 0 2.640625-.238281 5.28125-.640625 7.839844-1.039063 6.480468-3.4375 12.480468-6.71875 17.679687-5.761719 9.121094-14.480469 16.160157-24.800781 19.761719.082031.878906.160156 1.757812.160156 2.71875 0 14.160156-6.160156 26.960938-16 35.679688-6.558594 6-14.878906 10.160156-24.078125 11.601562-2.5625.480469-5.203125.71875-7.921875.71875-12.320312 0-23.519531-4.640625-32-12.320312-8.480469 7.679687-19.679688 12.320312-32 12.320312-2.71875 0-5.359375-.238281-7.921875-.71875-9.199219-1.441406-17.519531-5.601562-24.078125-11.601562-9.839844-8.71875-16-21.519532-16-35.679688 0-.960938.078125-1.839844.160156-2.71875-10.320312-3.601562-19.039062-10.640625-24.800781-19.761719-3.28125-5.199219-5.679687-11.199219-6.71875-17.679687-.402344-2.558594-.640625-5.199219-.640625-7.839844 0-8.480469 2.160156-16.398438 6-23.28125 5.199219-9.359375 13.441406-16.71875 23.28125-20.957031 5.757812-2.402344 12.078125-3.761719 18.71875-3.761719 7.199219 0 14 1.601562 20.160156 4.480469zm0 0" fill="#e6e9ed"/><path d="m260.6875 312h-25.375c-10.648438 0-19.3125 8.664062-19.3125 19.3125 0 5.09375 2.0625 10.070312 5.65625 13.65625l7.023438 7.03125c5.160156 5.160156 12.015624 8 19.320312 8s14.160156-2.839844 19.3125-8l7.023438-7.023438c3.601562-3.59375 5.664062-8.570312 5.664062-13.664062 0-10.648438-8.664062-19.3125-19.3125-19.3125zm2.34375 21.65625-7.03125 7.03125c-4.265625 4.28125-11.71875 4.28125-16 0l-7.03125-7.039062c-.617188-.609376-.96875-1.464844-.96875-2.335938 0-1.824219 1.488281-3.3125 3.3125-3.3125h25.375c1.824219 0 3.3125 1.488281 3.3125 3.3125 0 .871094-.351562 1.726562-.96875 2.34375zm0 0"/><path d="m392 0c-23.097656 0-45.28125 9.375-63.382812 26.519531-5.25-1.640625-10.832032-2.519531-16.617188-2.519531-5.617188 0-11.113281.902344-16.457031 2.558594-9.886719-15.910156-27.472657-26.558594-47.542969-26.558594s-37.65625 10.648438-47.542969 26.558594c-5.34375-1.65625-10.839843-2.558594-16.457031-2.558594-5.785156 0-11.367188.878906-16.617188 2.519531-18.101562-17.144531-40.285156-26.519531-63.382812-26.519531-57.34375 0-104 57.425781-104 128s46.65625 128 104 128c15.785156 0 29.6875-9.503906 35.65625-23.703125l44.574219 105.863281c-.054688.871094-.230469 1.71875-.230469 2.601563 0 14 6.71875 26.4375 17.070312 34.34375l1.777344 10.648437c3.6875 22.15625 22.679688 38.246094 45.152344 38.246094s41.464844-16.089844 45.152344-38.246094l1.777344-10.648437c10.351562-7.914063 17.070312-20.34375 17.070312-34.34375 0-.875-.175781-1.730469-.230469-2.601563l44.574219-105.863281c5.96875 14.199219 19.871094 23.703125 35.65625 23.703125 57.34375 0 104-57.425781 104-128s-46.65625-128-104-128zm-197.992188 41.34375c-1.273437 4.679688-2.007812 9.578125-2.007812 14.65625h16c0-22.054688 17.945312-40 40-40s40 17.945312 40 40h16c0-5.078125-.734375-9.976562-2.007812-14.65625 3.265624-.855469 6.609374-1.34375 10.007812-1.34375 22.054688 0 40 17.945312 40 40 0 16.9375-10.769531 32.097656-26.785156 37.710938l-5.703125 1.992187.417969 6.832031c.03125.488282.070312.96875.070312 1.464844 0 22.054688-17.945312 40-40 40-9.824219 0-19.296875-3.640625-26.65625-10.246094l-5.34375-4.800781-5.34375 4.800781c-7.359375 6.605469-16.832031 10.246094-26.65625 10.246094-22.054688 0-40-17.945312-40-40 0-.496094.039062-.976562.070312-1.464844l.417969-6.832031-5.703125-1.992187c-16.015625-5.613282-26.785156-20.773438-26.785156-37.710938 0-22.054688 17.945312-40 40-40 3.398438 0 6.742188.488281 10.007812 1.34375zm173.992188 54.65625c13.753906 0 27.390625 4.542969 38.398438 12.800781l4.273437 3.199219-4.273437 3.199219c-10.496094 7.871093-23.398438 12.25-36.511719 12.640625-.566407-1.648438-1.0625-3.320313-1.710938-4.945313l-6.761719-16.894531c1.691407-3.199219 3.179688-6.511719 4.226563-10.007812h2.359375zm-104 178.59375v.613281c-5.015625-2.054687-10.425781-3.207031-16-3.207031s-10.984375 1.152344-16 3.207031v-.613281c0-30.832031-4.457031-61.320312-13.199219-90.808594 10.488281-.527344 20.605469-3.875 29.199219-9.890625 8.59375 6.015625 18.710938 9.351563 29.199219 9.890625-8.742188 29.488282-13.199219 59.976563-13.199219 90.808594zm-136.175781-151.699219c-.648438 1.632813-1.144531 3.296875-1.710938 4.945313-13.105469-.398438-26.007812-4.777344-36.503906-12.640625l-4.273437-3.199219 4.273437-3.199219c11-8.25 24.648437-12.800781 38.398437-12.800781h2.359376c1.046874 3.496094 2.535156 6.808594 4.226562 10.007812zm-23.824219 117.105469c-48.519531 0-88-50.238281-88-112s39.480469-112 88-112c17.097656 0 33.671875 6.449219 47.871094 18.207031-4.34375 3.058594-8.238282 6.703125-11.550782 10.847657-10.96875-8.535157-23.375-13.054688-36.320312-13.054688-39.695312 0-72 43.0625-72 96s32.304688 96 72 96h21.71875c-2.933594 9.488281-11.695312 16-21.71875 16zm0-32c-30.878906 0-56-35.886719-56-80s25.121094-80 56-80c9.929688 0 19.511719 3.96875 28.070312 11.144531-2.597656 6.457031-4.070312 13.480469-4.070312 20.855469-17.191406 0-34.238281 5.679688-48 16l-21.335938 16 21.335938 16c12.113281 9.089844 26.769531 14.558594 41.832031 15.742188-1.191406 6.496093-1.832031 13.105468-1.832031 19.777343 0 14.65625 2.878906 28.9375 8.566406 42.449219l.859375 2.03125zm39.320312-8.230469c-4.855468-11.546875-7.320312-23.738281-7.320312-36.25 0-11.933593 2.246094-23.597656 6.671875-34.6875l3.199219-7.984375c4.167968 3.886719 8.898437 7.222656 14.183594 9.726563.648437 14.1875 6.632812 26.96875 15.945312 36.496093v24.929688h16v-13.472656c3.03125 1.449218 6.199219 2.625 9.503906 3.511718 9.585938 29.960938 14.496094 61.074219 14.496094 92.554688v12.148438c-.121094.144531-.265625.273437-.382812.417968l-21.59375 25.910156c-.703126.839844-1.230469 1.792969-1.863282 2.683594zm104.679688 208.230469c-14.617188 0-26.960938-10.457031-29.367188-24.863281 2.78125.558593 5.664063.863281 8.605469.863281h41.515625c2.949219 0 5.820313-.304688 8.605469-.863281-2.398437 14.40625-14.742187 24.863281-29.359375 24.863281zm20.761719-40h-41.515625c-15.023438 0-27.246094-12.214844-27.246094-27.238281 0-6.363281 2.238281-12.554688 6.3125-17.441407l21.589844-25.914062c4.984375-5.972656 12.304687-9.40625 20.097656-9.40625s15.113281 3.433594 20.097656 9.414062l21.582032 25.898438c4.082031 4.886719 6.320312 11.085938 6.320312 17.449219 0 15.023437-12.222656 27.238281-27.238281 27.238281zm33.214843-54.929688-21.585937-25.894531c-.117187-.144531-.261719-.273437-.390625-.414062v-12.160157c0-31.488281 4.910156-62.59375 14.496094-92.554687 3.296875-.886719 6.472656-2.0625 9.503906-3.511719v13.464844h16v-24.921875c9.3125-9.527344 15.296875-22.308594 15.945312-36.492187 5.285157-2.507813 10.015626-5.84375 14.183594-9.730469l3.191406 7.984375c4.433594 11.082031 6.679688 22.746094 6.679688 34.679687 0 12.503907-2.464844 24.703125-7.320312 36.242188l-48.839844 116c-.632813-.898438-1.160156-1.851563-1.863282-2.691407zm65.457032-107.101562c5.6875-13.503906 8.566406-27.792969 8.566406-42.449219 0-6.679687-.640625-13.28125-1.832031-19.777343 15.0625-1.183594 29.71875-6.652344 41.832031-15.742188l21.335938-16-21.335938-16c-13.761719-10.320312-30.808594-16-48-16 0-7.375-1.472656-14.398438-4.070312-20.855469 8.558593-7.175781 18.140624-11.144531 28.070312-11.144531 30.878906 0 56 35.886719 56 80s-25.121094 80-56 80h-25.425781zm24.566406 34.03125c-10.023438 0-18.785156-6.511719-21.71875-16h21.71875c39.695312 0 72-43.0625 72-96s-32.304688-96-72-96c-12.945312 0-25.351562 4.519531-36.3125 13.054688-3.320312-4.132813-7.207031-7.789063-11.550781-10.847657 14.191406-11.757812 30.765625-18.207031 47.863281-18.207031 48.519531 0 88 50.238281 88 112s-39.480469 112-88 112zm0 0"/></svg>