<svg height="490pt" viewBox="-25 0 490 490" width="490pt" xmlns="http://www.w3.org/2000/svg"><path d="m413.71875 32.960938 3.761719 38.71875 1.039062 6.960937c1.679688 11.519531 1.359375 23.199219-.960937 34.558594-3.039063 15.039062-9.4375 29.121093-18.636719 41.359375l-10.242187 13.441406-3.839844 1.28125c-3.679688-11.121094-8.640625-21.601562-14.640625-31.441406-11.839844-19.199219-27.679688-35.601563-46.398438-48l1.199219-1.839844 13.601562-6.800781c22.878907-11.4375 44.320313-25.4375 64-41.839844 2.796876-2.320313 5.839844-4.480469 8.957032-6.320313zm0 0" fill="#ffc729"/><path d="m413.71875 32.960938-2.160156.078124c-3.117188 1.839844-6.160156 4-8.957032 6.320313-19.679687 16.402344-41.121093 30.402344-64 41.839844l-13.601562 6.800781-1.199219 1.839844c-10.160156-6.71875-21.121093-12.320313-32.722656-16.558594l.480469-1.28125 13.921875-6.878906c23.039062-11.359375 44.640625-25.359375 64.480469-41.679688 12.078124-10 27.277343-15.441406 42.960937-15.441406 0 8.320312.238281 16.640625.796875 24.960938zm0 0" fill="#fcd770"/><path d="m100.519531 81.199219 13.601563 6.800781 1.199218 1.839844c-20.480468 13.601562-37.519531 31.921875-49.601562 53.441406-4.558594 8.238281-8.398438 16.957031-11.4375 26l-3.839844-1.28125-10.242187-13.441406c-9.199219-12.238282-15.597657-26.320313-18.640625-41.359375-2.320313-11.359375-2.636719-23.039063-.957032-34.558594l1.039063-6.960937 3.757813-38.71875 2.160156.078124c3.121094 1.839844 6.160156 4 8.960937 6.320313 19.679688 16.402344 41.121094 30.402344 64 41.839844zm0 0" fill="#ffc729"/><path d="m133.640625 65.121094 13.917969 6.878906.480468 1.28125c-11.597656 4.238281-22.640624 9.839844-32.71875 16.558594l-1.199218-1.839844-13.601563-6.800781c-22.878906-11.4375-44.320312-25.4375-64-41.839844-2.800781-2.320313-5.839843-4.480469-8.960937-6.320313l-2.160156-.078124c.5625-8.320313.800781-16.640626.800781-24.960938 15.679687 0 30.878906 5.441406 42.960937 15.441406 19.839844 16.320313 41.441406 30.320313 64.480469 41.679688zm0 0" fill="#fcd770"/><path d="m387.558594 296 40 16-3.117188-12.398438c-3.203125-13.042968-8.402344-25.441406-15.28125-36.882812-8.960937-14.957031-14.398437-31.757812-16-49.117188l-.800781-8.882812c-1.121094-12.320312-3.679687-24.160156-7.519531-35.4375-3.679688-11.121094-8.640625-21.601562-14.640625-31.441406-11.839844-19.199219-27.679688-35.601563-46.398438-48-10.160156-6.71875-21.121093-12.320313-32.722656-16.558594-8.878906-3.203125-18.078125-5.679688-27.597656-7.203125-14.878907-2.476563-30.082031 0-43.921875 5.921875-10.238282-4.398438-21.199219-6.878906-32.238282-6.878906-3.921874 0-7.839843.320312-11.679687.957031-9.519531 1.523437-18.71875 4-27.601563 7.203125-11.597656 4.238281-22.640624 9.839844-32.71875 16.558594-20.480468 13.601562-37.519531 31.921875-49.601562 53.441406-4.558594 8.238281-8.398438 16.957031-11.4375 26-3.839844 11.277344-6.402344 23.117188-7.519531 35.4375l-.800781 8.882812c-.5625 6.160157-1.601563 12.320313-3.199219 18.238282-2.722657 10.878906-7.042969 21.28125-12.800781 30.878906-6.882813 11.441406-12.082032 23.839844-15.28125 36.882812l-3.121094 12.398438 40-16-1.679688 3.359375c-9.4375 18.878906-14.320312 39.601563-14.320312 60.640625l24-16v11.121094c0 18.878906 5.601562 37.199218 16 52.878906l8-16 .800781 1.679688c10.082031 20.082031 23.28125 38.398437 39.199219 54.320312l8-32 11.519531 15.28125c8.082031 10.796875 19.601563 18.480469 32.722656 21.757812 7.757813 2 15.039063 5.441407 21.4375 10.242188l22.320313 16.71875 22.320312-16.71875c6.402344-4.800781 13.679688-8.242188 21.441406-10.242188 13.121094-3.277343 24.640626-10.960937 32.71875-21.757812l11.519532-15.28125 8 32c15.921875-15.921875 29.121094-34.238281 39.203125-54.320312l.796875-1.679688 8 16c10.402344-15.679688 16-34 16-52.878906v-11.121094l24 16c0-21.039062-4.878906-41.761719-14.320313-60.640625zm0 0" fill="#fcd770"/><path d="m275.558594 400s-8 32-56 32-56-32-56-32v-.398438c1.921875.238282 3.761718.398438 5.679687.398438 16.160157 0 30.882813-9.121094 38.082031-23.601562l4.238282-8.398438.242187-.878906c2.558594.558594 5.121094.878906 7.757813.878906 2.640625 0 5.203125-.320312 7.761718-.878906l.238282.878906 4.242187 8.398438c7.199219 14.480468 21.917969 23.601562 38.078125 23.601562 1.921875 0 3.761719-.160156 5.679688-.398438zm0 0" fill="#ffc729"/><path d="m332.921875 282.800781c4.316406 10.398438 6.636719 21.679688 6.636719 33.121094 0 27.679687-13.359375 53.597656-35.917969 69.757813l-8.960937 6.398437c-5.679688 4-12.238282 6.640625-19.121094 7.523437-1.917969.238282-3.757813.398438-5.679688.398438-16.160156 0-30.878906-9.121094-38.078125-23.601562l-4.242187-8.398438-.238282-.878906c7.121094-1.761719 13.601563-5.761719 18.238282-11.601563l16.800781-21.039062c3.359375-4.160157 5.199219-9.441407 5.199219-14.800781 0-13.039063-10.636719-23.679688-23.679688-23.679688h-.320312v-35.28125c0-23.839844 5.441406-47.359375 16-68.71875.082031 5.28125 2 10.480469 5.441406 14.558594l49.039062 48.242187c8.160157 8.078125 14.5625 17.597657 18.882813 28zm0 0" fill="#ffeaa7"/><path d="m207.320312 376.398438c-7.199218 14.480468-21.921874 23.601562-38.082031 23.601562-1.917969 0-3.757812-.160156-5.679687-.398438-6.878906-.882812-13.4375-3.523437-19.117188-7.523437l-8.960937-6.398437c-22.558594-16.160157-35.921875-42.078126-35.921875-69.757813 0-11.441406 2.320312-22.722656 6.640625-33.121094 1.039062-2.640625 2.320312-5.121093 3.601562-7.601562 4-7.4375 9.121094-14.320313 15.277344-20.398438l49.042969-48.242187c3.4375-4.078125 5.359375-9.277344 5.4375-14.558594 10.5625 21.359375 16 44.878906 16 68.71875v35.28125h-.320313c-6.558593 0-12.476562 2.640625-16.71875 6.960938-4.320312 4.238281-6.960937 10.160156-6.960937 16.71875 0 5.359374 1.839844 10.640624 5.203125 14.800781l16.796875 21.039062c4.640625 5.839844 11.121094 9.839844 18.242187 11.601563l-.242187.878906zm0 0" fill="#ffeaa7"/><g fill="#b27946"><path d="m267.558594 319.679688c0 5.359374-1.839844 10.640624-5.199219 14.800781l-16.800781 21.039062c-4.636719 5.839844-11.117188 9.839844-18.238282 11.601563-2.558593.558594-5.121093.878906-7.761718.878906-2.636719 0-5.199219-.320312-7.757813-.878906-7.121093-1.761719-13.601562-5.761719-18.242187-11.601563l-16.796875-21.039062c-3.363281-4.160157-5.203125-9.441407-5.203125-14.800781 0-6.558594 2.640625-12.480469 6.960937-16.71875 4.242188-4.320313 10.160157-6.960938 16.71875-6.960938h48.640625c13.042969 0 23.679688 10.640625 23.679688 23.679688zm0 0"/><path d="m163.078125 169.039062-5.917969 11.761719c-2.960937 5.917969-7.441406 10.71875-12.800781 14-5.4375 3.359375-11.679687 5.199219-18.238281 5.199219-11.601563 0-22.402344-5.761719-28.882813-15.441406l-5.679687-8.558594 13.441406-13.441406c7.121094 3.601562 15.199219 5.441406 23.441406 5.441406h27.597656c2.480469 0 4.800782.398438 7.039063 1.039062zm0 0"/><path d="m347.558594 176-5.679688 8.558594c-6.480468 9.679687-17.277344 15.441406-28.878906 15.441406-6.558594 0-12.800781-1.839844-18.238281-5.199219-5.363281-3.28125-9.839844-8.082031-12.800781-14l-5.921876-11.761719c2.242188-.640624 4.5625-1.039062 7.039063-1.039062h27.601563c8.242187 0 16.320312-1.839844 23.441406-5.441406zm0 0"/></g><path d="m439.113281 325.238281-6.90625-27.605469c-3.429687-13.746093-8.863281-26.871093-16.167969-39.046874-8.296874-13.832032-13.453124-29.625-14.910156-45.675782l-.808594-8.894531c-1-11.007813-3.214843-21.65625-6.289062-31.9375l1 .761719 10.226562-13.488282c9.917969-13.085937 16.871094-28.496093 20.125-44.550781 2.496094-12.3125 2.839844-24.863281 1.050782-37.320312l-1.007813-6.945313c-2.976562-20.65625-4.488281-41.695312-4.488281-62.535156v-8h-8c-17.511719 0-34.59375 6.136719-48.097656 17.265625-19.3125 15.894531-40.480469 29.582031-62.902344 40.679687l-12.707031 6.277344c-7.910157-2.597656-16.0625-4.695312-24.488281-6.078125-14.742188-2.402343-30.316407-.59375-45.191407 5.207031-14.949219-5.816406-30.496093-7.617187-45.175781-5.199218-8.414062 1.382812-16.566406 3.472656-24.480469 6.070312l-12.710937-6.277344c-22.429688-11.097656-43.589844-24.785156-62.902344-40.679687-13.503906-11.128906-30.578125-17.265625-48.097656-17.265625h-8v8c0 20.839844-1.511719 41.878906-4.496094 62.519531l-1.015625 6.960938c-1.792969 12.449219-1.441406 25 1.054687 37.3125 3.25 16.0625 10.203126 31.472656 20.128907 44.558593l10.222656 13.480469 1-.761719c-3.078125 10.28125-5.285156 20.9375-6.285156 31.953126l-.808594 8.878906c-1.464844 16.058594-6.617187 31.851562-14.914063 45.691406-7.292968 12.167969-12.734374 25.292969-16.167968 39.03125l-6.902344 27.613281 36.289062-14.519531c-5.738281 15.761719-8.730468 32.527344-8.730468 49.28125v14.945312l24.074218-16.042968c.6875 19.121094 6.625 37.546875 17.269532 53.53125l7.648437 11.46875 7.25-14.503906c9.40625 16.152343 20.832031 30.992187 34.101563 44.257812l9.992187 9.992188 7.351563-29.410157 1.394531 1.859375c9.167969 12.230469 22.382813 21.015625 37.222656 24.71875 6.769531 1.695313 13.023438 4.671875 18.59375 8.847656l27.101563 20.335938 27.113281-20.328125c5.558594-4.175781 11.824219-7.160156 18.585937-8.847656 14.839844-3.703125 28.0625-12.488281 37.214844-24.710938l1.398438-1.867187 7.351562 29.410156 9.992188-9.992188c13.265625-13.265624 24.695312-28.113281 34.105468-44.257812l7.246094 14.503906 7.648438-11.46875c10.648437-15.984375 16.585937-34.417968 17.273437-53.53125l24.070313 16.035156v-14.945312c0-16.753906-2.992188-33.519531-8.734375-49.28125zm-29.410156-213.613281c-2.773437 13.726562-8.71875 26.878906-17.183594 38.0625l-4.414062 5.816406c-10.867188-25.75-28.050781-48.191406-49.839844-65.183594l3.910156-1.953124c22.984375-11.496094 44.648438-25.640626 64.449219-42.007813.75 8.855469 1.71875 17.695313 2.984375 26.457031l1 6.945313c1.519531 10.628906 1.222656 21.351562-.90625 31.863281zm-34.6875-82.015625c8.601563-7.089844 19.03125-11.601563 30-13.082031.074219 3.625.390625 7.25.542969 10.878906-2.816406 1.769531-5.550782 3.683594-8.109375 5.808594-19.136719 15.953125-40.144531 29.6875-62.441407 40.832031l-11.863281 5.9375c-4.558593-2.792969-9.273437-5.351563-14.121093-7.695313 23.535156-11.632812 45.738281-25.992187 65.992187-42.679687zm-310.910156 0c20.246093 16.6875 42.453125 31.046875 65.984375 42.679687-4.851563 2.34375-9.5625 4.902344-14.121094 7.695313l-11.871094-5.9375c-22.296875-11.152344-43.304687-24.878906-62.441406-40.832031-2.542969-2.117188-5.28125-4.039063-8.097656-5.800782.160156-3.628906.480468-7.253906.546875-10.878906 10.964843 1.472656 21.398437 5.984375 30 13.074219zm-17.496094 120.085937c-8.472656-11.183593-14.417969-24.34375-17.183594-38.070312-2.136719-10.511719-2.433593-21.234375-.90625-31.847656l1.007813-6.960938c1.265625-8.761718 2.234375-17.59375 2.984375-26.449218 19.800781 16.359374 41.457031 30.503906 64.449219 42l3.910156 1.960937c-21.792969 16.992187-38.976563 39.433594-49.839844 65.183594zm324.949219 179.359376v26.105468c0 12.398438-2.605469 24.519532-7.621094 35.695313l-8.378906-16.742188-7.972656 15.949219c-7.523438 15.058594-16.859376 29.035156-27.832032 41.707031l-8.496094-34.007812-21.578124 28.75c-6.960938 9.296875-17.007813 15.976562-28.289063 18.800781-8.847656 2.199219-17.03125 6.101562-24.3125 11.566406l-17.519531 13.121094-17.503906-13.128906c-7.285157-5.472656-15.46875-9.367188-24.320313-11.566406-11.277344-2.824219-21.328125-9.503907-28.292969-18.808594l-21.570312-28.742188-8.496094 34.007813c-10.976562-12.671875-20.3125-26.648438-27.832031-41.707031l-7.984375-15.941407-8.375 16.742188c-5.015625-11.175781-7.625-23.304688-7.625-35.695313v-26.105468l-23.03125 15.351562c1.785156-14.390625 6.015625-28.496094 12.496094-41.453125l11.097656-22.191406-44.96875 17.980469c3.070312-11.199219 7.648437-21.925782 13.640625-31.917969 3.941406-6.566407 7.101562-13.585938 9.765625-20.792969 12.128906 11.425781 26.679687 20.296875 42.472656 25.554688l5.066406-15.171876c-14.523437-4.839843-27.929687-13.125-38.769531-23.957031l-3.632813-3.632812c1.015626-4.785157 1.792969-9.609375 2.242188-14.464844l.71875-7.953125 5.367188 5.371094c12.578124 12.582031 28.152343 22.199218 45.015624 27.824218l5.066407-15.167968c-14.519531-4.839844-27.929688-13.128906-38.769531-23.960938l-13.566407-13.570312c12.855469-57.871094 59.566407-103.132813 119.207031-112.933594 12.679688-2.097656 26.320313-.214844 39.625 5.488281l3.109376 1.207031 3.050781-1.304687c13.101562-5.605469 26.703125-7.464844 39.40625-5.398437 59.648437 9.808593 106.359375 55.078124 119.214843 112.941406l-13.574218 13.578125c-10.832032 10.832031-24.242188 19.121093-38.769532 23.960937l5.066407 15.167969c16.863281-5.617187 32.4375-15.234375 45.015625-27.824219l5.367187-5.371094.71875 7.960938c.441407 4.855469 1.21875 9.679688 2.242188 14.457031l-3.632813 3.632813c-10.832031 10.832031-24.242187 19.121094-38.769531 23.960937l5.066406 15.167969c15.789063-5.257812 30.34375-14.136719 42.472657-25.554688 2.660156 7.199219 5.820312 14.21875 9.765624 20.785157 5.992188 10 10.570313 20.726562 13.640626 31.929687l-44.96875-17.984375 11.097656 22.191407c6.488281 12.960937 10.71875 27.0625 12.496094 41.453124zm0 0"/><path d="m271.152344 201.40625c-2.320313-2.773438-3.59375-6.292969-3.59375-9.910156 0-4.527344 1.992187-8.566406 5.097656-11.40625l2.160156 4.316406c7.28125 14.554688 21.910156 23.59375 38.183594 23.59375 14.304688 0 27.585938-7.113281 35.511719-19.007812l9.34375-14.007813-10.808594-10.808594c5.855469-4.253906 11.03125-9.527343 15.167969-15.734375l-13.3125-8.875c-8.527344 12.792969-22.804688 20.433594-38.183594 20.433594h-27.664062c-16.832032 0-30.496094 13.296875-31.335938 29.921875-10.550781 21.988281-16.160156 46.429687-16.160156 70.8125v27.265625h-32v-27.265625c0-24.382813-5.605469-48.824219-16.160156-70.8125-.839844-16.625-14.503907-29.921875-31.335938-29.921875h-27.664062c-15.382813 0-29.65625-7.640625-38.183594-20.441406l-13.3125 8.875c4.136718 6.207031 9.3125 11.476562 15.167968 15.734375l-10.804687 10.808593 9.34375 14.007813c7.925781 11.902344 21.207031 19.015625 35.511719 19.015625 16.269531 0 30.894531-9.039062 38.175781-23.59375l2.160156-4.316406c3.109375 2.832031 5.101563 6.878906 5.101563 11.40625 0 3.617187-1.269532 7.144531-3.0625 9.34375l-49 48.28125c-17.761719 17.496094-27.9375 41.832031-27.9375 66.757812 0 30.199219 14.671875 58.722656 39.25 76.265625l8.984375 6.421875c5.359375 3.832032 11.359375 6.394532 17.640625 7.898438 4.375 10.109375 19.132812 33.535156 62.125 33.535156 42.992187 0 57.753906-23.425781 62.128906-33.535156 6.28125-1.503906 12.273438-4.066406 17.640625-7.898438l8.984375-6.421875c24.574219-17.542969 39.246094-46.054687 39.246094-76.265625 0-24.925781-10.175782-49.261718-27.933594-66.765625zm61.167968-29.335938 4.945313 4.945313-2.066406 3.105469c-4.960938 7.429687-13.253907 11.878906-22.199219 11.878906-10.167969 0-19.320312-5.648438-23.863281-14.753906l-.632813-1.246094h22.207032c7.503906 0 14.792968-1.390625 21.609374-3.929688zm-206.199218 19.929688c-8.945313 0-17.242188-4.449219-22.199219-11.878906l-2.066406-3.105469 4.945312-4.945313c6.816407 2.539063 14.101563 3.929688 21.597657 3.929688h22.210937l-.625 1.246094c-4.542969 9.105468-13.6875 14.753906-23.863281 14.753906zm93.4375 168c-7.726563 0-14.917969-3.464844-19.75-9.496094l-16.816406-21.007812c-2.214844-2.769532-3.433594-6.257813-3.433594-9.808594 0-8.648438 7.042968-15.6875 15.6875-15.6875h48.625c8.648437 0 15.6875 7.039062 15.6875 15.6875 0 3.550781-1.214844 7.039062-3.429688 9.808594l-16.832031 21.023437c-4.816406 6.015625-12.007813 9.480469-19.738281 9.480469zm-79.453125 19.136719c-20.378907-14.5625-32.546875-38.207031-32.546875-63.257813 0-20.679687 8.449218-40.855468 23.167968-55.375l48.671876-48.007812c5.34375 15.496094 8.160156 31.878906 8.160156 48.238281v28.320313c-13.742188 3.457031-24 15.832031-24 30.632812 0 7.167969 2.464844 14.199219 6.945312 19.808594l16.816406 21.007812c3.742188 4.679688 8.375 8.375 13.542969 11l-.679687 1.351563c-5.894532 11.808593-17.769532 19.144531-30.96875 19.144531-7.253906 0-14.214844-2.222656-20.125-6.449219zm79.453125 44.863281c-24.574219 0-36.917969-9.105469-42.941406-16.550781 16.253906-2.359375 30.375-12.417969 37.878906-27.433594l2.089844-4.183594c.988281.070313 1.972656.167969 2.972656.167969s1.984375-.097656 2.96875-.167969l2.089844 4.183594c7.503906 15.015625 21.621093 25.074219 37.878906 27.433594-6.015625 7.445312-18.359375 16.550781-42.9375 16.550781zm79.457031-44.863281-8.984375 6.421875c-5.910156 4.21875-12.871094 6.441406-20.128906 6.441406-13.199219 0-25.070313-7.335938-30.964844-19.144531l-.679688-1.351563c5.167969-2.625 9.796876-6.320312 13.535157-11l16.832031-21.023437c4.472656-5.59375 6.933594-12.625 6.933594-19.792969 0-14.800781-10.253906-27.175781-24-30.632812v-28.320313c0-16.34375 2.808594-32.710937 8.144531-48.199219l48.6875 47.96875c14.722656 14.519532 23.167969 34.695313 23.167969 55.375 0 25.050782-12.167969 48.695313-32.542969 63.257813zm0 0"/><path d="m219.558594 104.945312c9.363281 4.613282 19.808594 7.054688 30.226562 7.054688 7.34375 0 14.597656-1.175781 21.574219-3.503906l14.730469-4.902344-5.066406-15.167969-14.726563 4.902344c-13.015625 4.328125-27.625 3.289063-39.882813-2.832031l-6.855468-3.441406-6.855469 3.433593c-12.246094 6.121094-26.871094 7.167969-39.878906 2.832031l-14.726563-4.894531-5.066406 15.167969 14.730469 4.902344c16.871093 5.625 35.847656 4.328125 51.796875-3.550782zm0 0"/><path d="m219.558594 136.945312c9.363281 4.613282 19.808594 7.054688 30.226562 7.054688 7.34375 0 14.597656-1.175781 21.574219-3.503906l14.730469-4.902344-5.066406-15.167969-14.726563 4.902344c-13.015625 4.320313-27.625 3.289063-39.882813-2.832031l-6.855468-3.441406-6.855469 3.433593c-12.246094 6.121094-26.871094 7.167969-39.878906 2.832031l-14.726563-4.894531-5.066406 15.167969 14.730469 4.902344c16.871093 5.632812 35.847656 4.320312 51.796875-3.550782zm0 0"/></svg>