<svg height="496pt" viewBox="-20 0 496 496" width="496pt" xmlns="http://www.w3.org/2000/svg"><path d="m364.121094 144v6.878906c-14.402344-14.160156-34.160156-22.878906-56-22.878906-16.480469 0-31.679688 4.960938-44.402344 13.519531h-.078125c-4.878906-3.441406-10.71875-5.519531-17.121094-5.519531h-36.800781c-6.398438 0-12.238281 2.078125-17.117188 5.519531h-.082031c-12.71875-8.558593-27.917969-13.519531-44.398437-13.519531-21.839844 0-41.601563 8.71875-56 22.878906v-6.878906c0-75.121094 60.878906-136 136-136 37.597656 0 71.519531 15.199219 96.160156 39.839844s39.839844 58.558594 39.839844 96.160156zm0 0" fill="#838f9b"/><path d="m370.441406 395.839844c-9.441406-32.320313-14.320312-66.078125-14.320312-100.160156v-23.679688c-9.359375 7.039062-20.320313 12.078125-32.242188 14.480469l.242188 1.519531v16.398438c0 26.320312-2.160156 52.640624-6.480469 78.722656-3.039063 18.160156-9.761719 35.277344-19.519531 50.398437-9.839844 15.121094-22.640625 28.242188-38 38.480469l4.160156-17.921875c13.039062-56.558594 17.039062-114.878906 11.917969-172.71875-26-11.28125-44.800781-36-47.679688-65.359375-.160156 0-.238281 0-.398437 0s-.242188 0-.402344 0c-2.878906 29.359375-21.679688 54.078125-47.679688 65.359375-5.117187 57.839844-1.117187 116.160156 11.921876 172.71875l4.160156 17.921875c-15.359375-10.238281-28.160156-23.359375-38-38.480469-9.761719-15.121093-16.480469-32.238281-19.519532-50.398437-4.320312-26.082032-6.480468-52.402344-6.480468-78.722656v-16.398438l.238281-1.519531c-11.917969-2.402344-22.878906-7.441407-32.238281-14.480469v23.679688c0 68.160156-19.441406 134.878906-56 192.320312h368c-18.242188-28.71875-32.320313-59.761719-41.679688-92.160156zm0 0" fill="#838f9b"/><g fill="#e6e9ed"><path d="m324.121094 288v16.398438c0 26.320312-2.160156 52.640624-6.480469 78.722656-3.039063 18.160156-9.761719 35.277344-19.519531 50.398437-9.839844 15.121094-22.640625 28.242188-38 38.480469l4.160156-17.921875c13.039062-56.558594 17.039062-114.878906 11.917969-172.71875 9.761719 4.242187 20.5625 6.640625 31.921875 6.640625 5.4375 0 10.71875-.558594 15.757812-1.519531zm0 0"/><path d="m148.121094 288c11.359375 0 22.160156-2.398438 31.917968-6.640625-5.117187 57.839844-1.117187 116.160156 11.921876 172.71875l4.160156 17.921875c-15.359375-10.238281-28.160156-23.359375-38-38.480469-9.761719-15.121093-16.480469-32.238281-19.519532-50.398437-4.320312-26.082032-6.480468-52.402344-6.480468-78.722656v-16.398438l.238281-1.519531c5.039063.960937 10.320313 1.519531 15.761719 1.519531zm0 0"/><path d="m386.761719 193.359375c.878906 4.71875 1.359375 9.601563 1.359375 14.640625 0 5.921875-.640625 11.761719-1.921875 17.28125-4.160157 18.957031-15.039063 35.4375-30.078125 46.71875-9.359375 7.039062-20.320313 12.078125-32.242188 14.480469-5.039062.960937-10.320312 1.519531-15.757812 1.519531-11.359375 0-22.160156-2.398438-31.921875-6.640625-26-11.28125-44.800781-36-47.679688-65.359375 9.921875-.160156 19.359375-4.640625 25.601563-12.480469l15.519531-19.441406c4.160156-5.199219 6.480469-11.757813 6.480469-18.476563 0-9.921874-4.882813-18.722656-12.402344-24.082031 12.722656-8.558593 27.921875-13.519531 44.402344-13.519531 21.839844 0 41.597656 8.71875 56 22.878906 11.519531 11.28125 19.597656 26 22.640625 42.480469zm0 0"/><path d="m180.039062 281.359375c-9.757812 4.242187-20.558593 6.640625-31.917968 6.640625-5.441406 0-10.722656-.558594-15.761719-1.519531-11.917969-2.402344-22.878906-7.441407-32.238281-14.480469-15.042969-11.28125-25.921875-27.761719-30.082032-46.71875-1.277343-5.519531-1.917968-11.359375-1.917968-17.28125 0-5.039062.480468-9.921875 1.359375-14.640625 3.039062-16.480469 11.121093-31.199219 22.640625-42.480469 14.398437-14.160156 34.160156-22.878906 56-22.878906 16.480468 0 31.679687 4.960938 44.398437 13.519531-1.359375.960938-2.558593 2-3.757812 3.121094-5.28125 5.4375-8.640625 12.800781-8.640625 20.960937 0 6.71875 2.320312 13.277344 6.480468 18.476563l15.519532 19.441406c6.238281 7.839844 15.679687 12.320313 25.597656 12.480469-2.878906 29.359375-21.679688 54.078125-47.679688 65.359375zm0 0"/></g><path d="m276.121094 165.601562c0 6.71875-2.320313 13.277344-6.480469 18.476563l-15.519531 19.441406c-6.242188 7.839844-15.679688 12.320313-25.601563 12.480469-.160156 0-.238281 0-.398437 0s-.242188 0-.402344 0c-9.917969-.160156-19.359375-4.640625-25.597656-12.480469l-15.519532-19.441406c-4.160156-5.199219-6.480468-11.757813-6.480468-18.476563 0-8.160156 3.359375-15.523437 8.640625-20.960937 1.199219-1.121094 2.398437-2.160156 3.757812-3.121094h.082031c4.878907-3.441406 10.71875-5.519531 17.117188-5.519531h36.800781c6.402344 0 12.242188 2.078125 17.121094 5.519531h.078125c7.519531 5.359375 12.402344 14.160157 12.402344 24.082031zm0 0" fill="#656d78"/><path d="m140.121094 160h16v16h-16zm0 0"/><path d="m124.121094 200h16v16h-16zm0 0"/><path d="m164.121094 216h16v16h-16zm0 0"/><path d="m396.121094 208c0-1.703125-.160156-3.359375-.257813-5.039062 18.335938 3.535156 36 10.214843 52.136719 19.894531l8.230469-13.71875c-19.382813-11.632813-40.773438-19.296875-62.933594-22.839844-3.738281-14.65625-11.121094-27.824219-21.183594-38.511719v-3.785156c0-79.398438-64.601562-144-144-144-79.402343 0-143.992187 64.601562-143.992187 144v3.792969c-10.058594 10.6875-17.449219 23.863281-21.183594 38.511719-22.160156 3.542968-43.554688 11.207031-62.9375 22.839843l8.230469 13.71875c16.136719-9.679687 33.808593-16.359375 52.136719-19.894531-.085938 1.671875-.246094 3.328125-.246094 5.03125 0 3.617188.285156 7.160156.710937 10.664062-21.40625 3.6875-42.054687 11.214844-60.832031 22.480469l8.230469 13.71875c17.242187-10.34375 36.234375-17.222656 55.914062-20.542969 5.160157 16.421876 15.007813 30.785157 27.976563 41.511719v19.863281c0 66.703126-18.929688 131.71875-54.753906 188.007813l-7.816407 12.296875h397.144531l-7.824218-12.296875c-35.824219-56.289063-54.75-121.304687-54.75-188.007813v-19.863281c12.96875-10.726562 22.816406-25.089843 27.976562-41.511719 19.679688 3.3125 38.671875 10.199219 55.910156 20.542969l8.230469-13.71875c-18.765625-11.265625-39.421875-18.792969-60.832031-22.480469.425781-3.503906.714844-7.046874.714844-10.664062zm-168-192c67.214844 0 122.375 52.113281 127.496094 118.03125-13.722657-8.839844-30-14.03125-47.496094-14.03125-15.832032 0-31.167969 4.230469-44.671875 12.214844-5.121094-2.605469-10.816407-4.214844-16.9375-4.214844h-36.785157c-6.117187 0-11.816406 1.609375-16.933593 4.214844-13.503907-7.984375-28.839844-12.214844-44.671875-12.214844-17.496094 0-33.777344 5.191406-47.496094 14.03125 5.117188-65.917969 60.277344-118.03125 127.496094-118.03125zm56.941406 276.921875c7.363281 1.972656 15.082031 3.078125 23.058594 3.078125 2.703125 0 5.359375-.167969 8-.40625v8.773438c0 25.855468-2.160156 51.90625-6.410156 77.417968-4.4375 26.589844-17.453126 51.015625-36.632813 69.535156 11.5625-52.039062 15.515625-105.230468 11.984375-158.398437zm-16.488281-6.203125c4.441406 55.578125.417969 111.25-12.117188 165.585938l-6.394531 27.695312h-43.878906l-6.390625-27.695312c-12.546875-54.335938-16.5625-110.007813-12.121094-165.585938 17.816406-8.910156 32.121094-23.75 40.457031-42.070312 8.335938 18.328124 22.632813 33.167968 40.445313 42.070312zm-85.414063 164.601562c-19.175781-18.519531-32.191406-42.945312-36.632812-69.535156-4.246094-25.511718-6.40625-51.5625-6.40625-77.417968v-8.773438c2.640625.238281 5.292968.40625 8 .40625 7.976562 0 15.695312-1.105469 23.054687-3.078125-3.527343 53.167969.425781 106.359375 11.984375 158.398437zm44.960938-243.320312c-7.730469 0-14.921875-3.464844-19.746094-9.496094l-15.519531-19.398437c-3.054688-3.808594-4.734375-8.609375-4.734375-13.496094 0-11.914063 9.695312-21.609375 21.605468-21.609375h36.785157c11.914062 0 21.609375 9.695312 21.609375 21.609375 0 4.886719-1.679688 9.6875-4.746094 13.503906l-15.511719 19.40625c-4.824219 6.015625-12.015625 9.480469-19.742187 9.480469zm-147.671875 24.351562c3.429687-.222656 6.871093-.351562 10.320312-.351562h9.351563v-16h-9.351563c-4.714843 0-9.410156.246094-14.082031.625-.34375-2.832031-.566406-5.703125-.566406-8.625 0-2.457031.125-4.886719.367187-7.28125 4.734375-.421875 9.496094-.71875 14.28125-.71875h9.351563v-16h-9.351563c-3.539062 0-7.066406.144531-10.585937.359375 9.816406-28.113281 36.519531-48.359375 67.9375-48.359375 11.03125 0 21.742187 2.535156 31.503906 7.296875-4.65625 6.261719-7.503906 13.933594-7.503906 22.3125 0 8.503906 2.925781 16.855469 8.238281 23.503906l15.511719 19.390625c5.839844 7.304688 13.808594 12.28125 22.679687 14.375-6.871093 33.050782-35.878906 57.121094-70.429687 57.121094-31.144532 0-57.65625-19.910156-67.671875-47.648438zm27.671875 63.34375v-9.40625c5.070312 2.597657 10.414062 4.71875 16 6.304688v11.773438c0 26.738281 2.222656 53.664062 6.621094 80.039062 6.394531 38.347656 28.601562 72.699219 60.9375 94.25l2.015624 1.34375h-135.335937c32.59375-55.945312 49.761719-119.359375 49.761719-184.304688zm289.757812 184.304688h-135.335937l2.015625-1.34375c32.335937-21.550781 54.546875-55.902344 60.9375-94.25 4.398437-26.375 6.625-53.300781 6.625-80.039062v-11.773438c5.582031-1.585938 10.925781-3.707031 16-6.304688v9.40625c0 64.945313 17.167968 128.359376 49.757812 184.304688zm-89.757812-200c-34.554688 0-63.5625-24.070312-70.433594-57.128906 8.871094-2.09375 16.839844-7.070313 22.679688-14.367188l15.503906-19.398437c5.320312-6.632813 8.25-14.984375 8.25-23.496094 0-8.378906-2.847656-16.050781-7.503906-22.3125 9.757812-4.761719 20.472656-7.296875 31.503906-7.296875 31.414062 0 58.117187 20.246094 67.925781 48.359375-3.511719-.214844-7.039063-.359375-10.574219-.359375h-9.351562v16h9.351562c4.785156 0 9.535156.296875 14.28125.71875.238282 2.394531.367188 4.824219.367188 7.28125 0 2.921875-.226563 5.792969-.570313 8.625-4.671875-.378906-9.367187-.625-14.078125-.625h-9.351562v16h9.351562c3.449219 0 6.886719.128906 10.320313.351562-10.015625 27.738282-36.527344 47.648438-67.671875 47.648438zm0 0"/><path d="m300.121094 160h16v16h-16zm0 0"/><path d="m316.121094 200h16v16h-16zm0 0"/><path d="m276.121094 216h16v16h-16zm0 0"/><path d="m284.121094 72h16v16h-16zm0 0"/><path d="m156.121094 72h16v16h-16zm0 0"/></svg>