<svg height="491pt" viewBox="0 -5 491.008 491" width="491pt" xmlns="http://www.w3.org/2000/svg"><path d="m278.542969 432.003906 14-2.480468.960937 2.480468s-16 40-48 40-48-40-48-40l.960938-2.480468 14 2.480468c10.878906 0 21.359375-4.320312 29.121094-12.078125l3.917968-3.921875 3.921875 3.921875c7.757813 7.757813 18.238281 12.078125 29.117188 12.078125zm0 0" fill="#e6e9ed"/><path d="m443.34375 40.003906h9.761719c-.320313 6.558594-.722657 13.121094-1.363281 19.761719l-.078126.636719c-4 43.28125-22.800781 83.839844-53.441406 114.800781l-10.480468-19.039063c-16-29.199218-40.316407-52.160156-68.957032-66.640624l6.398438-1.519532c15.519531-18.558594 36.160156-32.398437 59.761718-39.441406 18.957032-5.679688 38.640626-8.558594 58.398438-8.558594zm0 0" fill="#e6e9ed"/><path d="m106.0625 48.5625c23.601562 7.042969 44.242188 20.882812 59.761719 39.441406l1.679687 4c-1.519531.878906-3.121094 1.761719-4.640625 2.640625-24.558593 14.480469-45.359375 35.597657-59.597656 61.519531l-10.480469 19.039063c-30.640625-30.960937-49.441406-71.519531-53.441406-114.800781l-.078125-.636719c-.640625-6.640625-1.042969-13.203125-1.363281-19.761719h9.761718c19.761719 0 39.441407 2.878906 58.398438 8.558594zm0 0" fill="#e6e9ed"/><g fill="#cf9e76"><path d="m300.945312 81.765625c-2.320312-.882813-4.722656-1.679687-7.042968-2.402344 7.601562-15.121093 18-28.238281 30.722656-38.878906 12.878906-10.800781 27.917969-19.039063 44.320312-23.921875 18.957032-5.679688 38.640626-8.558594 58.398438-8.558594h26.160156v12.160156c0 6.558594-.160156 13.199219-.398437 19.839844h-9.761719c-19.757812 0-39.441406 2.878906-58.398438 8.558594-23.601562 7.042969-44.242187 20.882812-59.761718 39.441406l-6.398438 1.519532c-5.761718-2.960938-11.761718-5.519532-17.839844-7.757813zm0 0"/><path d="m166.382812 40.484375c12.640626 10.640625 23.203126 23.839844 30.722657 38.878906-2.320313.800781-4.722657 1.601563-7.042969 2.402344-7.757812 2.796875-15.359375 6.238281-22.558594 10.238281l-1.679687-4c-15.519531-18.558594-36.160157-32.398437-59.761719-39.441406-18.957031-5.679688-38.636719-8.558594-58.398438-8.558594h-9.761718c-.238282-6.640625-.398438-13.28125-.398438-19.839844v-12.160156h26.160156c19.761719 0 39.441407 2.878906 58.398438 8.558594 16.402344 4.882812 31.441406 13.121094 44.320312 23.921875zm0 0"/><path d="m398.222656 175.203125 18.082032 32.800781c8.71875 15.921875 19.679687 30.480469 32.558593 43.359375 8.402344 8.402344 18.082031 15.359375 28.640625 20.640625l-6.078125 6.082032c-11.761719 11.757812-26.160156 20.636718-41.921875 25.917968l2 2.960938c9.039063 13.597656 22.480469 23.839844 38 29.039062-20.480468 30.71875-52.320312 52.082032-88.558594 59.28125l-63.441406 12.71875-1.28125-.558594c2-4.402343 3.203125-9.28125 3.441406-14.320312l1.679688-29.761719c2.71875-49.4375 17.921875-97.359375 44.160156-139.359375l-14.640625-29.28125c-6.078125-12.160156-15.917969-22-28.078125-28.078125-8.722656-4.402343-18.320312-6.640625-28.082031-6.640625h-13.757813c4.320313-22.960937 9.917969-45.601562 16.878907-68l3.121093-10.238281c6.078126 2.238281 12.078126 4.796875 17.839844 7.757813 28.640625 14.480468 52.957032 37.441406 68.957032 66.640624zm0 0"/><path d="m171.34375 393.125c.242188 5.039062 1.441406 9.917969 3.441406 14.320312l-1.28125.558594-63.441406-12.71875c-18.160156-3.601562-35.117188-10.722656-50.160156-20.800781-15.039063-10.082031-28.160156-23.121094-38.398438-38.480469 15.519532-5.199218 28.960938-15.441406 38-29.039062l2-2.960938c-15.761718-5.28125-30.160156-14.160156-41.917968-25.917968l-6.082032-6.082032c10.558594-5.28125 20.238282-12.238281 28.640625-20.640625 12.878907-12.878906 23.839844-27.4375 32.558594-43.359375l18.082031-32.800781 10.480469-19.039063c14.238281-25.921874 35.039063-47.039062 59.597656-61.519531 1.519531-.878906 3.121094-1.761719 4.640625-2.640625 7.199219-4 14.800782-7.441406 22.558594-10.238281l3.121094 10.238281c6.960937 22.398438 12.558594 45.039063 16.878906 68h-13.757812c-9.761719 0-19.359376 2.238282-28.082032 6.640625-12.160156 6.078125-22 15.917969-28.078125 28.078125l-14.640625 29.28125c26.238282 42 41.441406 89.921875 44.160156 139.359375zm0 0"/><path d="m293.902344 79.363281c2.320312.722657 4.722656 1.519531 7.042968 2.402344l-3.121093 10.238281c-6.960938 22.398438-12.558594 45.039063-16.878907 68-7.601562 39.601563-11.441406 79.921875-11.441406 120.320313v87.679687l-.238281.71875c-1.203125-.480468-2.480469-.71875-3.761719-.71875h-40c-1.28125 0-2.558594.238282-3.761718.71875l-.238282-.71875v-87.679687c0-40.398438-3.839844-80.71875-11.441406-120.320313-4.320312-22.960937-9.917969-45.601562-16.878906-68l-3.121094-10.238281c2.320312-.800781 4.722656-1.601563 7.042969-2.402344h.078125c15.441406-4.800781 31.679687-7.359375 48.320312-7.359375s32.878906 2.558594 48.320313 7.359375zm0 0"/></g><path d="m350.863281 194.722656 14.640625 29.28125c-26.238281 42-41.441406 89.921875-44.160156 139.359375l-1.679688 29.761719c-.238281 5.039062-1.441406 9.917969-3.441406 14.320312-2.238281 5.039063-5.4375 9.597657-9.359375 13.277344-4.078125 3.839844-8.960937 6.882813-14.320312 8.800782l-14 2.480468c-10.878907 0-21.359375-4.320312-29.117188-12.078125l-3.921875-3.921875c5.039063 0 9.761719-2.398437 12.800782-6.398437l16.800781-22.402344c1.519531-2.078125 2.398437-4.640625 2.398437-7.199219 0-5.359375-3.441406-9.839844-8.238281-11.28125l.238281-.71875v-87.679687c0-40.398438 3.839844-80.71875 11.441406-120.320313h13.757813c9.761719 0 19.359375 2.238282 28.082031 6.640625 12.160156 6.078125 22 15.917969 28.078125 28.078125zm0 0" fill="#f0d0b4"/><path d="m245.503906 416.003906-3.917968 3.921875c-7.761719 7.757813-18.242188 12.078125-29.121094 12.078125l-14-2.480468c-5.359375-1.917969-10.242188-4.960938-14.320313-8.800782-3.921875-3.679687-7.121093-8.238281-9.359375-13.277344-2-4.402343-3.199218-9.28125-3.441406-14.320312l-1.679688-29.761719c-2.71875-49.4375-17.921874-97.359375-44.160156-139.359375l14.640625-29.28125c6.078125-12.160156 15.917969-22 28.078125-28.078125 8.722656-4.402343 18.320313-6.640625 28.082032-6.640625h13.757812c7.601562 39.601563 11.441406 79.921875 11.441406 120.320313v87.679687l.238282.71875c-4.796876 1.441406-8.238282 5.921875-8.238282 11.28125 0 2.558594.878906 5.121094 2.398438 7.199219l16.800781 22.402344c3.039063 4 7.761719 6.398437 12.800781 6.398437zm0 0" fill="#f0d0b4"/><path d="m277.503906 380.003906c0 2.558594-.878906 5.121094-2.398437 7.199219l-16.800781 22.402344c-3.039063 4-7.761719 6.398437-12.800782 6.398437-5.039062 0-9.761718-2.398437-12.800781-6.398437l-16.800781-22.402344c-1.519532-2.078125-2.398438-4.640625-2.398438-7.199219 0-5.359375 3.441406-9.839844 8.238282-11.28125 1.203124-.480468 2.480468-.71875 3.761718-.71875h40c1.28125 0 2.558594.238282 3.761719.71875 4.796875 1.441406 8.238281 5.921875 8.238281 11.28125zm0 0" fill="#656d78"/><path d="m173.503906 208.003906h16v16h-16zm0 0"/><path d="m442 307.738281c13.015625-5.742187 24.984375-13.902343 35.046875-23.964843l13.960937-13.960938-9.929687-4.960938c-9.839844-4.917968-18.789063-11.367187-26.566406-19.152343-12.304688-12.304688-22.800781-26.269531-31.183594-41.527344l-15.304687-27.816406c29.335937-31.597657 47.679687-72.199219 51.664062-115.910157 1.207031-13.378906 1.816406-26.921874 1.816406-40.25v-20.19140575h-34.144531c-20.582031 0-41.03125 2.99999975-60.757813 8.91015575-32.394531 9.722657-59.847656 31.832032-76.59375 61.035157-14.320312-3.882813-29.265624-5.9375-44.511718-5.9375-15.25 0-30.191406 2.0625-44.511719 5.9375-16.746094-29.203125-44.199219-51.3125-76.601563-61.035157-19.710937-5.910156-40.152343-8.91015575-60.734374-8.91015575h-34.144532v20.19140575c0 13.328126.609375 26.871094 1.878906 40.9375 3.921876 43.054688 22.257813 83.625 51.601563 115.222657l-15.304687 27.816406c-8.390626 15.257813-18.878907 29.222656-31.183594 41.527344-7.785156 7.785156-16.726563 14.226562-26.566406 19.152343l-9.929688 4.960938 13.960938 13.960938c10.0625 10.0625 22.03125 18.222656 35.046874 23.964843-7.832031 9.523438-18.289062 16.769531-30.03125 20.683594l-9.9375 3.308594 5.816407 8.714843c21.832031 32.734376 55.089843 55.007813 93.65625 62.71875l61.398437 12.28125c4.824219 8.320313 12 15.054688 20.601563 19.359376l-.421875.167968c.71875 1.847656 18.421875 45.03125 55.414062 45.03125 36.992188 0 54.695313-43.183594 55.433594-45.03125l-.425781-.167968c8.601562-4.304688 15.777343-11.039063 20.601562-19.359376l61.398438-12.28125c38.566406-7.710937 71.832031-29.984374 93.65625-62.71875l5.816406-8.714843-9.9375-3.308594c-11.75-3.921875-22.214844-11.160156-30.046875-20.683594zm-42.113281-146.175781-5.109375-9.285156c-14.472656-26.3125-35.34375-47.746094-60.023438-62.9375 14.175782-15.574219 32.175782-27.015625 52.453125-33.097656 18.234375-5.460938 37.128907-8.238282 56.152344-8.238282h1.121094c-.25 3.878906-.441407 7.710938-.800781 11.671875-3.433594 37.777344-18.9375 73.472657-43.792969 101.886719zm-28.679688-137.320312c18.234375-5.460938 37.128907-8.238282 56.152344-8.238282h18.144531v4.191406c0 3.898438-.160156 7.863282-.273437 11.808594h-1.863281c-20.582032 0-41.03125 3-60.757813 8.910156-24.289063 7.289063-45.730469 21.304688-62.226563 40.488282-4.839843-2.367188-9.808593-4.488282-14.863281-6.390625 14.839844-24.253907 38.273438-42.542969 65.6875-50.769531zm-80.207031 62.707031-.824219 2.671875c-19.023437 61.839844-28.671875 125.992187-28.671875 190.671875v79.710937h-32v-79.710937c0-64.679688-9.648437-128.832031-28.671875-190.671875l-.824219-2.671875c14.535157-4.488281 29.824219-6.9375 45.496094-6.9375s30.960938 2.449219 45.496094 6.9375zm-39.097656 317.863281c-3 4-9.796875 4.007812-12.796875-.007812l-16.800781-22.382813c-.511719-.699219-.800782-1.5625-.800782-2.417969 0-2.199218 1.800782-4 4-4h40c2.199219 0 4 1.800782 4 4 0 .855469-.289062 1.71875-.808594 2.417969zm-206.398438-388.808594h18.144532c19.03125 0 37.917968 2.777344 56.167968 8.238282 27.40625 8.226562 50.839844 26.515624 65.6875 50.769531-5.054687 1.902343-10.023437 4.023437-14.863281 6.390625-16.496094-19.191406-37.945313-33.199219-62.234375-40.488282-19.734375-5.910156-40.175781-8.910156-60.757812-8.910156h-1.871094c-.113282-3.945312-.273438-7.886718-.273438-11.808594zm1.761719 43c-.328125-3.65625-.511719-7.328125-.746094-11h1.128907c19.03125 0 37.917968 2.777344 56.167968 8.238282 20.261719 6.082031 38.273438 17.523437 52.449219 33.097656-24.679687 15.183594-45.554687 36.617187-60.027344 62.929687l-5.109375 9.292969c-24.863281-28.421875-40.375-64.175781-43.863281-102.558594zm64.382813 328.472656c-31.152344-6.222656-58.410157-23.113281-77.726563-47.921874 12.988281-6.335938 24.222656-16.085938 32.269531-28.160157l7.785156-11.671875-9.9375-3.300781c-13.910156-4.640625-26.808593-12.441406-37.382812-22.609375 7.65625-4.769531 14.75-10.382812 21.160156-16.800781 13.375-13.367188 24.777344-28.550781 33.886719-45.128907l28.542969-51.902343c16.921875-30.769531 43.457031-54.265625 74.699218-67.59375l.589844 1.9375c5.855469 19.015625 10.6875 38.273437 14.710938 57.679687h-3.902344c-10.929688 0-21.878906 2.585938-31.679688 7.480469-13.617187 6.808594-24.871093 18.0625-31.679687 31.679687l-16.640625 33.28125 2.382812 3.808594c25.457032 40.71875 40.3125 87.589844 42.984376 135.558594l1.648437 29.757812c.082031 1.464844.25 2.914063.457031 4.34375zm67.679687 5.199219-1.648437-29.761719c-2.734376-49.148437-17.589844-97.214843-43.03125-139.308593l12.648437-25.289063c5.261719-10.542968 13.976563-19.257812 24.519531-24.519531 7.574219-3.792969 16.0625-5.792969 24.519532-5.792969h7.046874c6.679688 37 10.121094 74.542969 10.121094 112.289063v83.808593c-4.832031 3.65625-8 9.390626-8 15.902344 0 4.296875 1.417969 8.550782 4 12.007813l16.808594 22.390625c1.199219 1.609375 2.625 3.007812 4.160156 4.25-5.320312 3.464844-11.519531 5.351562-18.023437 5.351562-17.59375 0-32.136719-13.761718-33.121094-31.328125zm66.175781 71.328125c-16.503906 0-28.28125-13.816406-34.761718-24.078125.570312.015625 1.128906.078125 1.707031.078125 12.359375 0 23.992187-4.574218 33.054687-12.847656 9.0625 8.273438 20.695313 12.847656 33.054688 12.847656.59375 0 1.160156-.0625 1.753906-.089844-6.449219 10.273438-18.199219 24.089844-34.808594 24.089844zm66.175782-71.328125c-.984376 17.566407-15.527344 31.328125-33.121094 31.328125-6.496094 0-12.695313-1.886718-18.023438-5.351562 1.542969-1.242188 2.960938-2.640625 4.160156-4.242188l16.808594-22.398437.007813-.015625c2.578125-3.441406 3.992187-7.695313 3.992187-11.992188 0-6.511718-3.167968-12.246094-8-15.902344v-83.808593c0-37.746094 3.441406-75.289063 10.121094-112.289063h7.046875c8.464844 0 16.945313 2 24.519531 5.792969 10.542969 5.261719 19.257813 13.976563 24.519532 24.519531l12.648437 25.289063c-25.4375 42.09375-40.296875 90.167969-43.03125 139.308593zm67.679687-5.199219-52.167969 10.429688c.207032-1.429688.375-2.871094.457032-4.34375l1.648437-29.757812c2.671875-47.96875 17.527344-94.839844 42.984375-135.5625l2.382812-3.804688-16.640624-33.28125c-6.808594-13.617188-18.0625-24.871094-31.679688-31.679688-9.792969-4.886718-20.742188-7.472656-31.671875-7.472656h-3.902344c4.023438-19.40625 8.855469-38.664062 14.710938-57.679687l.589843-1.9375c31.242188 13.328125 57.777344 36.824219 74.699219 67.601562l28.542969 51.894531c9.121094 16.570313 20.511719 31.761719 33.886719 45.128907 6.410156 6.417969 13.503906 12.03125 21.160156 16.800781-10.574219 10.167969-23.472656 17.96875-37.382813 22.609375l-9.9375 3.300781 7.785157 11.671875c8.046875 12.074219 19.28125 21.824219 32.273437 28.160157-19.328125 24.808593-46.585937 41.6875-77.738281 47.921874zm0 0"/><path d="m301.503906 208.003906h16v16h-16zm0 0"/></svg>