<svg xmlns="http://www.w3.org/2000/svg" viewBox="0 0 512 512"><path d="M494.345 166.815h-4.414c-2.648 0-6.18.883-8.828 1.766-3.53-16.772-10.593-32.662-19.42-47.67h4.414c3.53-35.3-22.07-46.786-22.07-46.786-5.297 1.766-10.593 3.53-15.9 6.18v-.883c-14.124-13.24-30.897-24.717-47.67-33.545l2.648-17.655c1.766-7.945-6.18-18.538-18.538-23.834s-23.835-4.414-29.13 1.766l-18.538 15.9c-41.5-8.828-84.745-8.828-126.235.883L170.372 6.153c-5.297-6.18-17.655-7.062-29.13-1.766-12.36 5.297-20.303 15.9-18.538 23.834l2.648 19.42c-15.9 8.828-30.014 19.42-43.255 31.78v.883c-5.297-.883-10.593-2.648-15.9-4.414 0 0-25.6 11.476-22.07 46.786h5.297c-8.828 15.007-15.007 30.897-19.42 47.67-2.648-1.766-5.297-2.648-8.828-1.766h-3.53C7.945 168.58 0 176.525 0 186.235v35.3c0 9.7 7.945 17.655 17.655 17.655h4.414c2.648 0 6.18-.883 8.828-1.766.883 6.18 2.648 11.476 5.297 17.655v185.38c0 18.538 7.062 37.076 20.303 50.317S87.394 511.1 105.93 511.1H406.07c18.538 0 37.076-7.062 50.317-20.303s20.303-31.78 20.303-50.317V253.325l5.297-17.655c2.648 1.766 5.297 2.648 8.828 1.766h3.53c9.7 0 17.655-7.945 17.655-17.655v-35.3c0-9.71-7.945-17.656-17.655-17.656zm-339.862-51.2s0 .883 0 0c0 .883 0 0 0 0z" fill="#894b9d"/><path d="M155.366 36.166c-1.766.883-4.414 1.766-6.18 1.766-11.476 2.648-22.07 0-24.717-7.062 0 0 0-.883-.883-1.766-1.766-7.945 6.18-18.538 18.538-23.834s23.834-4.414 29.13 1.766c.883.883.883 1.766 1.766 2.648 3.53 8.827-4.415 20.303-17.656 26.482zM384 29.104c0 .883 0 .883-.883 1.766-3.53 6.18-10.593 8.828-17.655 7.945-2.648 0-5.297-.883-7.062-.883-1.766-.883-4.414-.883-6.18-1.766-3.53-1.766-6.18-3.53-9.7-5.297-7.062-4.414-10.593-12.36-8.828-20.303.883-1.766 1.766-2.648 2.648-3.53 5.297-6.18 17.655-7.062 29.13-1.766 12.36 5.297 20.304 15.9 18.538 23.835z" fill="#95a5a5"/><path d="M384 29.104l-2.648 17.655-1.766 15.007v2.648c0 .883 0 1.766-.883 2.648-5.297 11.476-25.6 13.24-45.903 4.414s-32.662-24.717-27.366-36.193c.883-1.766 2.648-3.53 3.53-5.297l7.945-7.062 18.538-15.9c0 .883-.883 1.766-.883 3.53-1.766 7.945 1.766 15.9 8.828 20.303 2.648 2.648 6.18 4.414 9.7 5.297 1.766.883 4.414 1.766 6.18 1.766 2.648.883 4.414.883 7.062.883 7.062.883 14.124-1.766 17.655-7.945-.882.001.001-.882.001-1.765z" fill="#5e5f62"/><path d="M26.483 202.125c0 11.476.883 22.07 3.53 33.545-2.648 1.766-5.297 2.648-8.828 1.766h-3.53C7.945 237.435 0 229.5 0 219.78v-35.3c0-9.7 7.945-17.655 17.655-17.655h4.414c2.648 0 6.18.883 8.828 1.766-3.53 11.475-4.414 22.068-4.414 33.544zM512 184.47v35.3c0 9.7-7.945 17.655-17.655 17.655h-4.414c-2.648 0-6.18-.883-8.828-1.766 5.297-22.07 5.297-44.138 0-66.207 2.648-1.766 5.297-2.648 8.828-1.766h4.414c9.7-.88 17.655 7.064 17.655 16.774zm-295.724-16.772c-58.262-47.67-144.772-46.786-167.724-45.903h-5.297c-3.53-35.3 22.07-46.786 22.07-46.786 5.297 1.766 11.476 3.53 16.772 6.18 105.932 40.606 134.18 86.5 134.18 86.5zm251.586-45.904h-4.414c-21.186-.883-109.462-2.648-167.724 45.903 1.766-2.648 31.78-46.786 135.062-86.5 5.297-1.766 10.593-3.53 15.9-6.18-.883.883 23.834 12.358 21.186 46.786z" fill="#894b9d"/><path d="M431.67 221.546c-1.766 13.24-8.828 25.6-19.42 33.545-16.772 10.593-35.3 15.9-55.614 15.9-25.6 0-58.262-8.828-70.62-33.545-14.124-29.13 8.828-67.1 31.78-83.862 2.648-1.766 5.297-3.53 7.945-4.414 26.483-14.124 62.676-16.772 84.745 7.062 10.593 12.36 17.655 28.248 20.303 45.02 1.767 6.18 1.767 13.24.884 20.303z" fill="#ff5364"/><path d="M481.986 169.463c-3.53-16.772-10.593-32.662-19.42-47.67-21.186-.883-109.462-2.648-167.724 45.903 1.765-2.648 31.78-46.786 135.062-86.5v-.883c-14.124-13.24-30.897-24.717-47.67-33.545l-2.648 15.007v2.648c0 .883 0 1.766-.883 2.648-5.297 11.476-25.6 13.24-45.903 4.414s-32.662-24.717-27.366-36.193c.883-1.766 2.648-3.53 3.53-5.297l7.945-7.062c-41.5-8.828-84.745-8.828-126.235.883l7.062 6.18c1.766 1.766 3.53 3.53 4.414 5.297 5.297 11.476-7.945 27.366-27.366 36.193-20.303 8.828-40.607 7.062-45.02-4.414 0-.883-.883-1.766-.883-2.648v-2.648l-1.766-12.36c-15.9 8.828-30.014 19.42-43.255 31.78v.883c7.062 2.648 13.24 5.297 18.538 7.945 2.648.883 5.297 2.648 7.945 3.53s5.297 2.648 7.945 3.53 5.297 2.648 7.945 3.53 5.297 2.648 7.062 3.53c2.648.883 4.414 2.648 7.062 3.53 3.53 1.766 7.062 3.53 9.7 5.297 1.766.883 2.648 1.766 4.414 2.648s2.648 1.766 4.414 2.648 3.53 2.648 5.297 3.53c4.414 2.648 8.828 5.297 12.36 7.945 1.766.883 3.53 1.766 4.414 3.53 2.648 1.766 5.297 4.414 7.945 6.18l.883.883c1.766.883 2.648 1.766 3.53 3.53 1.766 1.766 4.414 3.53 6.18 5.297l7.062 7.062c.883 0 .883.883.883.883l1.766 1.766c1.766 1.766 2.648 2.648 3.53 4.414h0l.883.883c.883.883.883.883.883 1.766l.883.883c-.883-.883-2.648-1.766-3.53-2.648h0c-2.648-1.766-5.297-4.414-8.828-6.18l-.883-.883c-.883-.883-1.766-.883-3.53-1.766-.883-.883-1.766-.883-2.648-1.766h-.883c-1.766-.883-3.53-1.766-4.414-2.648h0c-2.648-1.766-5.297-2.648-7.945-4.414-.883 0-1.766-.883-2.648-1.766s-2.648-.883-3.53-1.766h-1.766l-5.297-1.766v-.883h-.883c-.883 0-1.766-.883-2.648-.883-1.766-.883-3.53-.883-5.297-1.766s-3.53-.883-5.297-1.766c-.883 0-2.648-.883-3.53-.883s-1.766-.883-2.648-.883c-3.53-.883-6.18-1.766-9.7-2.648s-7.945-1.766-11.476-2.648c-2.648-.883-6.18-.883-8.828-1.766-3.53-.883-7.062-.883-9.7-1.766-3.53 0-6.18-.883-9.7-.883h-4.414c-2.648 0-6.18-.883-8.828-.883H49.433c-8.828 15.007-15.007 30.897-18.538 47.67-5.297 22.07-5.297 44.138 0 66.207.883 6.18 2.648 11.476 5.297 17.655 7.945 22.07 19.42 41.5 35.3 58.262 7.062 7.945 14.124 15.007 22.07 21.186 7.945 7.062 13.24 16.772 13.24 27.366v52.083c-.883 10.593 7.062 18.538 17.655 19.42l26.483-44.138 26.483 44.138 26.483-44.138 26.483 44.138 26.483-44.138 26.483 44.138 26.483-44.138 26.483 44.138 26.483-44.138 26.483 44.138c10.593-.883 18.538-8.828 17.655-19.42V361.9c0-10.593 5.297-21.186 13.24-27.366s15.007-13.24 22.07-21.186c15.9-16.772 27.366-37.076 35.3-58.262l5.297-17.655c3.53-23.83 3.53-46.783-.883-67.97zM154.483 270.098c-19.42.883-38.84-4.414-55.614-15.9-10.593-7.945-17.655-19.42-19.42-33.545 0-6.18 0-13.24.883-20.303 2.648-16.772 9.7-31.78 20.303-45.02 22.07-23.834 58.262-22.07 84.745-7.062 2.648 1.766 5.297 2.648 7.945 4.414 23.835 16.772 46.786 54.73 31.78 83.862-11.475 24.717-44.137 33.545-70.62 33.545zM291.3 309.822c0 3.53-2.648 7.062-5.297 7.945-9.7 3.53-19.42 6.18-30.014 6.18s-20.303-2.648-30.014-6.18c-2.648-.883-5.297-4.414-5.297-7.945v-15.007c0-3.53 1.766-6.18 4.414-7.945l26.483-13.24c2.648-1.766 5.297-1.766 7.945 0l26.483 13.24c2.648 1.766 5.297 4.414 4.414 7.945v15.007h.883zm140.36-88.276c-1.766 13.24-8.828 25.6-19.42 33.545-16.772 10.593-35.3 15.9-55.614 15.9-25.6 0-58.262-8.828-70.62-33.545-14.124-29.13 8.828-67.1 31.78-83.862 2.648-1.766 5.297-3.53 7.945-4.414 26.483-14.124 62.676-16.772 84.745 7.062 10.593 12.36 17.655 28.248 20.303 45.02 1.767 6.18 1.767 13.24.884 20.303z" fill="#35495e"/><path d="M173.903 71.477c-20.303 8.828-40.607 7.062-45.02-4.414 0-.883-.883-1.766-.883-2.648v-2.648l-1.766-12.36-2.648-19.42c0 .883 0 .883.883 1.766 3.53 7.062 13.24 9.7 24.717 7.062 1.766-.883 4.414-.883 6.18-1.766 13.24-6.18 21.186-17.655 17.655-25.6 0-.883-.883-1.766-1.766-2.648l20.303 16.772 7.062 6.18c1.766 1.766 3.53 3.53 4.414 5.297 3.534 9.71-8.825 25.6-29.13 34.428z" fill="#5e5f62"/><path d="M225.986 236.553c-12.36 24.717-45.02 33.545-71.503 33.545-19.42.883-38.84-4.414-55.614-15.9-10.593-7.945-17.655-19.42-19.42-33.545 0-6.18 0-13.24.883-20.303 2.648-16.772 9.7-31.78 20.303-45.02 22.07-23.834 58.262-22.07 84.745-7.062 2.648 1.766 5.297 2.648 7.945 4.414 23.835 16.772 46.786 54.73 32.662 83.862z" fill="#ff5364"/><g fill="#2c2f38"><path d="M291.3 294.815v15.007c0 3.53-2.648 7.062-5.297 7.945-9.7 3.53-19.42 6.18-30.014 6.18s-20.303-2.648-30.014-6.18c-2.648-.883-5.297-4.414-5.297-7.945v-15.007c0-3.53 1.766-6.18 4.414-7.945l26.483-13.24c2.648-1.766 5.297-1.766 7.945 0l26.483 13.24c3.532 1.765 5.297 4.414 5.297 7.945zm150.08 16.772v111.228c0 24.717-19.42 44.138-44.138 44.138h-17.655L361.93 440.47l-17.655 26.483H326.62l-17.655-26.483-17.655 26.483h-17.655L256 440.47l-17.655 26.483H220.7l-17.655-26.483-17.655 26.483h-17.655L150.07 440.47l-17.655 26.483H114.76c-24.717 0-44.138-19.42-44.138-44.138V311.587c7.062 7.945 14.124 15.007 22.07 21.186 7.945 7.062 13.24 16.772 13.24 27.366v52.083c-.883 10.593 7.062 18.538 17.655 19.42l26.483-44.138 26.483 44.138 26.483-44.138 26.483 44.138 26.48-44.14 26.483 44.138 26.483-44.138 26.483 44.138 26.483-44.138 26.483 44.138c10.593-.883 18.538-8.828 17.655-19.42v-52.083c0-10.593 5.297-21.186 13.24-27.366 7.944-7.06 15.006-14.123 22.068-21.185z"/><circle cx="379.586" cy="181.822" r="17.655"/><circle cx="335.448" cy="190.649" r="8.828"/><circle cx="132.414" cy="181.822" r="17.655"/><circle cx="176.552" cy="190.649" r="8.828"/></g></svg>