<svg xmlns="http://www.w3.org/2000/svg" xmlns:xlink="http://www.w3.org/1999/xlink" viewBox="0 0 512 512"><path d="M466.36 95.338C443.84 37.828 388.383-.01 326.62 0H185.38C123.617-.01 68.16 37.828 45.64 95.338h420.72zM220.7 378.227h70.62V504.54H220.7z" fill="#95a5a5"/><path d="M176.552 476.7h150.07c9.75 0 17.655 7.904 17.655 17.655V512h-185.38v-17.655c0-9.75 7.904-17.655 17.655-17.655z" fill="#bdc3c7"/><path d="M291.3 476.7L256 512h-35.3l35.3-35.3z" fill="#2c3e50"/><path d="M150.07 52.966H361.93c82.88 0 150.07 67.188 150.07 150.068V256c0 82.88-67.188 150.07-150.07 150.07H150.07C67.188 406.07 0 338.88 0 256v-52.966c0-82.88 67.188-150.068 150.07-150.068z" fill="#bdc3c7"/><path d="M476.7 203.034V256c0 63.38-51.38 114.76-114.76 114.76H150.07C86.7 370.76 35.3 319.38 35.3 256v-52.966c0-63.38 51.38-114.76 114.76-114.76H361.93c63.38.001 114.76 51.38 114.76 114.76z" fill="#2c3e50"/><path d="M229.517 203.034a78.78 78.78 0 0 1-8.298 35.31H78.92c-14.577-29.37-9.612-64.678 12.5-88.9a79.44 79.44 0 0 1 87.393-20.49c30.568 11.86 50.7 41.282 50.706 74.07zm211.863 0a78.78 78.78 0 0 1-8.298 35.31h-142.3c-14.577-29.37-9.612-64.678 12.5-88.9a79.44 79.44 0 0 1 87.393-20.49c30.568 11.86 50.7 41.282 50.706 74.07z" fill="#2fa8cc"/><g fill="#67b9cc"><use xlink:href="#B"/><use xlink:href="#B" x="211.862"/></g><g fill="#65ddb9"><circle cx="136.828" cy="198.621" r="13.241"/><circle cx="348.69" cy="198.621" r="13.241"/></g><path d="M347.817 273.655c3.95-.342 7.82 1.25 10.388 4.272a12.24 12.24 0 0 1 2.534 10.942c-10.566 31.7-53.447 55.406-104.738 55.406s-94.173-23.716-104.738-55.406c-.977-3.843-.032-7.92 2.534-10.942s6.438-4.614 10.388-4.272h183.632z" fill="#f0c419"/><defs ><path id="B" d="M189.44 238.345c8.775-9.664 13.623-22.257 13.594-35.3 0-29.252-23.713-52.966-52.966-52.966s-52.966 23.713-52.966 52.966a52.35 52.35 0 0 0 13.594 35.31"/></defs></svg>