<svg xmlns="http://www.w3.org/2000/svg" viewBox="0 0 495.795 495.795"><path d="M495.28 330.754c-.427 8.875-1.11 18.86-2.304 29.525a369.13 369.13 0 0 1-12.203 63.403c-12.922 42.422-51.995 71.46-96.34 71.595a7.34 7.34 0 0 1-1.365.085H112.73c-.457.014-.914-.014-1.365-.085-44.346-.136-83.42-29.173-96.34-71.595A369.1 369.1 0 0 1 2.82 360.28C1.625 349.613.943 339.63.516 330.755-.593 306.69.43 290.478.43 290.478c0-34.048 25.6-34.048 25.6-34.048h443.733s25.6 0 25.6 34.048c0-.001 1.024 16.212-.085 40.276z" fill="#3f5c6c"/><path d="M162.65 365.058c-41.566-10.732-80.032-31.076-112.3-59.392a69.1 69.1 0 0 1-22.699-58.453c13.74-137.13 112.47-206.08 172.97-235.776a107.02 107.02 0 0 1 94.549 0c60.5 29.696 159.232 98.645 172.97 235.776a69.1 69.1 0 0 1-22.699 58.453c-32.267 28.316-70.732 48.66-112.3 59.392" fill="#b0d3f0"/><path d="M410.03 179.63c0 51.84-72.6 93.867-162.133 93.867S85.764 231.47 85.764 179.63s72.6-119.467 162.133-119.467S410.03 127.788 410.03 179.63z" fill="#35495e"/><path d="M213.764 299.096h68.267c28.277 0 51.2 22.923 51.2 51.2v8.533c0 28.277-22.923 51.2-51.2 51.2h-68.267c-28.277 0-51.2-22.923-51.2-51.2v-8.533c0-28.277 22.923-51.2 51.2-51.2z" fill="#ff5364"/><path d="M299.098 350.296v8.533a17.07 17.07 0 0 1-17.067 17.067h-68.267a17.07 17.07 0 0 1-17.067-17.067v-8.533a17.07 17.07 0 0 1 17.067-17.067h68.267a17.07 17.07 0 0 1 17.067 17.067z" fill="#df4d60"/><path d="M77.23 230.83s-17.067 17.067-17.067 34.133c18.43 27.727 45.4 48.696 76.8 59.733 5.88-10.83 14.77-19.72 25.6-25.6 0 .001-59.733-17.066-85.333-68.266zm341.334 0s17.067 17.067 17.067 34.133c-18.43 27.727-45.4 48.696-76.8 59.733-5.88-10.83-14.77-19.72-25.6-25.6 0 .001 59.733-17.066 85.333-68.266z" fill="#ecf0f1"/><path d="M128.43 445.272v50.1h-15.7c-.457.014-.914-.014-1.365-.085v-50.005a34.5 34.5 0 0 0-25.429-32.939c-31.87-9.587-60.577-27.566-83.115-52.053C1.626 349.614.944 339.63.517 330.756a177.88 177.88 0 0 0 90.112 65.11c22.194 6.217 37.604 26.36 37.802 49.407zm366.85-114.518c-.427 8.875-1.1 18.86-2.304 29.525-22.538 24.488-51.245 42.466-83.115 52.053a34.5 34.5 0 0 0-25.429 32.939v50.005a7.34 7.34 0 0 1-1.365.085h-15.7v-50.1c.198-23.048 15.608-43.2 37.803-49.408a177.86 177.86 0 0 0 90.111-65.108z" fill="#41767f"/><path d="M196.698 461.23h102.4c14.138 0 25.6 11.462 25.6 25.6v8.533h-153.6v-8.533c0-14.138 11.46-25.6 25.6-25.6z" fill="#2c3e50"/><path d="M222.298 230.83a8.57 8.57 0 0 1-6.059-14.592 8.81 8.81 0 0 1 12.117 0 8.54 8.54 0 0 1 1.872 9.33c-1.328 3.2-4.464 5.28-7.93 5.26zm-17.068 17.066a8.45 8.45 0 0 1-8.533-8.533 8.53 8.53 0 0 1 .683-3.246c1.094-2.625 3.42-4.535 6.208-5.1a8.56 8.56 0 0 1 7.7 2.286c3.3 3.365 3.3 8.752 0 12.117a8.11 8.11 0 0 1-1.367 1.021 4.72 4.72 0 0 1-1.45.77 5.3 5.3 0 0 1-1.625.513 10.84 10.84 0 0 1-1.617.17zm85.334 0a8.98 8.98 0 0 1-6.059-2.475 14.31 14.31 0 0 1-1.025-1.279 6.3 6.3 0 0 1-.767-1.538c-.246-.485-.42-1.003-.517-1.538a5.89 5.89 0 0 1-.166-1.704c0-4.713 3.82-8.533 8.533-8.533s8.533 3.82 8.533 8.533a10.7 10.7 0 0 1-.175 1.704 5.29 5.29 0 0 1-.508 1.538 6.6 6.6 0 0 1-.767 1.538l-1.025 1.28a8.99 8.99 0 0 1-6.057 2.475zm-42.666-25.6a8.81 8.81 0 0 1-6.06-2.475c-3.3-3.365-3.3-8.752 0-12.117 2.472-2.385 6.118-3.1 9.3-1.796a9.93 9.93 0 0 1 2.817 1.795c3.3 3.365 3.3 8.752 0 12.117a9.99 9.99 0 0 1-2.817 1.792 8.52 8.52 0 0 1-3.24.684zm25.6 8.534a8.45 8.45 0 0 1-8.533-8.533 8.95 8.95 0 0 1 2.475-6.06 8.83 8.83 0 0 1 12.033 0 8.69 8.69 0 0 1 2.559 6.059c-.01 2.28-.93 4.46-2.558 6.06-1.598 1.567-3.74 2.454-5.976 2.474z" fill="#4482c3"/><path d="M171.098 145.496a8.45 8.45 0 0 1-8.218-6.863c-.756-3.953 1.38-7.9 5.105-9.412s8.007-.205 10.235 3.146a8.45 8.45 0 0 1-1.063 10.654 8.99 8.99 0 0 1-6.06 2.475zM154.03 128.43a11.92 11.92 0 0 1-1.708-.171 5.54 5.54 0 0 1-1.533-.513 6.54 6.54 0 0 1-1.542-.77c-.446-.313-.872-.654-1.275-1.02-.77-.816-1.38-1.772-1.792-2.817-.437-1.026-.67-2.127-.683-3.242a8.95 8.95 0 0 1 2.475-6.06c2.47-2.387 6.118-3.092 9.3-1.796 1.034.435 1.987 1.042 2.817 1.796 2.462 2.44 3.2 6.13 1.872 9.33s-4.464 5.283-7.93 5.263zm17.068 51.2a8.45 8.45 0 0 1-8.218-6.863c-.756-3.953 1.38-7.9 5.105-9.412s8.007-.205 10.235 3.146a8.45 8.45 0 0 1-1.063 10.654 8.98 8.98 0 0 1-6.059 2.475zm34.132 0c-1.115-.014-2.216-.246-3.242-.683a8.19 8.19 0 0 1-5.292-7.85 8.53 8.53 0 0 1 .683-3.246 9.84 9.84 0 0 1 1.792-2.813c2.02-2 4.893-2.852 7.675-2.304.566.08 1.115.25 1.625.508a4.76 4.76 0 0 1 1.45.77c.508.34.942.683 1.367 1.025a9.84 9.84 0 0 1 1.792 2.813 8.53 8.53 0 0 1 .683 3.246 8.45 8.45 0 0 1-8.533 8.533zm-17.066 17.066a8.57 8.57 0 0 1-6.059-14.592 8.83 8.83 0 0 1 12.033 0 8.45 8.45 0 0 1 2.558 6.058c0 2.282-.923 4.467-2.558 6.058a8.42 8.42 0 0 1-1.283 1.021 4.72 4.72 0 0 1-1.45.77 5.3 5.3 0 0 1-1.625.513 10.67 10.67 0 0 1-1.616.171zm0-34.134a8.45 8.45 0 0 1-8.533-8.533 7.11 7.11 0 0 1 .683-3.246 9.84 9.84 0 0 1 1.792-2.813c2.02-2 4.893-2.852 7.675-2.304.566.08 1.115.25 1.625.508a4.76 4.76 0 0 1 1.45.77 8.17 8.17 0 0 1 3.158 3.838 8.53 8.53 0 0 1 .683 3.246c-.032 4.7-3.834 8.5-8.533 8.533zm136.534-17.066a10.82 10.82 0 0 1-1.625-.171 5.26 5.26 0 0 1-1.617-.512 6.54 6.54 0 0 1-1.542-.77c-.446-.313-.872-.654-1.275-1.02-.77-.816-1.38-1.772-1.792-2.817-.437-1.026-.67-2.127-.683-3.242a8.79 8.79 0 0 1 2.475-6.06c3.42-3.158 8.695-3.158 12.117 0 .34.425.683.85 1.025 1.363.335.437.594.927.767 1.45a5.28 5.28 0 0 1 .508 1.538 10.65 10.65 0 0 1 .175 1.709c-.014 1.115-.246 2.216-.683 3.242a9.86 9.86 0 0 1-1.792 2.817c-.406.367-.835.708-1.283 1.02-.475.324-1 .583-1.533.77a5.65 5.65 0 0 1-1.533.513c-.566.096-1.137.153-1.7.17zm17.066-17.066a8.81 8.81 0 0 1-6.06-2.475c-1.56-1.635-2.444-3.8-2.475-6.06a7.11 7.11 0 0 1 .683-3.246 9.84 9.84 0 0 1 1.792-2.813c3.42-3.158 8.695-3.158 12.117 0a9.84 9.84 0 0 1 1.792 2.813 8.53 8.53 0 0 1 .683 3.246 10.7 10.7 0 0 1-.175 1.704 5.29 5.29 0 0 1-.508 1.538 6.6 6.6 0 0 1-.767 1.538l-1.025 1.28c-1.628 1.57-3.796 2.456-6.058 2.475zm-17.066 51.2a10.82 10.82 0 0 1-1.625-.171 5.26 5.26 0 0 1-1.617-.512 6.54 6.54 0 0 1-1.542-.77l-1.275-1.02c-1.56-1.635-2.444-3.8-2.475-6.06a8.79 8.79 0 0 1 2.475-6.06c3.42-3.158 8.695-3.158 12.117 0l1.025 1.28c.32.476.578 1 .767 1.533a5.28 5.28 0 0 1 .508 1.538 10.65 10.65 0 0 1 .175 1.709 8.99 8.99 0 0 1-2.475 6.059l-1.283 1.02c-.474.324-1 .583-1.533.77a5.65 5.65 0 0 1-1.533.513c-.566.097-1.137.154-1.7.17zm-34.134 0a8.45 8.45 0 0 1-8.533-8.533 5.95 5.95 0 0 1 .167-1.708c.096-.535.27-1.053.517-1.538a4.71 4.71 0 0 1 .767-1.45 8.1 8.1 0 0 1 1.025-1.363c3.42-3.158 8.695-3.158 12.117 0 .34.425.683.85 1.025 1.363.335.437.594.927.767 1.45a5.28 5.28 0 0 1 .508 1.538 10.65 10.65 0 0 1 .175 1.709 8.45 8.45 0 0 1-2.475 6.058 8.46 8.46 0 0 1-6.06 2.474zm17.066 17.066a8.45 8.45 0 0 1-8.533-8.533 8.53 8.53 0 0 1 .683-3.246 9.84 9.84 0 0 1 1.792-2.813 8.52 8.52 0 0 1 9.3-1.796 7.72 7.72 0 0 1 4.608 4.608 8.53 8.53 0 0 1 .683 3.246 8.99 8.99 0 0 1-2.475 6.059 9.99 9.99 0 0 1-2.817 1.792c-1.025.437-2.126.67-3.24.683zm0-34.134a11.92 11.92 0 0 1-1.708-.171 5.57 5.57 0 0 1-1.533-.512 6.54 6.54 0 0 1-1.542-.77l-1.275-1.02a9.86 9.86 0 0 1-1.792-2.817c-.437-1.026-.67-2.127-.683-3.242a8.95 8.95 0 0 1 2.475-6.06 8.71 8.71 0 0 1 9.3-1.796c1.034.435 1.987 1.042 2.817 1.796l1.025 1.363c.335.437.594.927.767 1.45a5.28 5.28 0 0 1 .508 1.538c.104.564.162 1.135.175 1.7-.014 1.115-.246 2.216-.683 3.242a9.86 9.86 0 0 1-1.792 2.817 9.99 9.99 0 0 1-2.817 1.792c-1.026.437-2.127.67-3.242.682z" fill="#e64c3c"/></svg>