<svg xmlns="http://www.w3.org/2000/svg" xmlns:xlink="http://www.w3.org/1999/xlink" viewBox="0 0 512 512"><path d="M220.7 378.227h70.62V504.54H220.7zm245.66-282.89C443.84 37.828 388.383-.01 326.62 0H185.38C123.617-.01 68.16 37.828 45.64 95.338h420.72z" fill="#95a5a5"/><path d="M150.07 52.966H361.93c82.88 0 150.07 67.188 150.07 150.068V256c0 82.88-67.188 150.07-150.07 150.07H150.07C67.188 406.07 0 338.88 0 256v-52.966c0-82.88 67.188-150.068 150.07-150.068z" fill="#bdc3c7"/><path d="M476.7 203.034V256c0 63.38-51.38 114.76-114.76 114.76H150.07C86.7 370.76 35.3 319.38 35.3 256v-52.966c0-63.38 51.38-114.76 114.76-114.76H361.93c63.38.001 114.76 51.38 114.76 114.76z" fill="#2c3e50"/><path d="M176.552 476.7h150.07c9.75 0 17.655 7.904 17.655 17.655V512h-185.38v-17.655c0-9.75 7.904-17.655 17.655-17.655z" fill="#bdc3c7"/><path d="M291.3 476.7L256 512h-35.3l35.3-35.3z" fill="#2c3e50"/><g fill="#2fa8cc"><path d="M150.07 344.276a113.98 113.98 0 0 1-81.112-33.647 8.83 8.83 0 0 1 0-12.483 8.83 8.83 0 0 1 12.483 0c18.187 18.23 42.88 28.474 68.63 28.474s50.442-10.245 68.63-28.474a8.83 8.83 0 0 1 12.483 0 8.83 8.83 0 0 1 0 12.483c-21.46 21.6-50.666 33.714-81.112 33.647z"/><use xlink:href="#B"/></g><circle cx="150.069" cy="229.517" r="52.966" fill="#e57e25"/><circle cx="136.828" cy="216.276" r="13.241" fill="#f0c419"/><g fill="#2fa8cc"><path d="M361.93 344.276a113.98 113.98 0 0 1-81.112-33.647c-2.23-2.23-3.1-5.48-2.285-8.526s3.195-5.425 6.24-6.24 6.296.055 8.526 2.285c18.187 18.23 42.88 28.474 68.63 28.474s50.442-10.245 68.63-28.474c2.23-2.23 5.48-3.1 8.526-2.285s5.425 3.195 6.24 6.24-.055 6.296-2.285 8.526c-21.456 21.6-50.664 33.714-81.1 33.647z"/><use xlink:href="#B" x="211.862"/></g><circle cx="361.931" cy="229.517" r="52.966" fill="#e57e25"/><circle cx="348.69" cy="216.276" r="13.241" fill="#f0c419"/><defs ><path id="B" d="M224.94 163.474c-2.342.003-4.588-.928-6.24-2.586-18.187-18.23-42.88-28.474-68.63-28.474s-50.442 10.245-68.63 28.474a8.83 8.83 0 0 1-12.483 0 8.83 8.83 0 0 1 0-12.483c21.497-21.54 50.68-33.647 81.112-33.647a114.59 114.59 0 0 1 81.112 33.647 8.83 8.83 0 0 1-6.242 15.069h0z"/></defs></svg>