<svg xmlns="http://www.w3.org/2000/svg" viewBox="0 0 512 512"><path d="M478.2 219.807l-27.983-16.772h-.088l.088-17.655c0-97.103-70.62-123.586-70.62-123.586C335.448 0 256 0 256 0s-79.448 0-123.586 61.793c0 0-70.62 26.483-70.62 123.586l.088 17.655h-.088L33.8 219.807a26.62 26.62 0 0 0-12.27 28.16l27.807 132.15a26.56 26.56 0 0 0 20.745 20.568l23.658 4.68 1.59 18.008c1.133 12.073 6.44 23.374 15.007 31.956 18.008 18.097 51.377 47.934 80.508 55.084h.088A49.02 49.02 0 0 0 203.036 512h105.93c4.082-.024 8.144-.558 12.094-1.59h.088c29.13-7.15 62.5-36.988 80.508-55.085 8.567-8.582 13.874-19.883 15.007-31.956l1.59-18.008 23.658-4.68a26.56 26.56 0 0 0 20.745-20.568l27.807-132.15a26.63 26.63 0 0 0-12.273-28.159z" fill="#35495e"/><path d="M97.103 185.38l8.386 167.636-17.125-4.325a26.34 26.34 0 0 1-19.95-22.863c-2.295-22.863-5.914-65.766-6.532-122.792l-.088-17.655c0-97.103 70.62-123.586 70.62-123.586-26.14 35.662-38.663 79.496-35.312 123.585z" fill="#bdc3c7"/><path d="M93.75 405.363l-23.658-4.68a26.56 26.56 0 0 1-20.745-20.568L21.54 247.967a26.62 26.62 0 0 1 12.27-28.16l27.983-16.772h.088c.618 57.026 4.237 99.928 6.532 122.792a26.34 26.34 0 0 0 19.95 22.863l.353.088 5.034 56.585z" fill="#7f8c8d"/><path d="M423.283 348.777l-6.62 74.593c-1.133 12.073-6.44 23.374-15.007 31.956-18.008 18.097-51.377 47.934-80.508 55.084h-.088a49.02 49.02 0 0 1-12.094 1.589h-105.93c-4.082-.024-8.144-.558-12.094-1.59h-.088c-29.13-7.15-62.5-36.988-80.508-55.085-8.567-8.582-13.874-19.883-15.007-31.956l-6.62-74.593 16.772 4.237.44 8.916s0 26.483 44.138 44.138S256 423.724 256 423.724s61.793 0 105.93-17.655 44.138-44.138 44.138-44.138l.44-8.916 16.773-4.238z" fill="#95a5a5"/><path d="M450.207 185.38l-.088 17.655c-.618 57.026-4.237 99.928-6.532 122.792a26.34 26.34 0 0 1-19.95 22.863l-.353.088-16.772 4.237 8.386-167.636a185.3 185.3 0 0 0-35.31-123.586c-.002.001 70.62 26.484 70.62 123.587z" fill="#bdc3c7"/><path d="M490.46 247.967l-27.807 132.15a26.56 26.56 0 0 1-20.745 20.568l-23.658 4.68 5.032-56.585.353-.088a26.34 26.34 0 0 0 19.95-22.863c2.295-22.863 5.914-65.766 6.532-122.792h.088l27.983 16.772a26.62 26.62 0 0 1 12.272 28.16zM209.655 512h-6.62a48.98 48.98 0 0 1-12.094-1.59h-.088l-13.948-48.993c-1.287-4.67 1.44-9.502 6.104-10.813s9.5 1.4 10.845 6.047l15.8 55.35zm125.44-50.582l-13.948 48.993h-.088A49.02 49.02 0 0 1 308.965 512h-6.62l15.8-55.35c1.336-4.656 6.182-7.358 10.845-6.047s7.392 6.144 6.105 10.814z" fill="#7f8c8d"/><path d="M256 344.276a8.83 8.83 0 0 1-3.358-.707c-1.068-.448-2.052-1.075-2.9-1.854a8.74 8.74 0 0 1-2.56-6.267 9.1 9.1 0 0 1 2.56-6.268 8.84 8.84 0 0 1 9.621-1.854 10.18 10.18 0 0 1 2.914 1.854 9.29 9.29 0 0 1 2.561 6.268c.03 1.158-.212 2.306-.707 3.353-.45 1.068-1.077 2.053-1.854 2.914a8.75 8.75 0 0 1-6.267 2.56zm-26.483 0a8.83 8.83 0 0 1-3.358-.707c-1.068-.448-2.052-1.075-2.9-1.854a8.74 8.74 0 0 1-2.56-6.267c.018-.592.077-1.183.177-1.767.095-.552.272-1.087.526-1.586a6.76 6.76 0 0 1 .797-1.595l1.06-1.32a8.83 8.83 0 0 1 15.095 6.267c.022 2.348-.9 4.606-2.56 6.268-.86.78-1.844 1.406-2.914 1.854a8.82 8.82 0 0 1-3.353.706zm-26.483 0c-2.348.022-4.606-.9-6.268-2.56a10.24 10.24 0 0 1-1.858-2.914 8.81 8.81 0 0 1-.702-3.354c.033-2.337.947-4.576 2.56-6.268a10.18 10.18 0 0 1 2.909-1.854c2.15-.888 4.562-.888 6.7 0 1.08.427 2.07 1.056 2.914 1.854a9.29 9.29 0 0 1 2.561 6.268c-.014 1.153-.254 2.293-.707 3.353-.45 1.068-1.077 2.053-1.854 2.914a8.75 8.75 0 0 1-6.266 2.561zM185.38 361.93a8.83 8.83 0 0 1-3.358-.707 7.98 7.98 0 0 1-4.767-4.767c-.937-2.138-.937-4.57 0-6.707a9.08 9.08 0 0 1 1.857-2.914 8.91 8.91 0 0 1 8.03-2.388c.553.1 1.1.28 1.6.535a6.46 6.46 0 0 1 1.59.793c.46.328.903.682 1.324 1.06a9.17 9.17 0 0 1 1.854 2.914 8.74 8.74 0 0 1-8.122 12.18zm97.103-17.654c-2.348.022-4.606-.9-6.268-2.56a10.24 10.24 0 0 1-1.858-2.914 8.81 8.81 0 0 1-.702-3.354c.033-2.337.947-4.576 2.56-6.268a10.18 10.18 0 0 1 2.909-1.854c1.6-.707 3.4-.894 5.12-.535.553.1 1.1.28 1.6.535.543.173 1.05.44 1.5.793.53.353.97.707 1.414 1.06a9.29 9.29 0 0 1 2.561 6.268c.023 2.348-.9 4.607-2.56 6.267a8.74 8.74 0 0 1-6.268 2.562zm26.483 0a8.83 8.83 0 0 1-3.358-.707 10.18 10.18 0 0 1-2.909-1.854 8.74 8.74 0 0 1-2.56-6.267 9.1 9.1 0 0 1 2.56-6.268l1.4-1.06a4.88 4.88 0 0 1 1.5-.793c.5-.255 1.037-.435 1.6-.535a8.92 8.92 0 0 1 8.035 2.388l1.056 1.32c.335.494.604 1.03.797 1.595a5.73 5.73 0 0 1 .53 1.586 12.47 12.47 0 0 1 .176 1.768c.022 2.348-.9 4.606-2.56 6.268-.86.78-1.844 1.406-2.914 1.854a8.83 8.83 0 0 1-3.353.706zM256 379.586c-2.348.022-4.606-.9-6.268-2.56a10.24 10.24 0 0 1-1.858-2.914c-.937-2.138-.937-4.57 0-6.707a7.98 7.98 0 0 1 4.767-4.767 8.84 8.84 0 0 1 9.625 1.854 9.17 9.17 0 0 1 1.854 2.914c.943 2.136.943 4.57 0 6.707-.45 1.068-1.077 2.053-1.854 2.914-.86.78-1.844 1.406-2.914 1.854a8.82 8.82 0 0 1-3.352.705zm-26.483 0a8.83 8.83 0 0 1-3.358-.707 7.98 7.98 0 0 1-4.767-4.767c-.937-2.138-.937-4.57 0-6.707a9.08 9.08 0 0 1 1.857-2.914 10.18 10.18 0 0 1 2.909-1.854c3.292-1.343 7.067-.616 9.625 1.854a9.17 9.17 0 0 1 1.854 2.914c.943 2.136.943 4.57 0 6.707-.45 1.068-1.077 2.053-1.854 2.914-.86.78-1.844 1.406-2.914 1.854-1.06.452-2.2.692-3.352.706zm-26.483 0a8.83 8.83 0 0 1-3.358-.707 7.98 7.98 0 0 1-4.767-4.767c-.937-2.138-.937-4.57 0-6.707a9.08 9.08 0 0 1 1.857-2.914 8.81 8.81 0 0 1 9.621-1.854 10.18 10.18 0 0 1 2.914 1.854 9.17 9.17 0 0 1 1.854 2.914c.943 2.136.943 4.57 0 6.707-.45 1.068-1.077 2.053-1.854 2.914-1.66 1.66-3.92 2.58-6.267 2.56zm79.45 0c-2.348.022-4.606-.9-6.268-2.56a10.24 10.24 0 0 1-1.858-2.914c-.937-2.138-.937-4.57 0-6.707a9.08 9.08 0 0 1 1.858-2.914 10.18 10.18 0 0 1 2.909-1.854c1.6-.707 3.4-.894 5.12-.535.553.1 1.1.28 1.6.535.543.173 1.05.44 1.5.793.506.304.98.66 1.414 1.06a9.17 9.17 0 0 1 1.854 2.914c.943 2.136.943 4.57 0 6.707-.45 1.068-1.077 2.053-1.854 2.914-.86.78-1.844 1.406-2.914 1.854-1.06.452-2.2.692-3.353.706zm26.483 0c-2.348.022-4.606-.9-6.268-2.56a10.24 10.24 0 0 1-1.858-2.914c-.937-2.138-.937-4.57 0-6.707a7.98 7.98 0 0 1 4.767-4.767c1.6-.707 3.4-.894 5.12-.535.553.1 1.1.28 1.6.535a6.46 6.46 0 0 1 1.59.793 14.77 14.77 0 0 1 1.324 1.06 9.17 9.17 0 0 1 1.854 2.914 8.83 8.83 0 0 1 .706 3.354c.03 1.158-.212 2.306-.707 3.353-.45 1.068-1.077 2.053-1.854 2.914a8.75 8.75 0 0 1-6.267 2.56zm17.654-17.656a8.83 8.83 0 0 1-3.358-.707 10.18 10.18 0 0 1-2.909-1.854 8.75 8.75 0 0 1-1.858-9.621c.427-1.08 1.058-2.07 1.857-2.914.43-.402.904-.757 1.4-1.06a4.88 4.88 0 0 1 1.5-.793c.5-.255 1.037-.435 1.6-.535a8.43 8.43 0 0 1 5.121.535c2.217.804 3.963 2.55 4.767 4.767a7.4 7.4 0 0 1 .708 3.354c.023 2.348-.9 4.607-2.56 6.267a8.74 8.74 0 0 1-6.268 2.56z" fill="#ff5364"/><path d="M229.513 211.862c-1.234.001-2.454-.258-3.582-.76l-79.448-35.3c-4.456-1.98-6.463-7.2-4.483-11.655s7.2-6.463 11.655-4.483l79.448 35.3a8.83 8.83 0 0 1-3.59 16.897z" fill="#46b29d"/><path d="M158.897 220.7h35.3a8.83 8.83 0 0 1 8.828 8.828v35.3a8.83 8.83 0 0 1-8.828 8.828h-35.3a8.83 8.83 0 0 1-8.828-8.828v-35.3a8.83 8.83 0 0 1 8.828-8.828z" fill="#f29c1f"/><path d="M282.487 211.862a8.83 8.83 0 0 1-3.59-16.896l79.448-35.3a8.83 8.83 0 0 1 12.367 8.998 8.83 8.83 0 0 1-5.195 7.14l-79.448 35.3a8.82 8.82 0 0 1-3.582.758z" fill="#46b29d"/><path d="M353.103 273.655h-35.3a8.83 8.83 0 0 1-8.828-8.828v-35.3a8.83 8.83 0 0 1 8.828-8.828h35.3a8.83 8.83 0 0 1 8.828 8.828v35.3a8.83 8.83 0 0 1-8.828 8.828z" fill="#f29c1f"/></svg>