<svg xmlns="http://www.w3.org/2000/svg" viewBox="0 0 512.019 512.019"><path d="M499.12 337.4l-17.037 45.55c-3.334 8.852-11.144 15.248-20.48 16.772l-37.87 6.356-.706-.353c-3 6.18-6.09 11.917-9.357 17.302l1.236.706s8.828 52.966 44.138 70.62c0 0-70.62 44.138-132.414-8.828l-.353-.794C295.646 498.778 266.162 512.02 256 512.02s-39.636-13.24-70.268-27.277l-.353.794c-61.793 52.966-132.414 8.828-132.414 8.828 35.3-17.655 44.138-70.62 44.138-70.62l1.236-.706c-3.266-5.385-6.356-11.123-9.357-17.302l-.706.353-37.87-6.356c-9.336-1.524-17.146-7.92-20.48-16.772L12.9 337.4c-2.6-6.883-2.174-14.537 1.148-21.098l20.215-40.52c-19.422-74.946 29.57-145.125 29.57-145.125L40.175 81.94c-6.18-12.888 23.923-40.077 67.178-60.9 43.343-20.833 83.42-27.277 89.6-14.39l12.712 26.13c30.332-8.356 62.358-8.356 92.7 0l12.712-26.13c6.18-12.888 46.257-6.444 89.6 14.39 43.255 20.833 73.357 48.022 67.178 60.9l-23.658 48.728s48.993 70.18 29.572 145.126l8.12 16.33 12.094 24.188c3.32 6.56 3.738 14.215 1.147 21.098z" fill="#84b5cb"/><path d="M185.742 484.742l-17.655-8.12-.353-51.377a17.61 17.61 0 0 0-12.006-16.772l-77.77-26.395V382l-9.446-21.804L161.3 391.7a35.15 35.15 0 0 1 24.099 33.457l.354 59.586zM443.33 360.45l-9.357 21.804-77.065 26.218a17.61 17.61 0 0 0-12.006 16.772l-.353 51.112-17.655 8.12.353-59.32c-.038-15.187 9.682-28.682 24.1-33.457l91.984-31.25z" fill="#547580"/><path d="M91.28 315.84a17.39 17.39 0 0 1-6.423-17.134c4.55-23.006 20.4-76.112 68.982-69.17 61.793 8.828 61.793 79.448 61.793 79.448s-17.655 44.138-61.793 35.3A153.36 153.36 0 0 1 91.28 315.83zm329.46 0a17.39 17.39 0 0 0 6.423-17.134c-4.55-23.006-20.4-76.112-68.982-69.17-61.793 8.828-61.793 79.448-61.793 79.448s17.655 44.138 61.793 35.3a153.39 153.39 0 0 0 62.56-28.454z" fill="#ff5364"/><path d="M269.5 405.812a8.83 8.83 0 0 1-.754-17.62 52.18 52.18 0 0 0 9.508-1.625 14.15 14.15 0 0 0 4.875-2.142c-.086-.15-.207-.46-.414-.87a17.62 17.62 0 0 0-6.241-6.81 32.99 32.99 0 0 0-9.255-4.099 51.52 51.52 0 0 0-8.565-1.638l-2.65-.207a48.87 48.87 0 0 0-2.642.207 51.54 51.54 0 0 0-8.565 1.638c-3.277.883-6.4 2.265-9.254 4.1a17.63 17.63 0 0 0-6.241 6.81 5.25 5.25 0 0 0-.448 1.134 23.26 23.26 0 0 0 4.909 1.879c3.113.834 6.296 1.378 9.51 1.625 3.147.266 5.912 2.192 7.25 5.053s1.048 6.218-.764 8.805-4.867 4.01-8.013 3.728c-4.34-.338-8.638-1.087-12.836-2.237a26.97 26.97 0 0 1-13.871-8.077c-4.564-5.648-5.172-13.524-1.53-19.806a35.26 35.26 0 0 1 12.241-13.603 50.55 50.55 0 0 1 14.194-6.384 68.51 68.51 0 0 1 11.573-2.225c.866-.1 1.65-.155 2.328-.203a9.01 9.01 0 0 1 1.457-.121h1.414a9.23 9.23 0 0 1 1.379.116c.694.047 1.504.112 2.405.207a68.41 68.41 0 0 1 11.573 2.225c5.032 1.382 9.82 3.536 14.194 6.384 5.206 3.378 9.43 8.07 12.24 13.603a17.53 17.53 0 0 1-1.53 19.806 26.96 26.96 0 0 1-13.871 8.077c-4.198 1.15-8.496 1.9-12.836 2.237-.257.027-.516.035-.77.035z" fill="#547580"/><path d="M92.7 220.7a8.83 8.83 0 0 1-7.655-13.207c.397-.7 40.62-68.82 126.7-21a8.83 8.83 0 0 1 .296 15.34c-2.727 1.622-6.115 1.657-8.874.1-70.987-39.43-101.54 12.103-102.806 14.32-1.57 2.755-4.5 4.454-7.672 4.45zm326.63 0a8.82 8.82 0 0 1-7.655-4.418c-1.323-2.263-32.328-53.483-102.823-14.35-2.76 1.567-6.147 1.533-8.874-.1a8.83 8.83 0 0 1-4.312-7.756c.06-3.172 1.82-6.068 4.608-7.584 86.1-47.832 126.32 20.302 126.7 21a8.83 8.83 0 0 1-7.655 13.206zM300.148 450.226h-88.276C220.7 423.743 256 423.743 256 423.743s35.3 0 44.138 26.483z" fill="#35495e"/><path d="M129.687 67.55C86.432 88.295 46.355 94.74 40.175 81.94c-6.18-12.888 23.923-40.077 67.178-60.9 43.343-20.833 83.42-27.277 89.6-14.39 6.09 12.8-23.923 40.077-67.266 60.9z" fill="#b0d3f0"/><path d="M70.454 144.174l-.706-1.5" fill="none" stroke="#000" stroke-width="2" stroke-linecap="round" stroke-linejoin="round"/><path d="M471.844 81.94c-6.18 12.8-46.257 6.356-89.512-14.39-43.343-20.833-73.357-48.1-67.266-60.9 6.18-12.888 46.257-6.444 89.6 14.39 43.255 20.833 73.357 48.022 67.178 60.9z" fill="#b0d3f0"/><path d="M471.844 81.94l-23.658 48.728-5.914 12.006h-.088c-2.913 6.003-13.065 7.768-27.543 5.914-21.564-3.596-42.458-10.442-61.97-20.303-37.87-18.185-65.59-41.225-67.708-55.35a8.4 8.4 0 0 1 .53-5.561l16.86-34.604 12.712-26.13c-6.09 12.8 23.923 40.077 67.267 60.9 43.255 20.745 83.332 27.19 89.51 14.39z" fill="#35495e"/><path d="M44.6 300.157l-1.236.53-1.6-3.443a137.99 137.99 0 0 1-7.503-21.45C14.84 200.848 63.833 130.67 63.833 130.67l5.914 12.006h.088c2.913 6.003 13.065 7.768 27.543 5.914l.177 1.5c0-.001-61.794 61.792-52.966 150.068zm433.17-24.364a137.95 137.95 0 0 1-7.503 21.45l-1.6 3.443-1.236-.53c8.828-88.276-52.966-150.07-52.966-150.07l.177-1.5c14.477 1.854 24.63.088 27.543-5.914h.088l5.914-12.006c-.001.001 48.992 70.18 29.572 145.126zM285.494 67.374a8.4 8.4 0 0 0-.53 5.561 183.74 183.74 0 0 0-57.9 0 8.4 8.4 0 0 0-.53-5.561l-16.86-34.604c30.332-8.356 62.358-8.356 92.7 0l-16.86 34.604z" fill="#f0785a"/><path d="M88.992 405.735l-.706.353-37.87-6.356c-9.336-1.524-17.146-7.92-20.48-16.772L12.9 337.4c-2.6-6.883-2.174-14.537 1.148-21.098l20.215-40.52a137.95 137.95 0 0 0 7.503 21.45l1.6 3.443c17.92 40.52 31.425 76.8 45.638 105.048zm138.063-332.8c-2.12 14.124-29.837 37.164-67.708 55.35a216.2 216.2 0 0 1-61.97 20.303c-14.477 1.854-24.63.088-27.543-5.914h-.088l-5.914-12.006L40.175 81.94c6.18 12.8 46.257 6.356 89.512-14.4 43.343-20.833 73.357-48.1 67.266-60.9l29.573 60.734c.806 1.74.993 3.7.53 5.56zM499.12 337.4l-17.037 45.55c-3.334 8.852-11.144 15.248-20.48 16.772l-37.87 6.356-.706-.353c14.212-28.248 27.72-64.53 45.64-105.048l1.6-3.443a137.99 137.99 0 0 0 7.503-21.45l20.215 40.52a26.25 26.25 0 0 1 1.147 21.098z" fill="#35495e"/><path d="M185.742 484.742l-.353.794c-61.793 52.966-132.414 8.828-132.414 8.828 35.3-17.655 44.138-70.62 44.138-70.62l1.236-.706c8.5 17.08 22.23 30.996 39.194 39.724 14.4 6.268 31.427 14.3 48.2 21.98zm273.302 9.622s-70.62 44.138-132.414-8.828l-.353-.794 48.2-21.98a89.54 89.54 0 0 0 39.195-39.724l1.236.706c-.001 0 8.827 52.966 44.137 70.62z" fill="#f0785a"/><g fill="#fb7b76"><circle cx="132.423" cy="273.675" r="17.655"/><circle cx="176.561" cy="282.502" r="8.828"/><circle cx="344.286" cy="273.675" r="17.655"/><circle cx="388.423" cy="282.502" r="8.828"/></g></svg>