<svg xmlns="http://www.w3.org/2000/svg" viewBox="0 0 512.008 512.008"><path d="M475.635 296.35c23.938-78.9 3.72-164.597-52.966-224.486-65.453-69.3-166.955-90.88-254.94-54.2a225.97 225.97 0 0 0-78.389 54.2 228.03 228.03 0 0 0-62.852 157.661c0 6.7.265 13.33.883 19.862v.088a121.4 121.4 0 0 0-.883 15.007v117.23c-.18 10.97 4.007 21.562 11.64 29.443s18.085 12.405 29.056 12.576h3.443s0 61.793 70.62 61.793v26.483H353.1v-26.483c70.62 0 70.62-61.793 70.62-61.793l.177-.794c2.047.53 4.153.797 6.268.794a24.13 24.13 0 0 0 19.421-9.799c17.142-22.615 26.635-50.103 27.1-78.477 0-12.182 0-25.335-1.06-39.018v-.087zM163.68 311.526a26.43 26.43 0 1 1-4.78 15.103 25.97 25.97 0 0 1 4.78-15.103zm145.3-11.38c8.7.013 16.822 4.294 21.75 11.453 3.102 4.396 4.756 9.65 4.733 15.03 0 14.626-11.857 26.483-26.483 26.483s-26.483-11.857-26.483-26.483 11.857-26.483 26.483-26.483zM182.026 334.75a7.42 7.42 0 0 0 3.358.707 8.86 8.86 0 0 0 8.15-5.464c1.368-3.296.626-7.093-1.883-9.63-2.546-2.493-6.334-3.225-9.625-1.858a10.16 10.16 0 0 0-2.91 1.858 8.95 8.95 0 0 0 0 12.534c.858.778 1.84 1.404 2.9 1.854zm126.944.707a13.36 13.36 0 0 0 1.763-.177c.553-.098 1.1-.277 1.6-.53a6.71 6.71 0 0 0 1.59-.797 14.15 14.15 0 0 0 1.324-1.056c1.6-1.693 2.525-3.93 2.56-6.268a8.83 8.83 0 0 0-.707-3.358 9.14 9.14 0 0 0-1.854-2.909 9.24 9.24 0 0 0-12.534 0 9.08 9.08 0 0 0-1.858 2.91 8.81 8.81 0 0 0-.702 3.358c-.023 2.348.9 4.607 2.56 6.267a8.74 8.74 0 0 0 6.266 2.561z" fill="#d25627"/><path d="M406.25 402.9l-.177-3.266v-46.52c0-8.828 0-26.483-26.483-44.138S361.758 228.3 361.758 228.3c-.177 0-.44.088-.618.088-11.476 1.324-23.834-.088-34.516.177-15.978.265-32.132 2.03-48.022 3.62a473.46 473.46 0 0 0-109.639 21.804c-24.894 8.828-61.087 25.247-61.087 57.644v70.09c.32 21.5-15.86 39.675-37.252 41.843-1.148.088-2.295.177-3.443.177h3.443s0 61.793 70.62 61.793h211.862c70.62 0 70.62-61.793 70.62-61.793l.177-.794a24.62 24.62 0 0 1-17.655-20.04zm-256.177-76.27a34.54 34.54 0 0 1 6.356-20.127 35.25 35.25 0 0 1 44.473-11.425c15.612 7.695 23.27 25.633 18.03 42.23s-21.813 26.884-39.012 24.217-29.877-17.5-29.846-34.895zm167.725 105.93c-.015 4.87-3.958 8.813-8.828 8.828H185.384c-4.87-.015-8.813-3.958-8.828-8.828v-17.655c.015-4.87 3.958-8.813 8.828-8.828H308.97c4.87.015 8.813 3.958 8.828 8.828v17.655zm-8.828-70.62c-16.776.028-31.255-11.752-34.64-28.182s5.255-32.975 20.674-39.583 33.36-1.455 42.922 12.328a34.54 34.54 0 0 1 6.356 20.127 35.3 35.3 0 0 1-35.311 35.31z" fill="#95a5a5"/><path d="M129.947 120.593a268.36 268.36 0 0 0-78.742 69.385 120.85 120.85 0 0 0-23.834 59.41c-.618-6.532-.883-13.153-.883-19.862A228.02 228.02 0 0 1 89.34 71.866l40.607 48.728zM256.005.008v88.54a219.02 219.02 0 0 0-62.588 6.268L167.73 17.664C195.688 5.97 225.698-.032 256.005.008z" fill="#f29c1f"/><path d="M389.566 212.84c-.99 1.508-2.114 2.926-3.354 4.237a40.01 40.01 0 0 1-24.452 11.211c-.177 0-.44.088-.618.088-11.476 1.324-23.834-.088-34.516.177-15.978.265-32.132 2.03-48.022 3.62a473.46 473.46 0 0 0-109.639 21.804c-24.894 8.828-61.087 25.247-61.087 57.644v70.09c.32 21.5-15.86 39.675-37.252 41.843-1.148.088-2.295.177-3.443.177a41.35 41.35 0 0 1-29.056-12.576c-7.633-7.88-11.82-18.473-11.64-29.443v-117.23a121.4 121.4 0 0 1 .883-15.007v-.088a120.85 120.85 0 0 1 23.834-59.41 268.36 268.36 0 0 1 78.742-69.385c19.833-11.548 41.202-20.226 63.47-25.777a219.08 219.08 0 0 1 62.588-6.268c15.192.63 30.264 2.97 44.932 6.974 5.297 1.412 10.593 3 15.8 4.855a178.73 178.73 0 0 1 27.895 12.359 124.52 124.52 0 0 1 27.277 20.039 84.06 84.06 0 0 1 20.568 28.69c1.223 2.71 2.226 5.515 3 8.386 4.414 14.505 2.253 30.215-5.912 43z" fill="#f0c419"/><path d="M476.694 335.457a133.54 133.54 0 0 1-27.101 78.477 24.13 24.13 0 0 1-19.421 9.799 24.96 24.96 0 0 1-6.268-.794c-9.312-2.63-16.22-10.47-17.655-20.04-.088-1.06-.177-2.12-.177-3.266v-11.21c65.854-98.87-6.532-166.93-16.508-175.58 8.165-12.775 10.326-28.485 5.914-43-.775-2.87-1.78-5.675-3-8.386 64.44 40.254 79.536 90.218 83.156 134.885v.088c1.06 13.682 1.06 26.836 1.06 39.018z" fill="#e57e25"/><path d="M422.67 71.865l-50.76 60.9c-8.138-7.89-17.315-14.63-27.277-20.04a178.77 178.77 0 0 0-27.895-12.359l27.542-82.714a225.96 225.96 0 0 1 78.389 54.202z" fill="#f29c1f"/><path d="M141.246 485.526h211.862v26.483H141.246z" fill="#547580"/><path d="M185.384 282.49c-10.83.008-21.28 4.005-29.35 11.227a8.8 8.8 0 0 0-12.202 12.669l1.61 1.61c-1.455 3.13-2.53 6.42-3.2 9.805h-.995a8.83 8.83 0 0 0-8.828 8.828 8.83 8.83 0 0 0 8.828 8.828h.892c4.646 22.758 26.135 38.022 49.154 34.913s39.69-23.526 38.13-46.7-20.81-41.178-44.04-41.178zm0 70.62c-14.62-.016-26.467-11.863-26.483-26.483a25.96 25.96 0 0 1 4.78-15.103 26.47 26.47 0 0 1 47.641 20.461 26.47 26.47 0 0 1-25.938 21.125z" fill="#804169"/><path d="M185.384 335.457c-1.16.03-2.31-.212-3.358-.707-1.068-.45-2.05-1.076-2.9-1.854a8.95 8.95 0 0 1 0-12.534 10.18 10.18 0 0 1 2.91-1.858c3.29-1.367 7.08-.636 9.625 1.858a8.83 8.83 0 0 1-6.267 15.095z" fill="#2c2f38"/><g fill="#804169"><path d="M308.97 370.767c-20.968.027-39.06-14.702-43.29-35.24s6.578-41.215 25.852-49.47 41.697-1.812 53.647 15.417a43.36 43.36 0 0 1 7.927 25.155c-.028 24.365-19.772 44.11-44.137 44.138zm0-70.62c-14.626 0-26.483 11.857-26.483 26.483s11.857 26.483 26.483 26.483 26.483-11.857 26.483-26.483a25.87 25.87 0 0 0-4.733-15.03c-4.928-7.16-13.06-11.44-21.75-11.453z"/><path d="M337.923 315.332a8.83 8.83 0 0 1-6.241-15.069l6.358-6.358a8.83 8.83 0 0 1 12.482 12.482l-6.358 6.358a8.8 8.8 0 0 1-6.24 2.587zm15.185 20.125h-8.828a8.83 8.83 0 0 1-8.828-8.828 8.83 8.83 0 0 1 8.828-8.828h8.828a8.83 8.83 0 0 1 8.828 8.828 8.83 8.83 0 0 1-8.828 8.828z"/></g><path d="M308.97 335.457c-2.348.023-4.607-.9-6.267-2.56s-2.583-3.92-2.56-6.267c.012-1.154.25-2.295.703-3.358.427-1.08 1.058-2.068 1.857-2.9a9.24 9.24 0 0 1 12.534 0 9.15 9.15 0 0 1 1.854 2.909 8.83 8.83 0 0 1 .707 3.358c-.035 2.337-.95 4.574-2.56 6.268a14.01 14.01 0 0 1-1.323 1.056c-.492.335-1.027.603-1.59.797-.5.253-1.037.432-1.59.53a13.71 13.71 0 0 1-1.763.177z" fill="#2c2f38"/><path d="M406.073 388.422v-35.3c0-8.828 0-26.483-26.483-44.138S361.758 228.3 361.758 228.3a40.01 40.01 0 0 0 24.452-11.211c1.24-1.31 2.363-2.73 3.354-4.237 9.977 8.65 82.363 76.71 16.51 175.58z" fill="#f29c1f"/><path d="M211.867 406.077v35.3h-26.483c-4.87-.015-8.813-3.958-8.828-8.828v-17.655c.015-4.87 3.958-8.813 8.828-8.828h26.483z" fill="#c03a2b"/><path d="M211.867 406.077h35.3v35.3h-35.3zm105.93 8.828v17.655c-.015 4.87-3.958 8.813-8.828 8.828h-26.483v-35.3h26.483c4.87.014 8.813 3.958 8.828 8.827z" fill="#e64c3c"/><path d="M247.177 406.077h35.3v35.3h-35.3z" fill="#c03a2b"/><path d="M361.936 414.905c-2.337-.035-4.575-.95-6.268-2.56-.78-.86-1.41-1.844-1.858-2.914a8.81 8.81 0 0 1-.702-3.354c.033-2.337.947-4.576 2.56-6.268a10.19 10.19 0 0 1 2.909-1.858 8.87 8.87 0 0 1 6.711 0c1.08.428 2.07 1.06 2.914 1.858a8.83 8.83 0 0 1 1.937 9.653c-1.375 3.312-4.617 5.464-8.203 5.443z" fill="#547580"/></svg>