<svg xmlns="http://www.w3.org/2000/svg" viewBox="0 0 512 512"><g fill="#d1d4d1"><path d="M370.76 282.483h-35.3v52.966h17.655c.023 29.242 23.723 52.942 52.966 52.966v-70.62a35.3 35.3 0 0 0-35.311-35.311zm-229.52 0a35.3 35.3 0 0 0-35.311 35.309v70.62c29.242-.023 52.942-23.723 52.966-52.966h17.655V282.48h-35.3z"/><path d="M414.985 251.498l-2.825 3.266a79.61 79.61 0 0 1-59.057 27.719v61.263c.01 6.137-1.605 12.167-4.68 17.48l-25.512 44.756c-3.1 5.518-8.942 8.93-15.272 8.916h1.324v17.655a26.42 26.42 0 0 1-24.452 26.395l-.177.177c1.854 1.854 26.13 27.366-28.337 52.877-56.497-26.483-28.248-52.966-28.248-52.966v-.088c-13.918-.886-24.745-12.448-24.717-26.395v-17.655h1.412a17.62 17.62 0 0 1-15.36-8.916l-25.512-44.756c-3.073-5.312-4.687-11.342-4.68-17.48v-61.263a79.61 79.61 0 0 1-59.057-27.719l-2.825-3.266c-16.583-19.353-22.886-45.482-16.95-70.268L108.93 60.9C117.526 25.172 149.5-.014 186.26 0h139.476c36.758-.014 68.733 25.172 77.33 60.9l19.51 81.4 9.357 38.93c5.94 24.786-.363 50.915-16.946 70.268z"/></g><path d="M422.577 142.3c-3.1 32.486-15.537 96.044-64.088 96.044-65.236 0-46.6-17.655-102.488-17.655s-37.252 17.655-102.488 17.655c-48.552 0-61-63.56-64.088-96.044v-.088l19.51-81.302c8.597-35.738 40.572-60.924 77.33-60.9H325.74c36.758-.014 68.733 25.172 77.33 60.9l19.507 81.4z" fill="#2c2f38"/><path d="M353.103 282.483v61.263c.01 6.137-1.605 12.167-4.68 17.48l-25.512 44.756c-3.1 5.518-8.942 8.93-15.272 8.916H204.447a17.62 17.62 0 0 1-15.36-8.916l-25.512-44.756c-3.073-5.312-4.687-11.342-4.68-17.48v-61.263h194.207z" fill="#95a5a5"/><path d="M308.966 414.897v17.655a26.42 26.42 0 0 1-24.452 26.395h-.265a11.84 11.84 0 0 1-1.766.088h-52.966c-.6.015-1.18-.015-1.766-.088-13.918-.886-24.745-12.448-24.717-26.395v-17.655h105.932z" fill="#d1d4d1"/><path d="M256 512c-56.497-26.483-28.248-52.966-28.248-52.966v-.088a11.84 11.84 0 0 0 1.766.088h52.966c.6.015 1.18-.015 1.766-.088h.265l-.177.177C286.2 460.977 310.466 486.488 256 512z" fill="#cc4b4c"/><path d="M158.897 282.483v52.966H105.93v-17.655a35.3 35.3 0 0 1 35.309-35.311h17.656zm247.173 35.3v17.655h-52.966v-52.966h17.655a35.3 35.3 0 0 1 35.311 35.311z" fill="#a5a5a4"/><g fill="#7f8c8d"><path d="M264.828 282.483v35.3a8.83 8.83 0 0 1-8.828 8.828 8.83 8.83 0 0 1-8.828-8.828v-35.3h17.656zm0 88.277v44.138h-17.655V370.76a8.83 8.83 0 0 1 8.828-8.828 8.83 8.83 0 0 1 8.827 8.828zm61.792-88.277v52.966a35.24 35.24 0 0 1-26.483 34.163 32.33 32.33 0 0 1-8.828 1.148h-15.625a8.83 8.83 0 0 1-8.828-8.828 8.83 8.83 0 0 1 8.828-8.828H291.3a17.71 17.71 0 0 0 17.655-17.655v-52.966h17.656zm-81.478 79.447c-.015 4.87-3.958 8.813-8.828 8.828H220.7c-2.98.027-5.952-.36-8.828-1.148a35.24 35.24 0 0 1-26.483-34.163V282.48h17.655v52.966a17.71 17.71 0 0 0 17.655 17.655h15.625c4.87.015 8.814 3.96 8.828 8.828z"/><path d="M300.138 361.93v52.966h-17.655V370.76h-6.797a8.83 8.83 0 0 1-8.828-8.828 8.83 8.83 0 0 1 8.828-8.828h15.625c4.87.015 8.812 3.96 8.827 8.828zm-54.996 0c-.015 4.87-3.958 8.813-8.828 8.828h-6.797v44.138h-17.655V361.93c.015-4.87 3.958-8.813 8.828-8.828h15.625c4.87.015 8.813 3.96 8.827 8.828z"/></g><path d="M256 379.586c-19.5 0-35.3-15.81-35.3-35.3s15.81-35.3 35.3-35.3 35.3 15.81 35.3 35.3c-.022 19.492-15.818 35.288-35.3 35.3zm0-52.965c-9.75 0-17.655 7.904-17.655 17.655S246.25 361.93 256 361.93s17.655-7.904 17.655-17.655c-.01-9.747-7.908-17.646-17.655-17.655z" fill="#d1d4d1"/><path d="M198.62 203.034c-36.55-.04-66.167-29.658-66.207-66.207-.02-5.213.604-10.41 1.854-15.47a8.82 8.82 0 0 1 6.134-6.354c3.034-.868 6.3-.05 8.568 2.144s3.19 5.434 2.418 8.495c-.892 3.66-1.335 7.417-1.32 11.185 0 26.814 21.737 48.552 48.552 48.552s48.552-21.737 48.552-48.552c.068-13.27-5.363-25.974-15-35.095a8.83 8.83 0 0 1 12.173-12.793c13.154 12.445 20.57 29.78 20.483 47.888-.04 36.55-29.66 66.168-66.208 66.207z" fill="#e6e7e8"/><circle cx="225.103" cy="136.828" r="8.828" fill="#65ddb9"/><path d="M313.38 203.034c-36.55-.04-66.167-29.658-66.207-66.207-.086-18.108 7.33-35.443 20.483-47.888 3.533-3.36 9.12-3.222 12.483.3a8.83 8.83 0 0 1-.31 12.483c-9.637 9.12-15.068 21.826-15 35.095 0 26.814 21.737 48.552 48.552 48.552s48.552-21.737 48.552-48.552c.015-3.768-.428-7.524-1.32-11.185-.788-3.066.127-6.32 2.397-8.526s5.55-3.027 8.592-2.15 5.382 3.316 6.13 6.392c1.25 5.06 1.873 10.257 1.854 15.47-.04 36.548-29.66 66.167-66.208 66.206z" fill="#e6e7e8"/><circle cx="286.897" cy="136.828" r="8.828" fill="#65ddb9"/></svg>