<svg xmlns="http://www.w3.org/2000/svg" xmlns:xlink="http://www.w3.org/1999/xlink" viewBox="0 0 512 512"><path d="M418.133 307.2l22.914 28.642c7.263 9.078 11.22 20.358 11.22 31.984v135.64H59.733v-135.64c0-11.626 3.957-22.906 11.22-31.984L93.867 307.2h324.266z" fill="#35495e"/><path d="M418.133 128v258.048h-51.2l-18.005 35.925a8.51 8.51 0 0 1-15.19 0l-18.005-35.925H196.267l-18.005 35.925a8.51 8.51 0 0 1-15.19 0l-18.005-35.925h-51.2V128a34.13 34.13 0 0 1 9.995-24.139c6.402-6.402 15.085-9.997 24.14-9.995h256A34.13 34.13 0 0 1 418.133 128z" fill="#547580"/><circle cx="170.667" cy="51.2" r="42.667" fill="#95a5a5"/><path d="M170.667 59.733a8.98 8.98 0 0 1-6.059-2.475c-.77-.816-1.38-1.772-1.792-2.817-.48-1.012-.714-2.123-.683-3.242 0-4.713 3.82-8.533 8.533-8.533s8.533 3.82 8.533 8.533c-.014 1.115-.246 2.216-.683 3.242-.413 1.044-1.02 2-1.792 2.817a8.99 8.99 0 0 1-6.057 2.475z" fill="#2c2f38"/><circle cx="341.333" cy="51.2" r="42.667" fill="#95a5a5"/><g fill="#2c2f38"><path d="M341.333 59.733c-1.115-.014-2.216-.246-3.242-.683-1.034-.433-1.986-1.04-2.817-1.79-3.3-3.365-3.3-8.752 0-12.117a8.79 8.79 0 0 1 2.817-1.796c1.526-.675 3.226-.853 4.86-.51.566.08 1.115.25 1.625.508.543.188 1.06.447 1.533.77l1.283 1.025a8.76 8.76 0 0 1 1.792 2.813 8.04 8.04 0 0 1 0 6.487c-.393 1.055-1.003 2.014-1.792 2.817-.406.367-.835.708-1.283 1.02-.474.324-1 .583-1.533.77a5.3 5.3 0 0 1-1.625.513 10.7 10.7 0 0 1-1.617.17z"/><circle cx="162.133" cy="196.267" r="68.267"/><circle cx="349.867" cy="196.267" r="68.267"/><path d="M281.6 280.533c0 8.837-11.462 26.667-25.6 26.667s-25.6-17.83-25.6-26.667 11.462-16 25.6-16 25.6 7.164 25.6 16z"/><use xlink:href="#B"/><use xlink:href="#B" y="68.266"/><path d="M503.467 332.8H358.4c-4.713 0-8.533-3.82-8.533-8.533s3.82-8.533 8.533-8.533h145.067c4.713 0 8.533 3.82 8.533 8.533s-3.82 8.533-8.533 8.533z"/><use xlink:href="#C"/><use xlink:href="#C" y="68.267"/><path d="M153.6 324.267H8.533c-4.713 0-8.533-3.82-8.533-8.533s3.82-8.533 8.533-8.533H153.6c4.713 0 8.533 3.82 8.533 8.533s-3.82 8.533-8.533 8.533z"/></g><g fill="#e64c3c"><circle cx="183.467" cy="200.533" r="21.333"/><circle cx="328.533" cy="200.533" r="21.333"/></g><path d="M418.133 460.8v8.533c.002 9.053-3.593 17.737-9.995 24.138A34.13 34.13 0 0 1 384 503.466H128c-9.053.002-17.737-3.593-24.138-9.995a34.13 34.13 0 0 1-9.995-24.138V460.8a8.56 8.56 0 0 1 8.533-8.533h307.2a8.56 8.56 0 0 1 8.533 8.533z" fill="#547580"/><g fill="#2c2f38"><path d="M128 452.267v17.067c0 4.713-3.82 8.533-8.533 8.533s-8.533-3.82-8.533-8.533v-17.067H128z"/><use xlink:href="#D"/><use xlink:href="#D" x="34.134"/><path d="M230.4 452.267v17.067c0 4.713-3.82 8.533-8.533 8.533s-8.533-3.82-8.533-8.533v-17.067H230.4z"/><use xlink:href="#D" x="102.4"/><use xlink:href="#D" x="136.534"/><path d="M332.8 452.267v17.067c0 4.713-3.82 8.533-8.533 8.533s-8.533-3.82-8.533-8.533v-17.067H332.8z"/><use xlink:href="#D" x="204.8"/><path d="M401.067 452.267v17.067c0 4.713-3.82 8.533-8.533 8.533s-8.534-3.82-8.534-8.534v-17.067h17.067z"/></g><defs ><path id="B" d="M469.333 298.667H332.8c-4.713 0-8.533-3.82-8.533-8.533s3.82-8.533 8.533-8.533h136.533c4.713 0 8.533 3.82 8.533 8.533s-3.82 8.533-8.533 8.533z"/><path id="C" d="M179.2 290.133H42.667c-4.713 0-8.533-3.82-8.533-8.533s3.82-8.533 8.533-8.533H179.2c4.713 0 8.533 3.82 8.533 8.533s-3.82 8.533-8.533 8.533z"/><path id="D" d="M162.133 452.267v17.067c0 4.713-3.82 8.533-8.533 8.533s-8.533-3.82-8.533-8.533v-17.067h17.066z"/></defs></svg>