<svg xmlns="http://www.w3.org/2000/svg" viewBox="0 0 512.107 512.107"><path d="M509.405 185.61c-5.032-45.55-19.332-90.748-51.818-123.763-34.163-34.87-63.03-20.127-73.622-12.447-7.716-6.938-16.016-13.2-24.806-18.714-62.67-40.842-143.542-40.842-206.212 0-8.8 5.515-17.09 11.776-24.806 18.714-10.593-7.68-39.46-22.422-73.622 12.447C22.034 94.86 7.733 140.06 2.702 185.61.377 208.807-.45 232.13.23 255.435a491.32 491.32 0 0 0 3.796 76.535c2.648 15.007 9.092 26.13 24.452 30.014l1.942.177c-3.53 39.9 14.566 59.94 31.426 69.826 5.474 3.156 12.217 3.148 17.683-.022a17.66 17.66 0 0 0 8.8-15.338v-71.503a195 195 0 0 0 16.331 22.51 199.05 199.05 0 0 0 107.255 68.502v40.607c-9.722.07-17.585 7.934-17.655 17.655a17.71 17.71 0 0 0 17.655 17.655h88.276c9.72-.07 17.585-7.934 17.655-17.655a17.71 17.71 0 0 0-17.655-17.655v-40.607a199.35 199.35 0 0 0 107.167-68.326c0-.088.088-.088.088-.177 5.972-7.105 11.43-14.628 16.33-22.5v71.503a17.66 17.66 0 0 0 26.483 15.36c16.86-9.887 34.957-29.926 31.426-69.826l1.942-.177c15.36-3.884 21.804-15.007 24.452-30.014 3.256-25.374 4.525-50.964 3.796-76.535.68-23.303-.146-46.627-2.47-69.825z" fill="#3f5c6c"/><path d="M359.16 30.685c-18.626 13.24-57.82 22.334-103.106 22.334s-84.48-9.092-103.106-22.334c62.67-40.842 143.54-40.842 206.212 0z" fill="#95a5a5"/><path d="M229.57 198.674a133.34 133.34 0 0 1-3.972 32.839c-73.18 9.446-128.44 52.436-128.44 104a73.98 73.98 0 0 0 7.503 32.132 195.71 195.71 0 0 1-16.33-22.5C38.803 265.03 41.578 163.16 95.393 85.87a86.47 86.47 0 0 1 32.662-6.356c56.053-.013 101.515 53.307 101.515 119.16zm229.518 22.07a233.36 233.36 0 0 1-35.31 124.381 195 195 0 0 1-16.331 22.51 73.98 73.98 0 0 0 7.503-32.132c0-51.553-55.26-94.543-128.44-104a133.3 133.3 0 0 1-3.972-32.84C282.538 132.818 328 79.5 384.055 79.5a86.47 86.47 0 0 1 32.662 6.356 231.82 231.82 0 0 1 42.372 134.885z" fill="#2980ba"/><path d="M286.508 231.513c-20.22-2.59-40.69-2.59-60.9 0-73.18 9.446-128.44 52.436-128.44 103.99a73.98 73.98 0 0 0 7.503 32.132 199.05 199.05 0 0 0 107.255 68.502c11 2.67 22.236 4.353 33.545 5.032 3.53.177 7.062.265 10.593.265s7.062-.088 10.593-.265a190.78 190.78 0 0 0 33.545-5.032 199.35 199.35 0 0 0 107.167-68.326c0-.088.088-.088.088-.177a73.98 73.98 0 0 0 7.503-32.132c.001-51.553-55.26-94.543-128.44-103.988zM256.053 335.5c-29.22 0-52.966-29.484-52.966-44.138s23.746-26.483 52.966-26.483 52.966 11.83 52.966 26.483-23.746 44.138-52.966 44.138z" fill="#95a5a5"/><g fill="#547580"><path d="M256.053 379.64c-2.34.001-4.587-.93-6.243-2.585s-2.585-3.9-2.585-6.243v-35.3a8.83 8.83 0 0 1 8.828-8.828 8.83 8.83 0 0 1 8.828 8.828v35.3c.001 2.34-.93 4.587-2.585 6.243s-3.9 2.586-6.243 2.585z"/><path d="M214.674 401.708c-28.62 0-50.207-13.284-50.207-30.897a8.83 8.83 0 0 1 8.828-8.828 8.83 8.83 0 0 1 8.828 8.828c0 5.272 12.983 13.24 32.552 13.24s32.552-7.97 32.552-13.24a8.83 8.83 0 0 1 8.828-8.828 8.83 8.83 0 0 1 8.828 8.828c-.002 17.613-21.588 30.897-50.21 30.897z"/><path d="M297.432 401.708c-28.62 0-50.207-13.284-50.207-30.897a8.83 8.83 0 0 1 8.828-8.828 8.83 8.83 0 0 1 8.828 8.828c0 5.272 12.983 13.24 32.552 13.24s32.552-7.97 32.552-13.24a8.83 8.83 0 0 1 8.828-8.828 8.83 8.83 0 0 1 8.828 8.828c-.001 17.613-21.588 30.897-50.21 30.897z"/></g><path d="M300.19 436.136v40.607h-88.276v-40.607c11 2.67 22.236 4.353 33.545 5.032 3.53.177 7.062.265 10.593.265s7.062-.088 10.593-.265c11.31-.68 22.535-2.363 33.545-5.032z" fill="#e6e7e8"/><path d="M317.846 494.398c-.07 9.72-7.934 17.585-17.655 17.655h-88.276a17.71 17.71 0 0 1-17.655-17.655c.07-9.722 7.934-17.585 17.655-17.655h88.276a17.71 17.71 0 0 1 17.655 17.655z" fill="#547580"/><g fill="#ff5364"><circle cx="141.295" cy="132.467" r="8.828"/><circle cx="105.984" cy="132.467" r="8.828"/><circle cx="105.984" cy="167.777" r="8.828"/><circle cx="105.984" cy="203.088" r="8.828"/><circle cx="176.605" cy="132.467" r="8.828"/><circle cx="176.605" cy="167.777" r="8.828"/><circle cx="176.605" cy="203.088" r="8.828"/><circle cx="141.295" cy="220.743" r="8.828"/><circle cx="370.812" cy="132.467" r="8.828"/><circle cx="335.502" cy="132.467" r="8.828"/><circle cx="335.502" cy="167.777" r="8.828"/><circle cx="335.502" cy="203.088" r="8.828"/><circle cx="406.122" cy="132.467" r="8.828"/><circle cx="406.122" cy="167.777" r="8.828"/><circle cx="406.122" cy="203.088" r="8.828"/><circle cx="370.812" cy="220.743" r="8.828"/></g><path d="M416.715 85.857a86.47 86.47 0 0 0-32.662-6.356c-56.055 0-101.517 53.32-101.517 119.172a133.34 133.34 0 0 0 3.972 32.839c-20.22-2.59-40.69-2.59-60.9 0 2.682-10.74 4.017-21.77 3.972-32.84 0-65.854-45.462-119.172-101.517-119.172a86.47 86.47 0 0 0-32.662 6.356c9.444-13.4 20.437-25.637 32.75-36.458 7.716-6.938 16.016-13.2 24.806-18.714 18.626 13.24 57.82 22.334 103.106 22.334s84.48-9.092 103.106-22.334c8.8 5.515 17.09 11.776 24.806 18.714a208.28 208.28 0 0 1 32.75 36.458z" fill="#bdc3c7"/><path d="M309.02 291.364c0 14.654-23.746 44.138-52.966 44.138s-52.966-29.484-52.966-44.138 23.746-26.483 52.966-26.483 52.966 11.83 52.966 26.483z" fill="#2c2f38"/></svg>