<svg xmlns="http://www.w3.org/2000/svg" xmlns:xlink="http://www.w3.org/1999/xlink" viewBox="0 0 512 512"><path d="M494.345 196.83h-4.414c-2.648 0-6.18.883-8.828 1.766-5.297-22.952-15.007-44.138-29.13-62.676 15.007-.883 23.835-.883 23.835-.883.883-14.124-5.297-27.366-17.655-35.3-10.593 3.53-20.303 7.062-30.014 10.593-14.124-13.24-30.014-24.717-47.67-33.545l2.648-17.655c1.766-7.945-6.18-18.538-18.538-23.834s-23.835-4.414-29.13 1.766L316.9 52.94c-41.5-8.828-84.745-8.828-126.235.883l-20.303-16.772c-5.297-6.18-17.655-7.062-29.13-1.766-12.36 5.297-20.303 15.9-18.538 23.834l3.53 20.303c-15.9 8.828-30.014 19.42-43.255 31.78-9.7-3.53-19.42-7.062-30.014-11.476-12.36 7.945-18.538 21.186-17.655 35.3 0 0 9.7 0 23.834.883-14.124 19.42-23.834 40.607-29.13 63.56-2.648-1.766-5.297-2.648-8.828-1.766h-3.53C7.945 197.71 0 205.656 0 215.366v35.3c0 9.7 7.945 17.655 17.655 17.655h4.414c2.648 0 6.18-.883 8.828-1.766 11.476 44.138 38.84 82.98 76.8 107.697h-7.062c-5.297 0-11.476 2.648-14.124 7.062-3.53 4.414-4.414 10.593-2.648 15.9 17.655 47.67 88.276 82.98 172.138 82.98s154.483-35.3 172.138-82.98c1.766-5.297.883-11.476-2.648-15.9s-8.828-7.062-14.124-7.062h-7.062c38.84-24.717 66.207-63.56 76.8-107.697 2.648 1.766 5.297 2.648 8.828 1.766h4.414c9.7 0 17.655-7.945 17.655-17.655v-35.3c-.002-10.593-7.947-18.537-17.657-18.537z" fill="#894b9d"/><path d="M481.986 199.477c-5.297-22.952-15.007-44.138-29.13-62.676-41.5 3.53-127.117 17.655-179.2 69.738 0 0 30.897-45.903 155.365-95.338-14.124-13.24-30.014-24.717-47.67-33.545l-1.766 14.124v2.648c0 .883 0 1.766-.883 2.648-5.297 11.476-24.717 13.24-45.02 4.414s-32.662-24.717-27.365-36.193c0-1.766.883-3.53 2.648-4.414l7.945-7.062c-41.5-8.828-84.745-8.828-126.235.883l7.062 6.18c1.766 1.766 2.648 3.53 3.53 5.297 4.414 11.476-7.945 27.366-27.365 36.193-20.303 8.828-40.607 7.062-45.02-4.414 0-.883-.883-1.766-.883-2.648v-2.648l-1.766-13.24c-15.9 8.828-30.014 19.42-43.255 31.78 124.47 48.552 155.366 94.455 155.366 94.455-52.083-52.083-137.7-65.324-179.2-69.738-14.124 19.42-23.834 40.607-29.13 63.56-5.297 22.07-5.297 44.138 0 66.207 11.476 44.138 38.84 82.98 76.8 107.697h297.5c38.84-24.717 66.207-63.56 76.8-107.697 5.298-22.07 5.298-45.02.884-66.207zm-367.227 41.49c-9.7 0-17.655-7.945-17.655-17.655s7.945-17.655 17.655-17.655 17.655 7.945 17.655 17.655c0 4.414-1.766 8.828-5.297 12.36s-7.945 5.296-12.358 5.296zm44.138 0c-5.297 0-8.828-3.53-8.828-8.828s3.53-8.828 8.828-8.828 8.828 3.53 8.828 8.828c0 2.648-.883 4.414-2.648 6.18s-3.532 2.65-6.18 2.65zm194.206 0c-5.297 0-8.828-3.53-8.828-8.828s3.53-8.828 8.828-8.828 8.828 3.53 8.828 8.828c0 2.648-.883 4.414-2.648 6.18s-3.53 2.65-6.18 2.65zm44.138 0c-9.7 0-17.655-7.945-17.655-17.655s7.945-17.655 17.655-17.655 17.655 7.945 17.655 17.655c0 4.414-1.766 8.828-5.297 12.36s-7.944 5.296-12.358 5.296z" fill="#35495e"/><path d="M229.517 232.14c0 34.428-35.3 61.793-79.448 61.793s-79.45-27.367-79.45-61.793c0 0 0-35.3 17.655-52.966 0 0 79.448 0 141.24 52.966m52.968 0c0 34.428 35.3 61.793 79.448 61.793s79.448-27.366 79.448-61.793c0 0 0-35.3-17.655-52.966 0 0-79.448 0-141.24 52.966" fill="#ff5364"/><path d="M291.3 311.587c-10.593-.883-21.186-4.414-30.014-10.593-3.53-1.766-7.062-1.766-10.593 0-8.828 6.18-19.42 9.7-30.014 10.593-5.297 0-8.828-3.53-8.828-8.828s3.53-8.828 8.828-8.828c7.062-.883 14.124-3.53 20.303-7.945 8.828-6.18 21.186-6.18 30.014 0 6.18 4.414 13.24 7.062 20.303 7.945 4.414 0 8.828 4.414 8.828 8.828.001 5.297-4.413 8.828-8.827 8.828z" fill="#5e5f62"/><path d="M238.345 205.656c-52.083-52.083-137.7-65.324-179.2-69.738-14.124-.883-23.834-.883-23.834-.883-.883-14.124 5.297-27.366 17.655-35.3 10.593 3.53 20.303 7.062 30.014 10.593 124.468 49.435 155.365 95.338 155.365 95.338zm238.355-70.62s-8.828 0-23.835.883c-41.5 3.53-127.117 17.655-179.2 69.738 0 0 30.897-45.903 155.365-95.338l30.014-10.593c12.36 7.945 18.538 21.186 17.656 35.3z" fill="#955ba5"/><g fill="#2c2f38"><use xlink:href="#B"/><use xlink:href="#C"/><use xlink:href="#B" x="282.483"/><use xlink:href="#C" x="194.206"/></g><path d="M155.366 66.18c-14.124 6.18-28.248 3.53-31.78-4.414 0 0 0-.883-.883-.883-1.766-7.945 6.18-18.538 18.538-23.834s23.834-4.414 29.13 1.766c.883.883.883 1.766 1.766 2.648 4.413 7.062-3.532 19.42-16.773 24.717zM384 60c0 .883 0 .883-.883 1.766-3.53 6.18-10.593 8.828-17.655 7.945-2.648 0-5.297-.883-7.062-.883-1.766-.883-4.414-.883-6.18-1.766-3.53-1.766-6.18-3.53-9.7-5.297-7.062-4.414-10.593-12.36-8.828-20.303.883-.883.883-1.766 1.766-2.648 5.297-6.18 17.655-7.062 29.13-1.766C377.82 41.463 385.766 51.173 384 60z" fill="#95a5a5"/><path d="M384 60l-2.648 17.655-1.766 14.124v2.648c0 .883 0 1.766-.883 2.648-5.297 11.476-24.717 13.24-45.02 4.414s-32.662-24.717-27.365-36.193c0-1.766.883-3.53 2.648-4.414l7.945-7.062 18.538-15.9c-.883.883-.883 1.766-1.766 2.648-1.766 7.945 1.766 15.9 8.828 20.303 2.648 2.648 6.18 4.414 9.7 5.297 1.766.883 4.414 1.766 6.18 1.766 2.648.883 4.414.883 7.062.883 7.062 1.766 14.124-.883 17.655-7.062.001-.882.884-1.765.884-1.765z" fill="#5e5f62"/><path d="M26.483 232.14c0 11.476.883 22.07 3.53 33.545-2.648 1.766-5.297 2.648-8.828 1.766h-3.53C7.945 267.45 0 259.504 0 249.794v-35.3c0-9.7 7.945-17.655 17.655-17.655h4.414c2.648 0 6.18.883 8.828 1.766-3.53 11.475-4.414 22.95-4.414 33.544z" fill="#894b9d"/><path d="M173.903 101.49c-20.303 8.828-40.607 7.062-45.02-4.414 0-.883-.883-1.766-.883-2.648v-2.65l-1.766-12.36L123.585 60s0 .883.883.883c3.53 8.828 17.655 10.593 30.897 4.414s21.186-17.655 17.655-25.6c0-.883-.883-1.766-1.766-2.648l20.303 16.772L198.62 60c1.766 1.766 2.648 3.53 3.53 5.297 4.416 11.476-7.943 28.25-28.247 36.194z" fill="#5e5f62"/><path d="M512 214.484v35.3c0 9.7-7.945 17.655-17.655 17.655h-4.414c-2.648 0-6.18-.883-8.828-1.766 5.297-22.07 5.297-44.138 0-66.207 2.648-1.766 5.297-2.648 8.828-1.766h4.414c9.7-.88 17.655 7.063 17.655 16.774z" fill="#894b9d"/><path d="M164.193 373.38l-15.007-30.014c-.883-1.766-2.648-3.53-5.297-4.414s-4.414-.883-7.062.883c-4.414 1.766-6.18 7.062-3.53 11.476l11.476 22.952h19.42v-.883zm54.73 0l-7.062-28.248c-.883-2.648-3.53-5.297-6.18-6.18s-6.18 0-8.828 1.766c-2.648 2.648-3.53 5.297-2.648 8.828l6.18 24.717h18.538v-.884zm148.304 0l11.476-22.952c1.766-4.414.883-9.7-3.53-11.476-1.766-.883-4.414-.883-7.062-.883-2.648.883-4.414 2.648-5.297 4.414l-15.007 30.014h19.42v.883zm-55.614 0l6.18-24.717c.883-2.648 0-6.18-2.648-8.828s-5.297-2.648-8.828-1.766c-2.648.883-5.297 3.53-6.18 6.18l-7.062 28.248h18.538v.884zm-46.786 0v-26.483c0-5.297-3.53-8.828-8.828-8.828s-8.828 3.53-8.828 8.828v26.483h17.656z" fill="#5e5f62"/><defs ><path id="B" d="M132.414 223.31c0 9.7-7.945 17.655-17.655 17.655s-17.655-7.945-17.655-17.655 7.945-17.655 17.655-17.655c4.414 0 8.828 1.766 12.36 5.297s5.296 7.945 5.296 12.358z"/><path id="C" d="M167.724 232.14c0 5.297-3.53 8.828-8.828 8.828s-8.828-3.53-8.828-8.828 3.53-8.828 8.828-8.828c2.648 0 4.414.883 6.18 2.648s2.65 4.414 2.65 6.18z"/></defs></svg>