<svg xmlns="http://www.w3.org/2000/svg" viewBox="0 0 512.004 512.004"><path d="M256.002 397.245H194.21v75.59h123.586v-75.59z" fill="#f0c419"/><path d="M47.67 430.795c-3.8-.002-7.173-2.434-8.375-6.04a34.14 34.14 0 0 1 7.651-36.62 43.32 43.32 0 0 1 15.586-9.858 8.83 8.83 0 0 1 11.471 10.11 8.83 8.83 0 0 1-5.837 6.623c-5 1.303-9.216 4.704-11.537 9.332a17.97 17.97 0 0 0-.583 14.827 8.84 8.84 0 0 1-8.376 11.625zm63.56 0a8.84 8.84 0 0 1-7.159-3.672c-1.66-2.302-2.1-5.26-1.216-7.953a18.23 18.23 0 0 0-.691-14.745 18.26 18.26 0 0 0-11.383-9.398c-2.992-.998-5.225-3.516-5.856-6.606a8.83 8.83 0 0 1 11.443-10.144 43.31 43.31 0 0 1 15.586 9.858 34.14 34.14 0 0 1 7.651 36.621c-1.203 3.605-4.575 6.037-8.375 6.04zm353.103 0a8.84 8.84 0 0 1-7.159-3.672c-1.66-2.302-2.1-5.26-1.216-7.953a18.23 18.23 0 0 0-.691-14.745 18.26 18.26 0 0 0-11.383-9.398 8.83 8.83 0 0 1-5.582-11.168 8.83 8.83 0 0 1 11.168-5.582 43.31 43.31 0 0 1 15.586 9.858 34.14 34.14 0 0 1 7.651 36.621 8.83 8.83 0 0 1-8.374 6.039zm-63.56 0c-3.8-.002-7.173-2.434-8.375-6.04a34.14 34.14 0 0 1 7.651-36.62 43.31 43.31 0 0 1 15.586-9.858 8.83 8.83 0 0 1 11.183 5.55 8.83 8.83 0 0 1-5.55 11.183c-5 1.303-9.216 4.704-11.537 9.332a17.97 17.97 0 0 0-.583 14.827 8.84 8.84 0 0 1-8.375 11.625z" fill="#8697cb"/><path d="M432.554 379.6a8.83 8.83 0 0 1-8.828-8.828v-52.966c-.016-14.62-11.863-26.467-26.483-26.483H114.76c-14.62.016-26.467 11.863-26.483 26.483v52.966a8.83 8.83 0 0 1-8.828 8.828 8.83 8.83 0 0 1-8.828-8.828v-52.966c.03-24.365 19.773-44.11 44.138-44.138h282.483c24.365.03 44.11 19.773 44.138 44.138v52.966a8.83 8.83 0 0 1-8.827 8.828z" fill="#f0c419"/><path d="M176.554 220.694H335.45v176.552a17.66 17.66 0 0 1-17.655 17.655H194.21a17.66 17.66 0 0 1-17.655-17.655V220.694z" fill="#7d6599"/><path d="M176.554 344.28H335.45v35.3H176.554z" fill="#8697cb"/><path d="M317.795 467.866v44.138h-26.483c-19.483-.045-35.265-15.828-35.3-35.3-.045 19.483-15.828 35.265-35.3 35.3H194.21v-44.138h123.586z" fill="#7d6599"/><circle cx="286.899" cy="295.728" r="13.241" fill="#f0c419"/><g fill="#7d6599"><circle cx="79.45" cy="379.59" r="17.655"/><circle cx="432.554" cy="379.59" r="17.655"/></g><path d="M247.174 414.9h17.655v52.966h-17.655z" fill="#f29c1f"/><path d="M397.243 132.418c24.377 0 44.138 19.76 44.138 44.138s-19.76 44.138-44.138 44.138H114.76c-24.377 0-44.138-19.76-44.138-44.138s19.76-44.138 44.138-44.138h282.482z" fill="#f0c419"/><path d="M397.243 141.245A141.25 141.25 0 0 0 353.43 38.986C325.452 12.328 287.774-1.7 249.174.165 173.206 3.742 114.76 69.182 114.76 145.234v66.632c0 19.5 15.81 35.3 35.3 35.3h211.862c19.5 0 35.3-15.81 35.3-35.3v-70.62z" fill="#8697cb"/><path d="M353.105 123.6a96.69 96.69 0 0 1-17.567 55.702 91.64 91.64 0 0 1-12.005 14.036c-37.628 36.488-97.434 36.488-135.062 0a91.59 91.59 0 0 1-12.006-14.036c-24.013-34.288-23.35-80.106 1.646-113.684s68.696-47.36 108.433-34.193 66.562 50.315 66.56 92.175z" fill="#e6e7e8"/><path d="M256.002 185.383a61.83 61.83 0 0 1-60.349-48.261c-6.347-28.225 7.73-57.078 33.88-69.45s57.386-4.952 75.18 17.857 17.394 54.9-.968 77.267c-11.688 14.35-29.236 22.652-47.745 22.586z" fill="#4482c3"/><path d="M256.002 141.245c-5.233.076-10.212-2.25-13.513-6.3a17.27 17.27 0 0 1-4.142-11.345c0-9.75 7.904-17.655 17.655-17.655s17.655 7.904 17.655 17.655c.053 4.094-1.375 8.07-4.022 11.194a17.3 17.3 0 0 1-13.633 6.461z" fill="#2c3e50"/></svg>