<svg xmlns="http://www.w3.org/2000/svg" viewBox="0 0 512 512"><g fill="#d1d4d1"><path d="M410.13 302.6l-13.33-11.564a35.35 35.35 0 0 0-43.697-1.942v-6.62h-1.236c23.178-.006 45.198-10.13 60.292-27.72l2.825-3.266c16.583-19.353 22.886-45.482 16.95-70.268l-9.357-38.93-19.51-81.4C394.472 25.172 362.497-.014 325.74 0H186.263c-36.758-.013-68.732 25.172-77.33 60.9L80.068 181.23c-5.937 24.785.366 50.914 16.95 70.268l2.825 3.266a79.48 79.48 0 0 0 60.292 27.719h-1.236v6.62c-13.265-9.527-31.33-8.724-43.697 1.942L101.87 302.6l-40.077 34.604C70.964 347.857 84 354.415 98 355.442a52.89 52.89 0 0 0 38.476-12.755l22.422-19.332v20.392c-.01 6.137 1.605 12.167 4.68 17.48l25.512 44.756a17.62 17.62 0 0 0 15.36 8.916h-1.412v17.655c-.028 13.947 10.8 25.508 24.717 26.394v.088S199.506 485.518 256.002 512c54.466-25.512 30.2-51.023 28.337-52.877l.177-.177a26.42 26.42 0 0 0 24.452-26.394v-17.655h-1.324a17.48 17.48 0 0 0 15.272-8.916l25.512-44.756c3.073-5.312 4.687-11.342 4.68-17.48v-20.392l22.422 19.332c10.622 9.194 24.465 13.784 38.476 12.757s27.037-7.586 36.205-18.23L410.13 302.6z"/><path d="M158.895 289.103v34.25l-22.422 19.332a52.89 52.89 0 0 1-74.681-5.473l40.077-34.604 13.33-11.564c12.366-10.665 30.43-11.468 43.696-1.942zm291.3 48.11A52.88 52.88 0 0 1 414 355.444a52.89 52.89 0 0 1-38.476-12.757l-22.422-19.332v-34.25a35.35 35.35 0 0 1 43.697 1.942l13.33 11.564 40.076 34.604z"/></g><path d="M422.575 142.3c-3.1 32.486-15.537 96.044-64.088 96.044-65.236 0-46.6-17.655-102.488-17.655s-37.252 17.655-102.488 17.655c-48.552 0-61-63.56-64.088-96.044v-.088l19.51-81.302C117.528 25.172 149.503-.014 186.26 0h139.476c36.758-.014 68.733 25.172 77.33 60.9l19.51 81.39z" fill="#2c2f38"/><path d="M353.102 282.483v61.263c.01 6.137-1.605 12.167-4.68 17.48L322.91 405.98c-3.1 5.518-8.942 8.93-15.272 8.916H204.445a17.62 17.62 0 0 1-15.36-8.916l-25.512-44.756c-3.073-5.312-4.687-11.342-4.68-17.48v-61.263h194.208z" fill="#95a5a5"/><path d="M308.964 414.897v17.655a26.42 26.42 0 0 1-24.452 26.395h-.265a11.84 11.84 0 0 1-1.766.088h-52.966c-.6.015-1.18-.015-1.766-.088-13.918-.886-24.745-12.448-24.717-26.395v-17.655h105.932z" fill="#d1d4d1"/><path d="M255.998 512c-56.497-26.483-28.248-52.966-28.248-52.966v-.088a11.84 11.84 0 0 0 1.766.088h52.966c.6.015 1.18-.015 1.766-.088h.265l-.177.177c1.853 1.854 26.128 27.365-28.338 52.877z" fill="#cc4b4c"/><path d="M158.895 289.103v34.25l-22.422 19.332-34.604-40.077 13.33-11.564c12.366-10.665 30.43-11.468 43.696-1.942z" fill="#a5a5a4"/><g fill="#7f8c8d"><path d="M264.826 282.483v35.3a8.83 8.83 0 0 1-8.828 8.828 8.83 8.83 0 0 1-8.828-8.828v-35.3h17.656zm0 88.277v44.138H247.17V370.76a8.83 8.83 0 0 1 8.828-8.828 8.83 8.83 0 0 1 8.827 8.828zm61.794-88.277v52.966a35.24 35.24 0 0 1-26.483 34.163 32.33 32.33 0 0 1-8.828 1.148h-15.625a8.83 8.83 0 0 1-8.828-8.828 8.83 8.83 0 0 1 8.828-8.828h15.625a17.71 17.71 0 0 0 17.655-17.655v-52.966h17.656zm-81.48 79.447c-.015 4.87-3.958 8.813-8.828 8.828h-15.625c-2.98.027-5.952-.36-8.828-1.148a35.24 35.24 0 0 1-26.483-34.163V282.48h17.655v52.966a17.71 17.71 0 0 0 17.655 17.655h15.625a8.86 8.86 0 0 1 8.83 8.828z"/><path d="M300.136 361.93v52.966H282.48V370.76h-6.797a8.83 8.83 0 0 1-8.828-8.828 8.83 8.83 0 0 1 8.828-8.828h15.625c4.87.015 8.813 3.96 8.827 8.828zm-54.996 0c-.015 4.87-3.958 8.813-8.828 8.828h-6.797v44.138H211.86V361.93c.015-4.87 3.958-8.813 8.828-8.828h15.625c4.87.015 8.813 3.96 8.827 8.828z"/></g><path d="M255.998 379.586c-19.5 0-35.3-15.81-35.3-35.3s15.81-35.3 35.3-35.3 35.3 15.81 35.3 35.3c-.022 19.492-15.818 35.288-35.3 35.3zm0-52.965a17.66 17.66 0 0 0-17.655 17.655 17.66 17.66 0 0 0 17.655 17.655c9.75 0 17.655-7.904 17.655-17.655-.01-9.747-7.908-17.646-17.655-17.655z" fill="#d1d4d1"/><path d="M410.128 302.6l-34.604 40.077-22.422-19.332v-34.25a35.35 35.35 0 0 1 43.697 1.942l13.33 11.564z" fill="#a5a5a4"/><path d="M155.408 64.608c-3.06-.004-5.898-1.596-7.5-4.204s-1.733-5.86-.35-8.59c.638-1.246 16.073-30.466 56.797-24.272a8.83 8.83 0 0 1 7.388 10.049A8.83 8.83 0 0 1 201.71 45c-27.845-4.254-38.052 14.142-38.47 14.927a8.9 8.9 0 0 1-7.832 4.681z" fill="#f0785a"/><path d="M220.688 105.93a8.83 8.83 0 0 1-8.828-8.828c0-9.75-7.904-17.655-17.655-17.655s-17.655 7.904-17.655 17.655a8.83 8.83 0 0 1-8.828 8.828 8.83 8.83 0 0 1-8.828-8.828c0-19.5 15.81-35.3 35.3-35.3s35.3 15.81 35.3 35.3c0 2.34-.93 4.587-2.586 6.242s-3.9 2.586-6.24 2.586z" fill="#2fa8cc"/><path d="M356.584 64.44a8.83 8.83 0 0 1-7.832-4.741c-.496-.905-10.76-19.116-38.465-14.918a8.83 8.83 0 0 1-10.035-7.408 8.83 8.83 0 0 1 7.388-10.049c40.72-6.224 56.155 23.026 56.797 24.272a8.83 8.83 0 0 1-.328 8.623 8.82 8.82 0 0 1-7.525 4.221z" fill="#f0785a"/><path d="M344.274 105.71a8.83 8.83 0 0 1-8.828-8.828c0-9.75-7.904-17.655-17.655-17.655s-17.655 7.904-17.655 17.655a8.83 8.83 0 0 1-8.828 8.828 8.83 8.83 0 0 1-8.828-8.828c0-19.5 15.81-35.3 35.3-35.3s35.3 15.81 35.3 35.3c.002 4.876-3.95 8.828-8.826 8.828z" fill="#2fa8cc"/><path d="M316.466 132.414a10.19 10.19 0 0 1 8.51 13.313c-6.958 27.73-35.198 48.48-68.977 48.48s-62.02-20.752-68.978-48.48a10.19 10.19 0 0 1 8.51-13.312h120.935z" fill="#f0c419"/></svg>