<svg xmlns="http://www.w3.org/2000/svg" viewBox="0 0 512 512"><path d="M478.2 219.807l-27.983-16.772h-.088l.088-17.655c0-97.103-70.62-123.586-70.62-123.586C335.448 0 256 0 256 0s-79.448 0-123.586 61.793c0 0-70.62 26.483-70.62 123.586l.088 17.655h-.088L33.8 219.807a26.62 26.62 0 0 0-12.27 28.16l27.807 132.15a26.56 26.56 0 0 0 20.745 20.568l23.658 4.68 1.59 18.008c1.133 12.073 6.44 23.374 15.007 31.956 18.008 18.097 51.377 47.934 80.508 55.084h.088A49.02 49.02 0 0 0 203.036 512h105.93c4.082-.024 8.144-.558 12.094-1.59h.088c29.13-7.15 62.5-36.988 80.508-55.085 8.567-8.582 13.874-19.883 15.007-31.956l1.59-18.008 23.658-4.68a26.56 26.56 0 0 0 20.745-20.568l27.807-132.15a26.63 26.63 0 0 0-12.273-28.159z" fill="#35495e"/><path d="M97.103 185.38l8.386 167.636-17.125-4.325a26.34 26.34 0 0 1-19.95-22.863c-2.295-22.863-5.914-65.766-6.532-122.792l-.088-17.655c0-97.103 70.62-123.586 70.62-123.586-26.14 35.662-38.663 79.496-35.312 123.585z" fill="#bdc3c7"/><path d="M93.75 405.363l-23.658-4.68a26.56 26.56 0 0 1-20.745-20.568L21.54 247.967a26.62 26.62 0 0 1 12.27-28.16l27.983-16.772h.088c.618 57.026 4.237 99.928 6.532 122.792a26.34 26.34 0 0 0 19.95 22.863l.353.088 5.034 56.585z" fill="#7f8c8d"/><path d="M423.283 348.777l-6.62 74.593c-1.133 12.073-6.44 23.374-15.007 31.956-18.008 18.097-51.377 47.934-80.508 55.084h-.088a49.02 49.02 0 0 1-12.094 1.589h-105.93c-4.082-.024-8.144-.558-12.094-1.59h-.088c-29.13-7.15-62.5-36.988-80.508-55.085-8.567-8.582-13.874-19.883-15.007-31.956l-6.62-74.593 16.772 4.237.44 8.916s0 26.483 44.138 44.138S256 423.724 256 423.724s61.793 0 105.93-17.655 44.138-44.138 44.138-44.138l.44-8.916 16.773-4.238z" fill="#95a5a5"/><path d="M450.207 185.38l-.088 17.655c-.618 57.026-4.237 99.928-6.532 122.792a26.34 26.34 0 0 1-19.95 22.863l-.353.088-16.772 4.237 8.386-167.636a185.3 185.3 0 0 0-35.31-123.586c-.002.001 70.62 26.484 70.62 123.587z" fill="#bdc3c7"/><path d="M490.46 247.967l-27.807 132.15a26.56 26.56 0 0 1-20.745 20.568l-23.658 4.68 5.032-56.585.353-.088a26.34 26.34 0 0 0 19.95-22.863c2.295-22.863 5.914-65.766 6.532-122.792h.088l27.983 16.772a26.62 26.62 0 0 1 12.272 28.16zM209.655 512h-6.62a48.98 48.98 0 0 1-12.094-1.59h-.088l-13.948-48.993c-1.287-4.67 1.44-9.502 6.104-10.813s9.5 1.4 10.845 6.047l15.8 55.35zm125.44-50.582l-13.948 48.993h-.088A49.02 49.02 0 0 1 308.965 512h-6.62l15.8-55.35c1.336-4.656 6.182-7.358 10.845-6.047s7.392 6.144 6.105 10.814z" fill="#7f8c8d"/><path d="M256 370.76c-2.952.028-5.72-1.436-7.358-3.892a8.75 8.75 0 0 1-.767-8.29 7.98 7.98 0 0 1 4.767-4.767c1.6-.707 3.4-.894 5.12-.535.553.1 1.1.28 1.6.535.543.173 1.05.44 1.5.793a8.64 8.64 0 0 1 1.414 1.06 9.17 9.17 0 0 1 1.854 2.914 8.73 8.73 0 0 1-1.854 9.621c-.86.78-1.844 1.406-2.914 1.854-1.06.452-2.2.692-3.354.706zm-17.655 26.48c-2.348.022-4.606-.9-6.268-2.56a10.24 10.24 0 0 1-1.858-2.914c-.5-1.048-.732-2.197-.702-3.354.013-1.153.25-2.292.703-3.353.427-1.08 1.058-2.07 1.857-2.914a8.81 8.81 0 0 1 9.621-1.854c2.217.804 3.963 2.55 4.767 4.767.943 2.136.943 4.57 0 6.707-.45 1.068-1.077 2.053-1.854 2.914a8.75 8.75 0 0 1-6.266 2.56zm35.3 0a8.83 8.83 0 0 1-3.358-.707 7.98 7.98 0 0 1-4.767-4.767c-.937-2.138-.937-4.57 0-6.707a9.08 9.08 0 0 1 1.857-2.914 8.84 8.84 0 0 1 9.621-1.854c2.217.804 3.963 2.55 4.767 4.767.943 2.136.943 4.57 0 6.707-.45 1.068-1.077 2.053-1.854 2.914-.86.78-1.844 1.406-2.914 1.854a8.82 8.82 0 0 1-3.352.707z" fill="#f0c419"/><path d="M189.793 217.933a26.96 26.96 0 0 1 40.886-8.992c10.222 8.992 10.222 26.976 0 44.96-7.155 13.488-25.553 26.976-40.885 35.968-15.332-8.992-33.73-22.48-40.886-35.968-10.22-17.984-10.22-35.968 0-44.96a26.96 26.96 0 0 1 40.885 8.992zm132.414 0a26.96 26.96 0 0 1 40.886-8.992c10.222 8.992 10.222 26.976 0 44.96-7.155 13.488-25.553 26.976-40.885 35.968-15.332-8.992-33.73-22.48-40.886-35.968-10.22-17.984-10.22-35.968 0-44.96a26.96 26.96 0 0 1 40.884 8.991z" fill="#ff5364"/></svg>