<svg xmlns="http://www.w3.org/2000/svg" viewBox="0 0 510.367 510.367"><g fill="#95a5a5"><path d="M422.908 166.09l40.604 40.604a8.83 8.83 0 0 1 2.322 8.383l-15.268 61.07a8.83 8.83 0 0 1-5.772 6.234l-48.368 16.123H113.942l-48.368-16.123c-2.863-.954-5.04-3.306-5.772-6.234l-15.268-61.07c-.752-3.008.13-6.2 2.322-8.383L87.46 166.09h335.448z"/><path d="M463.512 206.695l-40.604-40.603h-.598a177.16 177.16 0 0 0-16.969-65.324c-5.28-11.06-11.892-21.436-19.686-30.897-2.12-2.737-4.502-5.385-6.886-8.033a193.54 193.54 0 0 0-28.248-25.247 209.15 209.15 0 0 0-29.131-17.567 205.68 205.68 0 0 0-46.345-16.772c-13.04-3.002-26.594-3.002-39.636 0a212.19 212.19 0 0 0-46.433 16.684 215.43 215.43 0 0 0-28.954 17.479c-10.307 7.53-19.856 16.044-28.513 25.423-2.383 2.648-4.68 5.297-6.886 8.033-7.685 9.49-14.26 19.826-19.597 30.808a176.6 176.6 0 0 0-16.93 65.412h-.637l-40.604 40.603a8.83 8.83 0 0 0-2.322 8.383l15.268 61.07a8.83 8.83 0 0 0 5.772 6.234l48.37 16.123h1.177a42.13 42.13 0 0 0 7.474 8.828l27.72 86.422a18.88 18.88 0 0 0 13.948 12.27 42.89 42.89 0 0 1 5.297 1.589l-42.372 76.27v26.483h256v-26.483l-42.372-76.27a42.84 42.84 0 0 1 5.297-1.589c6.48-1.362 11.77-6.018 13.948-12.27l27.72-86.422a41.98 41.98 0 0 0 7.5-8.828h1.15l48.37-16.123c2.863-.954 5.04-3.306 5.772-6.234l15.268-61.07a8.84 8.84 0 0 0-2.325-8.382z"/></g><path d="M405.34 100.767c-5.28-11.06-11.892-21.436-19.686-30.897-2.12-2.737-4.502-5.385-6.886-8.033a193.54 193.54 0 0 0-28.248-25.247 209.15 209.15 0 0 0-29.131-17.567 205.68 205.68 0 0 0-46.345-16.772c-13.04-3.002-26.594-3.002-39.636 0a212.19 212.19 0 0 0-46.433 16.684 215.43 215.43 0 0 0-28.954 17.479c-10.307 7.53-19.856 16.044-28.513 25.423-2.383 2.648-4.68 5.297-6.886 8.033-7.685 9.49-14.26 19.826-19.597 30.808-12.675 27.02-18.67 56.7-17.48 86.5v1.766a231.98 231.98 0 0 0 3.972 38.93s10.417 61.793 31.073 79.448l27.72 86.422a18.88 18.88 0 0 0 13.948 12.27 42.89 42.89 0 0 1 5.297 1.589l-42.372 76.27v26.483h256v-26.483l-42.372-76.27a42.84 42.84 0 0 1 5.297-1.589c6.48-1.362 11.77-6.018 13.948-12.27l27.72-86.422c20.745-17.655 31.073-79.448 31.073-79.448 2.4-12.844 3.69-25.867 3.884-38.93-.034-.594.026-1.2.177-1.766a187.05 187.05 0 0 0-17.569-86.421z" fill="#bdc3c7"/><path d="M383.184 483.884v26.483h-44.138c-23.835 0-26.218-71.503-26.483-85.804.883-.794 1.766-1.677 2.737-2.472a75.1 75.1 0 0 1 25.512-14.477l42.372 76.27z" fill="#a5a5a4"/><path d="M339.046 510.367H171.322c23.923 0 26.218-71.768 26.394-85.892 17.832 16.596 19.862 32.31 57.468 32.84 37.517-.53 39.636-16.243 57.38-32.75.265 14.3 2.648 85.803 26.483 85.803z" fill="#7f8c8d"/><path d="M197.716 424.475c-.177 14.124-2.472 85.892-26.394 85.892h-44.138v-26.483l42.372-76.27c9.373 3.102 18.042 8.022 25.512 14.477.97.794 1.854 1.59 2.648 2.384z" fill="#a5a5a4"/><path d="M387.774 307.333l-27.72 86.422a18.88 18.88 0 0 1-13.948 12.27 42.89 42.89 0 0 0-5.297 1.589c-9.373 3.102-18.042 8.022-25.512 14.477-.97.794-1.854 1.677-2.737 2.472-17.743 16.508-19.862 32.22-57.38 32.75-37.606-.53-39.636-16.243-57.468-32.84-.794-.794-1.677-1.59-2.648-2.383a75.1 75.1 0 0 0-25.512-14.477 42.84 42.84 0 0 0-5.297-1.589c-6.48-1.362-11.77-6.018-13.948-12.27l-27.72-86.422 61.97 70.62h10.505l31.073-26.483h58.086l31.073 26.483h10.505l61.972-70.62z" fill="#d1d4d1"/><path d="M255.184 298.505c7.967 0 15.934-10.453 19.183-15.273a8.83 8.83 0 0 0 1.524-4.965V248.58c0-1.97-.66-3.885-1.874-5.438l-11.88-15.193c-1.673-2.14-4.238-3.4-6.954-3.4s-5.28 1.25-6.954 3.4l-11.88 15.193c-1.214 1.553-1.874 3.467-1.873 5.438v29.686c-.001 1.77.53 3.5 1.524 4.965 3.25 4.82 11.217 15.273 19.184 15.273z" fill="#95a5a5"/><path d="M405.34 100.767c-23.217-15.095-61.175-34.074-87.658-16.772-13.24 8.65-19.774 26.836-24.806 45.285a198.76 198.76 0 0 0-6.532 45.374c-1.542 15.825-15.285 27.622-31.16 26.748a33.39 33.39 0 0 1-21.098-7.239c-5.987-4.767-9.65-11.867-10.063-19.5a198.76 198.76 0 0 0-6.532-45.374c-5.032-18.45-11.564-36.634-24.806-45.285-26.483-17.4-64.44 1.5-87.658 16.684a160.21 160.21 0 0 1 19.597-30.809c24.63-10.858 53.672-16.508 77.683-.706 18.273 11.917 26.306 33.72 32.22 55.437a213.87 213.87 0 0 1 7.15 49.346 9.39 9.39 0 0 0 3.62 6.532 15.49 15.49 0 0 0 9.887 3.266c7.24 0 13.33-4.414 13.506-9.8a220.31 220.31 0 0 1 7.15-49.434c6.003-21.628 14.036-43.432 32.22-55.35 24-15.625 53.054-9.975 77.594.706 7.794 9.462 14.405 19.837 19.686 30.898zM350.522 36.6a71.82 71.82 0 0 0-13.683-1.324 65.03 65.03 0 0 0-41.401 14.654c-15.503 14-26.58 32.226-31.868 52.436a8.78 8.78 0 0 1-16.772 0 106.92 106.92 0 0 0-31.868-52.348 65.11 65.11 0 0 0-54.908-13.594c9.18-6.576 18.86-12.42 28.954-17.48a81.95 81.95 0 0 1 36.988 17.302c12.62 10.577 22.62 23.93 29.22 39.018 6.622-15.098 16.618-28.476 29.22-39.106a81.57 81.57 0 0 1 36.988-17.126c10.172 5.054 19.914 10.93 29.132 17.567zm-243.99 165.535c-2.748-.001-5.338-1.28-7-3.46s-2.233-5.015-1.52-7.668c4.022-14.94 20.263-48.875 83.87-41.517a8.83 8.83 0 0 1 7.1 5.26 8.83 8.83 0 0 1-9.134 12.274c-35.68-4.134-58.7 6-64.785 28.578a8.85 8.85 0 0 1-8.522 6.533zM293.68 342.647a8.84 8.84 0 0 1-8.478-11.311c7.93-27.103 31.215-26.517 48.207-26.086 10.767.276 20.94.53 27.02-4.642 2.402-2.044 5.712-2.65 8.683-1.6a8.83 8.83 0 0 1 2.757 15.04c-11.22 9.543-25.927 9.168-38.9 8.845-19.405-.53-27.052.53-30.8 13.392a8.84 8.84 0 0 1-8.471 6.353zm-76.677 0a8.84 8.84 0 0 1-8.47-6.353c-3.763-12.862-11.44-13.9-30.8-13.392-13 .32-27.694.698-38.9-8.845a8.83 8.83 0 0 1-1.004-12.444 8.83 8.83 0 0 1 12.444-1.004c6.078 5.172 16.26 4.918 27.02 4.642 17.004-.422 40.276-1.022 48.207 26.086a8.84 8.84 0 0 1-1.413 7.774c-1.667 2.225-4.286 3.534-7.066 3.536h0zm186.745-140.694a8.83 8.83 0 0 1-8.517-6.534c-3.513-13.013-16.603-33.987-64.698-28.397a8.83 8.83 0 0 1-8.103-3.5c-1.883-2.53-2.272-5.872-1.022-8.767s3.95-4.903 7.082-5.268c63.526-7.43 79.772 26.44 83.8 41.336a8.84 8.84 0 0 1-1.526 7.664 8.85 8.85 0 0 1-7.005 3.465z" fill="#527f72"/><path d="M237.528 377.953h35.31l17.655 17.655-26.483 26.483h-17.655l-26.483-26.483z" fill="#a5a5a4"/><path d="M192.85 207.067c-49.12-29.935-65.667 3.162-65.667 3.162s0 44.138 35.3 35.3c24.07-6.017 31.732-20.24 34.172-28.683a8.7 8.7 0 0 0-3.815-9.789z" fill="#46b29d"/><path d="M156.7 281.927a70.71 70.71 0 0 1-13.603-1.25 8.83 8.83 0 0 1-6.928-10.375 8.83 8.83 0 0 1 10.367-6.94c1.526.293 37.823 6.957 52.2-21.772a8.83 8.83 0 0 1 15.282-.933c1.74 2.64 1.934 6.007.51 8.83a62.04 62.04 0 0 1-57.819 32.44z" fill="#527f72"/><path d="M317.516 207.067c49.12-29.935 65.667 3.162 65.667 3.162s0 44.138-35.3 35.3c-24.07-6.017-31.732-20.24-34.172-28.683a8.7 8.7 0 0 1 3.815-9.789z" fill="#46b29d"/><path d="M353.658 281.927a62.03 62.03 0 0 1-57.819-32.44c-1.423-2.823-1.228-6.2.51-8.83a8.83 8.83 0 0 1 15.282.933c14.358 28.728 50.66 22.06 52.2 21.772a8.83 8.83 0 0 1 10.367 6.939 8.83 8.83 0 0 1-6.928 10.375 70.55 70.55 0 0 1-13.603 1.251z" fill="#527f72"/></svg>