<svg xmlns="http://www.w3.org/2000/svg" viewBox="0 0 512.014 512.014"><path d="M494.658 367.322a21.72 21.72 0 0 1 2.693 2.55 22.38 22.38 0 0 1 2.494 2.746c.618.652 1.154 1.376 1.596 2.158.2.098.2.196.3.294a8.09 8.09 0 0 1 .798 1.177 66.57 66.57 0 0 1 0 68.463 8.09 8.09 0 0 1-.798 1.177 20.26 20.26 0 0 1-1.895 2.452 21.43 21.43 0 0 1-2.494 2.746 32.76 32.76 0 0 1-2.693 2.55l7.88-8.926a8.09 8.09 0 0 1-.798 1.177 13.57 13.57 0 0 1-1.895 2.452c-.75.986-1.585 1.904-2.494 2.746a32.76 32.76 0 0 1-2.693 2.55c-31.12 26.1-126.18 45.12-238.594 45.12S48.59 479.726 17.47 453.636c-.898-.785-1.795-1.57-2.693-2.452-.616-.573-1.183-1.196-1.696-1.864-.2-.098-.3-.294-.4-.392l-1.197-1.47 5.985 6.18c-.898-.785-1.795-1.57-2.693-2.452-.616-.573-1.183-1.196-1.696-1.864-.2-.098-.3-.294-.4-.392l-1.197-1.47A61.13 61.13 0 0 1 .014 410.479c-.187-12.097 3.14-23.988 9.576-34.23a26.78 26.78 0 0 1 1.895-2.746 8.63 8.63 0 0 1 .798-.981 29.8 29.8 0 0 1 2.294-2.55c.89-.96 1.858-1.845 2.893-2.648h477.188z" fill="#7f8c8d"/><path d="M44.77 352.128c-9.804 3.66-19 8.78-27.277 15.183a20.78 20.78 0 0 0-2.913 2.648 33.34 33.34 0 0 0-2.295 2.56 9.34 9.34 0 0 0-.794.971 30.49 30.49 0 0 0-1.942 2.737c-1.803 2.92-2.78 6.278-2.825 9.7 0 15.625 21.716 29.837 57.91 40.96 45.727 13.86 114.494 22.775 191.47 22.775 76.888 0 145.655-8.916 191.382-22.775a171.78 171.78 0 0 0 38.93-16.419c12.27-7.592 18.98-15.8 18.98-24.54a18.96 18.96 0 0 0-2.825-9.71c-.265-.353-.53-.794-.794-1.148-.177-.088-.177-.177-.353-.265a9.3 9.3 0 0 0-1.589-2.207 24.76 24.76 0 0 0-2.472-2.737c-.825-.942-1.74-1.8-2.737-2.56-8.314-6.42-17.536-11.567-27.366-15.272l-422.488.1z" fill="#95a5a5"/><path d="M467.876 380.465c-6.18 2.472-12.977 4.943-20.392 7.15-45.727 13.948-114.494 22.863-191.382 22.863-76.977 0-145.743-8.916-191.47-22.863-7.503-2.295-14.3-4.68-20.48-7.24l.618-28.248c.53-14.036 1.412-27.454 2.648-40.342 17.655-186.438 103.106-259 158.985-286.808a110.88 110.88 0 0 1 99.222 0c55.88 27.807 141.33 100.37 158.985 286.808 1.236 12.888 2.12 26.306 2.648 40.254.353 9.18.53 18.715.618 28.425z" fill="#46b29d"/><path d="M195.11 123.25h-23.08c-3 .025-5.807-1.485-7.44-4.003s-1.868-5.696-.622-8.426c11.553-22.603 29.98-40.957 52.628-52.42a8.83 8.83 0 0 1 8.68.259c2.648 1.602 4.263 4.474 4.256 7.57v16c.026 3.26-1.775 6.262-4.665 7.773-10.57 5.01-18.317 14.518-21.088 25.882a8.95 8.95 0 0 1-8.667 7.368z" fill="#65ddb9"/><path d="M144.198 231.847a99.65 99.65 0 0 1 57.223 16.364 17.68 17.68 0 0 0 17.94 1.648c5.832-2.767 9.694-8.492 10.074-14.936.063-1.018.095-2.043.096-3.076-1.267-30.45-26.927-54.135-57.38-52.966a54.95 54.95 0 0 0-57.243 56.668c9.563-2.483 19.406-3.727 29.288-3.702zm223.632 0a99.65 99.65 0 0 0-57.223 16.364 17.68 17.68 0 0 1-17.94 1.648c-5.832-2.767-9.694-8.492-10.074-14.936-.063-1.018-.095-2.043-.096-3.076 1.267-30.45 26.927-54.135 57.38-52.966a54.95 54.95 0 0 1 57.243 56.668c-9.563-2.483-19.406-3.727-29.288-3.702z" fill="#547580"/><path d="M167.738 286.893H344.3c14.626 0 26.483 11.857 26.483 26.483v35.3c0 14.626-11.857 26.483-26.483 26.483H167.738c-14.626 0-26.483-11.857-26.483-26.483v-35.3c0-14.627 11.857-26.483 26.483-26.483z" fill="#e4c05c"/><path d="M370.773 322.203v17.655h-88.276a9.12 9.12 0 0 1-6.268-2.56l-2.56-2.648-20.215 20.303c-3.48 3.414-9.054 3.414-12.535 0l-29.043-29.13-11.388 11.476c-1.683 1.626-3.927 2.543-6.268 2.56h-52.966v-17.655H190.6l15.007-15.095a8.9 8.9 0 0 1 12.535 0l29.043 29.13 20.215-20.303a8.9 8.9 0 0 1 12.535 0l6.18 6.268h84.66z" fill="#f9eab0"/></svg>