<svg xmlns="http://www.w3.org/2000/svg" viewBox="0 0 512 512"><path d="M504.938 231.98l-22.422-16.86a237.06 237.06 0 0 0-5.826-21.981 197.12 197.12 0 0 0-19.597-43.167C478.81 85.354 441.38 25.415 441.38 25.415 391.063 7.23 347.808 29.83 322.826 48.808c-15.013-5.267-30.382-9.456-45.992-12.535a107.9 107.9 0 0 0-41.666 0c-15.61 3.08-30.98 7.268-45.992 12.535C164.193 29.83 120.938 7.23 70.62 25.416c0 0-37.43 59.94-15.713 124.557a197.12 197.12 0 0 0-19.597 43.167c-2.295 7.24-4.237 14.654-5.826 21.98L7.062 231.98A17.77 17.77 0 0 0 0 246.105v44.138a17.77 17.77 0 0 0 7.062 14.124L30.896 322.2v.088c.618 2.648 1.324 5.297 2.03 7.857 24.806 87.834 100.37 159.514 214.246 162.957l8.828.177c3 0 5.914-.088 8.828-.177 117.32-3.62 193.942-79.36 216.276-170.814v-.088l23.834-17.832A17.77 17.77 0 0 0 512 290.243v-44.138c-.018-5.552-2.63-10.778-7.062-14.124z" fill="#804169"/><path d="M274.803 430.955c-.088-.088-.088-.088-.177-.088" fill="none" stroke="#000" stroke-width="2" stroke-linecap="round" stroke-linejoin="round"/><path d="M482.516 215.12a237.06 237.06 0 0 0-5.826-21.981 197.12 197.12 0 0 0-19.597-43.167C478.81 85.355 441.38 25.416 441.38 25.416 391.063 7.23 347.808 29.83 322.826 48.81c-15.013-5.267-30.382-9.456-45.992-12.535a107.9 107.9 0 0 0-41.666 0c-15.61 3.08-30.98 7.268-45.992 12.535C164.193 29.83 120.938 7.23 70.62 25.416c0 0-37.43 59.94-15.713 124.557a197.12 197.12 0 0 0-19.597 43.167c-2.295 7.24-4.237 14.654-5.826 21.98-7.665 35.337-7.182 71.956 1.412 107.08v.088c.618 2.648 1.324 5.297 2.03 7.857 24.806 87.834 100.37 159.514 214.246 162.957l8.828.177c3 0 5.914-.088 8.828-.177 117.32-3.62 193.942-79.36 216.276-170.814v-.088c.265-.883.53-1.854.706-2.737 7.916-34.304 8.157-69.934.705-104.342zM361.93 387.347c-3-.794-5.914-1.59-8.828-2.648v.088c.088 18.715-5.65 70.71-78.3 46.168l-9.975 5.032-4.855 2.383c-2.504 1.236-5.44 1.236-7.945 0l-4.855-2.383-10.152-5.12c-72.828 24.717-78.566-27.366-78.477-46.08-2.78 1-5.607 1.853-8.474 2.56-35.3 8.828-88.276-26.483-88.276-105.93a81.59 81.59 0 0 1 18.979-53.937 83.94 83.94 0 0 1 58.174-30.19c23.305-1.324 45.286 7.768 67.178 14.566 10.063 3.1 20.04 6.444 30.014 9.887a62.43 62.43 0 0 0 39.724 0l30.014-9.887c21.892-6.797 43.873-15.9 67.178-14.566a83.94 83.94 0 0 1 58.174 30.19 81.59 81.59 0 0 1 18.979 53.937c0 79.448-52.966 114.758-88.276 105.93z" fill="#95a5a5"/><path d="M353.103 384.7v.088c.088 18.715-5.65 70.71-78.3 46.168l11.652-5.826c2.993-1.515 4.873-4.59 4.855-7.945v-15.272a9.12 9.12 0 0 0-5.65-8.298 88.22 88.22 0 0 0-29.661-6.268c-10.175.362-20.2 2.482-29.66 6.268a9.12 9.12 0 0 0-5.65 8.298v15.272c-.017 3.354 1.862 6.43 4.855 7.945l11.476 5.738c-72.828 24.717-78.566-27.366-78.477-46.08 31.25-10.417 56.938-32.75 97.457-32.75 40.344-.001 66.032 22.157 97.105 32.662z" fill="#3f5c6c"/><path d="M431.228 227.48a83.94 83.94 0 0 0-58.174-30.19c-23.305-1.324-45.285 7.768-67.178 14.566-10.063 3.1-20.04 6.444-30.014 9.887a62.43 62.43 0 0 1-39.724 0l-30.014-9.887c-21.892-6.797-43.873-15.9-67.178-14.566a83.94 83.94 0 0 0-58.174 30.19 81.59 81.59 0 0 0-18.979 53.937c0 79.448 52.966 114.76 88.276 105.93 2.867-.707 5.696-1.56 8.474-2.56 31.25-10.417 56.938-32.75 97.457-32.75 40.342 0 66.03 22.157 97.103 32.662 2.913 1.06 5.826 1.854 8.828 2.648 35.3 8.828 88.276-26.483 88.276-105.93a81.59 81.59 0 0 0-18.979-53.937z" fill="#2c3e50"/><path d="M185.07 92.55c-1.612-1.85-34-38.457-76.828-38.457a74.31 74.31 0 0 0-13.198 1.181c-8.12 18.703-20.43 58.065-1.664 95.6M326.93 92.55c1.612-1.85 34-38.457 76.828-38.457a74.31 74.31 0 0 1 13.198 1.181c8.12 18.703 20.43 58.065 1.664 95.6" fill="#556080"/><path d="M291.3 401.912v15.272c.017 3.354-1.862 6.43-4.855 7.945l-11.652 5.826-9.975 5.032h-.177l-4.68 2.383c-2.504 1.236-5.44 1.236-7.945 0l-4.767-2.383h-.088l-10.152-5.12-11.476-5.738c-2.993-1.515-4.873-4.59-4.855-7.945v-15.272a9.12 9.12 0 0 1 5.65-8.298A88.22 88.22 0 0 1 256 387.346c10.175.362 20.2 2.482 29.66 6.268a9.12 9.12 0 0 1 5.649 8.298z" fill="#ff5364"/><path d="M264.828 435.987v57.115l-8.828.177c-3 0-5.914-.088-8.828-.177v-57.115h.088l4.767 2.383c2.504 1.236 5.44 1.236 7.945 0l4.68-2.383h.177z" fill="#2c3e50"/><path d="M404.392 289.802c-2.03 15.095-14.566 34.163-25.865 47.845-17.48-3.1-39.46-9.357-50.847-19.597-15.8-13.33-21.98-30.2-15.537-42.108a26.97 26.97 0 0 1 19.378-12.755 26.96 26.96 0 0 1 22.112 7.017 26.93 26.93 0 0 1 12.222-19.7 26.92 26.92 0 0 1 23-2.9c12.712 4.856 18.9 21.717 15.537 42.197zM184.32 318.05c-11.388 10.24-33.368 16.508-50.847 19.597-11.3-13.683-23.834-32.75-25.865-47.845-3.354-20.48 2.825-37.34 15.537-42.196a26.93 26.93 0 0 1 23 2.9c6.837 4.386 11.328 11.625 12.222 19.7 5.936-5.552 14.06-8.13 22.112-7.017a26.97 26.97 0 0 1 19.378 12.755c6.444 11.917.264 28.778-15.537 42.107z" fill="#ff5364"/></svg>